<?xml version="1.0" encoding="UTF-8" standalone="no"?>
<svg
   xmlns:dc="http://purl.org/dc/elements/1.1/"
   xmlns:cc="http://creativecommons.org/ns#"
   xmlns:rdf="http://www.w3.org/1999/02/22-rdf-syntax-ns#"
   xmlns:svg="http://www.w3.org/2000/svg"
   xmlns="http://www.w3.org/2000/svg"
   xmlns:xlink="http://www.w3.org/1999/xlink"
   width="3840"
   height="2160"
   viewBox="0 0 1016 571.50002"
   version="1.1"
   id="svg8">
  <defs
     id="defs2">
    <linearGradient
       id="linearGradient9764">
      <stop
         style="stop-color:#4aaee6;stop-opacity:1"
         offset="0"
         id="stop9760" />
      <stop
         style="stop-color:#8c42ab;stop-opacity:1"
         offset="1"
         id="stop9762" />
    </linearGradient>
    <linearGradient
       id="linearGradient2152"
       x1="2665.5762"
       x2="2350.8162"
       y1="554.22522"
       y2="-98.463295"
       gradientTransform="translate(-1989.8,93.019005)"
       gradientUnits="userSpaceOnUse">
      <stop
         stop-color="#316fd8"
         style="stop-color:#2656a8"
         offset="0"
         id="stop2148" />
      <stop
         stop-color="#23bac2"
         style="stop-color:#198388;stop-opacity:1"
         offset="1"
         id="stop2150" />
    </linearGradient>
    <linearGradient
       id="k"
       x1="2665.5762"
       x2="2350.8162"
       y1="554.22522"
       y2="-98.463295"
       gradientTransform="translate(-1989.8,93.019005)"
       gradientUnits="userSpaceOnUse">
      <stop
         stop-color="#316fd8"
         style="stop-color:#2656a8"
         offset="0"
         id="stop7" />
      <stop
         stop-color="#23bac2"
         style="stop-color:#23bac2"
         offset="1"
         id="stop9" />
    </linearGradient>
    <linearGradient
       xlink:href="#k"
       id="linearGradient898"
       x1="315.02121"
       y1="253.48701"
       x2="-3.4572084"
       y2="253.48701"
       gradientUnits="userSpaceOnUse" />
    <linearGradient
       xlink:href="#k"
       id="linearGradient1368"
       x1="783.09674"
       y1="610.10309"
       x2="476.56461"
       y2="-66.081886"
       gradientUnits="userSpaceOnUse" />
    <linearGradient
       xlink:href="#k"
       id="linearGradient1378"
       gradientUnits="userSpaceOnUse"
       x1="345.28842"
       y1="191.64471"
       x2="-3.4572084"
       y2="253.48701" />
    <linearGradient
       xlink:href="#k"
       id="linearGradient1470"
       gradientUnits="userSpaceOnUse"
       x1="315.02121"
       y1="253.48701"
       x2="-3.4572084"
       y2="253.48701" />
    <linearGradient
       xlink:href="#linearGradient2152"
       id="linearGradient1472"
       gradientUnits="userSpaceOnUse"
       x1="315.02121"
       y1="253.48701"
       x2="-3.4572084"
       y2="253.48701" />
    <filter
       style="color-interpolation-filters:sRGB"
       id="filter2140"
       x="-0.12558369"
       width="1.2511674"
       y="-0.10875867"
       height="1.2175173">
      <feGaussianBlur
         stdDeviation="14.811881"
         id="feGaussianBlur2142" />
    </filter>
    <filter
       style="color-interpolation-filters:sRGB"
       id="filter2144"
       x="-0.10725184"
       width="1.2145037"
       y="-0.12384376"
       height="1.2476875">
      <feGaussianBlur
         stdDeviation="14.606666"
         id="feGaussianBlur2146" />
    </filter>
    <filter
       style="color-interpolation-filters:sRGB"
       id="filter2396"
       x="-0.10076537"
       width="1.2015307"
       y="-0.11635383"
       height="1.2327077">
      <feGaussianBlur
         stdDeviation="13.723271"
         id="feGaussianBlur2398" />
    </filter>
    <filter
       style="color-interpolation-filters:sRGB"
       id="filter5103"
       x="-0.041845713"
       width="1.0836914"
       y="-0.056276659"
       height="1.1125533">
      <feGaussianBlur
         stdDeviation="6.4358503"
         id="feGaussianBlur5105" />
    </filter>
    <linearGradient
       id="h"
       x1="251.91"
       x2="396.54999"
       y1="575.27002"
       y2="529.08002"
       gradientUnits="userSpaceOnUse"
       xlink:href="#d"
       gradientTransform="rotate(105,267.58606,467.76805)" />
    <linearGradient
       id="d">
      <stop
         style="stop-color:#23bac2"
         offset="0"
         id="stop2" />
      <stop
         style="stop-color:#ffd86e"
         offset="1"
         id="stop4" />
    </linearGradient>
    <linearGradient
       id="j"
       x1="223.17999"
       x2="596.62"
       y1="1950.6"
       y2="1632.4"
       gradientTransform="matrix(-0.58408572,0,0,0.58408572,167.77817,-701.82151)"
       gradientUnits="userSpaceOnUse"
       xlink:href="#a" />
    <radialGradient
       id="a"
       cx="508"
       cy="285.75"
       r="508"
       gradientTransform="matrix(1.0025,0,0,1.01,764.21,361.89)"
       gradientUnits="userSpaceOnUse">
      <stop
         style="stop-color:#23bac2"
         offset="0"
         id="stop12" />
      <stop
         style="stop-color:#3b6ab9"
         offset="1"
         id="stop14" />
    </radialGradient>
    <filter
       style="color-interpolation-filters:sRGB"
       id="filter5486"
       x="-0.29352468"
       width="1.5870494"
       y="-0.50840028"
       height="2.0168006">
      <feGaussianBlur
         stdDeviation="3.0993246"
         id="feGaussianBlur5488" />
    </filter>
    <filter
       style="color-interpolation-filters:sRGB"
       id="filter5490"
       x="-0.071597772"
       width="1.1431955"
       y="-0.12401095"
       height="1.2480219">
      <feGaussianBlur
         stdDeviation="3.0993246"
         id="feGaussianBlur5492" />
    </filter>
    <filter
       style="color-interpolation-filters:sRGB"
       id="filter5494"
       x="-0.27024516"
       width="1.5404903"
       y="-0.468079"
       height="1.936158">
      <feGaussianBlur
         stdDeviation="3.0993246"
         id="feGaussianBlur5496" />
    </filter>
    <filter
       style="color-interpolation-filters:sRGB"
       id="filter5498"
       x="-0.55775852"
       width="2.115517"
       y="-0.96606341"
       height="2.9321268">
      <feGaussianBlur
         stdDeviation="3.0993246"
         id="feGaussianBlur5500" />
    </filter>
    <filter
       style="color-interpolation-filters:sRGB"
       id="filter5502"
       x="-0.16131516"
       width="1.3226303"
       y="-0.27940607"
       height="1.5588121">
      <feGaussianBlur
         stdDeviation="3.0993246"
         id="feGaussianBlur5504" />
    </filter>
    <filter
       style="color-interpolation-filters:sRGB"
       id="filter5506"
       x="-0.10774605"
       width="1.2154921"
       y="-0.18662171"
       height="1.3732434">
      <feGaussianBlur
         stdDeviation="3.0993246"
         id="feGaussianBlur5508" />
    </filter>
    <filter
       style="color-interpolation-filters:sRGB"
       id="filter5510"
       x="-0.08442332"
       width="1.1688466"
       y="-0.14622551"
       height="1.292451">
      <feGaussianBlur
         stdDeviation="3.0993246"
         id="feGaussianBlur5512" />
    </filter>
    <filter
       style="color-interpolation-filters:sRGB"
       id="filter5514"
       x="-0.27024516"
       width="1.5404903"
       y="-0.468079"
       height="1.936158">
      <feGaussianBlur
         stdDeviation="3.0993246"
         id="feGaussianBlur5516" />
    </filter>
    <filter
       style="color-interpolation-filters:sRGB"
       id="filter5518"
       x="-0.069184191"
       width="1.1383684"
       y="-0.11983047"
       height="1.2396609">
      <feGaussianBlur
         stdDeviation="3.0993246"
         id="feGaussianBlur5520" />
    </filter>
    <filter
       style="color-interpolation-filters:sRGB"
       id="filter5522"
       x="-0.072846811"
       width="1.1456936"
       y="-0.12617438"
       height="1.2523488">
      <feGaussianBlur
         stdDeviation="3.0993246"
         id="feGaussianBlur5524" />
    </filter>
    <filter
       style="color-interpolation-filters:sRGB"
       id="filter5526"
       x="-0.13029129"
       width="1.2605826"
       y="-0.2256711"
       height="1.4513422">
      <feGaussianBlur
         stdDeviation="3.0993246"
         id="feGaussianBlur5528" />
    </filter>
    <filter
       style="color-interpolation-filters:sRGB"
       id="filter5530"
       x="-0.19111239"
       width="1.3822248"
       y="-0.33101642"
       height="1.6620328">
      <feGaussianBlur
         stdDeviation="3.0993246"
         id="feGaussianBlur5532" />
    </filter>
    <filter
       style="color-interpolation-filters:sRGB"
       id="filter5534"
       x="-0.29352468"
       width="1.5870494"
       y="-0.50840063"
       height="2.0168013">
      <feGaussianBlur
         stdDeviation="3.0993246"
         id="feGaussianBlur5536" />
    </filter>
    <filter
       style="color-interpolation-filters:sRGB"
       id="filter5538"
       x="-0.10724587"
       width="1.2144917"
       y="-0.18575519"
       height="1.3715104">
      <feGaussianBlur
         stdDeviation="3.0993246"
         id="feGaussianBlur5540" />
    </filter>
    <filter
       style="color-interpolation-filters:sRGB"
       id="filter5542"
       x="-0.075406469"
       width="1.1508129"
       y="-0.13060784"
       height="1.2612157">
      <feGaussianBlur
         stdDeviation="3.0993246"
         id="feGaussianBlur5544" />
    </filter>
    <filter
       style="color-interpolation-filters:sRGB"
       id="filter5546"
       x="-0.071597772"
       width="1.1431955"
       y="-0.12401095"
       height="1.2480219">
      <feGaussianBlur
         stdDeviation="3.0993246"
         id="feGaussianBlur5548" />
    </filter>
    <filter
       style="color-interpolation-filters:sRGB"
       id="filter5550"
       x="-0.22536725"
       width="1.4507345"
       y="-0.39034705"
       height="1.7806941">
      <feGaussianBlur
         stdDeviation="3.0993246"
         id="feGaussianBlur5552" />
    </filter>
    <filter
       style="color-interpolation-filters:sRGB"
       id="filter5554"
       x="-0.1568291"
       width="1.3136582"
       y="-0.27163588"
       height="1.5432718">
      <feGaussianBlur
         stdDeviation="3.0993246"
         id="feGaussianBlur5556" />
    </filter>
    <filter
       style="color-interpolation-filters:sRGB"
       id="filter5558"
       x="-0.11873239"
       width="1.2374648"
       y="-0.20565057"
       height="1.4113011">
      <feGaussianBlur
         stdDeviation="3.0993246"
         id="feGaussianBlur5560" />
    </filter>
    <filter
       style="color-interpolation-filters:sRGB"
       id="filter5562"
       x="-0.075867718"
       width="1.1517354"
       y="-0.13140675"
       height="1.2628135">
      <feGaussianBlur
         stdDeviation="3.0993246"
         id="feGaussianBlur5564" />
    </filter>
    <filter
       style="color-interpolation-filters:sRGB"
       id="filter5566"
       x="-0.13552189"
       width="1.2710438"
       y="-0.23473093"
       height="1.4694619">
      <feGaussianBlur
         stdDeviation="3.0993246"
         id="feGaussianBlur5568" />
    </filter>
    <filter
       style="color-interpolation-filters:sRGB"
       id="filter5570"
       x="-0.13552189"
       width="1.2710438"
       y="-0.23473093"
       height="1.4694619">
      <feGaussianBlur
         stdDeviation="3.0993246"
         id="feGaussianBlur5572" />
    </filter>
    <filter
       style="color-interpolation-filters:sRGB"
       id="filter5586"
       x="-0.010495796"
       width="1.0209916"
       y="-0.01400748"
       height="1.028015">
      <feGaussianBlur
         stdDeviation="5.071533"
         id="feGaussianBlur5588" />
    </filter>
    <linearGradient
       id="n"
       x1="151.46001"
       x2="268.04001"
       y1="164.3"
       y2="47.717999"
       gradientTransform="translate(-33.349219,18.081876)"
       gradientUnits="userSpaceOnUse"
       xlink:href="#a-3" />
    <radialGradient
       id="a-3"
       cx="508"
       cy="285.75"
       r="508"
       gradientTransform="matrix(1.0025,0,0,1.01,764.21,361.89)"
       gradientUnits="userSpaceOnUse">
      <stop
         style="stop-color:#23bac2"
         offset="0"
         id="stop12-5" />
      <stop
         style="stop-color:#3b6ab9"
         offset="1"
         id="stop14-6" />
    </radialGradient>
    <linearGradient
       id="m"
       x1="151.46001"
       x2="268.04001"
       y1="164.3"
       y2="47.717999"
       gradientTransform="matrix(1.5607,0,0,1.5607,638.98403,455.78931)"
       gradientUnits="userSpaceOnUse">
      <stop
         style="stop-color:#23bac2"
         offset="0"
         id="stop31" />
      <stop
         style="stop-color:#3b6ab9"
         offset="1"
         id="stop33" />
    </linearGradient>
    <linearGradient
       id="g"
       x1="284.03381"
       x2="572.698"
       y1="551.68097"
       y2="458.56778"
       gradientTransform="matrix(-0.2780722,-0.19464547,0.19464547,-0.2780722,466.6084,696.4583)"
       gradientUnits="userSpaceOnUse"
       xlink:href="#linearGradient9764" />
    <linearGradient
       id="f"
       x1="-2854.6001"
       x2="-2854.6001"
       y1="-233.83"
       y2="218.11"
       gradientTransform="translate(5359.5317,128.27533)"
       gradientUnits="userSpaceOnUse"
       xlink:href="#c" />
    <linearGradient
       id="c">
      <stop
         style="stop-color:#23bac2"
         offset="0"
         id="stop2-8" />
      <stop
         style="stop-color:#4aaee6;stop-opacity:0"
         offset="1"
         id="stop4-7" />
    </linearGradient>
    <linearGradient
       id="g-9"
       x1="-2854.6001"
       x2="-2854.6001"
       y1="-233.83"
       y2="218.11"
       gradientTransform="translate(5179.0317,24.02533)"
       gradientUnits="userSpaceOnUse"
       xlink:href="#c" />
    <linearGradient
       id="h-2"
       x1="-2854.6001"
       x2="-2854.6001"
       y1="-233.83"
       y2="218.11"
       gradientTransform="translate(4998.4317,-80.21467)"
       gradientUnits="userSpaceOnUse"
       xlink:href="#c" />
    <linearGradient
       id="i"
       x1="-2854.6001"
       x2="-2854.6001"
       y1="-233.83"
       y2="128.08"
       gradientTransform="translate(4570.5317,-80.21467)"
       gradientUnits="userSpaceOnUse"
       xlink:href="#c" />
    <linearGradient
       id="j-0"
       x1="-2854.6001"
       x2="-2854.6001"
       y1="-233.83"
       y2="22.863001"
       gradientTransform="translate(4142.6317,-80.21467)"
       gradientUnits="userSpaceOnUse">
      <stop
         style="stop-color:#23bac2"
         offset="0"
         id="stop12-2" />
      <stop
         style="stop-color:#367bf0;stop-opacity:0"
         offset="1"
         id="stop14-3" />
    </linearGradient>
  </defs>
  <metadata
     id="metadata5">
    <rdf:RDF>
      <cc:Work
         rdf:about="">
        <dc:format>image/svg+xml</dc:format>
        <dc:type
           rdf:resource="http://purl.org/dc/dcmitype/StillImage" />
        <dc:title></dc:title>
      </cc:Work>
    </rdf:RDF>
  </metadata>
  <g
     id="layer1">
    <rect
       x="8.8888892e-06"
       y="4.9999999e-06"
       width="1016"
       height="571.5"
       fill="url(#a)"
       style="fill:url(#linearGradient1368);paint-order:fill markers stroke;fill-opacity:1"
       id="rect23" />
    <circle
       cx="159.26909"
       cy="119.68189"
       r="110.6"
       style="fill:url(#n);paint-order:normal"
       id="circle47" />
    <g
       id="g9921"
       transform="rotate(-5.2232713,2339.0471,12996.962)">
      <path
         d="m 1520.4317,-321.16467 -1365.2,618.31 3.6107,2.0846 1365.2,-618.31 z m 7.2219,4.1696 -1365.2,618.31 3.6108,2.0846 1365.2,-618.31 z m 7.2217,4.1694 -1365.2,618.31 3.6116,2.0851 1365.2,-618.31 z m 7.2228,4.1701 -1365.2,618.31 3.6102,2.0844 1365.2,-618.31 z m 7.2216,4.1694 -1365.2,618.31 3.6117,2.0852 1365.2,-618.31 z m 7.222,4.1696 -1365.2,618.31 3.6105,2.0845 1365.2,-618.31 z m 7.223,4.1702 -1365.2,618.31 3.6113,2.085 1365.2,-618.31 z m 7.2215,4.1694 -1365.2,618.31 3.611,2.0848 1365.2,-618.31 z m 7.2233,4.1704 -1365.2,618.31 3.6103,2.0844 1365.2,-618.31 z m 7.2212,4.1692 -1365.2,618.31 3.6115,2.085 1365.2,-618.31 z m 7.2232,4.1704 -1365.2,618.31 3.6102,2.0844 1365.2,-618.31 z m 7.2213,4.1692 -1365.2,618.31 3.6114,2.085 1365.2,-618.31 z m 7.2214,4.1693 -1365.2,618.31 3.6111,2.0849 1365.2,-618.31 z m 7.2231,4.1703 -1365.2,618.31 3.6121,2.0854 1365.2,-618.31 z m 7.2219,4.1696 -1365.2,618.31 3.6112,2.0849 1365.2,-618.31 z m 7.2231,4.1702 -1365.2,618.31 3.6098,2.0841 1365.2,-618.31 z m 7.2214,4.1693 -1365.2,618.31 3.6112,2.085 1365.2,-618.31 z m 7.2221,4.1697 -1365.2,618.31 3.6116,2.0852 1365.2,-618.31 z m 7.2223,4.1698 -1365.2,618.31 3.6105,2.0845 1365.2,-618.31 z m 7.2221,4.1697 -1365.2,618.31 3.6117,2.0852 1365.2,-618.31 z m 7.2214,4.1693 -1365.2,618.31 3.6106,2.0846 1365.2,-618.31 z m 7.2234,4.1704 -1365.2,618.31 3.6117,2.0852 1365.2,-618.31 z m 7.2216,4.1694 -1365.2,618.31 3.6106,2.0846 1365.2,-618.31 z m 7.2228,4.1701 -1365.2,618.31 3.6107,2.0846 1365.2,-618.31 z m 7.2213,4.1692 -1365.2,618.31 3.6119,2.0853 1365.2,-618.31 z m 7.2232,4.1704 -1365.2,618.31 3.6107,2.0846 1365.2,-618.31 z"
         style="fill:url(#j-0);stroke-width:0.26458"
         id="path25" />
      <path
         d="m 1948.3317,-321.16467 -1365.2,618.31 3.6107,2.0846 1365.2,-618.31 z m 7.2219,4.1696 -1365.2,618.31 3.6108,2.0846 1365.2,-618.31 z m 7.2217,4.1694 -1365.2,618.31 3.6116,2.0851 1365.2,-618.31 z m 7.2228,4.1701 -1365.2,618.31 3.6102,2.0844 1365.2,-618.31 z m 7.2216,4.1694 -1365.2,618.31 3.6117,2.0852 1365.2,-618.31 z m 7.222,4.1696 -1365.2,618.31 3.6105,2.0845 1365.2,-618.31 z m 7.223,4.1702 -1365.2,618.31 3.6113,2.085 1365.2,-618.31 z m 7.2215,4.1694 -1365.2,618.31 3.611,2.0848 1365.2,-618.31 z m 7.2233,4.1704 -1365.2,618.31 3.6103,2.0844 1365.2,-618.31 z m 7.2212,4.1692 -1365.2,618.31 3.6115,2.085 1365.2,-618.31 z m 7.2232,4.1704 -1365.2,618.31 3.6102,2.0844 1365.2,-618.31 z m 7.2213,4.1692 -1365.2,618.31 3.6114,2.085 1365.2,-618.31 z m 7.2214,4.1693 -1365.2,618.31 3.6111,2.0849 1365.2,-618.31 z m 7.2231,4.1703 -1365.2,618.31 3.6121,2.0854 1365.2,-618.31 z m 7.2219,4.1696 -1365.2,618.31 3.6112,2.0849 1365.2,-618.31 z m 7.2231,4.1702 -1365.2,618.31 3.6098,2.0841 1365.2,-618.31 z m 7.2214,4.1693 -1365.2,618.31 3.6112,2.085 1365.2,-618.31 z m 7.2221,4.1697 -1365.2,618.31 3.6116,2.0852 1365.2,-618.31 z m 7.2223,4.1698 -1365.2,618.31 3.6105,2.0845 1365.2,-618.31 z m 7.2221,4.1697 -1365.2,618.31 3.6117,2.0852 1365.2,-618.31 z m 7.2214,4.1693 -1365.2,618.31 3.6106,2.0846 1365.2,-618.31 z m 7.2234,4.1704 -1365.2,618.31 3.6117,2.0852 1365.2,-618.31 z m 7.2216,4.1694 -1365.2,618.31 3.6106,2.0846 1365.2,-618.31 z m 7.2228,4.1701 -1365.2,618.31 3.6107,2.0846 1365.2,-618.31 z m 7.2213,4.1692 -1365.2,618.31 3.6119,2.0853 1365.2,-618.31 z m 7.2232,4.1704 -1365.2,618.31 3.6107,2.0846 1365.2,-618.31 z"
         style="fill:url(#i);stroke-width:0.26458"
         id="path27" />
      <path
         d="m 2376.2317,-321.16467 -1365.2,618.31 3.6107,2.0846 1365.2,-618.31 z m 7.2219,4.1696 -1365.2,618.31 3.6108,2.0846 1365.2,-618.31 z m 7.2217,4.1694 -1365.2,618.31 3.6116,2.0851 1365.2,-618.31 z m 7.2228,4.1701 -1365.2,618.31 3.6102,2.0844 1365.2,-618.31 z m 7.2216,4.1694 -1365.2,618.31 3.6117,2.0852 1365.2,-618.31 z m 7.222,4.1696 -1365.2,618.31 3.6105,2.0845 1365.2,-618.31 z m 7.223,4.1702 -1365.2,618.31 3.6113,2.085 1365.2,-618.31 z m 7.2215,4.1694 -1365.2,618.31 3.611,2.0848 1365.2,-618.31 z m 7.2233,4.1704 -1365.2,618.31 3.6103,2.0844 1365.2,-618.31 z m 7.2212,4.1692 -1365.2,618.31 3.6115,2.085 1365.2,-618.31 z m 7.2232,4.1704 -1365.2,618.31 3.6102,2.0844 1365.2,-618.31 z m 7.2213,4.1692 -1365.2,618.31 3.6114,2.085 1365.2,-618.31 z m 7.2214,4.1693 -1365.2,618.31 3.6111,2.0849 1365.2,-618.31 z m 7.2231,4.1703 -1365.2,618.31 3.6121,2.0854 1365.2,-618.31 z m 7.2219,4.1696 -1365.2,618.31 3.6112,2.0849 1365.2,-618.31 z m 7.2231,4.1702 -1365.2,618.31 3.6098,2.0841 1365.2,-618.31 z m 7.2214,4.1693 -1365.2,618.31 3.6112,2.085 1365.2,-618.31 z m 7.2221,4.1697 -1365.2,618.31 3.6116,2.0852 1365.2,-618.31 z m 7.2223,4.1698 -1365.2,618.31 3.6105,2.0845 1365.2,-618.31 z m 7.2221,4.1697 -1365.2,618.31 3.6117,2.0852 1365.2,-618.31 z m 7.2214,4.1693 -1365.2,618.31 3.6106,2.0846 1365.2,-618.31 z m 7.2234,4.1704 -1365.2,618.31 3.6117,2.0852 1365.2,-618.31 z m 7.2216,4.1694 -1365.2,618.31 3.6106,2.0846 1365.2,-618.31 z m 7.2228,4.1701 -1365.2,618.31 3.6107,2.0846 1365.2,-618.31 z m 7.2213,4.1692 -1365.2,618.31 3.6119,2.0853 1365.2,-618.31 z m 7.2232,4.1704 -1365.2,618.31 3.6107,2.0846 1365.2,-618.31 z"
         style="fill:url(#h-2);stroke-width:0.26458"
         id="path29" />
      <path
         d="m 2564.0317,-212.75467 -1365.2,618.31 3.6108,2.0846 1365.2,-618.31 z m 7.2217,4.1694 -1365.2,618.31 3.6116,2.0851 1365.2,-618.31 z m 7.2228,4.1701 -1365.2,618.31 3.6102,2.0844 1365.2,-618.31 z m 7.2216,4.1694 -1365.2,618.31 3.6117,2.0852 1365.2,-618.31 z m 7.222,4.1696 -1365.2,618.31 3.6105,2.0845 1365.2,-618.31 z m 7.223,4.1702 -1365.2,618.31 3.6113,2.085 1365.2,-618.31 z m 7.2215,4.1694 -1365.2,618.31 3.611,2.0848 1365.2,-618.31 z m 7.2233,4.1704 -1365.2,618.31 3.6103,2.0844 1365.2,-618.31 z m 7.2212,4.1692 -1365.2,618.31 3.6115,2.085 1365.2,-618.31 z m 7.2232,4.1704 -1365.2,618.31 3.6102,2.0844 1365.2,-618.31 z m 7.2213,4.1692 -1365.2,618.31 3.6114,2.085 1365.2,-618.31 z m 7.2214,4.1693 -1365.2,618.31 3.6111,2.0849 1365.2,-618.31 z m 7.2231,4.1703 -1365.2,618.31 3.6121,2.0854 1365.2,-618.31 z m 7.2219,4.1696 -1365.2,618.31 3.6112,2.0849 1365.2,-618.31 z m 7.2231,4.1702 -1365.2,618.31 3.6098,2.0841 1365.2,-618.31 z m 7.2214,4.1693 -1365.2,618.31 3.6112,2.085 1365.2,-618.31 z m 7.2221,4.1697 -1365.2,618.31 3.6116,2.0852 1365.2,-618.31 z m 7.2223,4.1698 -1365.2,618.31 3.6105,2.0845 1365.2,-618.31 z m 7.2221,4.1697 -1365.2,618.31 3.6117,2.0852 1365.2,-618.31 z m 7.2214,4.1693 -1365.2,618.31 3.6106,2.0846 1365.2,-618.31 z m 7.2234,4.1704 -1365.2,618.31 3.6117,2.0852 1365.2,-618.31 z m 7.2216,4.1694 -1365.2,618.31 3.6106,2.0846 1365.2,-618.31 z m 7.2228,4.1701 -1365.2,618.31 3.6107,2.0846 1365.2,-618.31 z m 7.2213,4.1692 -1365.2,618.31 3.6119,2.0853 1365.2,-618.31 z m 7.2232,4.1704 -1365.2,618.31 3.6107,2.0846 1365.2,-618.31 z"
         style="fill:url(#g-9);stroke-width:0.26458"
         id="path31" />
      <path
         d="m 2744.6317,-108.51467 -1365.2,618.31 3.6108,2.0846 1365.2,-618.31 z m 7.2217,4.1694 -1365.2,618.31 3.6116,2.0851 1365.2,-618.31 z m 7.2228,4.1701 -1365.2,618.31 3.6102,2.0844 1365.2,-618.31 z m 7.2216,4.1694 -1365.2,618.31 3.6117,2.0852 1365.2,-618.31 z m 7.222,4.1696 -1365.2,618.31 3.6105,2.0845 1365.2,-618.31 z m 7.223,4.1702 -1365.2,618.31 3.6113,2.085 1365.2,-618.31 z m 7.2215,4.1694 -1365.2,618.31 3.611,2.0848 1365.2,-618.31 z m 7.2233,4.1704 -1365.2,618.31 3.6103,2.0844 1365.2,-618.31 z m 7.2212,4.1692 -1365.2,618.31 3.6115,2.085 1365.2,-618.31 z m 7.2232,4.1704 -1365.2,618.31 3.6102,2.0844 1365.2,-618.31 z m 7.2213,4.1692 -1365.2,618.31 3.6114,2.085 1365.2,-618.31 z m 7.2214,4.1693 -1365.2,618.31 3.6111,2.0849 1365.2,-618.31 z m 7.2231,4.1703 -1365.2,618.31 3.6121,2.0854 1365.2,-618.31 z m 7.2219,4.1696 -1365.2,618.31 3.6112,2.0849 1365.2,-618.31 z m 7.2231,4.1702 -1365.2,618.31 3.6098,2.0841 1365.2,-618.31 z m 7.2214,4.1693 -1365.2,618.31 3.6112,2.085 1365.2,-618.31 z m 7.2221,4.1697 -1365.2,618.31 3.6116,2.0852 1365.2,-618.31 z m 7.2223,4.1698 -1365.2,618.31 3.6105,2.0845 1365.2,-618.31 z m 7.2221,4.1697 -1365.2,618.31 3.6117,2.0852 1365.2,-618.31 z m 7.2214,4.1693 -1365.2,618.31 3.6106,2.0846 1365.2,-618.31 z m 7.2234,4.1704 -1365.2,618.31 3.6117,2.0852 1365.2,-618.31 z m 7.2216,4.1694 -1365.2,618.31 3.6106,2.0846 1365.2,-618.31 z m 7.2228,4.1701 -1365.2,618.31 3.6107,2.0846 1365.2,-618.31 z m 7.2213,4.1692 -1365.2,618.31 3.6119,2.0853 1365.2,-618.31 z m 7.2232,4.1704 -1365.2,618.31 3.6107,2.0846 1365.2,-618.31 z"
         style="fill:url(#f);stroke-width:0.26458"
         id="path33" />
    </g>
    <g
       id="g5394">
      <path
         style="opacity:0.1;fill:none;stroke:#000000;stroke-width:6.94573;stroke-linecap:round;stroke-linejoin:miter;stroke-miterlimit:4;stroke-dasharray:none;stroke-opacity:1;filter:url(#filter5570)"
         d="m 169.0779,377.82009 54.88692,-31.68896"
         id="path5328" />
      <path
         style="opacity:0.1;fill:none;stroke:#000000;stroke-width:6.94573;stroke-linecap:round;stroke-linejoin:miter;stroke-miterlimit:4;stroke-dasharray:none;stroke-opacity:1;filter:url(#filter5566)"
         d="m 169.0779,377.82009 54.88692,-31.68896"
         id="path5330" />
      <path
         style="opacity:0.1;fill:none;stroke:#000000;stroke-width:6.94573;stroke-linecap:round;stroke-linejoin:miter;stroke-miterlimit:4;stroke-dasharray:none;stroke-opacity:1;filter:url(#filter5562)"
         d="m 157.06461,437.62155 98.04406,-56.60576"
         id="path5332" />
      <path
         style="opacity:0.1;fill:none;stroke:#000000;stroke-width:6.94573;stroke-linecap:round;stroke-linejoin:miter;stroke-miterlimit:4;stroke-dasharray:none;stroke-opacity:1;filter:url(#filter5558)"
         d="m 247.28479,416.73376 62.64827,-36.16999"
         id="path5334" />
      <path
         style="opacity:0.1;fill:none;stroke:#000000;stroke-width:6.94573;stroke-linecap:round;stroke-linejoin:miter;stroke-miterlimit:4;stroke-dasharray:none;stroke-opacity:1;filter:url(#filter5554)"
         d="M 264.84166,349.61733 312.2715,322.23369"
         id="path5336" />
      <path
         style="opacity:0.1;fill:none;stroke:#000000;stroke-width:6.94573;stroke-linecap:round;stroke-linejoin:miter;stroke-miterlimit:4;stroke-dasharray:none;stroke-opacity:1;filter:url(#filter5550)"
         d="M 273.15065,431.80601 306.15624,412.7502"
         id="path5338" />
      <path
         style="opacity:0.1;fill:none;stroke:#000000;stroke-width:6.94573;stroke-linecap:round;stroke-linejoin:miter;stroke-miterlimit:4;stroke-dasharray:none;stroke-opacity:1;filter:url(#filter5546)"
         d="M 236.29571,509.14052 340.18692,449.15889"
         id="path5340" />
      <path
         style="opacity:0.1;fill:none;stroke:#000000;stroke-width:6.94573;stroke-linecap:round;stroke-linejoin:miter;stroke-miterlimit:4;stroke-dasharray:none;stroke-opacity:1;filter:url(#filter5542)"
         d="M 632.75229,145.19903 731.39607,88.247002"
         id="path5342" />
      <path
         style="opacity:0.1;fill:none;stroke:#000000;stroke-width:6.94573;stroke-linecap:round;stroke-linejoin:miter;stroke-miterlimit:4;stroke-dasharray:none;stroke-opacity:1;filter:url(#filter5538)"
         d="m 731.92092,142.74305 69.35819,-40.04399"
         id="path5344" />
      <path
         style="opacity:0.1;fill:none;stroke:#000000;stroke-width:6.94573;stroke-linecap:round;stroke-linejoin:miter;stroke-miterlimit:4;stroke-dasharray:none;stroke-opacity:1;filter:url(#filter5534)"
         d="m 690.82156,141.68012 25.34158,-14.63094"
         id="path5346" />
      <path
         style="opacity:0.1;fill:none;stroke:#000000;stroke-width:6.94573;stroke-linecap:round;stroke-linejoin:miter;stroke-miterlimit:4;stroke-dasharray:none;stroke-opacity:1;filter:url(#filter5530)"
         d="m 692.5416,244.61474 38.92149,-22.47133"
         id="path5348" />
      <path
         style="opacity:0.1;fill:none;stroke:#000000;stroke-width:6.94573;stroke-linecap:round;stroke-linejoin:miter;stroke-miterlimit:4;stroke-dasharray:none;stroke-opacity:1;filter:url(#filter5526)"
         d="m 700.59088,199.16104 57.09038,-32.96115"
         id="path5350" />
      <path
         style="opacity:0.1;fill:none;stroke:#000000;stroke-width:6.94573;stroke-linecap:round;stroke-linejoin:miter;stroke-miterlimit:4;stroke-dasharray:none;stroke-opacity:1;filter:url(#filter5522)"
         d="M 794.38055,157.03277 896.49043,98.079589"
         id="path5352" />
      <path
         style="opacity:0.1;fill:none;stroke:#000000;stroke-width:6.94573;stroke-linecap:round;stroke-linejoin:miter;stroke-miterlimit:4;stroke-dasharray:none;stroke-opacity:1;filter:url(#filter5518)"
         d="M 765.15267,264.14657 872.66826,202.07238"
         id="path5354" />
      <path
         style="opacity:0.1;fill:none;stroke:#000000;stroke-width:6.94573;stroke-linecap:round;stroke-linejoin:miter;stroke-miterlimit:4;stroke-dasharray:none;stroke-opacity:1;filter:url(#filter5514)"
         d="m 849.9664,236.05496 27.52456,-15.89129"
         id="path5356" />
      <path
         style="opacity:0.1;fill:none;stroke:#000000;stroke-width:6.94573;stroke-linecap:round;stroke-linejoin:miter;stroke-miterlimit:4;stroke-dasharray:none;stroke-opacity:1;filter:url(#filter5510)"
         d="M 837.51498,190.01633 925.62309,139.1471"
         id="path5358" />
      <path
         style="opacity:0.1;fill:none;stroke:#000000;stroke-width:6.94573;stroke-linecap:round;stroke-linejoin:miter;stroke-miterlimit:4;stroke-dasharray:none;stroke-opacity:1;filter:url(#filter5506)"
         d="m 741.61365,340.02379 69.03621,-39.85806"
         id="path5360" />
      <path
         style="opacity:0.1;fill:none;stroke:#000000;stroke-width:6.94573;stroke-linecap:round;stroke-linejoin:miter;stroke-miterlimit:4;stroke-dasharray:none;stroke-opacity:1;filter:url(#filter5502)"
         d="m 378.4316,470.53056 46.11085,-26.62211"
         id="path5362" />
      <path
         style="opacity:0.1;fill:none;stroke:#000000;stroke-width:6.94573;stroke-linecap:round;stroke-linejoin:miter;stroke-miterlimit:4;stroke-dasharray:none;stroke-opacity:1;filter:url(#filter5498)"
         d="m 346.34087,498.91576 13.3362,-7.69968"
         id="path5364" />
      <path
         style="opacity:0.1;fill:none;stroke:#000000;stroke-width:6.94573;stroke-linecap:round;stroke-linejoin:miter;stroke-miterlimit:4;stroke-dasharray:none;stroke-opacity:1;filter:url(#filter5494)"
         d="m 221.5824,478.5051 27.52456,-15.89129"
         id="path5366" />
      <path
         style="opacity:0.1;fill:none;stroke:#000000;stroke-width:6.94573;stroke-linecap:round;stroke-linejoin:miter;stroke-miterlimit:4;stroke-dasharray:none;stroke-opacity:1;filter:url(#filter5490)"
         d="M 122.44728,501.17777 226.33849,441.19614"
         id="path5368" />
      <path
         style="opacity:0.1;fill:none;stroke:#000000;stroke-width:6.94573;stroke-linecap:round;stroke-linejoin:miter;stroke-miterlimit:4;stroke-dasharray:none;stroke-opacity:1;filter:url(#filter5486)"
         d="m 851.2918,87.217409 25.34158,-14.63095"
         id="path5370" />
    </g>
    <path
       id="path5077"
       style="opacity:0.1;fill:#000000;fill-opacity:1;stroke:none;stroke-width:3.43237;stroke-linecap:square;stroke-linejoin:round;stroke-opacity:1;filter:url(#filter5586)"
       d="m 2077.3691,645.5293 a 12.802057,12.802057 0 0 0 -12.8027,12.80273 12.802057,12.802057 0 0 0 12.8027,12.80274 12.802057,12.802057 0 0 0 12.8008,-12.80274 12.802057,12.802057 0 0 0 -12.8008,-12.80273 z m 51.2071,0 a 12.802057,12.802057 0 0 0 -12.8028,12.80273 12.802057,12.802057 0 0 0 12.8028,12.80274 12.802057,12.802057 0 0 0 12.8027,-12.80274 12.802057,12.802057 0 0 0 -12.8027,-12.80273 z m 51.209,0 a 12.802057,12.802057 0 0 0 -12.8028,12.80273 12.802057,12.802057 0 0 0 12.8028,12.80274 12.802057,12.802057 0 0 0 12.8007,-12.80274 12.802057,12.802057 0 0 0 -12.8007,-12.80273 z m 51.207,0 a 12.802057,12.802057 0 0 0 -12.8008,12.80273 12.802057,12.802057 0 0 0 12.8008,12.80274 12.802057,12.802057 0 0 0 12.8027,-12.80274 12.802057,12.802057 0 0 0 -12.8027,-12.80273 z m 51.209,0 a 12.802057,12.802057 0 0 0 -12.8028,12.80273 12.802057,12.802057 0 0 0 12.8028,12.80274 12.802057,12.802057 0 0 0 12.8027,-12.80274 12.802057,12.802057 0 0 0 -12.8027,-12.80273 z m 51.209,0 a 12.802057,12.802057 0 0 0 -12.8028,12.80273 12.802057,12.802057 0 0 0 12.8028,12.80274 12.802057,12.802057 0 0 0 12.8007,-12.80274 12.802057,12.802057 0 0 0 -12.8007,-12.80273 z m 51.207,0 a 12.802057,12.802057 0 0 0 -12.8027,12.80273 12.802057,12.802057 0 0 0 12.8027,12.80274 12.802057,12.802057 0 0 0 12.8027,-12.80274 12.802057,12.802057 0 0 0 -12.8027,-12.80273 z m 51.209,0 a 12.802057,12.802057 0 0 0 -12.8028,12.80273 12.802057,12.802057 0 0 0 12.8028,12.80274 12.802057,12.802057 0 0 0 12.8008,-12.80274 12.802057,12.802057 0 0 0 -12.8008,-12.80273 z m 51.207,0 a 12.802057,12.802057 0 0 0 -12.8008,12.80273 12.802057,12.802057 0 0 0 12.8008,12.80274 12.802057,12.802057 0 0 0 12.8027,-12.80274 12.802057,12.802057 0 0 0 -12.8027,-12.80273 z m -409.6641,51.20898 a 12.802057,12.802057 0 0 0 -12.8027,12.80274 12.802057,12.802057 0 0 0 12.8027,12.80078 12.802057,12.802057 0 0 0 12.8008,-12.80078 12.802057,12.802057 0 0 0 -12.8008,-12.80274 z m 51.2071,0 a 12.802057,12.802057 0 0 0 -12.8028,12.80274 12.802057,12.802057 0 0 0 12.8028,12.80078 12.802057,12.802057 0 0 0 12.8027,-12.80078 12.802057,12.802057 0 0 0 -12.8027,-12.80274 z m 51.209,0 a 12.802057,12.802057 0 0 0 -12.8028,12.80274 12.802057,12.802057 0 0 0 12.8028,12.80078 12.802057,12.802057 0 0 0 12.8007,-12.80078 12.802057,12.802057 0 0 0 -12.8007,-12.80274 z m 51.207,0 a 12.802057,12.802057 0 0 0 -12.8008,12.80274 12.802057,12.802057 0 0 0 12.8008,12.80078 12.802057,12.802057 0 0 0 12.8027,-12.80078 12.802057,12.802057 0 0 0 -12.8027,-12.80274 z m 51.209,0 a 12.802057,12.802057 0 0 0 -12.8028,12.80274 12.802057,12.802057 0 0 0 12.8028,12.80078 12.802057,12.802057 0 0 0 12.8027,-12.80078 12.802057,12.802057 0 0 0 -12.8027,-12.80274 z m 51.209,0 a 12.802057,12.802057 0 0 0 -12.8028,12.80274 12.802057,12.802057 0 0 0 12.8028,12.80078 12.802057,12.802057 0 0 0 12.8007,-12.80078 12.802057,12.802057 0 0 0 -12.8007,-12.80274 z m 51.207,0 a 12.802057,12.802057 0 0 0 -12.8027,12.80274 12.802057,12.802057 0 0 0 12.8027,12.80078 12.802057,12.802057 0 0 0 12.8027,-12.80078 12.802057,12.802057 0 0 0 -12.8027,-12.80274 z m 51.209,0 a 12.802057,12.802057 0 0 0 -12.8028,12.80274 12.802057,12.802057 0 0 0 12.8028,12.80078 12.802057,12.802057 0 0 0 12.8008,-12.80078 12.802057,12.802057 0 0 0 -12.8008,-12.80274 z m 51.207,0 a 12.802057,12.802057 0 0 0 -12.8008,12.80274 12.802057,12.802057 0 0 0 12.8008,12.80078 12.802057,12.802057 0 0 0 12.8027,-12.80078 12.802057,12.802057 0 0 0 -12.8027,-12.80274 z m -409.6641,51.20899 a 12.802057,12.802057 0 0 0 -12.8027,12.80078 12.802057,12.802057 0 0 0 12.8027,12.80273 12.802057,12.802057 0 0 0 12.8008,-12.80273 12.802057,12.802057 0 0 0 -12.8008,-12.80078 z m 51.2071,0 a 12.802057,12.802057 0 0 0 -12.8028,12.80078 12.802057,12.802057 0 0 0 12.8028,12.80273 12.802057,12.802057 0 0 0 12.8027,-12.80273 12.802057,12.802057 0 0 0 -12.8027,-12.80078 z m 51.209,0 a 12.802057,12.802057 0 0 0 -12.8028,12.80078 12.802057,12.802057 0 0 0 12.8028,12.80273 12.802057,12.802057 0 0 0 12.8007,-12.80273 12.802057,12.802057 0 0 0 -12.8007,-12.80078 z m 51.207,0 a 12.802057,12.802057 0 0 0 -12.8008,12.80078 12.802057,12.802057 0 0 0 12.8008,12.80273 12.802057,12.802057 0 0 0 12.8027,-12.80273 12.802057,12.802057 0 0 0 -12.8027,-12.80078 z m 51.209,0 a 12.802057,12.802057 0 0 0 -12.8028,12.80078 12.802057,12.802057 0 0 0 12.8028,12.80273 12.802057,12.802057 0 0 0 12.8027,-12.80273 12.802057,12.802057 0 0 0 -12.8027,-12.80078 z m 51.209,0 a 12.802057,12.802057 0 0 0 -12.8028,12.80078 12.802057,12.802057 0 0 0 12.8028,12.80273 12.802057,12.802057 0 0 0 12.8007,-12.80273 12.802057,12.802057 0 0 0 -12.8007,-12.80078 z m 51.207,0 a 12.802057,12.802057 0 0 0 -12.8027,12.80078 12.802057,12.802057 0 0 0 12.8027,12.80273 12.802057,12.802057 0 0 0 12.8027,-12.80273 12.802057,12.802057 0 0 0 -12.8027,-12.80078 z m 51.209,0 a 12.802057,12.802057 0 0 0 -12.8028,12.80078 12.802057,12.802057 0 0 0 12.8028,12.80273 12.802057,12.802057 0 0 0 12.8008,-12.80273 12.802057,12.802057 0 0 0 -12.8008,-12.80078 z m 51.207,0 a 12.802057,12.802057 0 0 0 -12.8008,12.80078 12.802057,12.802057 0 0 0 12.8008,12.80273 12.802057,12.802057 0 0 0 12.8027,-12.80273 12.802057,12.802057 0 0 0 -12.8027,-12.80078 z m -409.6641,51.20703 a 12.802057,12.802057 0 0 0 -12.8027,12.80273 12.802057,12.802057 0 0 0 12.8027,12.80078 12.802057,12.802057 0 0 0 12.8008,-12.80078 12.802057,12.802057 0 0 0 -12.8008,-12.80273 z m 51.2071,0 a 12.802057,12.802057 0 0 0 -12.8028,12.80273 12.802057,12.802057 0 0 0 12.8028,12.80078 12.802057,12.802057 0 0 0 12.8027,-12.80078 12.802057,12.802057 0 0 0 -12.8027,-12.80273 z m 51.209,0 a 12.802057,12.802057 0 0 0 -12.8028,12.80273 12.802057,12.802057 0 0 0 12.8028,12.80078 12.802057,12.802057 0 0 0 12.8007,-12.80078 12.802057,12.802057 0 0 0 -12.8007,-12.80273 z m 51.207,0 a 12.802057,12.802057 0 0 0 -12.8008,12.80273 12.802057,12.802057 0 0 0 12.8008,12.80078 12.802057,12.802057 0 0 0 12.8027,-12.80078 12.802057,12.802057 0 0 0 -12.8027,-12.80273 z m 51.209,0 a 12.802057,12.802057 0 0 0 -12.8028,12.80273 12.802057,12.802057 0 0 0 12.8028,12.80078 12.802057,12.802057 0 0 0 12.8027,-12.80078 12.802057,12.802057 0 0 0 -12.8027,-12.80273 z m 51.209,0 a 12.802057,12.802057 0 0 0 -12.8028,12.80273 12.802057,12.802057 0 0 0 12.8028,12.80078 12.802057,12.802057 0 0 0 12.8007,-12.80078 12.802057,12.802057 0 0 0 -12.8007,-12.80273 z m 51.207,0 a 12.802057,12.802057 0 0 0 -12.8027,12.80273 12.802057,12.802057 0 0 0 12.8027,12.80078 12.802057,12.802057 0 0 0 12.8027,-12.80078 12.802057,12.802057 0 0 0 -12.8027,-12.80273 z m 51.209,0 a 12.802057,12.802057 0 0 0 -12.8028,12.80273 12.802057,12.802057 0 0 0 12.8028,12.80078 12.802057,12.802057 0 0 0 12.8008,-12.80078 12.802057,12.802057 0 0 0 -12.8008,-12.80273 z m 51.207,0 a 12.802057,12.802057 0 0 0 -12.8008,12.80273 12.802057,12.802057 0 0 0 12.8008,12.80078 12.802057,12.802057 0 0 0 12.8027,-12.80078 12.802057,12.802057 0 0 0 -12.8027,-12.80273 z m -409.6641,51.20898 a 12.802057,12.802057 0 0 0 -12.8027,12.80078 12.802057,12.802057 0 0 0 12.8027,12.80274 12.802057,12.802057 0 0 0 12.8008,-12.80274 12.802057,12.802057 0 0 0 -12.8008,-12.80078 z m 51.2071,0 a 12.802057,12.802057 0 0 0 -12.8028,12.80078 12.802057,12.802057 0 0 0 12.8028,12.80274 12.802057,12.802057 0 0 0 12.8027,-12.80274 12.802057,12.802057 0 0 0 -12.8027,-12.80078 z m 51.209,0 a 12.802057,12.802057 0 0 0 -12.8028,12.80078 12.802057,12.802057 0 0 0 12.8028,12.80274 12.802057,12.802057 0 0 0 12.8007,-12.80274 12.802057,12.802057 0 0 0 -12.8007,-12.80078 z m 51.207,0 a 12.802057,12.802057 0 0 0 -12.8008,12.80078 12.802057,12.802057 0 0 0 12.8008,12.80274 12.802057,12.802057 0 0 0 12.8027,-12.80274 12.802057,12.802057 0 0 0 -12.8027,-12.80078 z m 51.209,0 a 12.802057,12.802057 0 0 0 -12.8028,12.80078 12.802057,12.802057 0 0 0 12.8028,12.80274 12.802057,12.802057 0 0 0 12.8027,-12.80274 12.802057,12.802057 0 0 0 -12.8027,-12.80078 z m 51.209,0 a 12.802057,12.802057 0 0 0 -12.8028,12.80078 12.802057,12.802057 0 0 0 12.8028,12.80274 12.802057,12.802057 0 0 0 12.8007,-12.80274 12.802057,12.802057 0 0 0 -12.8007,-12.80078 z m 51.207,0 a 12.802057,12.802057 0 0 0 -12.8027,12.80078 12.802057,12.802057 0 0 0 12.8027,12.80274 12.802057,12.802057 0 0 0 12.8027,-12.80274 12.802057,12.802057 0 0 0 -12.8027,-12.80078 z m 51.209,0 a 12.802057,12.802057 0 0 0 -12.8028,12.80078 12.802057,12.802057 0 0 0 12.8028,12.80274 12.802057,12.802057 0 0 0 12.8008,-12.80274 12.802057,12.802057 0 0 0 -12.8008,-12.80078 z m 51.207,0 a 12.802057,12.802057 0 0 0 -12.8008,12.80078 12.802057,12.802057 0 0 0 12.8008,12.80274 12.802057,12.802057 0 0 0 12.8027,-12.80274 12.802057,12.802057 0 0 0 -12.8027,-12.80078 z M 1352.9668,1284.0332 a 12.802057,12.802057 0 0 0 -12.8027,12.8027 12.802057,12.802057 0 0 0 12.8027,12.8008 12.802057,12.802057 0 0 0 12.8008,-12.8008 12.802057,12.802057 0 0 0 -12.8008,-12.8027 z m 51.207,0 a 12.802057,12.802057 0 0 0 -12.8008,12.8027 12.802057,12.802057 0 0 0 12.8008,12.8008 12.802057,12.802057 0 0 0 12.8028,-12.8008 12.802057,12.802057 0 0 0 -12.8028,-12.8027 z m 51.209,0 a 12.802057,12.802057 0 0 0 -12.8027,12.8027 12.802057,12.802057 0 0 0 12.8027,12.8008 12.802057,12.802057 0 0 0 12.8008,-12.8008 12.802057,12.802057 0 0 0 -12.8008,-12.8027 z m 51.207,0 a 12.802057,12.802057 0 0 0 -12.8007,12.8027 12.802057,12.802057 0 0 0 12.8007,12.8008 12.802057,12.802057 0 0 0 12.8028,-12.8008 12.802057,12.802057 0 0 0 -12.8028,-12.8027 z m 51.209,0 a 12.802057,12.802057 0 0 0 -12.8027,12.8027 12.802057,12.802057 0 0 0 12.8027,12.8008 12.802057,12.802057 0 0 0 12.8028,-12.8008 12.802057,12.802057 0 0 0 -12.8028,-12.8027 z m 51.209,0 a 12.802057,12.802057 0 0 0 -12.8027,12.8027 12.802057,12.802057 0 0 0 12.8027,12.8008 12.802057,12.802057 0 0 0 12.8008,-12.8008 12.802057,12.802057 0 0 0 -12.8008,-12.8027 z m 51.207,0 a 12.802057,12.802057 0 0 0 -12.8007,12.8027 12.802057,12.802057 0 0 0 12.8007,12.8008 12.802057,12.802057 0 0 0 12.8028,-12.8008 12.802057,12.802057 0 0 0 -12.8028,-12.8027 z m 51.209,0 a 12.802057,12.802057 0 0 0 -12.8027,12.8027 12.802057,12.802057 0 0 0 12.8027,12.8008 12.802057,12.802057 0 0 0 12.8008,-12.8008 12.802057,12.802057 0 0 0 -12.8008,-12.8027 z m 51.2071,0 a 12.802057,12.802057 0 0 0 -12.8008,12.8027 12.802057,12.802057 0 0 0 12.8008,12.8008 12.802057,12.802057 0 0 0 12.8027,-12.8008 12.802057,12.802057 0 0 0 -12.8027,-12.8027 z m -409.6641,51.209 a 12.802057,12.802057 0 0 0 -12.8027,12.8008 12.802057,12.802057 0 0 0 12.8027,12.8027 12.802057,12.802057 0 0 0 12.8008,-12.8027 12.802057,12.802057 0 0 0 -12.8008,-12.8008 z m 51.207,0 a 12.802057,12.802057 0 0 0 -12.8008,12.8008 12.802057,12.802057 0 0 0 12.8008,12.8027 12.802057,12.802057 0 0 0 12.8028,-12.8027 12.802057,12.802057 0 0 0 -12.8028,-12.8008 z m 51.209,0 a 12.802057,12.802057 0 0 0 -12.8027,12.8008 12.802057,12.802057 0 0 0 12.8027,12.8027 12.802057,12.802057 0 0 0 12.8008,-12.8027 12.802057,12.802057 0 0 0 -12.8008,-12.8008 z m 51.207,0 a 12.802057,12.802057 0 0 0 -12.8007,12.8008 12.802057,12.802057 0 0 0 12.8007,12.8027 12.802057,12.802057 0 0 0 12.8028,-12.8027 12.802057,12.802057 0 0 0 -12.8028,-12.8008 z m 51.209,0 a 12.802057,12.802057 0 0 0 -12.8027,12.8008 12.802057,12.802057 0 0 0 12.8027,12.8027 12.802057,12.802057 0 0 0 12.8028,-12.8027 12.802057,12.802057 0 0 0 -12.8028,-12.8008 z m 51.209,0 a 12.802057,12.802057 0 0 0 -12.8027,12.8008 12.802057,12.802057 0 0 0 12.8027,12.8027 12.802057,12.802057 0 0 0 12.8008,-12.8027 12.802057,12.802057 0 0 0 -12.8008,-12.8008 z m 51.207,0 a 12.802057,12.802057 0 0 0 -12.8007,12.8008 12.802057,12.802057 0 0 0 12.8007,12.8027 12.802057,12.802057 0 0 0 12.8028,-12.8027 12.802057,12.802057 0 0 0 -12.8028,-12.8008 z m 51.209,0 a 12.802057,12.802057 0 0 0 -12.8027,12.8008 12.802057,12.802057 0 0 0 12.8027,12.8027 12.802057,12.802057 0 0 0 12.8008,-12.8027 12.802057,12.802057 0 0 0 -12.8008,-12.8008 z m 51.2071,0 a 12.802057,12.802057 0 0 0 -12.8008,12.8008 12.802057,12.802057 0 0 0 12.8008,12.8027 12.802057,12.802057 0 0 0 12.8027,-12.8027 12.802057,12.802057 0 0 0 -12.8027,-12.8008 z m -409.6641,51.207 a 12.802057,12.802057 0 0 0 -12.8027,12.8028 12.802057,12.802057 0 0 0 12.8027,12.8027 12.802057,12.802057 0 0 0 12.8008,-12.8027 12.802057,12.802057 0 0 0 -12.8008,-12.8028 z m 51.207,0 a 12.802057,12.802057 0 0 0 -12.8008,12.8028 12.802057,12.802057 0 0 0 12.8008,12.8027 12.802057,12.802057 0 0 0 12.8028,-12.8027 12.802057,12.802057 0 0 0 -12.8028,-12.8028 z m 51.209,0 a 12.802057,12.802057 0 0 0 -12.8027,12.8028 12.802057,12.802057 0 0 0 12.8027,12.8027 12.802057,12.802057 0 0 0 12.8008,-12.8027 12.802057,12.802057 0 0 0 -12.8008,-12.8028 z m 51.207,0 a 12.802057,12.802057 0 0 0 -12.8007,12.8028 12.802057,12.802057 0 0 0 12.8007,12.8027 12.802057,12.802057 0 0 0 12.8028,-12.8027 12.802057,12.802057 0 0 0 -12.8028,-12.8028 z m 51.209,0 a 12.802057,12.802057 0 0 0 -12.8027,12.8028 12.802057,12.802057 0 0 0 12.8027,12.8027 12.802057,12.802057 0 0 0 12.8028,-12.8027 12.802057,12.802057 0 0 0 -12.8028,-12.8028 z m 51.209,0 a 12.802057,12.802057 0 0 0 -12.8027,12.8028 12.802057,12.802057 0 0 0 12.8027,12.8027 12.802057,12.802057 0 0 0 12.8008,-12.8027 12.802057,12.802057 0 0 0 -12.8008,-12.8028 z m 51.207,0 a 12.802057,12.802057 0 0 0 -12.8007,12.8028 12.802057,12.802057 0 0 0 12.8007,12.8027 12.802057,12.802057 0 0 0 12.8028,-12.8027 12.802057,12.802057 0 0 0 -12.8028,-12.8028 z m 51.209,0 a 12.802057,12.802057 0 0 0 -12.8027,12.8028 12.802057,12.802057 0 0 0 12.8027,12.8027 12.802057,12.802057 0 0 0 12.8008,-12.8027 12.802057,12.802057 0 0 0 -12.8008,-12.8028 z m 51.2071,0 a 12.802057,12.802057 0 0 0 -12.8008,12.8028 12.802057,12.802057 0 0 0 12.8008,12.8027 12.802057,12.802057 0 0 0 12.8027,-12.8027 12.802057,12.802057 0 0 0 -12.8027,-12.8028 z m -409.6641,51.209 a 12.802057,12.802057 0 0 0 -12.8027,12.8027 12.802057,12.802057 0 0 0 12.8027,12.8008 12.802057,12.802057 0 0 0 12.8008,-12.8008 12.802057,12.802057 0 0 0 -12.8008,-12.8027 z m 51.207,0 a 12.802057,12.802057 0 0 0 -12.8008,12.8027 12.802057,12.802057 0 0 0 12.8008,12.8008 12.802057,12.802057 0 0 0 12.8028,-12.8008 12.802057,12.802057 0 0 0 -12.8028,-12.8027 z m 51.209,0 a 12.802057,12.802057 0 0 0 -12.8027,12.8027 12.802057,12.802057 0 0 0 12.8027,12.8008 12.802057,12.802057 0 0 0 12.8008,-12.8008 12.802057,12.802057 0 0 0 -12.8008,-12.8027 z m 51.207,0 a 12.802057,12.802057 0 0 0 -12.8007,12.8027 12.802057,12.802057 0 0 0 12.8007,12.8008 12.802057,12.802057 0 0 0 12.8028,-12.8008 12.802057,12.802057 0 0 0 -12.8028,-12.8027 z m 51.209,0 a 12.802057,12.802057 0 0 0 -12.8027,12.8027 12.802057,12.802057 0 0 0 12.8027,12.8008 12.802057,12.802057 0 0 0 12.8028,-12.8008 12.802057,12.802057 0 0 0 -12.8028,-12.8027 z m 51.209,0 a 12.802057,12.802057 0 0 0 -12.8027,12.8027 12.802057,12.802057 0 0 0 12.8027,12.8008 12.802057,12.802057 0 0 0 12.8008,-12.8008 12.802057,12.802057 0 0 0 -12.8008,-12.8027 z m 51.207,0 a 12.802057,12.802057 0 0 0 -12.8007,12.8027 12.802057,12.802057 0 0 0 12.8007,12.8008 12.802057,12.802057 0 0 0 12.8028,-12.8008 12.802057,12.802057 0 0 0 -12.8028,-12.8027 z m 51.209,0 a 12.802057,12.802057 0 0 0 -12.8027,12.8027 12.802057,12.802057 0 0 0 12.8027,12.8008 12.802057,12.802057 0 0 0 12.8008,-12.8008 12.802057,12.802057 0 0 0 -12.8008,-12.8027 z m 51.2071,0 a 12.802057,12.802057 0 0 0 -12.8008,12.8027 12.802057,12.802057 0 0 0 12.8008,12.8008 12.802057,12.802057 0 0 0 12.8027,-12.8008 12.802057,12.802057 0 0 0 -12.8027,-12.8027 z m -409.6641,51.207 a 12.802057,12.802057 0 0 0 -12.8027,12.8028 12.802057,12.802057 0 0 0 12.8027,12.8027 12.802057,12.802057 0 0 0 12.8008,-12.8027 12.802057,12.802057 0 0 0 -12.8008,-12.8028 z m 51.207,0 a 12.802057,12.802057 0 0 0 -12.8008,12.8028 12.802057,12.802057 0 0 0 12.8008,12.8027 12.802057,12.802057 0 0 0 12.8028,-12.8027 12.802057,12.802057 0 0 0 -12.8028,-12.8028 z m 51.209,0 a 12.802057,12.802057 0 0 0 -12.8027,12.8028 12.802057,12.802057 0 0 0 12.8027,12.8027 12.802057,12.802057 0 0 0 12.8008,-12.8027 12.802057,12.802057 0 0 0 -12.8008,-12.8028 z m 51.207,0 a 12.802057,12.802057 0 0 0 -12.8007,12.8028 12.802057,12.802057 0 0 0 12.8007,12.8027 12.802057,12.802057 0 0 0 12.8028,-12.8027 12.802057,12.802057 0 0 0 -12.8028,-12.8028 z m 51.209,0 a 12.802057,12.802057 0 0 0 -12.8027,12.8028 12.802057,12.802057 0 0 0 12.8027,12.8027 12.802057,12.802057 0 0 0 12.8028,-12.8027 12.802057,12.802057 0 0 0 -12.8028,-12.8028 z m 51.209,0 a 12.802057,12.802057 0 0 0 -12.8027,12.8028 12.802057,12.802057 0 0 0 12.8027,12.8027 12.802057,12.802057 0 0 0 12.8008,-12.8027 12.802057,12.802057 0 0 0 -12.8008,-12.8028 z m 51.207,0 a 12.802057,12.802057 0 0 0 -12.8007,12.8028 12.802057,12.802057 0 0 0 12.8007,12.8027 12.802057,12.802057 0 0 0 12.8028,-12.8027 12.802057,12.802057 0 0 0 -12.8028,-12.8028 z m 51.209,0 a 12.802057,12.802057 0 0 0 -12.8027,12.8028 12.802057,12.802057 0 0 0 12.8027,12.8027 12.802057,12.802057 0 0 0 12.8008,-12.8027 12.802057,12.802057 0 0 0 -12.8008,-12.8028 z m 51.2071,0 a 12.802057,12.802057 0 0 0 -12.8008,12.8028 12.802057,12.802057 0 0 0 12.8008,12.8027 12.802057,12.802057 0 0 0 12.8027,-12.8027 12.802057,12.802057 0 0 0 -12.8027,-12.8028 z"
       transform="matrix(0.26458334,0,0,0.26458334,0,1.5875001)" />
    <path
       style="fill:url(#linearGradient1470);fill-opacity:1;stroke:none;stroke-width:3.43958;stroke-linecap:square;stroke-linejoin:round;filter:url(#filter2140)"
       id="path1448"
       transform="matrix(0.58185375,0.58185374,-0.58185374,0.58185375,604.64634,34.752598)"
       d="M 248.19869,414.29941 90.338957,456.5978 -25.222388,341.03646 17.075999,183.17672 174.93573,140.87833 290.49708,256.43968 Z" />
    <path
       style="fill:url(#linearGradient1472);fill-opacity:1;stroke:none;stroke-width:3.43958;stroke-linecap:square;stroke-linejoin:round;filter:url(#filter2144)"
       id="path1450"
       transform="matrix(0.21596541,0.80599386,-0.80599386,0.21596541,720.13598,114.32803)"
       d="M 248.19869,414.29941 90.338957,456.5978 -25.222388,341.03646 17.075999,183.17672 174.93573,140.87833 290.49708,256.43968 Z" />
    <path
       id="path4113"
       style="fill:#ffffff;fill-opacity:1;stroke:none;stroke-width:3.43237;stroke-linecap:square;stroke-linejoin:round;stroke-opacity:1"
       d="M 2077.3691 645.5293 A 12.802057 -12.802057 0 0 0 2064.5664 658.33203 A 12.802057 -12.802057 0 0 0 2077.3691 671.13477 A 12.802057 -12.802057 0 0 0 2090.1699 658.33203 A 12.802057 -12.802057 0 0 0 2077.3691 645.5293 z M 2128.5762 645.5293 A 12.802057 -12.802057 0 0 0 2115.7734 658.33203 A 12.802057 -12.802057 0 0 0 2128.5762 671.13477 A 12.802057 -12.802057 0 0 0 2141.3789 658.33203 A 12.802057 -12.802057 0 0 0 2128.5762 645.5293 z M 2179.7852 645.5293 A 12.802057 -12.802057 0 0 0 2166.9824 658.33203 A 12.802057 -12.802057 0 0 0 2179.7852 671.13477 A 12.802057 -12.802057 0 0 0 2192.5859 658.33203 A 12.802057 -12.802057 0 0 0 2179.7852 645.5293 z M 2230.9922 645.5293 A 12.802057 -12.802057 0 0 0 2218.1914 658.33203 A 12.802057 -12.802057 0 0 0 2230.9922 671.13477 A 12.802057 -12.802057 0 0 0 2243.7949 658.33203 A 12.802057 -12.802057 0 0 0 2230.9922 645.5293 z M 2282.2012 645.5293 A 12.802057 -12.802057 0 0 0 2269.3984 658.33203 A 12.802057 -12.802057 0 0 0 2282.2012 671.13477 A 12.802057 -12.802057 0 0 0 2295.0039 658.33203 A 12.802057 -12.802057 0 0 0 2282.2012 645.5293 z M 2333.4102 645.5293 A 12.802057 -12.802057 0 0 0 2320.6074 658.33203 A 12.802057 -12.802057 0 0 0 2333.4102 671.13477 A 12.802057 -12.802057 0 0 0 2346.2109 658.33203 A 12.802057 -12.802057 0 0 0 2333.4102 645.5293 z M 2384.6172 645.5293 A 12.802057 -12.802057 0 0 0 2371.8145 658.33203 A 12.802057 -12.802057 0 0 0 2384.6172 671.13477 A 12.802057 -12.802057 0 0 0 2397.4199 658.33203 A 12.802057 -12.802057 0 0 0 2384.6172 645.5293 z M 2435.8262 645.5293 A 12.802057 -12.802057 0 0 0 2423.0234 658.33203 A 12.802057 -12.802057 0 0 0 2435.8262 671.13477 A 12.802057 -12.802057 0 0 0 2448.627 658.33203 A 12.802057 -12.802057 0 0 0 2435.8262 645.5293 z M 2487.0332 645.5293 A 12.802057 -12.802057 0 0 0 2474.2324 658.33203 A 12.802057 -12.802057 0 0 0 2487.0332 671.13477 A 12.802057 -12.802057 0 0 0 2499.8359 658.33203 A 12.802057 -12.802057 0 0 0 2487.0332 645.5293 z M 2077.3691 696.73828 A 12.802057 -12.802057 0 0 0 2064.5664 709.54102 A 12.802057 -12.802057 0 0 0 2077.3691 722.3418 A 12.802057 -12.802057 0 0 0 2090.1699 709.54102 A 12.802057 -12.802057 0 0 0 2077.3691 696.73828 z M 2128.5762 696.73828 A 12.802057 -12.802057 0 0 0 2115.7734 709.54102 A 12.802057 -12.802057 0 0 0 2128.5762 722.3418 A 12.802057 -12.802057 0 0 0 2141.3789 709.54102 A 12.802057 -12.802057 0 0 0 2128.5762 696.73828 z M 2179.7852 696.73828 A 12.802057 -12.802057 0 0 0 2166.9824 709.54102 A 12.802057 -12.802057 0 0 0 2179.7852 722.3418 A 12.802057 -12.802057 0 0 0 2192.5859 709.54102 A 12.802057 -12.802057 0 0 0 2179.7852 696.73828 z M 2230.9922 696.73828 A 12.802057 -12.802057 0 0 0 2218.1914 709.54102 A 12.802057 -12.802057 0 0 0 2230.9922 722.3418 A 12.802057 -12.802057 0 0 0 2243.7949 709.54102 A 12.802057 -12.802057 0 0 0 2230.9922 696.73828 z M 2282.2012 696.73828 A 12.802057 -12.802057 0 0 0 2269.3984 709.54102 A 12.802057 -12.802057 0 0 0 2282.2012 722.3418 A 12.802057 -12.802057 0 0 0 2295.0039 709.54102 A 12.802057 -12.802057 0 0 0 2282.2012 696.73828 z M 2333.4102 696.73828 A 12.802057 -12.802057 0 0 0 2320.6074 709.54102 A 12.802057 -12.802057 0 0 0 2333.4102 722.3418 A 12.802057 -12.802057 0 0 0 2346.2109 709.54102 A 12.802057 -12.802057 0 0 0 2333.4102 696.73828 z M 2384.6172 696.73828 A 12.802057 -12.802057 0 0 0 2371.8145 709.54102 A 12.802057 -12.802057 0 0 0 2384.6172 722.3418 A 12.802057 -12.802057 0 0 0 2397.4199 709.54102 A 12.802057 -12.802057 0 0 0 2384.6172 696.73828 z M 2435.8262 696.73828 A 12.802057 -12.802057 0 0 0 2423.0234 709.54102 A 12.802057 -12.802057 0 0 0 2435.8262 722.3418 A 12.802057 -12.802057 0 0 0 2448.627 709.54102 A 12.802057 -12.802057 0 0 0 2435.8262 696.73828 z M 2487.0332 696.73828 A 12.802057 -12.802057 0 0 0 2474.2324 709.54102 A 12.802057 -12.802057 0 0 0 2487.0332 722.3418 A 12.802057 -12.802057 0 0 0 2499.8359 709.54102 A 12.802057 -12.802057 0 0 0 2487.0332 696.73828 z M 2077.3691 747.94727 A 12.802057 -12.802057 0 0 0 2064.5664 760.74805 A 12.802057 -12.802057 0 0 0 2077.3691 773.55078 A 12.802057 -12.802057 0 0 0 2090.1699 760.74805 A 12.802057 -12.802057 0 0 0 2077.3691 747.94727 z M 2128.5762 747.94727 A 12.802057 -12.802057 0 0 0 2115.7734 760.74805 A 12.802057 -12.802057 0 0 0 2128.5762 773.55078 A 12.802057 -12.802057 0 0 0 2141.3789 760.74805 A 12.802057 -12.802057 0 0 0 2128.5762 747.94727 z M 2179.7852 747.94727 A 12.802057 -12.802057 0 0 0 2166.9824 760.74805 A 12.802057 -12.802057 0 0 0 2179.7852 773.55078 A 12.802057 -12.802057 0 0 0 2192.5859 760.74805 A 12.802057 -12.802057 0 0 0 2179.7852 747.94727 z M 2230.9922 747.94727 A 12.802057 -12.802057 0 0 0 2218.1914 760.74805 A 12.802057 -12.802057 0 0 0 2230.9922 773.55078 A 12.802057 -12.802057 0 0 0 2243.7949 760.74805 A 12.802057 -12.802057 0 0 0 2230.9922 747.94727 z M 2282.2012 747.94727 A 12.802057 -12.802057 0 0 0 2269.3984 760.74805 A 12.802057 -12.802057 0 0 0 2282.2012 773.55078 A 12.802057 -12.802057 0 0 0 2295.0039 760.74805 A 12.802057 -12.802057 0 0 0 2282.2012 747.94727 z M 2333.4102 747.94727 A 12.802057 -12.802057 0 0 0 2320.6074 760.74805 A 12.802057 -12.802057 0 0 0 2333.4102 773.55078 A 12.802057 -12.802057 0 0 0 2346.2109 760.74805 A 12.802057 -12.802057 0 0 0 2333.4102 747.94727 z M 2384.6172 747.94727 A 12.802057 -12.802057 0 0 0 2371.8145 760.74805 A 12.802057 -12.802057 0 0 0 2384.6172 773.55078 A 12.802057 -12.802057 0 0 0 2397.4199 760.74805 A 12.802057 -12.802057 0 0 0 2384.6172 747.94727 z M 2435.8262 747.94727 A 12.802057 -12.802057 0 0 0 2423.0234 760.74805 A 12.802057 -12.802057 0 0 0 2435.8262 773.55078 A 12.802057 -12.802057 0 0 0 2448.627 760.74805 A 12.802057 -12.802057 0 0 0 2435.8262 747.94727 z M 2487.0332 747.94727 A 12.802057 -12.802057 0 0 0 2474.2324 760.74805 A 12.802057 -12.802057 0 0 0 2487.0332 773.55078 A 12.802057 -12.802057 0 0 0 2499.8359 760.74805 A 12.802057 -12.802057 0 0 0 2487.0332 747.94727 z M 2077.3691 799.1543 A 12.802057 -12.802057 0 0 0 2064.5664 811.95703 A 12.802057 -12.802057 0 0 0 2077.3691 824.75781 A 12.802057 -12.802057 0 0 0 2090.1699 811.95703 A 12.802057 -12.802057 0 0 0 2077.3691 799.1543 z M 2128.5762 799.1543 A 12.802057 -12.802057 0 0 0 2115.7734 811.95703 A 12.802057 -12.802057 0 0 0 2128.5762 824.75781 A 12.802057 -12.802057 0 0 0 2141.3789 811.95703 A 12.802057 -12.802057 0 0 0 2128.5762 799.1543 z M 2179.7852 799.1543 A 12.802057 -12.802057 0 0 0 2166.9824 811.95703 A 12.802057 -12.802057 0 0 0 2179.7852 824.75781 A 12.802057 -12.802057 0 0 0 2192.5859 811.95703 A 12.802057 -12.802057 0 0 0 2179.7852 799.1543 z M 2230.9922 799.1543 A 12.802057 -12.802057 0 0 0 2218.1914 811.95703 A 12.802057 -12.802057 0 0 0 2230.9922 824.75781 A 12.802057 -12.802057 0 0 0 2243.7949 811.95703 A 12.802057 -12.802057 0 0 0 2230.9922 799.1543 z M 2282.2012 799.1543 A 12.802057 -12.802057 0 0 0 2269.3984 811.95703 A 12.802057 -12.802057 0 0 0 2282.2012 824.75781 A 12.802057 -12.802057 0 0 0 2295.0039 811.95703 A 12.802057 -12.802057 0 0 0 2282.2012 799.1543 z M 2333.4102 799.1543 A 12.802057 -12.802057 0 0 0 2320.6074 811.95703 A 12.802057 -12.802057 0 0 0 2333.4102 824.75781 A 12.802057 -12.802057 0 0 0 2346.2109 811.95703 A 12.802057 -12.802057 0 0 0 2333.4102 799.1543 z M 2384.6172 799.1543 A 12.802057 -12.802057 0 0 0 2371.8145 811.95703 A 12.802057 -12.802057 0 0 0 2384.6172 824.75781 A 12.802057 -12.802057 0 0 0 2397.4199 811.95703 A 12.802057 -12.802057 0 0 0 2384.6172 799.1543 z M 2435.8262 799.1543 A 12.802057 -12.802057 0 0 0 2423.0234 811.95703 A 12.802057 -12.802057 0 0 0 2435.8262 824.75781 A 12.802057 -12.802057 0 0 0 2448.627 811.95703 A 12.802057 -12.802057 0 0 0 2435.8262 799.1543 z M 2487.0332 799.1543 A 12.802057 -12.802057 0 0 0 2474.2324 811.95703 A 12.802057 -12.802057 0 0 0 2487.0332 824.75781 A 12.802057 -12.802057 0 0 0 2499.8359 811.95703 A 12.802057 -12.802057 0 0 0 2487.0332 799.1543 z M 2077.3691 850.36328 A 12.802057 -12.802057 0 0 0 2064.5664 863.16406 A 12.802057 -12.802057 0 0 0 2077.3691 875.9668 A 12.802057 -12.802057 0 0 0 2090.1699 863.16406 A 12.802057 -12.802057 0 0 0 2077.3691 850.36328 z M 2128.5762 850.36328 A 12.802057 -12.802057 0 0 0 2115.7734 863.16406 A 12.802057 -12.802057 0 0 0 2128.5762 875.9668 A 12.802057 -12.802057 0 0 0 2141.3789 863.16406 A 12.802057 -12.802057 0 0 0 2128.5762 850.36328 z M 2179.7852 850.36328 A 12.802057 -12.802057 0 0 0 2166.9824 863.16406 A 12.802057 -12.802057 0 0 0 2179.7852 875.9668 A 12.802057 -12.802057 0 0 0 2192.5859 863.16406 A 12.802057 -12.802057 0 0 0 2179.7852 850.36328 z M 2230.9922 850.36328 A 12.802057 -12.802057 0 0 0 2218.1914 863.16406 A 12.802057 -12.802057 0 0 0 2230.9922 875.9668 A 12.802057 -12.802057 0 0 0 2243.7949 863.16406 A 12.802057 -12.802057 0 0 0 2230.9922 850.36328 z M 2282.2012 850.36328 A 12.802057 -12.802057 0 0 0 2269.3984 863.16406 A 12.802057 -12.802057 0 0 0 2282.2012 875.9668 A 12.802057 -12.802057 0 0 0 2295.0039 863.16406 A 12.802057 -12.802057 0 0 0 2282.2012 850.36328 z M 2333.4102 850.36328 A 12.802057 -12.802057 0 0 0 2320.6074 863.16406 A 12.802057 -12.802057 0 0 0 2333.4102 875.9668 A 12.802057 -12.802057 0 0 0 2346.2109 863.16406 A 12.802057 -12.802057 0 0 0 2333.4102 850.36328 z M 2384.6172 850.36328 A 12.802057 -12.802057 0 0 0 2371.8145 863.16406 A 12.802057 -12.802057 0 0 0 2384.6172 875.9668 A 12.802057 -12.802057 0 0 0 2397.4199 863.16406 A 12.802057 -12.802057 0 0 0 2384.6172 850.36328 z M 2435.8262 850.36328 A 12.802057 -12.802057 0 0 0 2423.0234 863.16406 A 12.802057 -12.802057 0 0 0 2435.8262 875.9668 A 12.802057 -12.802057 0 0 0 2448.627 863.16406 A 12.802057 -12.802057 0 0 0 2435.8262 850.36328 z M 2487.0332 850.36328 A 12.802057 -12.802057 0 0 0 2474.2324 863.16406 A 12.802057 -12.802057 0 0 0 2487.0332 875.9668 A 12.802057 -12.802057 0 0 0 2499.8359 863.16406 A 12.802057 -12.802057 0 0 0 2487.0332 850.36328 z M 1352.9668 1284.0332 A 12.802057 -12.802057 0 0 0 1340.1641 1296.8359 A 12.802057 -12.802057 0 0 0 1352.9668 1309.6367 A 12.802057 -12.802057 0 0 0 1365.7676 1296.8359 A 12.802057 -12.802057 0 0 0 1352.9668 1284.0332 z M 1404.1738 1284.0332 A 12.802057 -12.802057 0 0 0 1391.373 1296.8359 A 12.802057 -12.802057 0 0 0 1404.1738 1309.6367 A 12.802057 -12.802057 0 0 0 1416.9766 1296.8359 A 12.802057 -12.802057 0 0 0 1404.1738 1284.0332 z M 1455.3828 1284.0332 A 12.802057 -12.802057 0 0 0 1442.5801 1296.8359 A 12.802057 -12.802057 0 0 0 1455.3828 1309.6367 A 12.802057 -12.802057 0 0 0 1468.1836 1296.8359 A 12.802057 -12.802057 0 0 0 1455.3828 1284.0332 z M 1506.5898 1284.0332 A 12.802057 -12.802057 0 0 0 1493.7891 1296.8359 A 12.802057 -12.802057 0 0 0 1506.5898 1309.6367 A 12.802057 -12.802057 0 0 0 1519.3926 1296.8359 A 12.802057 -12.802057 0 0 0 1506.5898 1284.0332 z M 1557.7988 1284.0332 A 12.802057 -12.802057 0 0 0 1544.9961 1296.8359 A 12.802057 -12.802057 0 0 0 1557.7988 1309.6367 A 12.802057 -12.802057 0 0 0 1570.6016 1296.8359 A 12.802057 -12.802057 0 0 0 1557.7988 1284.0332 z M 1609.0078 1284.0332 A 12.802057 -12.802057 0 0 0 1596.2051 1296.8359 A 12.802057 -12.802057 0 0 0 1609.0078 1309.6367 A 12.802057 -12.802057 0 0 0 1621.8086 1296.8359 A 12.802057 -12.802057 0 0 0 1609.0078 1284.0332 z M 1660.2148 1284.0332 A 12.802057 -12.802057 0 0 0 1647.4141 1296.8359 A 12.802057 -12.802057 0 0 0 1660.2148 1309.6367 A 12.802057 -12.802057 0 0 0 1673.0176 1296.8359 A 12.802057 -12.802057 0 0 0 1660.2148 1284.0332 z M 1711.4238 1284.0332 A 12.802057 -12.802057 0 0 0 1698.6211 1296.8359 A 12.802057 -12.802057 0 0 0 1711.4238 1309.6367 A 12.802057 -12.802057 0 0 0 1724.2246 1296.8359 A 12.802057 -12.802057 0 0 0 1711.4238 1284.0332 z M 1762.6309 1284.0332 A 12.802057 -12.802057 0 0 0 1749.8301 1296.8359 A 12.802057 -12.802057 0 0 0 1762.6309 1309.6367 A 12.802057 -12.802057 0 0 0 1775.4336 1296.8359 A 12.802057 -12.802057 0 0 0 1762.6309 1284.0332 z M 1352.9668 1335.2422 A 12.802057 -12.802057 0 0 0 1340.1641 1348.043 A 12.802057 -12.802057 0 0 0 1352.9668 1360.8457 A 12.802057 -12.802057 0 0 0 1365.7676 1348.043 A 12.802057 -12.802057 0 0 0 1352.9668 1335.2422 z M 1404.1738 1335.2422 A 12.802057 -12.802057 0 0 0 1391.373 1348.043 A 12.802057 -12.802057 0 0 0 1404.1738 1360.8457 A 12.802057 -12.802057 0 0 0 1416.9766 1348.043 A 12.802057 -12.802057 0 0 0 1404.1738 1335.2422 z M 1455.3828 1335.2422 A 12.802057 -12.802057 0 0 0 1442.5801 1348.043 A 12.802057 -12.802057 0 0 0 1455.3828 1360.8457 A 12.802057 -12.802057 0 0 0 1468.1836 1348.043 A 12.802057 -12.802057 0 0 0 1455.3828 1335.2422 z M 1506.5898 1335.2422 A 12.802057 -12.802057 0 0 0 1493.7891 1348.043 A 12.802057 -12.802057 0 0 0 1506.5898 1360.8457 A 12.802057 -12.802057 0 0 0 1519.3926 1348.043 A 12.802057 -12.802057 0 0 0 1506.5898 1335.2422 z M 1557.7988 1335.2422 A 12.802057 -12.802057 0 0 0 1544.9961 1348.043 A 12.802057 -12.802057 0 0 0 1557.7988 1360.8457 A 12.802057 -12.802057 0 0 0 1570.6016 1348.043 A 12.802057 -12.802057 0 0 0 1557.7988 1335.2422 z M 1609.0078 1335.2422 A 12.802057 -12.802057 0 0 0 1596.2051 1348.043 A 12.802057 -12.802057 0 0 0 1609.0078 1360.8457 A 12.802057 -12.802057 0 0 0 1621.8086 1348.043 A 12.802057 -12.802057 0 0 0 1609.0078 1335.2422 z M 1660.2148 1335.2422 A 12.802057 -12.802057 0 0 0 1647.4141 1348.043 A 12.802057 -12.802057 0 0 0 1660.2148 1360.8457 A 12.802057 -12.802057 0 0 0 1673.0176 1348.043 A 12.802057 -12.802057 0 0 0 1660.2148 1335.2422 z M 1711.4238 1335.2422 A 12.802057 -12.802057 0 0 0 1698.6211 1348.043 A 12.802057 -12.802057 0 0 0 1711.4238 1360.8457 A 12.802057 -12.802057 0 0 0 1724.2246 1348.043 A 12.802057 -12.802057 0 0 0 1711.4238 1335.2422 z M 1762.6309 1335.2422 A 12.802057 -12.802057 0 0 0 1749.8301 1348.043 A 12.802057 -12.802057 0 0 0 1762.6309 1360.8457 A 12.802057 -12.802057 0 0 0 1775.4336 1348.043 A 12.802057 -12.802057 0 0 0 1762.6309 1335.2422 z M 1352.9668 1386.4492 A 12.802057 -12.802057 0 0 0 1340.1641 1399.252 A 12.802057 -12.802057 0 0 0 1352.9668 1412.0547 A 12.802057 -12.802057 0 0 0 1365.7676 1399.252 A 12.802057 -12.802057 0 0 0 1352.9668 1386.4492 z M 1404.1738 1386.4492 A 12.802057 -12.802057 0 0 0 1391.373 1399.252 A 12.802057 -12.802057 0 0 0 1404.1738 1412.0547 A 12.802057 -12.802057 0 0 0 1416.9766 1399.252 A 12.802057 -12.802057 0 0 0 1404.1738 1386.4492 z M 1455.3828 1386.4492 A 12.802057 -12.802057 0 0 0 1442.5801 1399.252 A 12.802057 -12.802057 0 0 0 1455.3828 1412.0547 A 12.802057 -12.802057 0 0 0 1468.1836 1399.252 A 12.802057 -12.802057 0 0 0 1455.3828 1386.4492 z M 1506.5898 1386.4492 A 12.802057 -12.802057 0 0 0 1493.7891 1399.252 A 12.802057 -12.802057 0 0 0 1506.5898 1412.0547 A 12.802057 -12.802057 0 0 0 1519.3926 1399.252 A 12.802057 -12.802057 0 0 0 1506.5898 1386.4492 z M 1557.7988 1386.4492 A 12.802057 -12.802057 0 0 0 1544.9961 1399.252 A 12.802057 -12.802057 0 0 0 1557.7988 1412.0547 A 12.802057 -12.802057 0 0 0 1570.6016 1399.252 A 12.802057 -12.802057 0 0 0 1557.7988 1386.4492 z M 1609.0078 1386.4492 A 12.802057 -12.802057 0 0 0 1596.2051 1399.252 A 12.802057 -12.802057 0 0 0 1609.0078 1412.0547 A 12.802057 -12.802057 0 0 0 1621.8086 1399.252 A 12.802057 -12.802057 0 0 0 1609.0078 1386.4492 z M 1660.2148 1386.4492 A 12.802057 -12.802057 0 0 0 1647.4141 1399.252 A 12.802057 -12.802057 0 0 0 1660.2148 1412.0547 A 12.802057 -12.802057 0 0 0 1673.0176 1399.252 A 12.802057 -12.802057 0 0 0 1660.2148 1386.4492 z M 1711.4238 1386.4492 A 12.802057 -12.802057 0 0 0 1698.6211 1399.252 A 12.802057 -12.802057 0 0 0 1711.4238 1412.0547 A 12.802057 -12.802057 0 0 0 1724.2246 1399.252 A 12.802057 -12.802057 0 0 0 1711.4238 1386.4492 z M 1762.6309 1386.4492 A 12.802057 -12.802057 0 0 0 1749.8301 1399.252 A 12.802057 -12.802057 0 0 0 1762.6309 1412.0547 A 12.802057 -12.802057 0 0 0 1775.4336 1399.252 A 12.802057 -12.802057 0 0 0 1762.6309 1386.4492 z M 1352.9668 1437.6582 A 12.802057 -12.802057 0 0 0 1340.1641 1450.4609 A 12.802057 -12.802057 0 0 0 1352.9668 1463.2617 A 12.802057 -12.802057 0 0 0 1365.7676 1450.4609 A 12.802057 -12.802057 0 0 0 1352.9668 1437.6582 z M 1404.1738 1437.6582 A 12.802057 -12.802057 0 0 0 1391.373 1450.4609 A 12.802057 -12.802057 0 0 0 1404.1738 1463.2617 A 12.802057 -12.802057 0 0 0 1416.9766 1450.4609 A 12.802057 -12.802057 0 0 0 1404.1738 1437.6582 z M 1455.3828 1437.6582 A 12.802057 -12.802057 0 0 0 1442.5801 1450.4609 A 12.802057 -12.802057 0 0 0 1455.3828 1463.2617 A 12.802057 -12.802057 0 0 0 1468.1836 1450.4609 A 12.802057 -12.802057 0 0 0 1455.3828 1437.6582 z M 1506.5898 1437.6582 A 12.802057 -12.802057 0 0 0 1493.7891 1450.4609 A 12.802057 -12.802057 0 0 0 1506.5898 1463.2617 A 12.802057 -12.802057 0 0 0 1519.3926 1450.4609 A 12.802057 -12.802057 0 0 0 1506.5898 1437.6582 z M 1557.7988 1437.6582 A 12.802057 -12.802057 0 0 0 1544.9961 1450.4609 A 12.802057 -12.802057 0 0 0 1557.7988 1463.2617 A 12.802057 -12.802057 0 0 0 1570.6016 1450.4609 A 12.802057 -12.802057 0 0 0 1557.7988 1437.6582 z M 1609.0078 1437.6582 A 12.802057 -12.802057 0 0 0 1596.2051 1450.4609 A 12.802057 -12.802057 0 0 0 1609.0078 1463.2617 A 12.802057 -12.802057 0 0 0 1621.8086 1450.4609 A 12.802057 -12.802057 0 0 0 1609.0078 1437.6582 z M 1660.2148 1437.6582 A 12.802057 -12.802057 0 0 0 1647.4141 1450.4609 A 12.802057 -12.802057 0 0 0 1660.2148 1463.2617 A 12.802057 -12.802057 0 0 0 1673.0176 1450.4609 A 12.802057 -12.802057 0 0 0 1660.2148 1437.6582 z M 1711.4238 1437.6582 A 12.802057 -12.802057 0 0 0 1698.6211 1450.4609 A 12.802057 -12.802057 0 0 0 1711.4238 1463.2617 A 12.802057 -12.802057 0 0 0 1724.2246 1450.4609 A 12.802057 -12.802057 0 0 0 1711.4238 1437.6582 z M 1762.6309 1437.6582 A 12.802057 -12.802057 0 0 0 1749.8301 1450.4609 A 12.802057 -12.802057 0 0 0 1762.6309 1463.2617 A 12.802057 -12.802057 0 0 0 1775.4336 1450.4609 A 12.802057 -12.802057 0 0 0 1762.6309 1437.6582 z M 1352.9668 1488.8652 A 12.802057 -12.802057 0 0 0 1340.1641 1501.668 A 12.802057 -12.802057 0 0 0 1352.9668 1514.4707 A 12.802057 -12.802057 0 0 0 1365.7676 1501.668 A 12.802057 -12.802057 0 0 0 1352.9668 1488.8652 z M 1404.1738 1488.8652 A 12.802057 -12.802057 0 0 0 1391.373 1501.668 A 12.802057 -12.802057 0 0 0 1404.1738 1514.4707 A 12.802057 -12.802057 0 0 0 1416.9766 1501.668 A 12.802057 -12.802057 0 0 0 1404.1738 1488.8652 z M 1455.3828 1488.8652 A 12.802057 -12.802057 0 0 0 1442.5801 1501.668 A 12.802057 -12.802057 0 0 0 1455.3828 1514.4707 A 12.802057 -12.802057 0 0 0 1468.1836 1501.668 A 12.802057 -12.802057 0 0 0 1455.3828 1488.8652 z M 1506.5898 1488.8652 A 12.802057 -12.802057 0 0 0 1493.7891 1501.668 A 12.802057 -12.802057 0 0 0 1506.5898 1514.4707 A 12.802057 -12.802057 0 0 0 1519.3926 1501.668 A 12.802057 -12.802057 0 0 0 1506.5898 1488.8652 z M 1557.7988 1488.8652 A 12.802057 -12.802057 0 0 0 1544.9961 1501.668 A 12.802057 -12.802057 0 0 0 1557.7988 1514.4707 A 12.802057 -12.802057 0 0 0 1570.6016 1501.668 A 12.802057 -12.802057 0 0 0 1557.7988 1488.8652 z M 1609.0078 1488.8652 A 12.802057 -12.802057 0 0 0 1596.2051 1501.668 A 12.802057 -12.802057 0 0 0 1609.0078 1514.4707 A 12.802057 -12.802057 0 0 0 1621.8086 1501.668 A 12.802057 -12.802057 0 0 0 1609.0078 1488.8652 z M 1660.2148 1488.8652 A 12.802057 -12.802057 0 0 0 1647.4141 1501.668 A 12.802057 -12.802057 0 0 0 1660.2148 1514.4707 A 12.802057 -12.802057 0 0 0 1673.0176 1501.668 A 12.802057 -12.802057 0 0 0 1660.2148 1488.8652 z M 1711.4238 1488.8652 A 12.802057 -12.802057 0 0 0 1698.6211 1501.668 A 12.802057 -12.802057 0 0 0 1711.4238 1514.4707 A 12.802057 -12.802057 0 0 0 1724.2246 1501.668 A 12.802057 -12.802057 0 0 0 1711.4238 1488.8652 z M 1762.6309 1488.8652 A 12.802057 -12.802057 0 0 0 1749.8301 1501.668 A 12.802057 -12.802057 0 0 0 1762.6309 1514.4707 A 12.802057 -12.802057 0 0 0 1775.4336 1501.668 A 12.802057 -12.802057 0 0 0 1762.6309 1488.8652 z "
       transform="scale(0.26458334)" />
    <path
       style="opacity:1;fill:url(#linearGradient1378);fill-opacity:1;stroke:#ffffff;stroke-width:6.67154519;stroke-linecap:square;stroke-linejoin:round;stroke-miterlimit:4;stroke-dasharray:none;stroke-opacity:1"
       id="path1376"
       d="M 248.19869,414.29941 90.338957,456.5978 -25.222388,341.03646 17.075999,183.17672 174.93573,140.87833 290.49708,256.43968 Z"
       transform="matrix(0.5608556,0.56085559,-0.56085559,0.5608556,601.15853,43.810681)" />
    <path
       style="opacity:0.1;fill:#000000;fill-opacity:1;stroke:none;stroke-width:3.43958;stroke-linecap:square;stroke-linejoin:round;filter:url(#filter2396)"
       id="path2390"
       d="M 248.19869,414.29941 90.338957,456.5978 -25.222388,341.03646 17.075999,183.17672 174.93573,140.87833 290.49708,256.43968 Z"
       transform="matrix(0.21596541,0.80599386,-0.80599386,0.21596541,720.13598,119.61973)" />
    <path
       style="opacity:1;fill:url(#linearGradient898);fill-opacity:1;stroke:#ffffff;stroke-width:6.57911233;stroke-linecap:square;stroke-linejoin:round;stroke-miterlimit:4;stroke-dasharray:none;stroke-opacity:1"
       id="path855"
       d="M 248.19869,414.29941 90.338957,456.5978 -25.222388,341.03646 17.075999,183.17672 174.93573,140.87833 290.49708,256.43968 Z"
       transform="matrix(0.20817158,0.77690687,-0.77690687,0.20817158,712.48034,120.51437)" />
    <path
       d="m 471.44659,214.43753 c 0,0 -30.31201,-2.01697 -81.93029,14.13462 -52.60373,16.45966 -82.43787,39.78971 -82.43787,39.78971 0,0 78.404,-43.77611 166.90011,-46.26353 z m 113.06154,47.59626 3.94069,-0.25706 c 0,0 -22.5773,-27.39301 -65.79181,-40.73658 24.29206,9.87455 45.43536,22.95811 61.84993,40.99185 z m 6.44916,11.38155 c 0.60586,-1.05046 2.56167,3.33723 4.04694,5.18055 0.0628,0.36804 0.16742,0.59266 -0.69376,0.41548 -0.0724,-0.37839 -0.19739,-0.4881 -0.19739,-0.4881 0,0 -2.07865,-1.23679 -2.71596,-2.11414 -0.63777,-0.87728 -0.75096,-2.41186 -0.44003,-2.99379 z m 53.03416,130.39626 c 0,0 4.79287,-55.02587 -81.6602,-67.71225 -10.95734,-1.60772 -24.81444,-2.8451 -38.83092,-2.88054 -69.2914,0.91618 -71.8174,-79.91781 -19.60368,-83.99917 21.63901,-1.78548 47.47755,9.88763 72.73753,21.65088 -0.0938,3.13716 0.0359,5.92497 2.09698,8.50114 2.06039,2.57534 9.97545,5.38503 12.50473,6.83623 2.52905,1.45169 10.63119,6.60292 15.5962,13.06544 1.07672,-2.01408 10.06868,-7.8671 10.06868,-7.8671 0,0 -2.1541,0.0469 -7.16541,-1.82606 -5.01193,-1.87291 -10.95916,-7.5397 -11.09987,-7.86711 -0.14039,-0.32806 -0.2339,-0.84301 0.93732,-1.07733 0.88932,-0.74874 -1.12476,-3.18409 -2.01468,-4.07336 -0.88928,-0.8899 -6.83769,-11.0043 -6.97781,-11.23877 -0.14039,-0.23421 -0.18759,-0.4681 -0.6087,-0.74929 -1.3117,-0.4218 -7.07222,0.60869 -7.07222,0.60869 0,0 -8.85938,-4.35121 -11.91315,-13.73244 0.0445,1.64319 -1.51918,3.43726 0,7.21232 -4.61924,-1.95407 -8.58693,-5.28681 -11.71638,-13.52257 -1.86263,4.68423 0,7.6626 0,7.6626 0,0 -10.87752,-3.03953 -12.61781,-13.07108 -1.9101,4.50316 0,7.21171 0,7.21171 0,0 -17.73308,-9.25272 -47.19852,-9.38686 -19.72716,-1.8095 -23.83408,-36.51274 -22.00649,-42.3543 0,0 -28.45389,-14.99603 -84.46519,-21.62119 -56.01133,-6.6258 -101.94833,-0.9985 -101.94833,-0.9985 0,0 99.20267,-4.76081 178.67522,27.41381 2.70166,12.08355 10.82885,32.20873 15.20618,41.88233 -12.52523,8.65993 -26.64945,16.80311 -28.84894,45.6847 -2.19875,28.8804 22.63159,54.28379 53.42297,55.06739 29.2381,1.55744 49.43956,1.77864 73.92486,14.47301 23.37187,12.923 42.53537,52.30099 44.43208,87.71547 2.04834,-26.27633 -7.81251,-82.7822 -53.82666,-99.93878 64.31356,11.25477 69.97112,58.93208 69.97112,58.93208 z m -174.05957,-193.68877 -2.31416,-7.46431 c 0,0 -38.18386,-6.78072 -89.52313,-3.13152 -51.33925,3.6492 -103.17422,21.6206 -103.17422,21.6206 0,0 106.06235,-26.68776 195.00963,-11.02506"
       style="fill:#000000;fill-opacity:1;stroke-width:2.96828;paint-order:stroke fill markers;opacity:0.3;filter:url(#filter5103)"
       id="path2294" />
    <path
       d="m 471.44659,211.79168 c 0,0 -30.31201,-2.01697 -81.93029,14.13462 -52.60373,16.45966 -82.43787,39.78971 -82.43787,39.78971 0,0 78.404,-43.77611 166.90011,-46.26353 z m 113.06154,47.59626 3.94069,-0.25706 c 0,0 -22.5773,-27.39301 -65.79181,-40.73658 24.29206,9.87455 45.43536,22.95811 61.84993,40.99185 z m 6.44916,11.38155 c 0.60586,-1.05046 2.56167,3.33723 4.04694,5.18055 0.0628,0.36804 0.16742,0.59266 -0.69376,0.41548 -0.0724,-0.37839 -0.19739,-0.4881 -0.19739,-0.4881 0,0 -2.07865,-1.23679 -2.71596,-2.11414 -0.63777,-0.87728 -0.75096,-2.41186 -0.44003,-2.99379 z m 53.03416,130.39626 c 0,0 4.79287,-55.02587 -81.6602,-67.71225 -10.95734,-1.60772 -24.81444,-2.8451 -38.83092,-2.88054 -69.2914,0.91618 -71.8174,-79.91781 -19.60368,-83.99917 21.63901,-1.78548 47.47755,9.88763 72.73753,21.65088 -0.0938,3.13716 0.0359,5.92497 2.09698,8.50114 2.06039,2.57534 9.97545,5.38503 12.50473,6.83623 2.52905,1.45169 10.63119,6.60292 15.5962,13.06544 1.07672,-2.01408 10.06868,-7.8671 10.06868,-7.8671 0,0 -2.1541,0.0469 -7.16541,-1.82606 -5.01193,-1.87291 -10.95916,-7.5397 -11.09987,-7.86711 -0.14039,-0.32806 -0.2339,-0.84301 0.93732,-1.07733 0.88932,-0.74874 -1.12476,-3.18409 -2.01468,-4.07336 -0.88928,-0.8899 -6.83769,-11.0043 -6.97781,-11.23877 -0.14039,-0.23421 -0.18759,-0.4681 -0.6087,-0.74929 -1.3117,-0.4218 -7.07222,0.60869 -7.07222,0.60869 0,0 -8.85938,-4.35121 -11.91315,-13.73244 0.0445,1.64319 -1.51918,3.43726 0,7.21232 -4.61924,-1.95407 -8.58693,-5.28681 -11.71638,-13.52257 -1.86263,4.68423 0,7.6626 0,7.6626 0,0 -10.87752,-3.03953 -12.61781,-13.07108 -1.9101,4.50316 0,7.21171 0,7.21171 0,0 -17.73308,-9.25272 -47.19852,-9.38686 -19.72716,-1.8095 -23.83408,-36.51274 -22.00649,-42.3543 0,0 -28.45389,-14.99603 -84.46519,-21.62119 -56.01133,-6.6258 -101.94833,-0.9985 -101.94833,-0.9985 0,0 99.20267,-4.76081 178.67522,27.41381 2.70166,12.08355 10.82885,32.20873 15.20618,41.88233 -12.52523,8.65993 -26.64945,16.80311 -28.84894,45.6847 -2.19875,28.8804 22.63159,54.28379 53.42297,55.06739 29.2381,1.55744 49.43956,1.77864 73.92486,14.47301 23.37187,12.923 42.53537,52.30099 44.43208,87.71547 2.04834,-26.27633 -7.81251,-82.7822 -53.82666,-99.93878 64.31356,11.25477 69.97112,58.93208 69.97112,58.93208 z m -174.05957,-193.68877 -2.31416,-7.46431 c 0,0 -38.18386,-6.78072 -89.52313,-3.13152 -51.33925,3.6492 -103.17422,21.6206 -103.17422,21.6206 0,0 106.06235,-26.68776 195.00963,-11.02506"
       style="fill:#ffffff;stroke-width:2.96828;paint-order:stroke fill markers;fill-opacity:1"
       id="path6" />
    <path
       style="fill:none;stroke:#ffffff;stroke-width:6.94573;stroke-linecap:round;stroke-linejoin:miter;stroke-miterlimit:4;stroke-dasharray:none;stroke-opacity:1"
       d="m 169.0779,373.58673 54.88692,-31.68896"
       id="path5158" />
    <path
       style="fill:none;stroke:#ffffff;stroke-width:6.94573;stroke-linecap:round;stroke-linejoin:miter;stroke-miterlimit:4;stroke-dasharray:none;stroke-opacity:1"
       d="m 169.0779,373.58673 54.88692,-31.68896"
       id="path5160" />
    <path
       style="fill:none;stroke:#ffffff;stroke-width:6.94573;stroke-linecap:round;stroke-linejoin:miter;stroke-miterlimit:4;stroke-dasharray:none;stroke-opacity:1"
       d="m 157.06461,433.38819 98.04406,-56.60576"
       id="path5162" />
    <path
       style="fill:none;stroke:#ffffff;stroke-width:6.94573;stroke-linecap:round;stroke-linejoin:miter;stroke-miterlimit:4;stroke-dasharray:none;stroke-opacity:1"
       d="m 247.28479,412.5004 62.64827,-36.16999"
       id="path5164" />
    <path
       style="fill:none;stroke:#ffffff;stroke-width:6.94573;stroke-linecap:round;stroke-linejoin:miter;stroke-miterlimit:4;stroke-dasharray:none;stroke-opacity:1"
       d="M 264.84166,345.38397 312.2715,318.00033"
       id="path5166" />
    <path
       style="fill:none;stroke:#ffffff;stroke-width:6.94573;stroke-linecap:round;stroke-linejoin:miter;stroke-miterlimit:4;stroke-dasharray:none;stroke-opacity:1"
       d="m 273.15065,427.57265 33.00559,-19.05581"
       id="path5170" />
    <path
       style="fill:none;stroke:#ffffff;stroke-width:6.94573;stroke-linecap:round;stroke-linejoin:miter;stroke-miterlimit:4;stroke-dasharray:none;stroke-opacity:1"
       d="M 236.29571,504.90716 340.18692,444.92553"
       id="path5172" />
    <path
       style="fill:none;stroke:#ffffff;stroke-width:6.94573;stroke-linecap:round;stroke-linejoin:miter;stroke-miterlimit:4;stroke-dasharray:none;stroke-opacity:1"
       d="M 632.75229,140.96567 731.39607,84.013666"
       id="path5174" />
    <path
       style="fill:none;stroke:#ffffff;stroke-width:6.94573;stroke-linecap:round;stroke-linejoin:miter;stroke-miterlimit:4;stroke-dasharray:none;stroke-opacity:1"
       d="M 731.92092,138.50969 801.27911,98.465713"
       id="path5176" />
    <path
       style="fill:none;stroke:#ffffff;stroke-width:6.94573;stroke-linecap:round;stroke-linejoin:miter;stroke-miterlimit:4;stroke-dasharray:none;stroke-opacity:1"
       d="m 690.82156,137.44676 25.34158,-14.63094"
       id="path5178" />
    <path
       style="fill:none;stroke:#ffffff;stroke-width:6.94573;stroke-linecap:round;stroke-linejoin:miter;stroke-miterlimit:4;stroke-dasharray:none;stroke-opacity:1"
       d="m 692.5416,240.38138 38.92149,-22.47133"
       id="path5182" />
    <path
       style="fill:none;stroke:#ffffff;stroke-width:6.94573;stroke-linecap:round;stroke-linejoin:miter;stroke-miterlimit:4;stroke-dasharray:none;stroke-opacity:1"
       d="m 700.59088,194.92768 57.09038,-32.96115"
       id="path5184" />
    <path
       style="fill:none;stroke:#ffffff;stroke-width:6.94573;stroke-linecap:round;stroke-linejoin:miter;stroke-miterlimit:4;stroke-dasharray:none;stroke-opacity:1"
       d="M 794.38055,152.79941 896.49043,93.846253"
       id="path5186" />
    <path
       style="fill:none;stroke:#ffffff;stroke-width:6.94573;stroke-linecap:round;stroke-linejoin:miter;stroke-miterlimit:4;stroke-dasharray:none;stroke-opacity:1"
       d="M 765.15267,259.91321 872.66826,197.83902"
       id="path5188" />
    <path
       style="fill:none;stroke:#ffffff;stroke-width:6.94573;stroke-linecap:round;stroke-linejoin:miter;stroke-miterlimit:4;stroke-dasharray:none;stroke-opacity:1"
       d="m 849.9664,231.8216 27.52456,-15.89129"
       id="path5190" />
    <path
       style="fill:none;stroke:#ffffff;stroke-width:6.94573;stroke-linecap:round;stroke-linejoin:miter;stroke-miterlimit:4;stroke-dasharray:none;stroke-opacity:1"
       d="m 837.51498,185.78297 88.10811,-50.86923"
       id="path5192" />
    <path
       style="fill:none;stroke:#ffffff;stroke-width:6.94573;stroke-linecap:round;stroke-linejoin:miter;stroke-miterlimit:4;stroke-dasharray:none;stroke-opacity:1"
       d="m 741.61365,335.79043 69.03621,-39.85806"
       id="path5194" />
    <path
       style="fill:none;stroke:#ffffff;stroke-width:6.94573;stroke-linecap:round;stroke-linejoin:miter;stroke-miterlimit:4;stroke-dasharray:none;stroke-opacity:1"
       d="m 378.4316,466.2972 46.11085,-26.62211"
       id="path5196" />
    <path
       style="fill:none;stroke:#ffffff;stroke-width:6.94573;stroke-linecap:round;stroke-linejoin:miter;stroke-miterlimit:4;stroke-dasharray:none;stroke-opacity:1"
       d="m 346.34087,494.6824 13.3362,-7.69968"
       id="path5198" />
    <path
       style="fill:none;stroke:#ffffff;stroke-width:6.94573;stroke-linecap:round;stroke-linejoin:miter;stroke-miterlimit:4;stroke-dasharray:none;stroke-opacity:1"
       d="m 221.5824,474.27174 27.52456,-15.89129"
       id="path5190-6" />
    <path
       style="fill:none;stroke:#ffffff;stroke-width:6.94573;stroke-linecap:round;stroke-linejoin:miter;stroke-miterlimit:4;stroke-dasharray:none;stroke-opacity:1"
       d="M 122.44728,496.94441 226.33849,436.96278"
       id="path5172-7" />
    <path
       style="fill:none;stroke:#ffffff;stroke-width:6.94573;stroke-linecap:round;stroke-linejoin:miter;stroke-miterlimit:4;stroke-dasharray:none;stroke-opacity:1"
       d="m 851.2918,82.984073 25.34158,-14.63095"
       id="path5178-5" />
    <path
       d="m 934.56403,441.92931 a 172.61,172.61 0 0 0 -9.5387,0.54118 l -154.82,204.36 a 172.61,172.61 0 0 0 2.0865,9.2951 z m 9.1096,0.0258 -168.93,222.98 a 172.61,172.61 0 0 0 2.7825,8.3733 l 174.93,-230.91 a 172.61,172.61 0 0 0 -8.7918,-0.43955 z m 17.283,1.2816 -180.3,237.99 a 172.61,172.61 0 0 0 3.3898,7.5748 l 185.1,-244.33 a 172.61,172.61 0 0 0 -8.191,-1.238 z m -45.981,0.45407 a 172.61,172.61 0 0 0 -10.556,1.884 l -137,180.84 a 172.61,172.61 0 0 0 1.2493,10.401 z m 62.133,2.322 -189.4,250.01 a 172.61,172.61 0 0 0 3.9342,6.857 l 193.12,-254.92 a 172.61,172.61 0 0 0 -7.649,-1.9526 z m -83.689,2.0324 a 172.61,172.61 0 0 0 -12.195,4.052 l -113.61,149.97 a 172.61,172.61 0 0 0 -0.61458,12.29 172.61,172.61 0 0 0 0.0193,0.54118 z m 98.87,2.0276 -196.56,259.46 a 172.61,172.61 0 0 0 4.4318,6.1965 l 199.28,-263.05 a 172.61,172.61 0 0 0 -7.149,-2.6099 z m 14.29997,5.2198 -201.97997,266.61 a 172.61,172.61 0 0 0 4.9012,5.5803 l 203.76997,-268.98 a 172.61,172.61 0 0 0 -6.699,-3.2083 z m -138.61997,2.2582 a 172.61,172.61 0 0 0 -15.021,7.7764 l -80.264,105.95 a 172.61,172.61 0 0 0 -3.4196,16.564 z m 152.00997,4.1786 -205.54997,271.33 a 172.61,172.61 0 0 0 5.2238,5.1496 l 206.71997,-272.87 a 172.61,172.61 0 0 0 -6.3908,-3.6084 z m 12.624,7.4296 -207.59997,274.04 a 172.61,172.61 0 0 0 5.5118,4.7754 l 208.19997,-274.83 a 172.61,172.61 0 0 0 -6.1094,-3.9866 z m -198.02997,8.3773 a 172.61,172.61 0 0 0 -55.075,72.7 z m 209.92997,0.0122 -208.19997,274.82 a 172.61,172.61 0 0 0 5.7924,4.4044 l 208.19997,-274.83 a 172.61,172.61 0 0 0 -5.7924,-4.4036 z m 11.183,9.3379 -207.35997,273.72 a 172.61,172.61 0 0 0 6.2328,3.8221 l 206.47997,-272.55 a 172.61,172.61 0 0 0 -5.3512,-4.9859 z m 10.453,10.298 -205.06997,270.69 a 172.61,172.61 0 0 0 6.6828,3.2285 l 203.28997,-268.34 a 172.61,172.61 0 0 0 -4.9011,-5.5795 z m 9.6951,11.301 -201.24997,265.65 a 172.61,172.61 0 0 0 7.1482,2.6091 l 198.53997,-262.07 a 172.61,172.61 0 0 0 -4.431,-6.1965 z m 8.8635,12.395 -195.79997,258.45 a 172.61,172.61 0 0 0 7.6498,1.9534 l 192.09997,-253.57 a 172.61,172.61 0 0 0 -3.9521,-6.8344 z m 7.8854,13.691 -188.37997,248.67 a 172.61,172.61 0 0 0 8.1087,1.342 l 183.77997,-242.59 a 172.61,172.61 0 0 0 -3.5075,-7.4167 z m 6.8974,14.992 -178.97997,236.26 a 172.61,172.61 0 0 0 8.6572,0.62262 l 173.28997,-228.74 a 172.61,172.61 0 0 0 -2.9631,-8.1386 z m 5.7457,16.512 -167.27997,220.81 a 172.61,172.61 0 0 0 1.6622,0.083 172.61,172.61 0 0 0 7.6063,-0.26937 l 160.26997,-211.56 a 172.61,172.61 0 0 0 -2.2622,-9.0628 z m 4.3486,18.36 -152.63997,201.48 a 172.61,172.61 0 0 0 10.049,-1.2195 l 143.89997,-189.95 a 172.61,172.61 0 0 0 -1.3122,-10.312 z m 2.3276,21.022 -134.09997,177.01 a 172.61,172.61 0 0 0 11.328,-2.9035 l 122.93997,-162.28 a 172.61,172.61 0 0 0 0.1451,-2.9244 172.61,172.61 0 0 0 -0.3152,-8.9023 z m -0.4766,24.726 -110.1,145.33 a 172.61,172.61 0 0 0 13.7,-6.0352 l 94.299,-124.48 a 172.61,172.61 0 0 0 2.097,-14.817 z m -6.1642,32.236 -74.572,98.435 a 172.61,172.61 0 0 0 20.588,-15.129 l 45.058,-59.477 a 172.61,172.61 0 0 0 8.9266,-23.83 z"
       style="fill:url(#m);paint-order:normal"
       id="path2077" />
  </g>
</svg>
