<svg width="3840" height="2160" version="1.1" viewBox="0 0 1016 571.5" xmlns="http://www.w3.org/2000/svg" xmlns:xlink="http://www.w3.org/1999/xlink"><defs><filter id="b" x="-.031331" y="-.042304" width="1.0627" height="1.0846" color-interpolation-filters="sRGB"><feGaussianBlur stdDeviation="5.2271844"/></filter><meshgradient id="a" x="4370.7446" y="264.03452" gradientTransform="matrix(-1 0 0 .99997 5386.7 -264.03)" gradientUnits="userSpaceOnUse"><meshrow><meshpatch><stop stop-color="#65cfd4" path="c 169.333,0  338.667,0  508,0"/><stop stop-color="#3b6ab9" path="c -278.682,223.734  196.984,-65.9215  -25.598,282.677"/><stop stop-color="#23bac2" path="c -471.541,247.923  -175.538,-11.398  -482.402,3.08183"/><stop stop-color="#3b6ab9" path="c 0,-95.25  0,-190.5  0,-285.759"/></meshpatch><meshpatch><stop path="c 288.768,-117.626  570.299,-276.872  508,0"/><stop stop-color="#367bf0" path="c 0,95.25  0,190.5  0,285.75"/><stop stop-color="#3b6ab9" path="c -343.057,305.827  -284.645,18.6416  -533.598,-3.073"/></meshpatch></meshrow><meshrow><meshpatch><stop path="c 36.7602,181.882  93.2184,262.361  25.598,288.823"/><stop stop-color="#3b6ab9" path="c -169.333,0  -338.667,0  -508,0"/><stop stop-color="#153873" path="c 0,-95.25  0,-190.5  0,-285.741"/></meshpatch><meshpatch><stop path="c 0,95.25  86.8619,168.785  0,285.75"/><stop stop-color="#65cfd4" path="c -169.333,0  -338.667,0  -508,0"/></meshpatch></meshrow></meshgradient></defs><g><path d="m0-5e-6v571.5h1016v-571.5z" fill="url(#a)" stroke-width="3.7795" style="paint-order:fill markers stroke"/><path d="m381 127-63.5 63.5v-63.5z" fill="#2d97c2"/><path d="m571.5 317.5 63.5 63.5v-63.5z" fill="#25b3c1"/><path d="m0 63.5 63.5-63.5v63.5z" fill="#3c7cda"/><path d="m63.5 0-63.5 63.5v-63.5z" fill="#3778e1"/><path d="m1016 127-63.5-63.5v63.5z" fill="#52a7c9"/><path d="m952.5 63.5 63.5 63.5v-63.5z" fill="#57afcc"/><path d="m0 190.5 63.5-63.5v63.5z" fill="#3776cd"/><path d="m63.5 127-63.5 63.5v-63.5z" fill="#326fd1"/><path d="m1016 254-63.5-63.5v63.5z" fill="#407bbd"/><path d="m952.5 190.5 63.5 63.5v-63.5z" fill="#4482bf"/><path d="m0 317.5 63.5-63.5v63.5z" fill="#3872be"/><path d="m63.5 254-63.5 63.5v-63.5z" fill="#376cb9"/><path d="m1016 381-63.5-63.5v63.5z" fill="#3161a9"/><path d="m952.5 317.5 63.5 63.5v-63.5z" fill="#3463ad"/><path d="m0 444.5 63.5-63.5v63.5z" fill="#4790c2"/><path d="m63.5 381-63.5 63.5v-63.5z" fill="#478dc2"/><path d="m1016 508-63.5-63.5v63.5z" fill="#224b8c"/><path d="m952.5 444.5 63.5 63.5v-63.5z" fill="#234c8f"/><path d="m0 571.5 63.5-63.5v63.5z" fill="#5dbdcf"/><path d="m63.5 508-63.5 63.5v-63.5z" fill="#5ab8ce"/><path d="m63.5 63.5 63.5-63.5v63.5z" fill="#367bd2"/><path d="m127 0-63.5 63.5v-63.5z" fill="#3c7dd8"/><path d="m952.5 127-63.5-63.5v63.5z" fill="#4fa4c8"/><path d="m889 63.5 63.5 63.5v-63.5z" fill="#53aaca"/><path d="m63.5 190.5 63.5-63.5v63.5z" fill="#357eca"/><path d="m127 127-63.5 63.5v-63.5z" fill="#367bcd"/><path d="m952.5 254-63.5-63.5v63.5z" fill="#3e82be"/><path d="m889 190.5 63.5 63.5v-63.5z" fill="#4186c0"/><path d="m63.5 317.5 63.5-63.5v63.5z" fill="#357fc2"/><path d="m127 254-63.5 63.5v-63.5z" fill="#367ac3"/><path d="m952.5 381-63.5-63.5v63.5z" fill="#3168ac"/><path d="m889 317.5 63.5 63.5v-63.5z" fill="#346bb1"/><path d="m63.5 444.5 63.5-63.5v63.5z" fill="#3e87bf"/><path d="m127 381-63.5 63.5v-63.5z" fill="#3e83be"/><path d="m952.5 508-63.5-63.5v63.5z" fill="#255393"/><path d="m889 444.5 63.5 63.5v-63.5z" fill="#265495"/><path d="m63.5 571.5 63.5-63.5v63.5z" fill="#57b2cc"/><path d="m127 508-63.5 63.5v-63.5z" fill="#55aecb"/><path d="m127 63.5 63.5-63.5v63.5z" fill="#3980ca"/><path d="m190.5 0-63.5 63.5v-63.5z" fill="#367cd0"/><path d="m889 127-63.5-63.5v63.5z" fill="#4b9fc6"/><path d="m825.5 63.5 63.5 63.5v-63.5z" fill="#4fa4c8"/><path d="m127 190.5 63.5-63.5v63.5z" fill="#318bc4"/><path d="m190.5 127-63.5 63.5v-63.5z" fill="#3280c4"/><path d="m889 254-63.5-63.5v63.5z" fill="#3b8fc0"/><path d="m825.5 190.5 63.5 63.5v-63.5z" fill="#3e89c0"/><path d="m127 317.5 63.5-63.5v63.5z" fill="#3384c1"/><path d="m190.5 254-63.5 63.5v-63.5z" fill="#3481c2"/><path d="m889 381-63.5-63.5v63.5z" fill="#3279b6"/><path d="m825.5 317.5 63.5 63.5v-63.5z" fill="#3376b6"/><path d="m127 444.5 63.5-63.5v63.5z" fill="#3a89be"/><path d="m190.5 381-63.5 63.5v-63.5z" fill="#3680bc"/><path d="m889 508-63.5-63.5v63.5z" fill="#285f9d"/><path d="m825.5 444.5 63.5 63.5v-63.5z" fill="#285e9d"/><path d="m127 571.5 63.5-63.5v63.5z" fill="#52a8c9"/><path d="m190.5 508-63.5 63.5v-63.5z" fill="#4ea4c8"/><path d="m190.5 63.5 63.5-63.5v63.5z" fill="#357eca"/><path d="m254 0-63.5 63.5v-63.5z" fill="#4284d0"/><path d="m825.5 127-63.5-63.5v63.5z" fill="#4696c3"/><path d="m762 63.5 63.5 63.5v-63.5z" fill="#4a9bc5"/><path d="m190.5 190.5 63.5-63.5v63.5z" fill="#2d98c2"/><path d="m254 127-63.5 63.5v-63.5z" fill="#318cc4"/><path d="m825.5 254-63.5-63.5v63.5z" fill="#3794c0"/><path d="m762 190.5 63.5 63.5v-63.5z" fill="#3a95c1"/><path d="m190.5 317.5 63.5-63.5v63.5z" fill="#308dc0"/><path d="m254 254-63.5 63.5v-63.5z" fill="#318ac1"/><path d="m825.5 381-63.5-63.5v63.5z" fill="#2ba0c0"/><path d="m762 317.5 63.5 63.5v-63.5z" fill="#2f95bf"/><path d="m190.5 444.5 63.5-63.5v63.5z" fill="#3590bf"/><path d="m254 381-63.5 63.5v-63.5z" fill="#3288bd"/><path d="m825.5 508-63.5-63.5v63.5z" fill="#2b73ab"/><path d="m762 444.5 63.5 63.5v-63.5z" fill="#2b6da7"/><path d="m190.5 571.5 63.5-63.5v63.5z" fill="#4e9ec7"/><path d="m254 508-63.5 63.5v-63.5z" fill="#479bc4"/><path d="m254 63.5 63.5-63.5v63.5z" fill="#3480c8"/><path d="m317.5 0-63.5 63.5v-63.5z" fill="#357cca"/><path d="m762 127-63.5-63.5v63.5z" fill="#408cc0"/><path d="m698.5 63.5 63.5 63.5v-63.5z" fill="#448fc2"/><path d="m254 190.5 63.5-63.5v63.5z" fill="#299fbd"/><path d="m317.5 127-63.5 63.5v-63.5z" fill="#2d97c1"/><path d="m762 254-63.5-63.5v63.5z" fill="#319cc0"/><path d="m698.5 190.5 63.5 63.5v-63.5z" fill="#3698c0"/><path d="m254 317.5 63.5-63.5v63.5z" fill="#2e96c0"/><path d="m317.5 254-63.5 63.5v-63.5z" fill="#2e94c0"/><path d="m762 381-63.5-63.5v63.5z" fill="#28a9c0"/><path d="m698.5 317.5 63.5 63.5v-63.5z" fill="#2ca1c0"/><path d="m254 444.5 63.5-63.5v63.5z" fill="#3598c0"/><path d="m317.5 381-63.5 63.5v-63.5z" fill="#3294bf"/><path d="m762 508-63.5-63.5v63.5z" fill="#2c7eb1"/><path d="m698.5 444.5 63.5 63.5v-63.5z" fill="#2d81b3"/><path d="m254 571.5 63.5-63.5v63.5z" fill="#4892c3"/><path d="m317.5 508-63.5 63.5v-63.5z" fill="#4495c3"/><path d="m317.5 63.5 63.5-63.5v63.5z" fill="#3481c6"/><path d="m381 0-63.5 63.5v-63.5z" fill="#357dc8"/><path d="m698.5 127-63.5-63.5v63.5z" fill="#3b85be"/><path d="m635 63.5 63.5 63.5v-63.5z" fill="#3f86bf"/><path d="m317.5 190.5 63.5-63.5v63.5z" fill="#29a6c0"/></g><path d="m381 127-63.5 63.5v-63.5z" fill="none"/><g><path d="m698.5 254-63.5-63.5v63.5z" fill="#2da2c0"/><path d="m635 190.5 63.5 63.5v-63.5z" fill="#309ec0"/><path d="m317.5 317.5 63.5-63.5v63.5z" fill="#2aa2c0"/><path d="m381 254-63.5 63.5v-63.5z" fill="#2b9fc0"/><path d="m698.5 381-63.5-63.5v63.5z" fill="#26aec1"/></g><path d="m635 317.5 63.5 63.5v-63.5z" fill-opacity="0"/><g><path d="m317.5 444.5 63.5-63.5v63.5z" fill="#3499c0"/><path d="m381 381-63.5 63.5v-63.5z" fill="#319bc0"/><path d="m698.5 508-63.5-63.5v63.5z" fill="#2c8bb7"/><path d="m635 444.5 63.5 63.5v-63.5z" fill="#2b94ba"/><path d="m317.5 571.5 63.5-63.5v63.5z" fill="#4488c1"/><path d="m381 508-63.5 63.5v-63.5z" fill="#418ec1"/><path d="m381 63.5 63.5-63.5v63.5z" fill="#3480c3"/><path d="m444.5 0-63.5 63.5v-63.5z" fill="#3679c4"/><path d="m635 127-63.5-63.5v63.5z" fill="#3387bc"/><path d="m571.5 63.5 63.5 63.5v-63.5z" fill="#387dbc"/><path d="m381 190.5 63.5-63.5v63.5z" fill="#2c9dbf"/><path d="m444.5 127-63.5 63.5v-63.5z" fill="#2c9dbf"/><path d="m635 254-63.5-63.5v63.5z" fill="#29a9c1"/><path d="m571.5 190.5 63.5 63.5v-63.5z" fill="#2ca3c0"/></g><path d="m381 317.5 63.5-63.5v63.5z" fill-opacity="0"/><path d="m444.5 254-63.5 63.5v-63.5z" fill="#26afc1"/><path d="m635 381-63.5-63.5v63.5z" fill="#28a8c0"/><path d="m571.5 317.5 63.5 63.5v-63.5z" fill-opacity="0"/><g><path d="m381 444.5 63.5-63.5v63.5z" fill="#3198c0"/><path d="m444.5 381-63.5 63.5v-63.5z" fill="#2f9ec0"/><path d="m635 508-63.5-63.5v63.5z" fill="#2b93ba"/><path d="m571.5 444.5 63.5 63.5v-63.5z" fill="#2a9bbc"/><path d="m381 571.5 63.5-63.5v63.5z" fill="#3f7fbe"/><path d="m444.5 508-63.5 63.5v-63.5z" fill="#3b85be"/><path d="m444.5 63.5 63.5-63.5v63.5z" fill="#367ac0"/><path d="m508 0-63.5 63.5v-63.5z" fill="#3775c1"/><path d="m571.5 127-63.5-63.5v63.5z" fill="#2d9abf"/><path d="m508 63.5 63.5 63.5v-63.5z" fill="#3287bd"/><path d="m444.5 190.5 63.5-63.5v63.5z" fill="#27acc1"/><path d="m508 127-63.5 63.5v-63.5z" fill="#28aac0"/><path d="m571.5 254-63.5-63.5v63.5z" fill="#27afc1"/><path d="m508 190.5 63.5 63.5v-63.5z" fill="#28abc1"/><path d="m444.5 317.5 63.5-63.5v63.5z" fill="#24b5c2"/><path d="m508 254-63.5 63.5v-63.5z" fill="#25b4c2"/><path d="m571.5 381-63.5-63.5v63.5z" fill="#28a7c0"/><path d="m508 317.5 63.5 63.5v-63.5z" fill="#26adc1"/><path d="m444.5 444.5 63.5-63.5v63.5z" fill="#2e99bf"/><path d="m508 381-63.5 63.5v-63.5z" fill="#2d9ec0"/><path d="m571.5 508-63.5-63.5v63.5z" fill="#2c92bb"/><path d="m508 444.5 63.5 63.5v-63.5z" fill="#2a9bbc"/><path d="m444.5 571.5 63.5-63.5v63.5z" fill="#3a75bb"/><path d="m508 508-63.5 63.5v-63.5z" fill="#387cbc"/><path d="m508 63.5 63.5-63.5v63.5z" fill="#3872bb"/><path d="m571.5 0-63.5 63.5v-63.5z" fill="#3874be"/><path d="m508 127-63.5-63.5v63.5z" fill="#2b9fc0"/><path d="m444.5 63.5 63.5 63.5v-63.5z" fill="#308dbf"/><path d="m508 190.5 63.5-63.5v63.5z" fill="#2aa6c0"/><path d="m571.5 127-63.5 63.5v-63.5z" fill="#2aa6c0"/><path d="m508 254-63.5-63.5v63.5z" fill="#25b2c1"/><path d="m444.5 190.5 63.5 63.5v-63.5z" fill="#25b3c1"/><path d="m508 317.5 63.5-63.5v63.5z" fill="#26b2c1"/><path d="m571.5 254-63.5 63.5v-63.5z" fill="#26afc0"/><path d="m508 381-63.5-63.5v63.5z" fill="#29a8c1"/><path d="m444.5 317.5 63.5 63.5v-63.5z" fill="#27adc1"/><path d="m508 444.5 63.5-63.5v63.5z" fill="#2c99be"/><path d="m571.5 381-63.5 63.5v-63.5z" fill="#2b9fbf"/><path d="m508 508-63.5-63.5v63.5z" fill="#308cbd"/><path d="m444.5 444.5 63.5 63.5v-63.5z" fill="#2b98bd"/><path d="m508 571.5 63.5-63.5v63.5z" fill="#356fb5"/><path d="m571.5 508-63.5 63.5v-63.5z" fill="#3479b8"/><path d="m571.5 63.5 63.5-63.5v63.5z" fill="#3d7abd"/><path d="m635 0-63.5 63.5v-63.5z" fill="#3f78bd"/><path d="m444.5 127-63.5-63.5v63.5z" fill="#2c9cc1"/><path d="m381 63.5 63.5 63.5v-63.5z" fill="#2f90c1"/><path d="m571.5 190.5 63.5-63.5v63.5z" fill="#2e9fc0"/><path d="m635 127-63.5 63.5v-63.5z" fill="#2f9abf"/><path d="m444.5 254-63.5-63.5v63.5z" fill="#28aac0"/><path d="m381 190.5 63.5 63.5v-63.5z" fill="#26aec1"/><path d="m571.5 317.5 63.5-63.5v63.5z" fill="#26b0c1"/><path d="m635 254-63.5 63.5v-63.5z" fill="#25b1c1"/><path d="m444.5 381-63.5-63.5v63.5z" fill="#2ba4c0"/><path d="m381 317.5 63.5 63.5v-63.5z" fill="#29a9c1"/><path d="m571.5 444.5 63.5-63.5v63.5z" fill="#2a9cbd"/><path d="m635 381-63.5 63.5v-63.5z" fill="#29a3bf"/><path d="m444.5 508-63.5-63.5v63.5z" fill="#358dbe"/><path d="m381 444.5 63.5 63.5v-63.5z" fill="#2f94be"/><path d="m571.5 571.5 63.5-63.5v63.5z" fill="#316aae"/><path d="m635 508-63.5 63.5v-63.5z" fill="#3178b4"/><path d="m635 63.5 63.5-63.5v63.5z" fill="#4386c0"/><path d="m698.5 0-63.5 63.5v-63.5z" fill="#4585be"/><path d="m381 127-63.5-63.5v63.5z" fill="#2f92c2"/><path d="m317.5 63.5 63.5 63.5v-63.5z" fill="#318cc3"/></g><path d="m635 190.5 63.5-63.5v63.5z" fill-opacity="0"/><g><path d="m698.5 127-63.5 63.5v-63.5z" fill="#388ebf"/><path d="m381 254-63.5-63.5v63.5z" fill="#26b1c1"/><path d="m317.5 190.5 63.5 63.5v-63.5z" fill="#27adc1"/><path d="m635 317.5 63.5-63.5v63.5z" fill="#2aa7c0"/><path d="m698.5 254-63.5 63.5v-63.5z" fill="#29a8c0"/><path d="m381 381-63.5-63.5v63.5z" fill="#2d9ebf"/><path d="m317.5 317.5 63.5 63.5v-63.5z" fill="#2aa4c0"/><path d="m635 444.5 63.5-63.5v63.5z" fill="#299ebd"/><path d="m698.5 381-63.5 63.5v-63.5z" fill="#28a4bf"/><path d="m381 508-63.5-63.5v63.5z" fill="#3891c0"/><path d="m317.5 444.5 63.5 63.5v-63.5z" fill="#3295bf"/><path d="m635 571.5 63.5-63.5v63.5z" fill="#2e61a6"/><path d="m698.5 508-63.5 63.5v-63.5z" fill="#2f6fae"/><path d="m698.5 63.5 63.5-63.5v63.5z" fill="#4992c4"/><path d="m762 0-63.5 63.5v-63.5z" fill="#498fc3"/><path d="m317.5 127-63.5-63.5v63.5z" fill="#318bc5"/><path d="m254 63.5 63.5 63.5v-63.5z" fill="#3287c6"/><path d="m698.5 190.5 63.5-63.5v63.5z" fill="#3e96c2"/><path d="m762 127-63.5 63.5v-63.5z" fill="#3d92c1"/><path d="m317.5 254-63.5-63.5v63.5z" fill="#28a9c1"/><path d="m254 190.5 63.5 63.5v-63.5z" fill="#27acc1"/><path d="m698.5 317.5 63.5-63.5v63.5z" fill="#2e9ec0"/><path d="m762 254-63.5 63.5v-63.5z" fill="#2da0c0"/><path d="m317.5 381-63.5-63.5v63.5z" fill="#2f93be"/><path d="m254 317.5 63.5 63.5v-63.5z" fill="#2d99bf"/><path d="m698.5 444.5 63.5-63.5v63.5z" fill="#2a9abc"/><path d="m762 381-63.5 63.5v-63.5z" fill="#28a6bf"/><path d="m317.5 508-63.5-63.5v63.5z" fill="#4197c2"/><path d="m254 444.5 63.5 63.5v-63.5z" fill="#3b96c1"/><path d="m698.5 571.5 63.5-63.5v63.5z" fill="#2b5a9e"/><path d="m762 508-63.5 63.5v-63.5z" fill="#2c67a6"/><path d="m762 63.5 63.5-63.5v63.5z" fill="#4e9ec7"/><path d="m825.5 0-63.5 63.5v-63.5z" fill="#4f9dc6"/><path d="m254 127-63.5-63.5v63.5z" fill="#3386c7"/><path d="m190.5 63.5 63.5 63.5v-63.5z" fill="#3383c8"/><path d="m762 190.5 63.5-63.5v63.5z" fill="#3e97c2"/><path d="m825.5 127-63.5 63.5v-63.5z" fill="#3f95c2"/><path d="m254 254-63.5-63.5v63.5z" fill="#2c9cc1"/><path d="m190.5 190.5 63.5 63.5v-63.5z" fill="#2b9fc1"/><path d="m762 317.5 63.5-63.5v63.5z" fill="#3293bf"/><path d="m825.5 254-63.5 63.5v-63.5z" fill="#3396bf"/><path d="m254 381-63.5-63.5v63.5z" fill="#3286be"/><path d="m190.5 317.5 63.5 63.5v-63.5z" fill="#308ebf"/><path d="m762 444.5 63.5-63.5v63.5z" fill="#2d88b7"/><path d="m825.5 381-63.5 63.5v-63.5z" fill="#2a9dbe"/><path d="m254 508-63.5-63.5v63.5z" fill="#3e97c2"/><path d="m190.5 444.5 63.5 63.5v-63.5z" fill="#3d96c1"/><path d="m762 571.5 63.5-63.5v63.5z" fill="#265395"/><path d="m825.5 508-63.5 63.5v-63.5z" fill="#295c9c"/><path d="m825.5 63.5 63.5-63.5v63.5z" fill="#53a9ca"/><path d="m889 0-63.5 63.5v-63.5z" fill="#54a9ca"/><path d="m190.5 127-63.5-63.5v63.5z" fill="#3481ca"/><path d="m127 63.5 63.5 63.5v-63.5z" fill="#3480cb"/><path d="m825.5 190.5 63.5-63.5v63.5z" fill="#4397c3"/><path d="m889 127-63.5 63.5v-63.5z" fill="#4499c4"/><path d="m190.5 254-63.5-63.5v63.5z" fill="#318ac3"/><path d="m127 190.5 63.5 63.5v-63.5z" fill="#308fc3"/><path d="m825.5 317.5 63.5-63.5v63.5z" fill="#3682bc"/><path d="m889 254-63.5 63.5v-63.5z" fill="#378bbe"/><path d="m190.5 381-63.5-63.5v63.5z" fill="#357cbd"/><path d="m127 317.5 63.5 63.5v-63.5z" fill="#3383bf"/><path d="m825.5 444.5 63.5-63.5v63.5z" fill="#2c67a6"/><path d="m889 381-63.5 63.5v-63.5z" fill="#2e73af"/><path d="m190.5 508-63.5-63.5v63.5z" fill="#4498c3"/><path d="m127 444.5 63.5 63.5v-63.5z" fill="#3c93c1"/><path d="m825.5 571.5 63.5-63.5v63.5z" fill="#214b8b"/><path d="m889 508-63.5 63.5v-63.5z" fill="#255494"/><path d="m889 63.5 63.5-63.5v63.5z" fill="#58b4cd"/><path d="m952.5 0-63.5 63.5v-63.5z" fill="#59b5cd"/><path d="m127 127-63.5-63.5v63.5z" fill="#367ad0"/><path d="m63.5 63.5 63.5 63.5v-63.5z" fill="#3a7dd1"/><path d="m889 190.5 63.5-63.5v63.5z" fill="#4894c4"/><path d="m952.5 127-63.5 63.5v-63.5z" fill="#499ac5"/><path d="m127 254-63.5-63.5v63.5z" fill="#367bc6"/><path d="m63.5 190.5 63.5 63.5v-63.5z" fill="#3480c6"/><path d="m889 317.5 63.5-63.5v63.5z" fill="#3671b7"/><path d="m952.5 254-63.5 63.5v-63.5z" fill="#3879bb"/></g><path d="m127 381-63.5-63.5v63.5z" fill="none"/><g><path d="m63.5 317.5 63.5 63.5v-63.5z" fill="#367abe"/><path d="m889 444.5 63.5-63.5v63.5z" fill="#2a5b9d"/><path d="m952.5 381-63.5 63.5v-63.5z" fill="#2d65a6"/><path d="m127 508-63.5-63.5v63.5z" fill="#4ca0c6"/><path d="m63.5 444.5 63.5 63.5v-63.5z" fill="#4494c3"/><path d="m889 571.5 63.5-63.5v63.5z" fill="#1d4483"/><path d="m952.5 508-63.5 63.5v-63.5z" fill="#214b8b"/><path d="m952.5 63.5 63.5-63.5v63.5z" fill="#5dbccf"/><path d="m1016 0-63.5 63.5v-63.5z" fill="#5ec0d1"/><path d="m63.5 127-63.5-63.5v63.5z" fill="#3776d5"/><path d="m0 63.5 63.5 63.5v-63.5z" fill="#3777d6"/><path d="m952.5 190.5 63.5-63.5v63.5z" fill="#4c94c4"/><path d="m1016 127-63.5 63.5v-63.5z" fill="#4a95c4"/><path d="m63.5 254-63.5-63.5v63.5z" fill="#3970c5"/><path d="m0 190.5 63.5 63.5v-63.5z" fill="#3775c9"/><path d="m952.5 317.5 63.5-63.5v63.5z" fill="#396ab7"/><path d="m1016 254-63.5 63.5v-63.5z" fill="#3b71ba"/><path d="m63.5 381-63.5-63.5v63.5z" fill="#427fbf"/><path d="m0 317.5 63.5 63.5v-63.5z" fill="#3a72ba"/><path d="m952.5 444.5 63.5-63.5v63.5z" fill="#275196"/><path d="m1016 381-63.5 63.5v-63.5z" fill="#2b5a9f"/><path d="m63.5 508-63.5-63.5v63.5z" fill="#55accb"/><path d="m0 444.5 63.5 63.5v-63.5z" fill="#4c9dc6"/><path d="m952.5 571.5 63.5-63.5v63.5z" fill="#173b78"/><path d="m1016 508-63.5 63.5v-63.5z" fill="#1c4280"/></g><path transform="matrix(-1 0 0 1 1016 2e-5)" d="m680.82 154.86c-16.44-0.0194-36.221 0.75069-57.432 3.2598-56.57 6.6911-85.486 21.906-85.486 21.906l-0.91602 0.48242 0.3086 0.98633c0.31597 1.0103 0.48873 4.3428 0.0586 8.3887-0.43014 4.0459-1.3823 8.9447-2.9902 13.689-1.608 4.7448-3.8791 9.3306-6.8789 12.779-2.998 3.4466-6.6632 5.7568-11.27 6.1816-24.125 0.12792-40.02 6.082-45.457 8.4531 0.19008-1.431 0.12618-3.2763-0.82032-5.5078l-1.6465-3.8848-0.7207 4.1562c-1.1367 6.5522-6.4552 9.8091-9.5449 11.225 0.227-1.523 0.1895-3.5792-0.7832-6.0254l-1.1309-2.8457c11.283-7.7716 23.778-14.309 37.316-19.812l26.553-10.793-27.387 8.4551c-0.036 0.0111-0.0656 0.026-0.10156 0.0371-5.3e-4 2.3e-4 -1e-3 -2.3e-4 -2e-3 0-20.118 6.2267-35.619 15.419-46.734 23.59l0.01-0.36132-0.15039 0.46093c-12.988 9.5692-19.863 17.689-19.863 17.689l-1.543 1.8711 6.8418 0.44727 0.36719-0.27149 0.0977-0.0723 0.082-0.0898c3.4479-3.7882 7.1511-7.3126 11.006-10.682-3.0409 7.5579-9.7394 11.3-10.551 11.725-0.34662-0.0605-1.2572-0.22434-2.666-0.4043-0.82621-0.10553-1.6987-0.19804-2.4805-0.23828-0.78178-0.0402-1.3904-0.0919-2.1133 0.14063l-0.166 0.0527-0.14453 0.0977c-0.6531 0.43605-0.97145 1.1204-0.98829 1.1484v2e-3c-0.13334 0.2232-1.6047 2.7251-3.2266 5.4043-0.81093 1.3396-1.6454 2.699-2.3262 3.7695-0.34036 0.53523-0.64262 0.99873-0.8789 1.3438-0.23627 0.34502-0.46743 0.61786-0.4082 0.55859-0.51772 0.51747-1.2748 1.3774-1.8633 2.3281-0.29454 0.47581-0.55472 0.96153-0.68556 1.5469-0.13082 0.58534-0.0549 1.5036 0.59962 2.0547l0.0801 0.0684c-0.0996 0.0951-0.15658 0.1557-0.27539 0.26562-0.63656 0.58893-1.5363 1.3748-2.582 2.2051-2.0915 1.6605-4.8004 3.498-7.0899 4.3535-2.4652 0.9214-4.203 1.3611-5.2988 1.5703-1.0959 0.2092-1.4551 0.18945-1.4551 0.18945l-4.3594-0.0957 3.6543 2.3789s2.2449 1.4617 4.6152 3.168c1.1852 0.85313 2.4012 1.7673 3.3633 2.5723 0.96209 0.80493 1.6922 1.633 1.7422 1.7266l0.9082 1.6992 1.1738-1.5273c4.7962-6.2425 12.898-11.436 15.338-12.836 1.0883-0.62443 3.7742-1.7375 6.3848-2.9707s5.1741-2.4844 6.5586-4.2148c2.1229-2.6531 2.3654-5.5818 2.332-8.5098 25.215-11.733 50.87-23.128 71.951-21.389h6e-3c12.825 1.0021 22.149 6.6655 28.006 14.578 5.8565 7.9126 8.2236 18.12 6.8711 28.195-2.705 20.15-20.1 39.783-54.504 39.328l-0.01-2e-3h-0.01c-14.184 0.036-28.185 1.2866-39.277 2.9141-43.785 6.4246-64.754 23.68-74.631 39.451-10.537 17.092-9.4392 26.419-7.9122 47.245-0.14517-15.894 5.4969-31.949 12.449-41.985 8.2477-11.626 22.694-24.35 48.002-31.049-17.638 9.875-29.032 25.941-35.902 42.816-8.0762 19.839-10.064 40.705-9.041 54.162 4e-3 0.0482-2e-3 0.11414 2e-3 0.16211l1.4687 18.838 1.0117-18.867c0.94487-17.632 6.2026-36.322 14.131-52.166 7.9255-15.839 18.538-28.809 29.959-35.129 24.396-12.643 44.445-12.86 73.883-14.428 31.671-0.80723 57.272-26.948 55-56.789-1.123-14.733-5.3303-24.347-10.895-31.316-5.3274-6.6729-11.817-10.875-17.869-15.031 3.0516-6.8114 7.501-17.707 10.99-27.979l-0.13086 0.39649-3.0723 9.2988 1.668 0.0469c88.724 2.494 167.49 46.428 167.49 46.428l14.021 7.8281-12.65-9.8906s-30.245-23.641-83.406-40.275c-52.138-16.314-82.953-14.287-82.953-14.287l-0.82617 0.0566c1.5131-4.4808 2.8272-8.7482 3.6797-12.41 79.562-32.004 178.84-27.308 178.84-27.308l33.553 1.6094-33.342-4.084s-0.0911-8e-3 -0.0918-8e-3c-0.16256-0.0199-18.153-2.2139-45.43-2.2461zm-78.211 28.318c-32.731 0.37314-54.443 4.2285-54.443 4.2285l-0.74609 0.13281-2.5547 8.2383 1.1875 0.36719 0.21484 1.2246c89.164-15.701 195.85 11.084 195.85 11.084l27.605 6.9453-26.896-9.3242s-52.283-18.145-104.21-21.836c-12.962-0.92131-25.098-1.1849-36.008-1.0606zm-146.63 45.016-1.0547 2.7734c-2.496 6.5683-5.395 9.7014-8.7598 11.67 0.25868-2.5588-0.65192-4.2076-0.63476-4.8398l0.0488-1.8008c3.3243-2.7462 6.8123-5.3261 10.4-7.8027zm-8.9727 3.5195c-0.44746 0.35057-0.89687 0.69938-1.3398 1.0547l2e-3 -0.10351c0.41162-0.3103 0.91226-0.63727 1.3379-0.95117z" color="#000000" color-rendering="auto" dominant-baseline="auto" filter="url(#b)" image-rendering="auto" opacity=".2" shape-rendering="auto" solid-color="#000000" style="font-feature-settings:normal;font-variant-alternates:normal;font-variant-caps:normal;font-variant-ligatures:normal;font-variant-numeric:normal;font-variant-position:normal;isolation:auto;mix-blend-mode:normal;shape-padding:0;text-decoration-color:#000000;text-decoration-line:none;text-decoration-style:solid;text-indent:0;text-orientation:mixed;text-transform:none;white-space:normal"/><path d="m335.18 154.86c16.44-0.0194 36.221 0.7507 57.432 3.2598 56.57 6.6912 85.486 21.906 85.486 21.906l0.916 0.4824-0.3086 0.9863c-0.316 1.0103-0.4887 4.3428-0.059 8.3887 0.4302 4.0459 1.3823 8.9447 2.9902 13.689 1.608 4.7448 3.8791 9.3306 6.8789 12.779 2.998 3.4466 6.6632 5.7568 11.27 6.1816 24.125 0.1279 40.02 6.082 45.457 8.4531-0.1901-1.431-0.1262-3.2763 0.8203-5.5078l1.6465-3.8848 0.7207 4.1562c1.1367 6.5522 6.4552 9.8091 9.5449 11.225-0.227-1.523-0.1895-3.5792 0.7832-6.0254l1.1309-2.8457c-11.283-7.7716-23.778-14.309-37.316-19.812l-26.553-10.793 27.387 8.4551c0.036 0.011 0.066 0.026 0.1016 0.037v0c20.118 6.2267 35.619 15.419 46.734 23.59l-0.01-0.3613 0.1504 0.4609c12.988 9.5692 19.863 17.689 19.863 17.689l1.543 1.8711-6.8418 0.4473-0.3672-0.2715-0.098-0.072-0.082-0.09c-3.4479-3.7882-7.1511-7.3126-11.006-10.682 3.0409 7.5579 9.7394 11.3 10.551 11.725 0.3466-0.061 1.2572-0.2243 2.666-0.4043 0.8262-0.1055 1.6987-0.198 2.4805-0.2383 0.7818-0.04 1.3904-0.092 2.1133 0.1406l0.166 0.053 0.1446 0.098c0.653 0.4361 0.9714 1.1204 0.9882 1.1484 0.1334 0.2232 1.6047 2.7251 3.2266 5.4043 0.8109 1.3396 1.6454 2.699 2.3262 3.7695 0.3404 0.5353 0.6427 0.9988 0.8789 1.3438 0.2363 0.3451 0.4675 0.6179 0.4082 0.5586 0.5178 0.5175 1.2748 1.3774 1.8633 2.3281 0.2946 0.4758 0.5548 0.9616 0.6856 1.5469 0.1308 0.5854 0.055 1.5036-0.5996 2.0547l-0.08 0.068c0.1001 0.095 0.1567 0.1557 0.2754 0.2657 0.6366 0.5889 1.5364 1.3748 2.582 2.2051 2.0915 1.6605 4.8005 3.498 7.0898 4.3535 2.4652 0.9214 4.2031 1.3611 5.2988 1.5703 1.0958 0.2091 1.4552 0.1894 1.4552 0.1894l4.3594-0.096-3.6544 2.3789s-2.2448 1.4617-4.6151 3.168c-1.1852 0.8531-2.4012 1.7673-3.3633 2.5723-0.9621 0.8049-1.6922 1.633-1.7422 1.7266l-0.9083 1.6992-1.1738-1.5273c-4.7962-6.2425-12.898-11.436-15.338-12.836-1.0883-0.6244-3.7742-1.7375-6.3847-2.9707-2.6107-1.2332-5.1742-2.4844-6.5586-4.2148-2.123-2.6531-2.3654-5.5818-2.3321-8.5098-25.215-11.733-50.87-23.128-71.951-21.389h-0.01c-12.825 1.0021-22.149 6.6655-28.006 14.578-5.8565 7.9126-8.2236 18.12-6.8711 28.195 2.705 20.15 20.1 39.783 54.504 39.328h0.02c14.184 0.036 28.185 1.2866 39.277 2.9141 43.785 6.4246 64.754 23.68 74.631 39.451 10.537 17.092 9.4392 26.419 7.9121 47.245 0.1451-15.894-5.4968-31.949-12.449-41.985-8.2477-11.626-22.694-24.35-48.002-31.049 17.638 9.875 29.032 25.941 35.902 42.816 8.0762 19.839 10.064 40.705 9.041 54.162v0.1621l-1.4687 18.838-1.0116-18.867c-0.9449-17.632-6.2026-36.322-14.131-52.166-7.9256-15.839-18.538-28.809-29.959-35.129-24.396-12.643-44.445-12.86-73.883-14.428-31.671-0.8072-57.272-26.948-55-56.789 1.123-14.733 5.3303-24.347 10.895-31.316 5.3275-6.6729 11.817-10.875 17.869-15.031-3.0516-6.8114-7.5011-17.707-10.99-27.979l0.1307 0.3965 3.0724 9.2988-1.6681 0.047c-88.724 2.494-167.49 46.428-167.49 46.428l-14.021 7.8281 12.65-9.8906s30.245-23.641 83.406-40.275c52.138-16.314 82.953-14.287 82.953-14.287l0.8262 0.057c-1.5131-4.4808-2.8273-8.7482-3.6797-12.41-79.562-32.004-178.84-27.309-178.84-27.309l-33.553 1.6094 33.342-4.084s0.091-8e-3 0.092-8e-3c0.1625-0.0199 18.153-2.2139 45.43-2.2461zm78.211 28.318c32.731 0.3731 54.443 4.2285 54.443 4.2285l0.7461 0.1328 2.5547 8.2383-1.1875 0.3672-0.2149 1.2246c-89.164-15.701-195.85 11.084-195.85 11.084l-27.605 6.9453 26.896-9.3242s52.283-18.145 104.21-21.836c12.962-0.9214 25.098-1.1849 36.008-1.0606zm146.63 45.016 1.0547 2.7734c2.496 6.5683 5.395 9.7014 8.7598 11.67-0.2587-2.5588 0.6519-4.2076 0.6348-4.8398l-0.049-1.8008c-3.3243-2.7462-6.8123-5.3261-10.4-7.8027zm8.9727 3.5195c0.4475 0.3505 0.8969 0.6993 1.3398 1.0547v-0.1036c-0.4116-0.3103-0.9123-0.6372-1.3379-0.9511z" color="#000000" color-rendering="auto" dominant-baseline="auto" image-rendering="auto" opacity=".1" shape-rendering="auto" solid-color="#000000" style="font-feature-settings:normal;font-variant-alternates:normal;font-variant-caps:normal;font-variant-ligatures:normal;font-variant-numeric:normal;font-variant-position:normal;isolation:auto;mix-blend-mode:normal;shape-padding:0;text-decoration-color:#000000;text-decoration-line:none;text-decoration-style:solid;text-indent:0;text-orientation:mixed;text-transform:none;white-space:normal"/><path d="m471.47 200.49s-30.522-2.031-82.5 14.233c-52.969 16.574-83.011 40.067-83.011 40.067s78.948-44.08 168.06-46.585zm113.85 47.927 3.9682-0.2589s-22.734-27.584-66.25-41.019c24.461 9.943 45.753 23.118 62.281 41.277zm6.494 11.461c0.6101-1.0578 2.5795 3.3603 4.0753 5.2163 0.063 0.3706 0.1685 0.5969-0.6986 0.4184-0.073-0.381-0.1988-0.4914-0.1988-0.4914s-2.0931-1.2454-2.7348-2.1288c-0.6422-0.8835-0.7562-2.4287-0.4431-3.0146zm53.402 131.3s4.8263-55.41-82.226-68.183c-11.034-1.6189-24.987-2.8648-39.1-2.9006-69.773 0.9225-72.316-80.474-19.74-84.582 21.789-1.7979 47.808 9.9562 73.245 21.802-0.094 3.159 0.036 5.9664 2.1115 8.5601 2.0748 2.5931 10.045 5.4224 12.592 6.8836 2.5467 1.4617 10.705 6.6487 15.705 13.156 1.0842-2.0282 10.139-7.922 10.139-7.922s-2.1691 0.047-7.2152-1.8388c-5.0467-1.886-11.035-7.5921-11.177-7.9218-0.1414-0.3304-0.2356-0.8489 0.9438-1.0848 0.8955-0.754-1.1326-3.2062-2.0287-4.1016-0.8954-0.8961-6.8854-11.081-7.0263-11.317-0.1414-0.2359-0.1888-0.4714-0.6129-0.7545-1.3208-0.4248-7.1215 0.6129-7.1215 0.6129s-8.9209-4.3814-11.996-13.828c0.045 1.6546-1.5298 3.4612 0 7.2624-4.6513-1.9677-8.6466-5.3235-11.798-13.616-1.8756 4.7169 0 7.7159 0 7.7159s-10.953-3.0606-12.706-13.162c-1.9234 4.5345 0 7.2619 0 7.2619s-17.856-9.317-47.527-9.4522c-19.864-1.8221-24-36.764-22.159-42.649 0 0-28.653-15.1-85.054-21.771-56.401-6.6719-102.66-1.0054-102.66-1.0054s99.893-4.794 179.92 27.604c2.7204 12.167 10.904 32.433 15.312 42.174-12.612 8.7201-26.834 16.92-29.051 46.001-2.214 29.08 22.789 54.662 53.794 55.452 29.441 1.5682 49.784 1.791 74.44 14.574 23.534 13.013 42.83 52.664 44.741 88.325 2.0626-26.459-7.8668-83.357-54.202-100.64 64.761 11.333 70.457 59.341 70.457 59.341zm-175.27-195.04-2.3302-7.5161s-38.449-6.8277-90.146-3.1533c-51.697 3.6747-103.89 21.771-103.89 21.771s106.8-26.874 196.37-11.102" fill="#fff" stroke-width="2.4851"/><g><path d="m127 381-63.5-63.5v63.5z" fill="#3973ba"/><path d="m381 317.5 63.5-63.5v63.5z" fill="#27adc1"/><path d="m635 317.5 63.5 63.5v-63.5z" fill="#27adc1"/><path d="m635 190.5 63.5-63.5v63.5z" fill="#3399c0"/></g></svg>
