<svg width="3840" height="2160" version="1.1" viewBox="0 0 1016 571.5" xmlns="http://www.w3.org/2000/svg"><defs><filter id="b" x="-.010453" y="-.014085" width="1.0209" height="1.0282" color-interpolation-filters="sRGB"><feGaussianBlur stdDeviation="6.3684471"/></filter><radialGradient id="c" cx="-510.25" cy="277.04" r="508" gradientTransform="matrix(.78889 1.3664 -1.3729 .79263 272.62 758.39)" gradientUnits="userSpaceOnUse"><stop stop-color="#16171c" offset="0"/><stop offset="1"/></radialGradient><filter id="f" x="-.09345" y="-.083918" width="1.1869" height="1.1678" color-interpolation-filters="sRGB"><feGaussianBlur stdDeviation="2.1777382"/></filter><filter id="e" x="-.06" y="-.06" width="1.12" height="1.12" color-interpolation-filters="sRGB"><feGaussianBlur stdDeviation="1.5070609"/></filter><radialGradient id="d" cx="593.1" cy="261.72" r="23.186" gradientTransform="matrix(.44782 0 0 .44782 327.5 144.51)" gradientUnits="userSpaceOnUse"><stop stop-color="#fff" stop-opacity=".4" offset="0"/><stop stop-color="#fff" stop-opacity="0" offset="1"/></radialGradient></defs><rect transform="scale(-1,1)" x="-1016" y="1e-5" width="1016" height="571.5" fill="url(#c)" style="paint-order:fill markers stroke"/><g shape-rendering="auto"><path transform="matrix(.26458 0 0 .26458 -.056551 -.073686)" d="m1266.8 579.98c-103.3 0.12004-171.54 8.4228-172.39 8.5273l0.2968-0.0273c-0.084 5e-3 -0.1679 0.0173-0.2519 0.0254a5.0005 5.0005 0 0 0-0.045 2e-3 5.0005 5.0005 0 0 0-0.057 2e-3c-0.096 8e-3 -0.1913 0.0174-0.2871 0.0293l-67.088 8.2168 0.041-4e-3c-2.0345 0.23162-4.0598 1.3894-5.2187 2.9766s-1.5516 3.404-1.4063 5.1113c0.1454 1.7074 0.8396 3.4303 2.25 4.7988 1.4105 1.3685 3.6021 2.1683 5.6465 2.0527l67.471-3.2383s347.15-16.16 639.94 89.996c-34.487-4.4248-93.722-10.556-173.28-11.461-5.1692-0.0588-10.411-0.0945-15.723-0.10547-37.181-0.0766-77.772 1.0681-120.78 4.125-196.76 13.986-393.85 82.347-394.9 82.711 0.081-0.0259-0.078 0.0234-0.078 0.0234a5.0005 5.0005 0 0 0-0.1641 0.0527c-0.055 0.0189-0.1112 0.0385-0.166 0.0586l-54.029 18.734a5.0005 5.0005 0 0 0-0.041 0.0156c-1.9001 0.67737-3.5788 2.2223-4.3594 3.9883-0.78059 1.766-0.79292 3.5974-0.3086 5.2207 0.48433 1.6232 1.4966 3.1477 3.1172 4.1973 1.6206 1.0495 3.8734 1.4218 5.834 0.94726a5.0005 5.0005 0 0 0 0.0449-0.01l55.539-13.982s386.14-96.599 717.01-45.182c-45.991 1.392-145.25 10.089-286.3 54.225-201.74 63.125-316.92 153.1-316.92 153.1a5.0005 5.0005 0 0 0 0 2e-3l-25.445 19.9c-3.1289 2.4464-3.4797 7.2708-1.627 10.059 1.8527 2.7876 6.4372 4.3337 9.9043 2.3965l28.203-15.75v-2e-3c0.013-7e-3 296.9-165.41 630.55-174.81a5.0005 5.0005 0 0 0 0.023 0l3.3575-0.0879c0.1109-3e-3 0.1951-0.078 0.3046-0.0859 8.9906 23.445 18.006 45.311 25.336 61.865-21.819 14.921-45.383 30.767-65.07 55.426-21.703 27.184-38.012 64.757-42.32 121.27-8.8337 116.02 90.489 217.22 213.03 220.34h-0.1368c111.33 5.9273 185.88 6.6883 277.02 53.908 41.661 23.086 81.364 71.297 110.97 130.46 29.638 59.231 49.338 129.28 52.863 195.07l2.0312 37.963a5.0005 5.0005 0 0 0 0 0.014c0.2247 3.9866 4.0337 7.0363 7.3945 7.0781 3.3608 0.042 7.2445-2.9127 7.5683-6.8926a5.0005 5.0005 0 0 0 0-0.016l2.959-37.898c4.0368-51.784-3.5359-131.57-34.545-207.74-21.805-53.563-55.724-105.08-105.41-142.81 72.026 26.359 115.62 66.349 141.9 103.39 17.304 24.393 27.215 47.359 32.793 64.184 5.5608 16.773 6.8759 28.02 6.7812 27.213l2.3223 29.967a5.0005 5.0005 0 0 0 0 0.014c0.3164 3.9387 4.1056 6.8823 7.4395 6.8984 3.3339 0.016 7.1515-2.8907 7.5058-6.8262a5.0005 5.0005 0 0 0 0-0.016l2.6348-30.258a5.0005 5.0005 0 0 0 0-0.01s4.7098-55.912-33.492-116.91c-38.2-60.999-119.2-127.1-285.79-151.54-42.172-6.1875-95.292-10.928-149.2-11.064h-0.032c-0.033-2e-4 -0.067-2e-4 -0.1 0a5.0005 5.0005 0 0 0-0.033 0c-127.99 1.6923-190.78-70.4-200.67-144.04-4.9408-36.801 3.7276-74 24.971-102.7 21.254-28.716 54.865-49.282 101.99-52.967a5.0005 5.0005 0 0 0 0.016-2e-3 5.0005 5.0005 0 0 0 0.043-2e-3c76.598-6.3204 171.97 35.148 266.22 78.951 0.1516 10.493 1.7687 21.841 9.9609 32.08 6.3969 7.995 16.777 12.743 26.666 17.414 10.018 4.7321 20.586 9.2136 23.758 11.033 8.6939 4.9903 39.175 24.718 56.404 47.141l2.3575 3.0723c3.2022 4.1754 10.088 3.6102 12.566-1.0312l1.5859-2.9727c0.067-0.083 0.1246-0.1562 0.2129-0.2636 0.2939-0.3577 0.7133-0.8443 1.1562-1.2969 1.0388-1.0615 2.5197-2.4455 4.1817-3.8359 3.4679-2.9014 7.9943-6.3151 12.408-9.4922 8.8356-6.36 17.23-11.826 17.23-11.826l7.3535-4.7832c2.8859-1.8768 3.9579-5.6407 3.0781-8.4961s-3.8844-5.3619-7.3262-5.2891l-8.6777 0.1836c-0.023 0-0.046-1e-4 -0.068 0a5.0005 5.0005 0 0 0-0.2714 0.01s0.274 0.014-0.3614-0.047c-0.6353-0.06-1.8368-0.2123-3.7832-0.584-3.8062-0.7266-10.092-2.3085-19.164-5.6992-7.5908-2.8367-17.71-9.572-25.354-15.641-2.889-2.2936-5.0317-4.2149-7.1191-6.0742 1.1714-2.884 1.2851-5.9331 0.7598-8.2832-0.6792-3.0392-2.017-5.4912-3.252-7.4864-2.4395-3.9409-5.3336-7.224-7.5039-9.4238 0-5e-5 0.01-6e-3 0.01-6e-3 0-9e-3 -0.09-0.11857 0.066 0.0781-0.015-0.0188-0.045-0.0595-0.062-0.082v-2e-3c-0.018-0.0195-0.021-0.0206-0.027-0.0274-0.062-0.0789-0.1217-0.1549-0.2089-0.26953-0.2615-0.34378-0.6272-0.83722-0.998-1.3789-0.8233-1.202-1.9458-2.9296-3.2188-4.9316a5.0005 5.0005 0 0 0 0-2e-3c-2.5389-3.9924-5.6841-9.1037-8.7344-14.143-6.0888-10.058-11.483-19.249-12.135-20.342-0.075-0.14884-0.1529-0.2967-0.252-0.47461-0.2274-0.40849-0.5372-0.92826-0.9453-1.5137-0.7233-1.0377-1.8495-2.2239-3.2617-3.3418 0.3074-1.9566-0.1066-4.0194-1.4766-5.6836a5.0005 5.0005 0 0 0 0-2e-3l-3.1015-3.7656a5.0005 5.0005 0 0 0 0-2e-3s-87.76-106.34-254.6-158.03c-0.013-5e-3 -0.051-0.0209-0.062-0.0254-0.2318-0.0866-0.3298-0.11441-0.5039-0.16797a5.0005 5.0005 0 0 0-0.4844-0.12305l0.2363 0.0469-54.859-16.938c-1.9384-0.59917-4.227-0.36285-5.916 0.59961-1.6896 0.96276-2.7891 2.4421-3.3613 4.0449s-0.6569 3.4428 0.041 5.2578 2.3188 3.4493 4.1992 4.2129v-2e-3l53.436 21.717c33.335 13.55 64.996 28.715 94.764 45.742-2.3032 0.47159-4.5354 2.0207-5.5469 4.3965a5.0005 5.0005 0 0 0 0 8e-3l-3.3145 7.8184c-2.2916 5.4032-3.3276 10.362-3.707 14.852-24.784-10.045-81.684-28.714-165.94-29.209-15.866-1.4954-28.288-9.2753-38.965-21.549-10.678-12.276-19.052-29.04-24.975-46.518-5.9251-17.484-9.4647-35.684-11.051-50.604-0.7897-7.4292-1.058-14.149-0.9629-19.422 0.095-5.2353 0.815-9.6282 0.9746-10.139a5.0005 5.0005 0 0 0 0.2285-1.4766v0.74219l0.3926-1.2598v2e-3c0.9608-3.0814-0.2854-6.3667-2.8418-8.2266v2.8125a5.0005 5.0005 0 0 0-2.6797-4.4297c-0.021-0.011-110.42-57.992-324.93-83.363-80.39-9.5097-155.3-12.42-217.58-12.35a5.0005 5.0005 0 0 0-0.074-2e-3zm-172.09 8.5117c0.1172-2e-3 0.1563 0 0.1563 0a5.0005 5.0005 0 0 0-0.2676 0.01zm149.35 6.8984a5.0005 5.0005 0 0 0 3.3945 4.6484c-25.934-1.2257-49.189-1.9267-69.428-2.2246a5.0005 5.0005 0 0 0 0.01-0.13867c19.649-1.0554 41.32-1.863 66.027-2.2852zm198.22 12.631c13.124 1.236 26.364 2.5792 39.828 4.1719 191.34 22.632 293.92 69.52 311.82 78.27-0.8937 7.5888-0.7794 17.001 0.4687 28.742 0.9999 9.4059 2.7724 19.895 5.2578 30.732-6.1787-18.134-11.494-35.418-14.602-49.316-6e-4 -2e-3 0-5e-3 0-8e-3a5.0005 5.0005 0 0 0 0-0.01l-0.2872-1.2774a5.0005 5.0005 0 0 0 0-2e-3c-0.539-2.3923-2.2255-4.3812-4.498-5.3027l-1.2168-0.49414c-110.42-44.696-229.39-70.538-336.77-85.505zm115.85 4.9902c0.3391 0.0576 0.6538 0.11996 0.9922 0.17773-0.3392-0.0576-0.6523-0.12023-0.9922-0.17773zm-53.695 14.936c0.962 0.16904 1.9315 0.35252 2.8945 0.52343-0.9705-0.17288-1.9289-0.32704-2.8984-0.49804a5.0005 5.0005 0 0 0 0-0.0254zm34.609 6.457c0.088 0.0173 0.176 0.0354 0.2637 0.0527-0.088-0.0175-0.1755-0.0314-0.2637-0.0488a5.0005 5.0005 0 0 0 0-4e-3zm1.6816 0.33984c1.2051 0.23903 2.4148 0.49228 3.6211 0.73438a5.0005 5.0005 0 0 0 0 0.0176c-1.2031-0.24193-2.4152-0.51302-3.6172-0.75195zm33.877 7.1016c6.9671 1.54 13.937 3.0939 20.924 4.7422a5.0005 5.0005 0 0 0-0.014 0.0625c-6.9824-1.6476-13.954-3.2189-20.92-4.7598a5.0005 5.0005 0 0 0 0.01-0.0449zm48.664 11.633c3.3369 0.85684 6.671 1.6462 10.008 2.5293a5.0005 5.0005 0 0 0-0.029 0.10157c-3.3286-0.8804-6.6531-1.7568-9.9825-2.6113a5.0005 5.0005 0 0 0 0-0.0195zm36.686 9.9629c7.391 2.1191 14.76 4.3135 22.129 6.5703-7.3632-2.2527-14.739-4.4534-22.129-6.5703zm45.777 13.953c2.4263 0.79714 4.8225 1.687 7.2442 2.5-2.4223-0.81242-4.8636-1.5627-7.291-2.3594a5.0005 5.0005 0 0 0 0.047-0.14063zm38.404 13.422c0.03 0.0111 0.06 0.024 0.09 0.0351-0.031-0.0112-0.061-0.022-0.092-0.0332a5.0005 5.0005 0 0 0 0-2e-3zm14.99 5.7637c2.8363 1.0935 5.6863 2.1538 8.5117 3.2715a5.0005 5.0005 0 0 0 0 6e-3c-2.8245-1.1171-5.6732-2.1842-8.5097-3.2773zm-337.74 4.8613a5.0005 5.0005 0 0 0 0 4e-3c-7.67 0.58229-15.305 1.2859-22.93 2.0195a5.0005 5.0005 0 0 0 0-0.0117c7.6382-0.73765 15.281-1.4302 22.932-2.0117zm125.24 5.4414c5.2464 0.0106 10.424 0.0458 15.529 0.10352 112.33 1.2713 185.79 12.903 197.48 14.859l2.2304 7.1973c-159.79-25.708-329.13-17.597-464.24-1.7148 41.518-7.2374 85.323-13.212 129.71-16.367 42.474-3.0189 82.566-4.1517 119.29-4.0781zm232.3 10.045c1.9125 7.0425 4.0758 14.412 6.5528 22.176a5.0005 5.0005 0 0 0-5.6465-2.7715l-0.086-0.27539a5.0005 5.0005 0 0 0 0-0.0137 5.0005 5.0005 0 0 0-4.7753-3.5195 5.0005 5.0005 0 0 0-1.4825 0.22461l-4.2285-13.643a5.0005 5.0005 0 0 0 0.016-6e-3 5.0005 5.0005 0 0 0 9.6543-2.1719zm-227.48 5.6035a5.0005 5.0005 0 0 0 0 0.0723c-1.07-6e-3 -2.1398-0.0171-3.209-0.0215a5.0005 5.0005 0 0 0 0-0.041c1.0739 6e-3 2.1343-0.0176 3.209-0.01zm36.674 0.72656c5.7485 0.16958 11.489 0.36226 17.25 0.59571-5.7537-0.22488-11.505-0.43433-17.25-0.59571zm47.74 2.1094c1.945 0.11855 3.8849 0.1997 5.8301 0.32617-1.9434-0.12359-3.8865-0.21047-5.8301-0.32617zm137.63 11.984-0.1992 3.4961c-0.249-0.0431-0.501-0.0782-0.75-0.1211l-1.4141-1.0449a5.0005 5.0005 0 0 0 2.3633-2.3301zm9.3847 9.0664-0.123 0.68945-0.5098 0.1582c0.1036-0.18919 0.1531-0.40635 0.2403-0.60546 0.1297-0.0845 0.2686-0.15005 0.3925-0.24219zm6.9063 5.6406c3.3289 9.8345 6.8604 19.814 10.586 29.818a5.0005 5.0005 0 0 0-6.123-2.7051l-6.0762-18.393a5.0005 5.0005 0 0 0-0.7304-1.3672 5.0005 5.0005 0 0 0-0.2325-1.543l-0.01-0.0156-0.072-0.22071a5.0005 5.0005 0 0 0 2.6543-5.5742zm-650.04 5.3711a5.0005 5.0005 0 0 0-0.998 3.9551c-14.523 2.655-27.142 5.1139-38.98 7.4902a5.0005 5.0005 0 0 0-0.066-0.26953c11.921-3.4772 25.49-7.2544 40.045-11.176zm629.24 10.014c3.6376 9e-3 4.2659 0.0852 5.6445 0.14648l3.3047 10.01c-162.08 6.4743-310.47 46.389-421.08 86.244 34.367-14.605 72.975-29.214 116.23-42.75 146.37-45.8 246.97-52.88 287.79-53.584 3.1378-0.0542 5.828-0.0718 8.1074-0.0664zm209.8 5.7637s0.079 8e-3 0.1211 0.0117a5.0005 5.0005 0 0 0-0.2421-8e-3c0.028-1e-3 0.1211-4e-3 0.121-4e-3zm0.1641 0.0156c0.096 8e-3 0.1787 0.014 0.2344 0.0215 0.1029 0.0137 0.1361 0.0223 0.1953 0.0332a5.0005 5.0005 0 0 0-0.4297-0.0547zm-1.0273 0.0176a5.0005 5.0005 0 0 0-0.043 8e-3v-6e-3s0.039-2e-3 0.043-2e-3zm1.5254 0.0488c0.024 5e-3 0.075 0.0133 0.096 0.0176 0.152 0.0318 0.213 0.0489 0.2636 0.0625 0.051 0.0137 0.058 0.0162 0.082 0.0234a5.0005 5.0005 0 0 0-0.4414-0.10352zm-0.918 4.9121c-0.01-3e-3 0.017 6e-3 0.012 4e-3 0-8.2e-4 -0.011-3e-3 -0.014-4e-3zm0.037 0.0117 0.035 0.01c0.01 2e-3 0.012 4e-3 0.018 6e-3v2e-3c-0.018-6e-3 -0.035-0.012-0.053-0.0176zm-5.0313 0.33008h0.01a5.0005 5.0005 0 0 0 0.014 0.125c0-0.026-0.024-0.125-0.024-0.125zm3.4825 4.4356v6e-3 -2e-3zm-311.93 14.58c-1.0027 0.13759-1.9889 0.29964-2.9902 0.43946a5.0005 5.0005 0 0 0-0.01-0.0645c0.992-0.13547 2.0044-0.24165 2.998-0.375zm155.51 8.5117c4.2701 7.5725 9.0281 14.82 14.637 21.268 13.159 15.128 30.708 26.375 52.365 28.361a5.0005 5.0005 0 0 0 0.027 4e-3c0.053 5e-3 0.1052 8e-3 0.1582 0.0117l0.078 6e-3a5.0005 5.0005 0 0 0 0.012 0c0.1735 0.012 0.3476 0.0176 0.5215 0.0176h0.1035c110.03 0.50871 174.97 34.565 175 34.582a5.0005 5.0005 0 0 0 0.016 0.01l9.1465 4.7754a5.0005 5.0005 0 0 0 0.01 2e-3c2.6121 1.3592 5.7113 0.80767 7.8632-0.7168 15.417 14.1 32.805 18.965 32.867 18.982 0 5.8e-4 0 1e-3 0.01 2e-3a5.0005 5.0005 0 0 0 0.072 0.0215l6.2168 1.7344c2.7505 0.76663 5.5918-0.27645 7.377-2.1055 8.9854 10.678 19.072 17.717 29.791 22.252l5.5351 2.3398c2.8783 1.2167 6.2094 0.37585 8.1778-1.5586 0.269-0.26445 0.4628-0.60843 0.6894-0.91992 14.605 16.674 30.359 24.682 30.359 24.682a5.0005 5.0005 0 0 0 0.059 0.0274l0.7305 0.35937c1.4248 0.70345 3.0378 0.93801 4.6035 0.66602a5.0005 5.0005 0 0 0 0.01-2e-3l0.8047-0.14062a5.0005 5.0005 0 0 0 0.027-6e-3l0.037-6e-3c0.035-6e-3 5.2742-0.9386 11.06-1.6777 2.9012-0.37058 5.9378-0.68692 8.2637-0.80664 0.292-0.015 0.2999 0.0196 0.5371 0.0156 0.02 0.0335 0.027 0.0457 0.047 0.0801 0.685 1.1581 1.6591 2.8 2.7949 4.7109 1.8404 3.0964 4.3305 7.2494 6.7949 11.34a5.0005 5.0005 0 0 0-0.3242 0.0215c-3.2936 0.3946-5.1539 2.1689-6.3848 4.3027a5.0005 5.0005 0 0 0-0.029 0.0527c-0.03 0.0536-0.059 0.10778-0.088 0.16211-3e-4 5.6e-4 3e-4 1e-3 0 2e-3 -1.7969 3.3643-1.6957 6.8538-1.3457 9.7168 0.3754 3.0699 1.3154 6.5175 3.5704 9.6191 2.3522 3.2368 5.4213 5.3162 7.8476 7.0117 1.3612 0.9512 1.8312 1.2116 2.5684 1.67 0.9958 2.0925 2.895 3.6763 5.2246 4.1562 1.0379 0.2136 2.1741 0.4104 3.4668 0.3887 0.8882-0.015 2.44-0.2598 3.9824-1.0469-0.5461 3.1961 0.3384 5.9524 0.9082 7.2852a5.0005 5.0005 0 0 0 0.01 0.014c0.3 0.696 0.7654 1.2975 1.2578 1.8711a5.0005 5.0005 0 0 0 0.096 0.2012l-0.2656-0.3125c0.072 0.097 0.2515 0.3554 0.3496 0.5039 0.049 0.074 0.095 0.1536 0.037 0.057 0 0-0.028-0.068-0.029-0.066a5.0005 5.0005 0 0 0 0.5801 0.8477c5e-4 7e-4 0 0 0 0 8e-4 9e-4 0.01 0.01 0.01 0.01 0.3777 0.4305 0.772 0.8485 1.2031 1.289 0.8728 0.8919 1.9697 1.9507 3.3086 3.1895 2.6843 2.4833 6.3274 5.6628 10.6 9.0547 8.5187 6.7633 19.42 14.463 30.791 18.713 2.4213 0.905 4.4121 1.5368 6.4629 2.207-4.3728 3.1644-8.8682 6.5124-12.715 9.7305-0.4298 0.3596-0.6161 0.6379-1.0019 0.9863-19.958-22.151-45.34-38.44-54.676-43.799-6.1966-3.555-15.8-7.3447-25.168-11.77-4.6416-2.1925-9.2107-4.5764-12.83-6.7793-3.5704-2.1732-6.5164-4.7344-6.7617-5.041-5.8264-7.282-6.1374-14.28-5.793-25.807a5.0005 5.0005 0 0 0 0-0.0137v-0.0117l0.047-1.6348a5.0005 5.0005 0 0 0 0-6e-3c0.065-2.4076-1.0806-4.6364-2.9356-6.082v2.916a5.0005 5.0005 0 0 0-2.8887-4.5312c-96.184-44.792-195.32-90.429-281.84-83.303-52.25 4.0846-91.896 27.761-116.5 61.008-24.598 33.234-34.305 75.646-28.719 117.26 11.176 83.244 84.955 163.14 220.67 161.38h-0.078c52.768 0.134 105.12 4.8095 146.35 10.859 114.62 16.818 185.26 53.012 229.27 92.463-40.806-34.076-98.999-64.348-181.61-78.805l-26.723-4.6797c-3.8733-0.6767-7.6578 2.2152-8.5293 5.4199-0.8716 3.2047 0.9269 7.6141 4.6093 8.9922l25.416 9.4844c84.168 31.395 135.35 98.506 164.98 170.94-0.551-1.1232-1.0254-2.3094-1.584-3.4258-30.861-61.674-72.092-112.98-119.29-139.08l-0.016-0.01c-0.012-0.01-0.023-0.013-0.035-0.019l-0.029-0.016c-0.017-0.01-0.034-0.018-0.051-0.027a5.0005 5.0005 0 0 0-0.033-0.017l-0.01-0.01c-0.01 0-0.017-0.01-0.025-0.014-0.016-0.01-0.032-0.017-0.049-0.025 0 0-0.01 0-0.012-0.01h-0.01l-0.025-0.014a5.0005 5.0005 0 0 0-0.049-0.022c-95.056-49.256-174.22-50.224-285.17-56.131a5.0005 5.0005 0 0 0-0.066 0 5.0005 5.0005 0 0 0-0.084-0.01c-0.031 0-0.061-0.01-0.092-0.01a5.0005 5.0005 0 0 0-0.1894-0.01c-111.83-2.8494-201.51-95.053-193.61-198.83 4.0726-53.42 18.81-86.252 38.016-110.31 19.191-24.037 43.434-39.442 67.498-56.08l1.7207-1.1894c2.9575-2.0439 4.0517-5.9957 2.5664-9.2695l-0.416-0.91796v1.0801a5.0005 5.0005 0 0 0-0.4453-2.0625c-5.8899-13.016-13.709-31.895-21.69-51.994zm-352.8 6.2402c-9.0553 2.8521-17.743 5.7836-26.412 8.7188a5.0005 5.0005 0 0 0-0.01-0.0195c8.6645-2.9364 17.396-5.8574 26.418-8.6992zm588.96 8.0254c42.486 20.453 76.524 42.678 102.42 62.355a5.0005 5.0005 0 0 0-0.4942 5.5078c-31.062-25.64-65.236-48.036-101.96-67.805a5.0005 5.0005 0 0 0 0.031-0.0586zm-643.05 10.436c-3.1168 1.1353-6.2747 2.2641-9.336 3.4062a5.0005 5.0005 0 0 0-0.01-0.0234c3.0487-1.1385 6.2436-2.2523 9.3438-3.3828zm662.44 12.074c11.493 6.7957 22.725 13.848 33.611 21.244-0.1654 0.28879-0.3862 0.53525-0.5117 0.85157l-2.3672 5.9707c-2.3073 5.804-3.2911 11.11-3.6054 15.883-10.156-5.908-22.106-16.202-25.279-34.48l-1.4453-8.3633a5.0005 5.0005 0 0 0 0-6e-3c-0.069-0.39617-0.2708-0.73056-0.4024-1.0996zm-699.43 2.0391c-0.9132 0.36566-1.8384 0.72976-2.7461 1.0957a5.0005 5.0005 0 0 0-0.01-0.0117c0.9004-0.36304 1.8464-0.72131 2.7519-1.084zm454.89 17.477 0.4707 0.5957c-0.5677 0.39145-1.1477 0.79046-1.7168 1.1816l-0.02-0.0156a5.0005 5.0005 0 0 0 1.2657-1.7617zm240.06 3.4805c0.6176 1.5098 1.2672 2.9837 1.9863 4.3809a5.0005 5.0005 0 0 0-3.5273-0.98828c0.031-0.92497 0.2018-2.0375 0.3281-3.0996a5.0005 5.0005 0 0 0 1.2129-0.29297zm56.326 11.199c8.2558 6.0804 16.373 12.298 24.228 18.779-1.6759 3.7861-2.5379 7.778-2.9746 11.549-7.754-6.1547-14.733-15.095-21.254-30.328zm-7.586 7.5547c0.3614 0.77603 0.7389 1.4687 1.1055 2.2168a5.0005 5.0005 0 0 0-2.6445-1.123c0.038-0.24427 0.067-0.47376 0.1093-0.72265a5.0005 5.0005 0 0 0 1.4297-0.3711zm-49.568 1.0957v0.20312a5.0005 5.0005 0 0 0-0.01-0.19726 5.0005 5.0005 0 0 0 0.01-6e-3zm-4.4766 0.4414a5.0005 5.0005 0 0 0 0.2891 0.0957 5.0005 5.0005 0 0 0 0.1484 0.0508 5.0005 5.0005 0 0 0 0.3711 0.0879l-0.4414-0.0879zm-150.26 3.5254a5.0005 5.0005 0 0 0 0 2e-3c-3.4452 0.10342-6.8984 0.18182-10.291 0.45507 0 0-0.019 2e-3 -0.02 2e-3 -0.02 1e-3 -0.2051 0.0139-0.3828 0.0254v-0.01c-0.056 4e-3 -0.1062 0.0171-0.1621 0.0215-0.024 2e-3 -0.063 3e-3 -0.076 4e-3 0.085-7e-3 0.1626-0.0246 0.2481-0.0312a5.0005 5.0005 0 0 0 0.021 0c3.5125-0.28966 7.0931-0.36139 10.662-0.46875zm-11.014 0.51172c-0.038 5e-3 -0.078 0.0103-0.1094 0.0156-0.01 1e-3 -0.027 4e-3 -0.035 6e-3 -24.63 1.9877-46.066 8.4537-64.188 18.281 18.157-9.8488 39.638-16.328 64.332-18.303zm255.8 0.3418c0.1882 0.15547 0.3705 0.31696 0.5586 0.47266v1.8105a5.0005 5.0005 0 0 0-0.5586-2.2832zm2.1406 1.8125c2.0495 1.7087 4.0785 3.4371 6.1015 5.1719a5.0005 5.0005 0 0 0-3.5156 0.0371 5.0005 5.0005 0 0 0-2.1699-1.9844 5.0005 5.0005 0 0 0-0.416-3.2246zm-62.67 4.1875c0.2814 0.15316 0.5454 0.29494 0.8222 0.4414a5.0005 5.0005 0 0 0-0.012 0.0215c-0.276-0.15831-0.5309-0.29836-0.8105-0.46289zm-192.12 2.9648v4e-3s-0.052 0.027-0.08 0.041a5.0005 5.0005 0 0 0 0.078-0.0449zm-0.2168 0.11524c-0.07 0.0353-0.1446 0.0742-0.1446 0.0742l-0.088 0.0371c1e-4 0-0.045 0.0149-0.053 0.0176a5.0005 5.0005 0 0 0 0.2852-0.1289zm-0.8789 0.33984c-6e-4 2e-4 -0.014 6e-3 -0.014 6e-3 3e-4 -8e-5 -0.2497 0.0627-0.3047 0.0742-0.057 0.0119-0.072 0.0122-0.1016 0.0176a5.0005 5.0005 0 0 0 0.42-0.0977zm-0.5137 0.11524c-0.046 8e-3 -0.086 0.0155-0.1602 0.0254-0.011 1e-3 -0.068 4e-3 -0.098 6e-3a5.0005 5.0005 0 0 0 0.2578-0.0312zm290.79 7.9004c0.7969 0.73096 1.4545 1.3656 2.2187 2.0762-0.6795-0.62242-1.5673-1.3711-2.2753-2.0117a5.0005 5.0005 0 0 0 0.057-0.0644zm-31.859 1.7285c0.3206 0.64037 0.6208 1.3056 0.9531 1.9297a5.0005 5.0005 0 0 0-7.4394 1.0098c0.012-0.73741 0-1.4478 0.055-2.2207a5.0005 5.0005 0 0 0 2.7246-0.35937 5.0005 5.0005 0 0 0 3.707-0.35938zm20.385 2.7773c0.1168 0.10901 0.2349 0.21708 0.3516 0.32618-0.1163-0.10975-0.2353-0.21654-0.3516-0.32618zm18.146 1.7344c0.652 0.62249 1.4467 1.335 2.0703 1.9375a5.0005 5.0005 0 0 0-0.025 0.0254c-0.6959-0.66612-1.3074-1.2672-2.0449-1.9629zm-441.86 7.8789a5.0005 5.0005 0 0 0 0 2e-3c-2.0745 2.6718-4.1322 5.377-6.0937 8.2676 1.9615-2.8906 4.019-5.5976 6.0937-8.2695zm434.05 0.39062c4.0493 4.0126 8.0002 8.0822 11.854 12.207a5.0005 5.0005 0 0 0-0.017 0.0176c-3.8757-4.1497-7.8223-8.2225-11.836-12.225zm-977.36 5.6875a5.0005 5.0005 0 0 0 0.2266 3.623c-9.8443 4.5774-16.626 7.9026-24.275 11.654a5.0005 5.0005 0 0 0-0.1328-0.25c6.9447-4.5021 15.139-9.58 24.182-15.027zm994.17 10.496a5.0005 5.0005 0 0 0 0.1992 0.0352l-0.053 0.1543-0.1387 0.01zm26.856 5.125c-1e-4 0 0.054 0.0127 0.059 0.0137a5.0005 5.0005 0 0 0-0.1015-6e-3c0-2.6e-4 0.043-8e-3 0.043-8e-3zm1.4765 0.35352c0 8.3e-4 0.053 0.0117 0.053 0.0117s0.035 0.0202 0.037 0.0215a5.0005 5.0005 0 0 0-0.09-0.0332zm1.2774 0.74609c0 2e-3 0.045 0.0273 0.045 0.0273 0-2e-5 0.047 0.0441 0.057 0.0527a5.0005 5.0005 0 0 0-0.1015-0.0801zm-0.1192 60.297c0.036 0.1883 0.1376 0.3481 0.1875 0.5313l-0.025-0.029c0.2118 0.4827-0.176-0.5706-0.1621-0.4981zm21.037 1.7109a5.0005 5.0005 0 0 0-0.01 0.01 5.0005 5.0005 0 0 0-0.076 0.062zm-2.8086 6.0684c1e-4 9e-4 0 0 0 0a5.0005 5.0005 0 0 0-0.6738 0.3261c0.1016-0.074 0.3067-0.2206 0.3066-0.2206 0 0 0.2348-0.069 0.3672-0.1073zm-1.5136 0.9375a5.0005 5.0005 0 0 0-0.5782 0.6152c0.1154-0.1663 0.2715-0.3926 0.2715-0.3925 0 0 0.2045-0.1487 0.3067-0.2227zm-0.9571 1.1621a5.0005 5.0005 0 0 0-0.2968 0.5725c0.012-0.047 0.057-0.2247 0.057-0.2247s0.1453-0.2106 0.2402-0.3478zm-0.6797 2.0586a5.0005 5.0005 0 0 0 0.2891 2.2305c-0.056-0.1473 0.01 0.1009-0.09-0.1973-0.058-0.1741-0.2052-0.8639-0.2051-0.8633 0 4e-4 -0.043-0.9826-0.043-0.9824 0 0 0.04-0.1541 0.049-0.1875zm0.4414 2.5703c0.095 0.1087 0.1388 0.2543 0.2403 0.3574l-0.168-0.1972c0 0.014-0.063-0.1588-0.072-0.1602zm70.908 25.201 0.2051 0.021a5.0005 5.0005 0 0 0-0.207-0.01zm0.6368 0.047h0.031c0.031 0.01-0.01 0 0.039 0.01 0.01 9e-4 0.026 0.01 0.031 0.01-0.052-0.01-0.058-0.011-0.1015-0.018zm0.1758 0.018c4e-4 1e-4 0.014 0 0.014 0h0.014a5.0005 5.0005 0 0 0-0.027-0.01zm-5.8262 4.9319h0.084a5.0005 5.0005 0 0 0 0 0.084zm2.0898 0h1.7735c-0.1158 0.078-0.2659 0.1835-0.3594 0.2461-0.044 0.029-0.1298 0.09-0.168 0.1152l0.6133 0.8965c-0.2442 0.3486-0.2857 0.4062-0.5703 0.8125a5.0005 5.0005 0 0 0-0.5274-1.127c0.1304-0.1676 0.212-0.3925 0.3731-0.5058a5.0005 5.0005 0 0 0-0.457 0.373 5.0005 5.0005 0 0 0-0.2715-0.3652 5.0005 5.0005 0 0 0-0.4063-0.4453zm2.541 0h0.1991s-0.1894 0.2689-0.2227 0.3163l0.021-0.2929zm-0.1543 2.0292 0.1426 0.2091c-0.1434 0.8433-0.1962 1.155-0.289 1.7011zm-2.498 5.2636a5.0005 5.0005 0 0 0 0.029 0.041c-0.2321 0.1571-0.3524 0.2443-0.5938 0.4083a5.0005 5.0005 0 0 0 0.5645-0.4493zm-9.9902 7.0664c-0.3316 0.242-0.6144 0.4811-0.9454 0.7246 0.3308-0.243 0.614-0.4809 0.9454-0.7226zm-20.158 13.781a5.0005 5.0005 0 0 0 1.4511 0.2129l-0.7636 0.9766-0.8848-1.1719zm8.5371 0.8984c0.029 0.01 0.2148 0.072 0.2148 0.072s0.1131 0.1604 0.1309 0.1856a5.0005 5.0005 0 0 0-0.3457-0.2579zm1.9082 2.4668c0.01 0.014 0.096 0.1348 0.096 0.1348s0.029 0.2238 0.043 0.3281a5.0005 5.0005 0 0 0-0.1386-0.4629zm0.289 1.5762c0.01 0.047 0.027 0.211 0.027 0.211 0-1e-4 -0.028 0.1614-0.039 0.2265a5.0005 5.0005 0 0 0 0.012-0.4375zm-0.1699 1.3789c0 0.026-0.023 0.1368-0.023 0.1367 1e-4 -3e-4 -0.1298 0.3766-0.1758 0.4844-0.092 0.2157-0.1439 0.3082-0.1836 0.3828a5.0005 5.0005 0 0 0 0.3828-1.0039zm-107.95 180.82c3.9448 0.9234 7.8432 1.8726 11.658 2.8692a5.0005 5.0005 0 0 0 0.8516 4.2832c-4.1369-2.3414-8.361-4.5919-12.688-6.7422a5.0005 5.0005 0 0 0 0.1777-0.4102zm216.8 146.77c0.5101 0.9797 1.037 1.9637 1.5254 2.9317-0.4853-0.9508-1.0636-1.9456-1.5703-2.9083a5.0005 5.0005 0 0 0 0.045-0.023zm-101.48 5.8281c2.4469 4.4142 4.8381 8.8954 7.1719 13.443-2.3339-4.5482-4.7231-9.0309-7.17-13.445zm113.2 8.5215a5.0005 5.0005 0 0 0 0.1133 0.6172c0 0.01 0.01 0.018 0.01 0.027 0.6978 2.5754 1.275 4.9721 1.8437 7.4512 0 0.01 0.01 0.021 0.01 0.031a5.0005 5.0005 0 0 0 0.047 0.1601 5.0005 5.0005 0 0 0 0.07 0.3887 5.0005 5.0005 0 0 0 0.01 0.031c0.9826 4.4835 1.5789 8.4567 2.1758 12.402a5.0005 5.0005 0 0 0-0.5059 0.1309c-2.0129-5.9253-4.6889-12.611-7.8105-19.697a5.0005 5.0005 0 0 0 1.8183-1.3965 5.0005 5.0005 0 0 0 2.2266-0.1465zm-91.73 35.178c0.1195 0.279 0.2521 0.5468 0.3711 0.8261a5.0005 5.0005 0 0 0-0.027 0.012c-0.1188-0.2762-0.2246-0.5619-0.3438-0.8378zm21.402 8.1191c0.8081 2.6501 1.5934 5.2941 2.3497 7.9394a5.0005 5.0005 0 0 0-0.07 0.02c-0.7519-2.6491-1.5077-5.2947-2.3125-7.9492a5.0005 5.0005 0 0 0 0.033-0.01zm7.3711 26.828c0.5488 2.261 1.0556 4.5057 1.5684 6.7559a5.0005 5.0005 0 0 0-0.1152 0.023c-0.5086-2.2557-0.9786-4.4949-1.5235-6.7617a5.0005 5.0005 0 0 0 0.07-0.018zm6.6211 31.76c0.2943 1.6824 0.604 3.37 0.8789 5.041a5.0005 5.0005 0 0 0-0.1933 0.035c-0.273-1.6801-0.5476-3.3573-0.8399-5.0489a5.0005 5.0005 0 0 0 0.1543-0.027zm-6.3828 20.68a5.0005 5.0005 0 0 0 4.8008 2.1406c0.1181 0.9454 0.2673 1.9022 0.3828 2.8477 3e-4 0-2e-4 0 0 0.01a5.0005 5.0005 0 0 0 1.5918 3.0215 5.0005 5.0005 0 0 0-0.8379 3.2715c2e-4 0-2e-4 0 0 0.01 0.5961 5.4638 1.1194 10.846 1.5117 16.062 1e-4 7e-4 0 0 0 0a5.0005 5.0005 0 0 0 0.1758 0.9355 5.0005 5.0005 0 0 0-0.043 1.0723c0.2774 3.8854 0.2644 7.3498 0.4453 11.107-2.0949-13.517-4.8033-27.024-8.0274-40.473z" color="#000000" color-rendering="auto" dominant-baseline="auto" filter="url(#b)" image-rendering="auto" solid-color="#000000" style="font-feature-settings:normal;font-variant-alternates:normal;font-variant-caps:normal;font-variant-ligatures:normal;font-variant-numeric:normal;font-variant-position:normal;isolation:auto;mix-blend-mode:normal;shape-padding:0;text-decoration-color:#000000;text-decoration-line:none;text-decoration-style:solid;text-indent:0;text-orientation:mixed;text-transform:none;white-space:normal"/><path transform="matrix(.26458 0 0 .26458 -.056551 -.073686)" d="m1266.8 584.98c-103.04 0.11973-171.06 8.4009-171.8 8.4902a2.5002 2.5002 0 0 0-0.207 0.0215c-0.016 3.1e-4 -0.033 0-0.033 0a2.5002 2.5002 0 0 0-0.096 0.01l-67.094 8.2168a2.5002 2.5002 0 0 0 0.4239 4.9805l67.516-3.2402s375.04-17.738 675.62 103.11c0.7961 3.4101 1.8165 7.1269 2.7988 10.793l-2.291-7.3926a2.5002 2.5002 0 0 0-1.9531-1.7207l-1.4981-0.26562c-0.01-9.4e-4 -82.147-14.585-205.84-15.992-5.154-0.0586-10.38-0.0945-15.676-0.10547-37.071-0.0764-77.541 1.064-120.42 4.1113-196.01 13.933-393.05 82.248-393.73 82.486-0.04 0.0128-0.1524 0.0469-0.1524 0.0469a2.5002 2.5002 0 0 0-0.055 0.0195l-54.117 18.766a2.5002 2.5002 0 0 0 1.4277 4.7852l55.543-13.982s403.2-101.21 740.11-41.883a2.5002 2.5002 0 0 0 2.8946-2.0273l0.1718-0.9668 0.916-0.28516a2.5002 2.5002 0 0 0 1.6719-1.75c1.2542 3.9303 2.5996 7.9253 3.959 11.957a2.5002 2.5002 0 0 0-0.9902-0.2793l-1.6817-0.11133s-4.1812-0.27614-12.156-0.30859c-2.6587-0.0108-5.7422 5e-3 -9.2461 0.0664-42.051 0.73313-144.4 7.9976-292.23 54.252-200.97 62.883-315.34 152.27-315.34 152.27l-25.445 19.9a2.5002 2.5002 0 0 0 2.7597 4.1524l28.205-15.752s297.65-166.02 632.89-175.44l-0.01 2e-3 3.3574-0.0879a2.5002 2.5002 0 0 0 2.3086-3.2832l-1.5352-4.6484c10.873 29.173 22.558 57.187 31.203 76.506-22.797 15.649-47.268 31.573-67.367 56.748-21.07 26.392-36.994 62.797-41.242 118.53-8.601 112.97 88.312 211.91 208.18 214.96 111.27 5.9238 186.98 6.7365 279.13 54.498 43.067 23.844 83.141 72.819 113.07 132.63 29.946 59.847 49.816 130.45 53.385 197.04l2.0312 37.963a2.5002 2.5002 0 0 0 4.9883 0.062l2.959-37.898c3.9676-50.896-3.5369-130.16-34.191-205.47-25.607-62.903-67.893-122.74-133.01-160.19 93.474 25.51 147.47 72.663 178.21 116 35.279 49.731 40.464 93.694 40.471 93.75l2.334 30.119a2.5002 2.5002 0 0 0 4.9824 0.024l2.6348-30.258s4.6335-54.143-32.748-113.83c-37.381-59.691-116.73-124.96-282.28-149.25-41.938-6.1531-94.864-10.876-148.49-11.012a2.5002 2.5002 0 0 0-0.01 0h-0.044a2.5002 2.5002 0 0 0-0.033 0c-129.92 1.7177-195.48-72.362-205.69-148.38-5.1023-38.005 3.8228-76.503 25.906-106.34 22.084-29.837 57.224-51.192 105.62-54.977 0-3.2e-4 0.01-2e-3 0.012-2e-3a2.5002 2.5002 0 0 0 0.025 0c79.471-6.5575 176.33 36.383 271.54 80.688-0.1279 11.006 0.9016 22.135 8.957 32.203 5.2422 6.5518 15.052 11.366 24.896 16.016 9.8728 4.6635 20.07 8.8983 24.111 11.217 9.1816 5.2702 39.808 24.909 57.881 48.43l2.3594 3.0761a2.5002 2.5002 0 0 0 4.1894-0.3437l1.8242-3.418c-0.057 0.1071 0.7913-1.0584 1.9668-2.2597 1.1756-1.2014 2.7572-2.6766 4.5469-4.1739 3.627-3.0344 8.2205-6.4938 12.695-9.7148 8.9519-6.4437 17.426-11.959 17.426-11.959l7.3535-4.7832a2.5002 2.5002 0 0 0-1.416-4.5957l-8.7695 0.1855a2.5002 2.5002 0 0 0-0.041 0s-1.258 0.079-5.3946-0.7109c-4.1211-0.7868-10.673-2.4485-19.976-5.9258-8.5838-3.2079-18.827-10.147-26.713-16.408-3.9465-3.1332-7.3433-6.0973-9.7422-8.3164-0.3446-0.3188-0.4949-0.4816-0.7969-0.7676l0.045-0.039c2.6608-2.2403 2.9119-5.6151 2.3653-8.0605-0.4957-2.2183-1.5158-4.1534-2.625-5.9453-2.2387-3.6166-5.1307-6.8939-7.0899-8.8516 0.3531 0.35314 0.085 0.0892 0-0.0176-0.085-0.10678-0.2116-0.2674-0.3633-0.4668-0.3033-0.39878-0.7123-0.95369-1.1425-1.582-0.8862-1.2939-2.0253-3.0499-3.3125-5.0742-2.5722-4.0447-5.7299-9.1763-8.793-14.236-6.1281-10.123-11.707-19.625-12.186-20.428a2.5002 2.5002 0 0 0-0.066-0.10156c0.029 0.0309-0.331-0.70888-0.9043-1.5312-0.6096-0.87458-1.5284-1.92-2.8652-2.8125a2.5002 2.5002 0 0 0-0.01-4e-3l-0.2891-0.19141a2.5002 2.5002 0 0 0-0.5859-0.2871l-0.332-0.11133a2.5002 2.5002 0 0 0-0.029-0.01c-2.6178-0.8419-5.2151-0.69144-8.0996-0.54297-2.9639 0.15262-6.2718 0.50077-9.4004 0.90039-5.259 0.67177-8.7168 1.2958-9.961 1.5156-2.8356-1.4797-28.142-15.325-39.664-43.486 14.422 12.613 28.18 25.902 41.08 40.074a2.5002 2.5002 0 0 0 0.025 0.0254l0.029 0.0312a2.5002 2.5002 0 0 0 0.025 0.0273l0.834 0.86328a2.5002 2.5002 0 0 0 1.9766 0.75782l1.1445-0.082 19.857-1.291a2.5002 2.5002 0 0 0 1.7676-4.084l-3.1016-3.7656s-86.854-105.3-252.52-156.54a2.5002 2.5002 0 0 0-0.016-6e-3l-0.017-6e-3a2.5002 2.5002 0 0 0-0.02-6e-3c0.089 0.0276 0.014-5e-3 -0.2109-0.0742l-0.01-2e-3 -55.106-17.014a2.5002 2.5002 0 0 0-1.6797 4.7051l53.438 21.717c67.953 27.622 129.2 61.887 181.52 105.27a2.5002 2.5002 0 0 0 0 2e-3l2.1074 1.7441c-2.5595 3.9368-3.8156 8.784-4.3515 13.438-0.3699 3.2118-0.367 6.1371-0.2168 8.7715-12.746-7.376-23.693-19.052-33.145-43.922a2.5002 2.5002 0 0 0 0-2e-3l-2.2891-6.0098a2.5002 2.5002 0 0 0-4.6601-0.0312l-2.3672 5.9707c-3.5792 9.0012-3.872 16.665-3.1055 22.422-11.342-5.0734-31.002-16.938-35.354-42.01v-2e-3l-1.4453-8.3633a2.5002 2.5002 0 0 0-4.7637-0.55078l-3.3144 7.8184c-3.4342 8.0962-3.9331 15.005-3.3477 20.377-19.435-8.577-78.922-31.203-171.26-31.691-17.323-1.601-31.083-10.276-42.379-23.262-11.299-12.989-19.869-30.288-25.938-48.193-6.0685-17.907-9.6639-36.41-11.287-51.68-0.8105-7.6244-1.0897-14.524-0.9902-20.041 0.1-5.517 0.6434-9.7578 1.2012-11.541a2.5002 2.5002 0 0 0 0-2e-3l0.6191-1.9863a2.5002 2.5002 0 0 0-1.2266-2.959l-1.8418-0.96484v-2e-3c-0.021-0.011-109.37-57.535-323.2-82.826-80.18-9.4849-154.94-12.389-217.07-12.316zm-0.096 5.002c-38.243 0.0474-66.122 1.4301-93.037 2.8926a2.5002 2.5002 0 0 0-0.6386 4.8691c-48.079-0.58669-77.583 0.71187-77.686 0.7168 0.039-4e-3 0.049-5e-3 0.078-8e-3a2.5002 2.5002 0 0 0 0.092-8e-3c0.3697-0.0452 68.277-8.3378 171.19-8.4629zm128.71 4.3984c28.38 1.8954 57.549 4.2942 87.869 7.8809 1.8177 0.21499 3.4827 0.47379 5.2852 0.69336-1.8026-0.21951-3.4691-0.47637-5.2871-0.69141-30.325-3.5873-59.491-5.9871-87.867-7.8828zm-128.54 0.59766c61.783-0.0695 136.12 2.8224 215.82 12.25 201.83 23.872 306.66 75.214 316.64 80.281-1.3337 7.3265-1.3966 17.699 0.035 31.166 1.6968 15.961 5.3998 35.081 11.754 53.83 6.3536 18.748 15.341 37.15 27.867 51.551 12.532 14.407 28.843 24.811 49.049 26.664a2.5002 2.5002 0 0 0 0.053 4e-3l0.1114 8e-3a2.5002 2.5002 0 0 0 0.1757 6e-3h0.1035c111.1 0.5087 177.33 35.156 177.33 35.156a2.5002 2.5002 0 0 0 0 2e-3l9.1465 4.7754a2.5002 2.5002 0 0 0 3.1992-3.6563l-5.9414-8.4297a2.5002 2.5002 0 0 0-0.023-0.0332s-0.8735-1.4317-1.5938-4.3535c14.678 25.935 44.184 34.375 44.184 34.375a2.5002 2.5002 0 0 0 0.02 6e-3l6.2168 1.7344a2.5002 2.5002 0 0 0 2.791-3.7344l-3.4258-5.4707a2.5002 2.5002 0 0 0-0.014-0.0215s-1.2023-1.7925-1.9531-6.082c-0.1984-1.1336-0.1867-2.718-0.1328-4.3535 11.259 21.979 25.096 33.5 40.508 40.02l5.5351 2.3398a2.5002 2.5002 0 0 0 3.293-3.2363l-2.2442-5.5801c-1.4558-3.6173-2.0197-6.3932-2.166-8.8223 15.26 27.136 40.654 39.984 40.654 39.984a2.5002 2.5002 0 0 0 0.01 4e-3l0.7324 0.36133a2.5002 2.5002 0 0 0 1.5372 0.22265l0.8046-0.14062a2.5002 2.5002 0 0 0 0.01-2e-3s5.3864-0.96192 11.342-1.7226c2.9774-0.38031 6.0955-0.70884 8.6406-0.83985 1.9258-0.0991 3.1412 0.048 3.7071 0.11329 0.092 0.15497 0.1393 0.23777 0.375 0.63086-0.033-0.0555 1.5842 2.6872 3.8515 6.502 2.2687 3.817 5.2888 8.8757 8.3731 13.971 3.0852 5.0966 6.2598 10.27 8.9023 14.426 1.3214 2.078 2.5101 3.9005 3.5078 5.3574 0.8283 1.2094 1.4974 2.091 2.2793 2.957a2.5002 2.5002 0 0 0 0.4004 0.52734c1.3978 1.3967 4.0816 4.5016 5.6582 7.0488 0.3984 0.6437 0.4639 0.9368 0.7031 1.4668-1.3122 0.7247-2.4964 1.6383-3.2304 3.0235-1.4315 2.7011-0.597 5.325-0.098 6.4922a2.5002 2.5002 0 0 0 0.5137 0.7636c0.3215 0.4343 0.7924 1.1521 0.6797 1.0235 0.2917 0.3329 0.6288 0.6905 1.0254 1.0957 0.791 0.8084 1.8367 1.8203 3.1308 3.0176 2.5899 2.396 6.1506 5.5047 10.314 8.8106 8.322 6.6071 18.964 14.033 29.432 17.945 6.7722 2.5312 11.822 3.9752 16.129 5.0507-2.1499 1.4365-3.7185 2.4196-7.6562 5.254-4.5903 3.3042-9.3245 6.8515-13.268 10.15-1.8972 1.5872-3.232 3.0007-4.4238 4.3575-19.688-23.408-47.484-41.234-56.951-46.668-5.5349-3.1754-15.269-7.0761-24.816-11.586-4.7589-2.2479-9.4504-4.6906-13.293-7.0293-3.8426-2.3388-6.8585-4.6778-8.0664-6.1875-6.8177-8.5209-7.2369-17.359-6.8867-29.08a2.5002 2.5002 0 0 0 0-6e-3l0.047-1.6465a2.5002 2.5002 0 0 0-1.4473-2.3359l-1.4902-0.69141v-2e-3c-96.168-44.785-194.89-89.814-279.34-82.85-50.958 3.9836-89.113 26.894-112.88 58.998-23.761 32.103-33.206 73.207-27.781 113.62 10.849 80.812 81.899 158.78 215.65 157.05 53.054 0.1347 105.6 4.8279 147.07 10.912 163.47 23.985 239.5 87.559 275.26 144.65 11.561 18.46 18.666 35.802 23.19 51.109-5.9354-12.914-13.654-27.092-24.228-41.998-36.657-51.674-104.61-108.62-228.15-130.24l-26.723-4.6796a2.5002 2.5002 0 0 0-1.3066 4.8046l25.416 9.4844c85.989 32.074 138.2 100.83 168.14 174.38 15.465 37.989 24.742 77.028 29.689 112.79-9.3931-39.281-23.145-77.749-40.652-112.74-30.56-61.073-71.41-111.6-117.26-136.95a2.5002 2.5002 0 0 0-0.031-0.017l-0.029-0.016a2.5002 2.5002 0 0 0-0.062-0.033l-0.031-0.016 0.035 0.019c-94.118-48.796-172.14-49.709-283.22-55.623l0.1562 0.031a2.5002 2.5002 0 0 0-0.2285-0.037h-0.086a2.5002 2.5002 0 0 0-0.1328 0h0.1133a2.5002 2.5002 0 0 0-0.1153-0.01c-114.51-2.9176-206.6-97.359-198.46-204.2 4.1309-54.185 19.272-88.222 39.094-113.05 19.819-24.824 44.61-40.514 68.562-57.074l1.7207-1.1894a2.5002 2.5002 0 0 0 0.8554-3.0898l-0.8632-1.9023v-2e-3c-16.544-36.559-47.47-113.37-57.543-158.42a2.5002 2.5002 0 0 0 0-4e-3l-0.2871-1.2774a2.5002 2.5002 0 0 0-1.5-1.7676l-1.2188-0.49414c-183.01-74.09-390.5-96.476-528.13-102.86 6.1315-0.0836 11.118-0.31276 17.844-0.32031zm19.904 7.2754c6.5953 0.42418 13.335 0.91512 20.164 1.418-6.8311-0.50875-13.565-0.9876-20.164-1.418zm37.348 2.6914c14.386 1.1763 29.304 2.5911 44.508 4.1582-15.222-1.5797-30.099-2.968-44.508-4.1582zm197.74 2.375c1.2287 0.17706 2.3534 0.37762 3.5742 0.55664-1.2223-0.17887-2.3439-0.37969-3.5742-0.55664zm-143.26 2.8711c14.1 1.5222 28.47 3.2359 43.117 5.1387-14.644-1.91-29.013-3.6065-43.117-5.1387zm50.408 6.0801c23.023 3.0798 46.598 6.7035 70.562 10.855-23.947-4.1542-47.54-7.7642-70.562-10.855zm84.264 13.244c6.953 1.262 13.926 2.6068 20.928 3.9688-6.9939-1.361-13.981-2.7066-20.928-3.9688zm35.887 6.9629c6.8738 1.4032 13.727 2.7902 20.631 4.2949-6.8969-1.503-13.762-2.8925-20.631-4.2949zm51.143 11.279c6.0603 1.4517 12.112 3.0034 18.178 4.5391-6.0603-1.5332-12.121-3.089-18.178-4.5391zm37.693 9.625c5.7271 1.5377 11.442 3.0649 17.162 4.6816-5.7152-1.6139-11.439-3.1462-17.162-4.6816zm50.252 14.477c4.2662 1.3304 8.4962 2.7628 12.75 4.1406-4.2517-1.3761-8.485-2.8117-12.75-4.1406zm95.762 3.1875c1.7208 0.73148 2.5253 1.1237 4.0313 1.7832-1.3873-0.61396-2.4397-1.0991-4.0313-1.7832zm14.168 6.3301c4.0752 1.9222 6.5664 3.1738 6.5664 3.1738a2.5002 2.5002 0 0 0 0 2e-3c-0.089 0.28471-0.1213 0.76001-0.2012 1.0742a2.5002 2.5002 0 0 0-1.3066-1.7734c-0.4113-0.21385-2.6159-1.3016-5.0606-2.4766zm-72.307 2.9727c4.5491 1.5868 9.0863 3.1776 13.613 4.8223-4.5238-1.6427-9.066-3.2372-13.613-4.8223zm-210.9 12.795c-27.97 0.4719-57.506 1.6473-88.354 3.8398-0.1097 8e-3 -0.2185 0.0195-0.3282 0.0273 0.1102-8e-3 0.22-0.0215 0.3301-0.0293 30.841-2.192 60.377-3.3668 88.352-3.8379zm91.447 0.92774c0.7653 0.0289 1.4208 0.0757 2.1817 0.10546-0.7623-0.0296-1.4149-0.0767-2.1817-0.10546zm196.93 0.73242c-0.014 1.7114 0.035 3.5977 0.092 5.5078-0.053-1.898-0.1185-3.8172-0.092-5.5078zm-31.055 2.8457c0.9912 0.39766 2.0083 0.73995 2.998 1.1406l0.01 2e-3v2e-3c0.06 0.27015 0.1628 0.59885 0.2246 0.8711a2.5002 2.5002 0 0 0-1.3418-1.2871c-0.6243-0.25191-1.2617-0.47781-1.8867-0.72852zm-225.67 0.23242c5.2619 0.0106 10.455 0.0456 15.576 0.10352 117.72 1.3323 194.9 14.289 201.28 15.389l5.5137 17.783c-225.41-37.938-472.66-6.9542-614.51 18.311 73.048-19.078 171.54-40.321 272.49-47.496 42.608-3.0284 82.82-4.1636 119.65-4.0898zm-153.08 2.002c-2.4091 0.2418-4.8136 0.49231-7.2168 0.74804 2.4074-0.25726 4.8062-0.50508 7.2168-0.74804zm316.85 1.5215c3.8882 0.41081 5.6546 0.71435 9.1777 1.1172-3.4586-0.39761-5.3503-0.71068-9.1777-1.1172zm-342.43 1.4004c-9.8787 1.1989-19.677 2.5-29.396 3.8984 9.7456-1.4036 19.53-2.6971 29.396-3.8984zm435.55 0.62305c0.1431 2.9064 0.3996 6.0391 0.7168 9.2578-0.324-3.267-0.5741-6.3808-0.7168-9.2578zm-51.775 3.0723c9.9907 1.4331 15.59 2.4004 15.59 2.4004l0.4649 1.5a2.5002 2.5002 0 0 0-1.957-1.7226c-0.6868-0.12029-6.486-1.0626-14.098-2.1777zm-428.62 2.457c-13.57 2.1051-27.021 4.315-40.115 6.707 13.136-2.3889 26.562-4.6059 40.115-6.707zm-44.121 7.4785c-13.562 2.514-26.869 5.136-39.76 7.8516 12.96-2.7075 26.174-5.3458 39.76-7.8516zm244.69 2.0586c6.4936-0.0568 13.08 0.092 19.609 0.10743-156.29-0.19027-303.95 20.618-399.71 37.938 90.684-16.619 229.85-36.731 380.11-38.045zm32.67 0.17774c7.9046 0.0791 15.786 0.14813 23.727 0.34179-7.9269-0.18318-15.83-0.27218-23.727-0.34179zm62.061 1.7148c3.7913 0.18578 7.5754 0.42366 11.369 0.63867-3.7901-0.20981-7.5799-0.458-11.369-0.63867zm52.156 3.4727c1.2131 0.10408 2.4259 0.17974 3.6387 0.28711-1.2117-0.10584-2.4265-0.18457-3.6387-0.28711zm-434.52 1.1035c-56.812 12.08-106.28 25.55-142.01 36.051a2.5002 2.5002 0 0 0 0.8223 4.8945c-37.396 7.6159-60.798 13.33-60.861 13.346 0.065-0.0209 0.1323-0.0428 0.1328-0.043a2.5002 2.5002 0 0 0 0.027-0.01c0.3387-0.11744 86.922-30.003 201.89-54.238zm457.09 1.0234c2.4585 0.25352 4.9166 0.49989 7.373 0.76758-2.456-0.26517-4.9141-0.51665-7.373-0.76758zm29.115 3.3106c0.5181 0.0658 1.0347 0.13671 1.5527 0.20312-0.5181-0.066-1.0344-0.13776-1.5527-0.20312zm52.697 4.2246 0.4335 1.3984a2.5002 2.5002 0 0 0-0.4824 0.21289 2.5002 2.5002 0 0 0 0.049-1.6113zm-1.1504 2.9121a2.5002 2.5002 0 0 0-0.1192 0.43359l-0.01 0.041c-0.3195-0.0555-0.6433-0.0991-0.9629-0.1543a2.5002 2.5002 0 0 0 1.0899-0.32031zm37.871 16.689c1.2418 4.585 2.6346 9.1971 4.1875 13.779 2.7397 8.0842 6.0718 16.007 9.8574 23.588-3.7872-7.5821-7.1215-15.507-9.8614-23.592-1.5524-4.5809-2.9427-9.1921-4.1835-13.775zm-41.633 0.33594c7.8682 0.032 11.844 0.29687 11.844 0.29687l0.5547 1.6797a2.5002 2.5002 0 0 0-2.2168-1.7031c-0.6803-0.0413-4.3631-0.23055-10.48-0.27149 0.086 2.9e-4 0.2117-2e-3 0.2968-2e-3zm13.361 4.8867 8.1152 24.566c-0.9489 0.0267-1.8876 0.0919-2.8359 0.1211a2.5002 2.5002 0 0 0 1.8086-3.2188zm-14.432 0.0957c5.8812 0.014 7.9441 0.16222 9.2793 0.24023l6.4571 19.561c-238.51 8.1459-448.4 90.021-552.33 137.84 52.269-30.344 132.34-70.333 239.19-103.77 146.86-45.951 247.94-53.101 289.2-53.812 3.1691-0.0547 5.8915-0.0719 8.205-0.0664zm207.88 20.471c-0.01 8.1e-4 -0.03-4e-3 0.1387 0.0488 0-1e-3 0.014 5e-3 0.01 4e-3a2.5002 2.5002 0 0 0 0.018 6e-3c105.22 32.534 177.84 86.676 216.78 121.6-27.532-24.544-73.573-59.811-138.5-90.549-0.038-0.0178-0.072-0.0369-0.1093-0.0547a2.5002 2.5002 0 0 0-2.8438 4.0137c-24.112-12.767-49.303-24.425-75.486-35.07zm-233.51 6.5176c-3.1209 0.22349-6.2535 0.41199-9.3652 0.66016 3.1112-0.24264 6.2423-0.44127 9.3652-0.66016zm-22.176 1.7715c-6.9928 0.63479-13.98 1.2809-20.92 2.0332 6.9409-0.73543 13.913-1.4116 20.92-2.0332zm-24.635 2.4336c-7.4268 0.82807-14.796 1.7662-22.154 2.7207 7.3699-0.93547 14.702-1.9085 22.154-2.7207zm-39.324 5.0801c-186.33 26.746-347.32 91.203-433.59 130.98 81.521-38.35 241.93-104.03 433.59-130.98zm-220.52 23.834c-2.2956 0.78676-4.56 1.5795-6.8282 2.3711 2.2701-0.79316 4.5324-1.5834 6.8282-2.3711zm-36.971 13.281c-0.2552 0.0963-0.5227 0.19079-0.7774 0.28711 0.2551-0.0965 0.5219-0.19061 0.7774-0.28711zm463.35 1.916c7.5953 4.312 16.046 7.1282 25.422 7.9902-9.3762-0.86211-17.827-3.6777-25.422-7.9902zm28.385 8.0605c5.6893 0.0565 11.279 0.17842 16.713 0.39649-5.4375-0.22529-11.039-0.33891-16.713-0.39649zm20.787 0.61524c5.3918 0.25763 10.668 0.57463 15.797 0.97265-5.1225-0.40837-10.432-0.70818-15.797-0.97265zm16.916 1.0684c11.944 0.9529 22.919 2.3151 33.391 3.8633-10.454-1.5672-21.584-2.8958-33.391-3.8633zm-559.79 0.28125c-12.199 4.9733-23.922 9.9633-35.094 14.934 11.21-4.9793 22.906-9.9648 35.094-14.934zm600.71 4.8144c41.461 6.8174 70.553 17.031 84.789 23-15.581-6.3226-44.602-16.318-84.789-23zm98.053 1.4394c0.436 2.5103 1.059 4.86 1.7617 7.1387a2.5002 2.5002 0 0 0-4.0781 1.459c-0.7923 4.4028-1.0228 8.3451-0.4063 11.547 0.057 0.29695 0.1527 0.4071 0.2168 0.6875-0.02-0.0363-0.09-0.20322-0.098-0.2168-0.045-0.0834-0.019 0.0499-0.1192-0.4707-0.9063-4.7073-0.9071-11.584 2.7227-20.145zm-235.6 6.6953c0.1829 0.40607 0.4513 1.0679 0.6309 1.4648a2.5002 2.5002 0 0 0 0 2e-3v4e-3c-0.4562 0.31547-0.9255 0.636-1.3828 0.95117a2.5002 2.5002 0 0 0 0.7539-2.4219zm-508.72 6.7637c-8.9632 4.0946-17.711 8.1709-25.965 12.191 8.3111-4.0328 16.969-8.0914 25.965-12.191zm792.35 7.1191c0.7323 1.927 1.5083 3.6095 2.2656 5.3965a2.5002 2.5002 0 0 0-3.9863 1.4258c-1.2302 5.5669-1.613 10.529-0.9375 14.416-0.8803-5.053-0.8773-12.345 2.6582-21.238zm-301.87 0.60937c-1.6353 1.1433-3.2431 2.4003-4.875 3.5664 1.633-1.1661 3.2384-2.4229 4.875-3.5664zm251.97 1.6504c0.8939 2.7037 1.8668 4.577 1.8867 4.6055l-0.01-4e-3 -0.01-2e-3v-2e-3c-7e-4 -3.6e-4 -3.7145-1.6238-5.1914-2.3262a2.5002 2.5002 0 0 0 3.3184-2.2715zm-775.35 6.1934c-45.507 22.552-79.817 43.355-102.19 58.004a2.5002 2.5002 0 0 0 1.6602 4.5723c-20.133 9.9793-34.019 17.337-34.031 17.344 0.047-0.0365 47.452-36.939 134.56-79.92zm872.13 2.7383c28.348 21.962 46.194 39.916 53.404 47.818l-2.2734 0.14844c-15.592-16.969-32.911-32.99-51.131-47.967zm-366.63 2.5547c-0.7969 0.6251-1.5765 1.2937-2.3692 1.9297 0.793-0.63581 1.572-1.3048 2.3692-1.9297zm124.63 1.0898c1.7997-0.0127 3.644 0.11972 5.457 0.15039-1.8223-0.0309-3.6754-0.16133-5.4843-0.14844 0.01-7e-5 0.018-2e-3 0.027-2e-3zm15.883 0.4375c2.5175 0.1516 5.0846 0.46427 7.625 0.6914-2.5404-0.22729-5.1075-0.53967-7.625-0.6914zm16.27 1.4844c3.1849 0.38445 6.4195 0.93376 9.6367 1.4258-3.2174-0.49233-6.4516-1.0411-9.6367-1.4258zm16.484 2.4434c3.8006 0.6635 7.6476 1.4876 11.488 2.2871-3.8407-0.79995-7.6877-1.6232-11.488-2.2871zm-181.78 1.5137c-1.1628 0.99654-2.2902 2.0702-3.4395 3.0977 1.1494-1.027 2.2766-2.1016 3.4395-3.0977zm325.62 0.59375c0.1213 0.68534 0.3052 0.99458 0.4531 1.5977-0.028-0.0572-0.1035-0.2391-0.1211-0.2793-0.096-0.21883-0.1792-0.46126-0.332-1.3184zm-127.05 1.2402c4.4891 1.0002 9.021 2.1485 13.559 3.3164-4.5378-1.1685-9.0693-2.3156-13.559-3.3164zm119.06 2.1797c1.8828 0.86747 4.0395 1.9698 5.4277 2.5-1.5981-0.65445-3.3017-1.4414-5.4277-2.5zm9.1347 0.61719c0.7655 2.2228 1.4852 3.7948 1.4961 3.8125v-2e-3c-0.012-4e-3 -2.1656-0.75852-4.4902-1.666a2.5002 2.5002 0 0 0 2.998-2.1445zm46.625 0.11524c0.6128 1.7647 1.2474 3.5071 1.9571 5.1738a2.5002 2.5002 0 0 0-3.4063 0.21485c0.3807-1.8918 0.775-3.7482 1.4492-5.3887zm-157.85 1.2441c5.1949 1.3798 10.427 2.8897 15.678 4.4668-5.2509-1.5779-10.482-3.0863-15.678-4.4668zm-224 1.6406c-1.3561 1.2964-2.6617 2.7002-3.9922 4.0508 1.3307-1.3503 2.636-2.7548 3.9922-4.0508zm241.19 3.2578c5.6378 1.7111 11.307 3.5371 17 5.4512-5.6926-1.9147-11.363-3.7395-17-5.4512zm-249.32 5.0098c-2.0584 2.2334-4.0436 4.6108-6.0215 7.0059 1.9778-2.3948 3.9635-4.7733 6.0215-7.0059zm266.7 0.56445c9.7813 3.2953 19.674 7.015 29.586 10.816-9.9122-3.8028-19.804-7.5197-29.586-10.816zm104.37 2.8711c0.6959 0.57791 1.3758 1.2185 2.082 1.7578-0.7004-0.55966-1.3921-1.1582-2.082-1.7578zm2.5762 2.125c3.5106 2.6287 7.1423 4.823 10.894 6.6953a2.5002 2.5002 0 0 0 3.5586-1.7227c0.3745 1.3884 0.7184 2.7566 1.3438 4.3106v2e-3c-5.5284-2.3389-10.786-5.3595-15.797-9.2852zm64.791 2.709c3.0897 3.0473 5.0448 5.0941 7.3047 7.4629-2.0434-2.1559-4.3845-4.5756-7.3047-7.4629zm-136.34 5.2402c11.804 4.6198 23.678 9.5401 35.592 14.664 24.358 10.477 48.869 21.784 73.242 33.135a2.5002 2.5002 0 0 0 0 2e-3c-0.01 0.33241 0.01 0.64029 0 0.9707a2.5002 2.5002 0 0 0-1.3496-1.5762c-23.929-11.14-47.988-22.246-71.896-32.531-11.913-5.125-23.788-10.043-35.592-14.664zm145.71 4.375c4.7803 5.1011 8.0746 8.8164 8.0762 8.8184l-5.1914 0.33789a2.5002 2.5002 0 0 0 1.6621-4.1133c-0.8344-0.97276-2.4875-2.8221-4.5469-5.043zm-7.5253 9.1504a2.5002 2.5002 0 0 0 1.6269 0.57617l-1.0195 0.0664v-2e-3c-0.01-9e-3 -0.017-0.0165-0.025-0.0254-0.1897-0.20833-0.3882-0.40726-0.5781-0.61523zm-10.387 9.7617c1.4738 0.87478 2.9641 1.7749 3.4883 2.0469-0.7332-0.39208-1.3711-0.70807-3.4883-2.0469zm29.168 0.16016c1.0389 0.0373 1.9042 0.15288 2.6328 0.38672v2e-3c0.7269 0.4853 1.2023 1.0259 1.541 1.5117 0.3293 0.4724 0.4016 0.71189 0.7519 1.3027-0.297-0.49836-0.4494-0.80355-0.7519-1.2344-0.3111-0.4431-0.7799-0.88946-1.2012-1.209a2.5002 2.5002 0 0 0-1.0019-0.45508c-1.1836-0.24622-3.0099-0.36222-5.6192-0.23047 1.4065-0.072 2.6138-0.11133 3.6465-0.0742zm-12.699 0.94336c-6.0976 0.77908-11.565 1.7581-11.574 1.7598 0-5e-4 -0.5542-0.3259-0.6153-0.35743a2.5002 2.5002 0 0 0 1.5313 0.2168c0.8073-0.1426 5.0333-0.90062 10.658-1.6191zm17.654 2.3066a2.5002 2.5002 0 0 0 0.066 0.0977c0.3188 0.53557 5.5428 9.3791 10.951 18.359-2.6098-4.3267-5.2224-8.6843-7.1641-11.951-2.2615-3.8049-3.6677-6.1947-3.8535-6.5059zm2.3242 27.941c-1.1753 0.14081-2.1802 1.0242-2.6484 1.8359a2.5002 2.5002 0 0 0-0.039 0.0723c-1.0817 2.0245-1.0966 4.273-0.793 6.7559s1.0724 5.1138 2.6524 7.2871c1.6441 2.2624 4.3032 4.2024 6.666 5.8535 2.0447 1.4288 3.3674 2.2104 3.8184 2.4824 0.043 0.098 0.097 0.1875 0.1699 0.5664a2.5002 2.5002 0 0 0 1.9511 1.9785c0.9116 0.1876 1.6257 0.2978 2.375 0.2852 0.7494-0.013 1.7841-0.1616 2.6055-1.0528 0.8214-0.8911 0.8476-1.9595 0.8067-2.5136-0.041-0.5541-0.1301-0.8913-0.1778-1.17a2.5002 2.5002 0 0 0-0.5176-1.1464c-2.3154-2.8731-5.272-8.0267-7.9589-12.412-1.3435-2.1927-2.6222-4.1987-3.8653-5.7617-0.6215-0.78149-1.2237-1.457-1.9453-2.0273-0.7215-0.57038-1.677-1.2037-3.0996-1.0332zm15.629 1.8105c1.0228 1.6454 2.1871 3.5846 3.0996 5.0195 0.6433 1.0116 1.1186 1.711 1.6836 2.5781-0.5665-0.86662-1.042-1.5642-1.6855-2.5762-0.9133-1.4362-2.0757-3.3751-3.0977-5.0215zm-14.148 4.8867c0.92 1.2179 1.9876 2.8131 3.166 4.7363 1.124 1.8346 2.3165 3.8453 3.5156 5.8086-2.0185-1.4682-4.2411-3.261-4.9453-4.2305a2.5002 2.5002 0 0 0 0-2e-3c-0.8474-1.1657-1.5091-3.1252-1.7324-4.9512-0.061-0.49484-0.01-0.90418 0-1.3613zm-55.734 4.1836c0.064 0.29338 0.1994 0.57148 0.2695 0.86328-0.068-0.29227-0.208-0.56938-0.2695-0.86328zm81.59 7.3906c1.1395 1.385 2.3074 2.9455 3.2696 4.5 0.5982 0.9665 0.8595 1.8209 1.2285 2.709-0.3679-0.8822-0.6292-1.7357-1.2305-2.7071-0.9633-1.5563-2.1284-3.1163-3.2676-4.5019zm-79.172 0.0996c0.067 0.14519 0.1572 0.28683 0.2265 0.43164-0.069-0.1449-0.1604-0.28634-0.2265-0.43164zm1.8964 3.5605c0.742 1.2045 1.5685 2.3989 2.5118 3.5782-0.9439-1.1797-1.7735-2.3726-2.5118-3.5782zm2.5313 3.5977c2.0156 2.5119 5.2973 4.8496 9.3535 7.3183 4.0646 2.4739 8.8816 4.975 13.756 7.2774 9.719 4.5909 19.629 8.6279 24.465 11.402 0.4233 0.243 1.3573 0.863 1.8594 1.1602-0.4969-0.2932-1.44-0.9155-1.8594-1.1563-4.8408-2.7771-14.744-6.8097-24.463-11.4-9.735-4.5983-19.106-9.6127-23.111-14.602zm80.039 3.3672c-0.01 0.049-0.036 0.081-0.047 0.1289a2.5002 2.5002 0 0 0 0.047-0.1289zm-0.3536 0.707c-0.1234 0.2453-0.1819 0.5485-0.3789 0.7148a2.5002 2.5002 0 0 0-0.01 0.01v-0.01c-0.6863 0.1373-1.0632 0.2932-1.4824 0.4492 0.1929-0.067 0.2816-0.1469 0.5097-0.2109a2.5002 2.5002 0 0 0 1.3574-0.9551zm-2.8203 1.5625c-0.054 0.033-0.1102 0.063-0.1601 0.098 0.1222 0.1942 1.2617 2.0078 1.2617 2.0078s-0.2795-0.6013-0.5566-1.1992c0.2463 0.4863 0.3915 0.7723 0.5039 0.9941 0.012 0.042 0.054 0.1806 0.059 0.1953l-0.01 0.01s-0.151 0.026-0.1738 0.029c0.024 0 0.1095 0.021 0.123 0.023 0 0-0.018 0.02-0.019 0.021a2.5002 2.5002 0 0 0-0.2813-0.016c-0.1969 0.033-0.4035 0.068-0.8047 0.1347a2.5002 2.5002 0 0 0-1.1269 0.7813c-0.053-0.1365-0.086-0.293-0.127-0.4473-0.01-0.052-0.01-0.062-0.017-0.123h-0.016c-0.1008-0.4571-0.1332-0.9468 0.1289-1.4414 0.2015-0.3801 0.5446-0.7032 1.0352-0.998 3e-4 5e-4 0.01 0.01 0.01 0.01 0.011-0.01 0.025-0.013 0.039-0.019a2.5002 2.5002 0 0 0-0.037 0.025c5e-4 8e-4 0.01 0.01 0.01 0.01 0.057-0.034 0.082-0.05 0.1386-0.084 0.01 0 0.019-0.01 0.025-0.01zm-0.3144 0.1934c-0.01 0.01-0.018 0.01-0.025 0.016-0.016 0.013-0.026 0.023-0.041 0.035 0.015-0.012 0.037-0.029 0.066-0.051zm-0.094 0.068a2.5002 2.5002 0 0 0-0.3593 0.375c0.1399-0.1451 0.2261-0.2355 0.3398-0.3535 6e-4 -7e-4 0 0 0 0 0.01-0.01 0.012-0.014 0.017-0.02zm1.5489 1.9473c0 2e-4 0.01 0.013 0.01 0.014 2e-4 0 0.01 0.047 0.01 0.051h0.01c0.027 0.081 0.2185 0.6232 0.4278 1.2325l-0.2344 0.035c0.053 0.3339 0.076 0.4742 0.1074 0.6738l-0.2539 0.3692c0-0.082-0.015-0.513-0.029-1.0156l-0.045 0.01v-1.289h0.01c-1e-4 0 0-0.067 0-0.068zm-1.4825 0.709a2.5002 2.5002 0 0 0-0.4961 0.7148c-0.2098-0.1804-0.122 0.024-0.2636-0.3476 0-0.01-8e-4 0 0-0.01-0.013-0.025-0.01-0.019-0.012-0.027zm8.1953 8.6679c1.7332 1.4916 3.0913 2.7639 5.1895 4.4297 8.1151 6.4429 18.523 13.609 28.072 17.178 3.9746 1.4856 7.205 2.4944 10.26 3.414-3.0539-0.9181-6.2838-1.9248-10.258-3.4101-9.5476-3.5682-19.957-10.733-28.072-17.176-2.099-1.6664-3.4578-2.9421-5.1915-4.4356zm53.871 27.73c-0.05 0 0.1157 0.016 0.125 0.018h0.024c0 7e-4 0.01 0 0.014 0-0.065-0.01-0.135-0.023-0.1621-0.025zm0.2247 0.035c4.3378 0.8222 6.4266 0.7875 6.4453 0.7871l-0.01 0.01s-4.0303 2.7969-5.4101 3.7129a2.5002 2.5002 0 0 0-0.9453-4.4961c-0.017 0-0.05-0.01-0.078-0.012zm-17.943 18.059c-2.1077 1.6107-4.4098 3.2473-6.2246 4.7656-0.082 0.069-0.1296 0.1247-0.211 0.1933 0.083-0.071 0.1236-0.1257 0.209-0.1972 1.815-1.5184 4.1186-3.1531 6.2266-4.7617zm-15.184 11.203a2.5002 2.5002 0 0 0 2.2891 0.207c-0.31 0.395-0.8058 0.8227-1.043 1.2656-0.3874-0.5043-0.8469-0.9707-1.2441-1.4707zm-517.98 101.79c37.188 38.242 90.035 63.144 148.55 64.686a2.5002 2.5002 0 0 0 0.1875 0.014h0.086c111.22 5.9227 188.1 6.7743 281.26 55.074l0.031 0.018c0.011 0.01 0.021 0.014 0.031 0.019 2.7785 1.538 5.5415 3.1734 8.2871 4.9043 2.7399 1.7272 5.4619 3.5506 8.166 5.4629-2.7045-1.9125-5.4256-3.7355-8.166-5.4629-2.7454-1.7306-5.5087-3.3665-8.2871-4.9043a2.5002 2.5002 0 0 0-0.061-0.031c-93.165-48.302-170.05-49.157-281.28-55.08a2.5002 2.5002 0 0 0-0.068 0c-58.595-1.493-111.52-26.414-148.75-64.701zm241.8 29.779c39.289 1.6669 76.769 5.4598 108.05 10.049 71.972 10.56 127.33 28.835 169.89 50.94-42.565-22.102-97.92-40.372-169.89-50.932-31.277-4.5889-68.76-8.3874-108.05-10.057zm152.53 43.457c108.12 18.922 172.64 64.895 211.03 110.32-35.498-41.798-93.563-83.833-186.97-105.02a2.5002 2.5002 0 0 0-2.5801 3.8946c-6.9468-3.2932-14.045-6.4296-21.48-9.2032zm55.356 59.363c4.3583 3.2113 8.7038 6.4922 12.955 10.158 5.254 4.5307 10.42 9.3961 15.488 14.57-5.0682-5.1738-10.234-10.04-15.488-14.57-4.2511-3.6656-8.5969-6.9472-12.955-10.158zm34.012 30.863c3.1305 3.3859 6.2935 6.6823 9.3398 10.295-3.0463-3.6127-6.2092-6.909-9.3398-10.295zm14.18 16.447c3.1615 3.9328 6.3526 7.8041 9.4101 11.965-3.0576-4.1611-6.2485-8.0317-9.4101-11.965zm107.96 4.2324c2.3276 2.7705 4.6009 5.5376 6.7382 8.2969-2.1439-2.7599-4.4004-5.528-6.7382-8.2969zm23.31 3.539c2.1782 3.515 4.2241 7.0094 6.1152 10.469-1.8881-3.4479-3.9284-6.9404-6.1152-10.469zm-121.09 5.3086c4.3526 5.9681 8.6142 12.118 12.736 18.508 4.3693 6.7729 8.6027 13.769 12.689 20.961-4.0867-7.1919-8.3202-14.188-12.689-20.961-4.1214-6.3887-8.3845-12.54-12.736-18.508zm109.55 6.211c0.5401 0.7448 1.1392 1.4976 1.6661 2.2402 4.3772 6.1703 8.2403 12.218 11.734 18.119-3.5065-5.9181-7.3779-11.974-11.738-18.121-0.5269-0.7428-1.1217-1.4936-1.6621-2.2383zm20.459 4.3808c0.9613 1.8823 1.9556 3.7715 2.8379 5.6289-0.8802-1.8521-1.8751-3.7461-2.8379-5.6289zm-90.572 8.8262c0.4382 0.8141 0.8494 1.6384 1.2812 2.4551-0.4301-0.8172-0.8447-1.6405-1.2812-2.4551zm96.031 2.6426c0.7534 1.7162 1.5193 3.4309 2.209 5.1191-0.6849-1.6826-1.4575-3.4047-2.209-5.1191zm-12.01 5.3398c1.2699 2.163 2.218 4.1645 3.3789 6.2793-1.1625-2.1134-2.111-4.1214-3.3789-6.2793zm-77.719 4.2637c0.2446 0.4971 0.4667 1.0002 0.709 1.498-0.2415-0.4977-0.4653-1.001-0.709-1.498zm93.834 0.4004c0.6719 1.7683 1.2965 3.4925 1.9023 5.2226-0.5955-1.7178-1.2384-3.4638-1.9023-5.2226zm-6.2188 13.92c0.5683 1.1836 0.9823 2.2413 1.5176 3.4024-0.5382-1.1608-0.9469-2.2195-1.5176-3.4024zm12.541 5.6875c0.7236 2.6705 1.3196 5.1475 1.8985 7.6719-0.5509-2.474-1.2064-5.0569-1.8985-7.6719zm-88.396 6.2656c2.5081 6.1841 4.8101 12.399 7.0097 18.623-2.1967-6.2209-4.5011-12.437-7.0097-18.623zm90.422 2.002c5.9862 26.481 4.6546 44.602 4.6543 44.606a2.5002 2.5002 0 0 0 0-0.018s-1.3324-10.277-6.3438-26.197a2.5002 2.5002 0 0 0 4.6426-1.5683c-0.6663-5.0916-1.6181-10.745-2.9512-16.822zm-110.68 1.664c3.3771 6.7489 6.5846 13.654 9.6817 20.648-3.1109-6.988-6.3081-13.906-9.6817-20.648zm28.832 19.438c1.125 3.293 2.1118 6.5736 3.1543 9.8671-1.0396-3.2899-2.0315-6.5767-3.1543-9.8671zm-14.637 11.871c1.2627 3.0383 2.5352 6.0644 3.7441 9.1387-1.2181-3.0676-2.4743-6.1071-3.7441-9.1387zm22.936 15.385c0.8613 3.1337 1.7189 6.2451 2.5098 9.3652-0.786-3.1123-1.6532-6.2388-2.5098-9.3652zm-12.963 10.299c0.095 0.269 0.1902 0.5375 0.2852 0.8067-0.096-0.2685-0.1888-0.5384-0.2852-0.8067zm19.27 15.418c1.1247 5.1689 2.1522 10.263 3.0938 15.352-0.9338-5.0789-1.9769-10.192-3.0938-15.352zm5.6621 30.102c0.797 5.1539 1.4206 10.147 2.0391 15.166-0.611-5.0018-1.2513-10.031-2.0391-15.166zm2.8008 21.529c0.6088 5.5289 1.1244 10.92 1.5274 16.234-0.3981-5.2927-0.9269-10.73-1.5274-16.234zm1.6621 18.264c1.5068 21.102 1.6042 40.52 0.3418 56.713v0.012-0.018c-0.6776-12.645-2.1111-25.436-3.9043-38.25a2.5002 2.5002 0 0 0 4.4746-1.6075c-0.1839-5.4507-0.5028-11.099-0.9102-16.85z" color="#000000" color-rendering="auto" dominant-baseline="auto" fill="#2777ff" fill-opacity=".94118" filter="url(#b)" image-rendering="auto" solid-color="#000000" style="font-feature-settings:normal;font-variant-alternates:normal;font-variant-caps:normal;font-variant-ligatures:normal;font-variant-numeric:normal;font-variant-position:normal;isolation:auto;mix-blend-mode:normal;shape-padding:0;text-decoration-color:#000000;text-decoration-line:none;text-decoration-style:solid;text-indent:0;text-orientation:mixed;text-transform:none;white-space:normal"/><path d="m335.12 155.36c-27.28 0.0317-45.289 2.2307-45.4 2.2443h-0.0134v2e-3c-2.1e-4 3e-5 -0.0491 4e-3 -0.0491 4e-3l-17.752 2.174 17.864-0.85731s99.566-4.7416 179.35 27.447c2.7806 12.162 10.622 31.611 15.043 41.434-6.1682 4.2481-12.762 8.4674-18.129 15.19-5.4917 6.8786-9.6531 16.355-10.769 30.998-2.2449 29.485 23.078 55.365 54.437 56.165 29.442 1.5679 49.631 1.7869 74.152 14.5 11.579 6.409 22.231 19.468 30.191 35.377 7.964 15.916 13.244 34.67 14.193 52.395l0.53742 10.045 0.7829-10.027c1.0406-13.348-0.93633-34.254-9-54.062-7.3401-18.031-19.842-35.075-39.643-44.58 28.109 6.3743 43.979 19.884 52.754 32.254 9.4294 13.292 10.826 25.115 10.826 25.115l0.61907 7.9902 0.69712-8.0057s1.2161-14.09-8.5664-29.711-30.559-32.779-74.222-39.186c-11.065-1.6234-25.043-2.8704-39.193-2.9063h-0.012c-34.629 0.45787-52.343-19.403-55.086-39.832-1.3713-10.215 1.0244-20.573 6.9784-28.617 5.9539-8.0443 15.453-13.799 28.428-14.813h4e-3c21.41-1.7667 47.236 9.7954 72.555 21.582-0.0644 3.0174 0.12713 5.9042 2.2304 8.5328 1.2222 1.5276 3.7618 2.8287 6.3536 4.053 2.5918 1.2242 5.251 2.318 6.426 2.9921 2.4898 1.4291 10.618 6.618 15.51 12.984l0.62476 0.81444 0.48268-0.90435c0.15338-0.28691 0.9021-1.0778 1.8826-1.8981 0.98046-0.82029 2.2047-1.7419 3.3967-2.5998 2.3839-1.716 4.6364-3.1817 4.6364-3.1817l1.9456-1.2656-2.3203 0.0491s-0.44418 0.0167-1.5761-0.19947c-1.1319-0.21608-2.9007-0.6663-5.393-1.5978-2.3988-0.89646-5.1308-2.7625-7.2476-4.4431-1.0584-0.84029-1.9677-1.6333-2.6154-2.2324-0.32382-0.29958-0.58198-0.55022-0.75809-0.73019-0.0766-0.0783-0.13062-0.13621-0.17155-0.1819-9e-3 0.0196 0.0146-0.0619 0.4568-0.15037l0.16796-0.0331 0.1292-0.10956c0.45309-0.38151 0.51239-1.0074 0.40616-1.4826-0.10621-0.47524-0.33597-0.92405-0.61132-1.3689-0.55073-0.88972-1.2962-1.7378-1.7813-2.2226-0.0208-0.0208-0.23386-0.28656-0.47643-0.64079-0.2426-0.35423-0.5464-0.82262-0.88885-1.3612-0.68492-1.077-1.5221-2.4375-2.3342-3.7791-1.6243-2.6832-3.1236-5.2368-3.2261-5.4085h-2e-3c-0.0751-0.12525-0.26635-0.60026-0.81237-0.9648l-0.0765-0.0506-0.0879-0.0295c-0.53924-0.17342-1.149-0.15215-1.9063-0.11317-0.75737 0.039-1.6201 0.12968-2.4376 0.2341-1.5052 0.19227-2.645 0.39709-2.8515 0.43356-0.4754-0.24132-8.6048-4.4618-11.496-13.343l-0.32608-1.0005c-1.6375 1.8731-1.6069 5.7474-1.3048 7.1898-3.9644-1.9782-7.3712-5.1889-10.178-12.574l-0.60566-1.5901-0.62682 1.5803c-0.98356 2.4735-0.99306 4.5406-0.74001 5.9862 0.0965 0.55156 0.16795 0.51731 0.30231 0.88677-2.6283-0.99273-9.6343-4.2946-11.004-12.187l-0.3824-2.2133-0.87696 2.0686c-1.0113 2.3841-1.0246 4.3493-0.76171 5.7149 0.0679 0.35277 0.12094 0.28898 0.21447 0.5643-3.4937-1.6513-19.853-8.7392-46.31-8.8708-4.7766-0.43815-8.5912-2.8504-11.662-6.381-3.0712-3.5306-5.3652-8.1791-6.9898-12.973-1.6246-4.7937-2.5835-9.7301-3.0179-13.816-0.43437-4.0861-0.30131-7.3974 0.0822-8.6232l0.16383-0.52555-0.48834-0.2558s-28.793-15.162-85.283-21.844c-21.182-2.5058-40.937-3.2732-57.355-3.2541zm236.82 81.117c4.5347 3.8312 8.8227 7.9168 12.818 12.307l8e-3 8e-3 0.22064 0.22841 0.30491-0.0217 5.256-0.34158-0.82061-0.99632s-22.849-27.71-66.506-41.209c-2e-3 -6.3e-4 -4e-3 -1e-3 -6e-3 -2e-3 -0.0193-6e-3 -0.0355-0.0132-0.0548-0.0191l-14.582-4.502 14.139 5.7459c18.028 7.3279 34.293 16.425 48.201 27.957zm-236.81-79.795h5e-4c16.368-0.0184 36.062 0.74761 57.18 3.2458 55.266 6.5368 83.389 20.978 84.427 21.518-0.41801 1.8051-0.46805 4.7227-0.0605 8.5566 0.44411 4.1776 1.416 9.1948 3.0784 14.1 1.6623 4.9052 4.0125 9.7004 7.2461 13.418s7.3834 6.3572 12.539 6.8301l0.0294 2e-3h0.0274c29.534 0.13457 47.225 9.3772 47.225 9.3772l2.42 1.2635-1.572-2.2304s-0.3955-0.54203-0.61341-1.6738c-0.13639-0.70836-0.0915-1.6981 0.10903-2.8127 2.9489 8.6553 12.49 11.404 12.49 11.404l1.6449 0.45888-0.90638-1.4474s-0.3955-0.61846-0.61135-1.8516c-0.15478-0.88425-0.0713-2.1448 0.24236-3.5641 3.0864 7.0664 6.9502 10.416 11.35 12.277l1.4645 0.61909-0.59378-1.4764c-0.88659-2.203-0.67847-3.5455-0.37309-4.7522 3.6892 8.28 11.465 12.158 11.465 12.158l0.19328 0.0956 0.21291-0.0372s1.4379-0.25714 3.0334-0.46095c0.79775-0.1019 1.634-0.19022 2.3358-0.22634 0.64915-0.0334 1.1487 0.0116 1.3265 0.0486 0.1764 0.1338 0.17616 0.17041 0.35502 0.46871 0.0392 0.0656 1.6035 2.7226 3.2329 5.4141 0.81489 1.3462 1.6532 2.7124 2.3477 3.8044 0.34721 0.54601 0.65876 1.0237 0.91569 1.3989 0.25694 0.37519 0.42791 0.6226 0.63098 0.82579v2e-3c0.41098 0.41065 1.1282 1.2356 1.5916 1.9844 0.23175 0.37439 0.39526 0.73454 0.44545 0.95911 0.0163 0.0731 0.0173 0.0879 0.0217 0.11576-0.52396 0.14706-0.90818 0.38338-1.1136 0.77102-0.24405 0.46051-0.10109 0.91681-2e-3 1.1482h2e-3c0.10734 0.24926 0.13727 0.22204 0.20307 0.29715 0.0658 0.0751 0.14737 0.16225 0.24651 0.26356 0.19826 0.20259 0.46821 0.46394 0.8046 0.77515 0.67278 0.6224 1.6041 1.4359 2.6913 2.2991 2.1745 1.7264 4.9594 3.6567 7.6073 4.6462 2.5539 0.95456 4.3933 1.4244 5.6074 1.6562 0.018 3e-3 0.0101 7.1e-4 0.0274 4e-3 -0.83079 0.55171-1.5707 1.0224-3.238 2.2226-1.2073 0.86903-2.4504 1.801-3.4726 2.6562-0.73888 0.61815-1.1578 1.128-1.5901 1.6547-5.1266-6.3699-12.874-11.332-15.402-12.783-1.372-0.7871-3.9707-1.8372-6.5195-3.0412-2.5488-1.2039-5.0323-2.6158-5.8849-3.6814-1.9383-2.4225-2.0603-4.9981-1.9668-8.1272l0.0119-0.43563-0.39481-0.18345c-25.442-11.848-51.51-23.682-73.578-21.861-13.313 1.0407-23.209 7.0001-29.385 15.344-6.1758 8.3441-8.6405 19.047-7.2264 29.58 2.8278 21.063 21.267 41.439 56.404 40.978 14.075 0.0357 28.003 1.2801 39.006 2.8944 43.388 6.3663 63.726 23.299 73.293 38.576 5.353 8.5477 7.2135 16.273 7.922 21.687-1.5153-4.7964-4.2378-11.411-9.2971-18.543-9.6088-13.545-27.406-28.496-59.94-34.19l-7.0704-1.2382 6.7246 2.5094c22.959 8.5638 36.9 26.932 44.869 46.508 6.0947 14.972 8.636 30.579 9.0547 42.988-2.0861-14.658-6.6687-29.455-13.16-42.428-8.0453-16.078-18.803-29.346-30.752-35.953l-0.016-8e-3c-24.785-12.85-45.281-13.079-74.709-14.646h-8e-3l-0.01-2e-3c-30.651-0.78097-55.335-26.065-53.152-54.74 1.1007-14.438 5.1597-23.602 10.486-30.274 5.3265-6.6716 11.959-10.861 18.281-15.232l0.45527-0.31471-0.22841-0.50385c-4.3927-9.7072-12.575-30.001-15.268-42.045l-0.076-0.33796-0.32245-0.13074c-58.092-23.518-126.04-27.415-159.39-27.809 7.131-0.38747 14.497-0.75396 24.625-0.76532zm74.029 26.962c-9.7937-0.0202-20.485 0.28121-31.811 1.0862-51.74 3.6778-103.85 21.734-104.01 21.789-2.4e-4 8e-5 -0.0548 0.0176-0.0548 0.0176l-14.319 4.9651 14.696-3.6995s106.74-26.826 196.1-11.092l0.11526-0.65215 0.62682-0.19534-2.449-7.9003-0.39687-0.0703s-21.675-3.8492-54.355-4.2209c-1.3617-0.0155-2.7422-0.025-4.1413-0.0279zm-0.0114 1.3229c1.3943 3e-3 2.7705 0.012 4.1274 0.0274 31.94 0.36147 52.945 4.0004 53.756 4.1424l1.8965 6.1175c-69.389-11.944-147.15 1.0953-179.34 7.7127 19.089-5.6098 52.955-14.436 87.854-16.916 11.291-0.80252 21.947-1.1032 31.707-1.0836zm59.115 14.705c-0.69863-3e-3 -1.51 1e-3 -2.4324 0.0176-11.069 0.19297-38.085 2.1061-77.133 14.324-53.071 16.606-83.223 40.178-83.223 40.178l-6.7324 5.2653 7.4626-4.1677s78.851-44.003 167.76-46.502l0.88831-0.0232-2.9668-8.9824-0.44492-0.0295s-1.0791-0.0716-3.175-0.0801zm-0.28422 1.3183c1.8497 4e-3 2.7306 0.0635 2.9357 0.076l2.1286 6.4477c-73.937 2.308-137.81 31.653-158.23 41.951 12.065-7.8991 37.112-22.559 74.279-34.189 38.919-12.178 65.73-14.079 76.703-14.268 0.8427-0.0145 1.5673-0.019 2.1838-0.0176zm75.441 14.893c27.701 13.107 42.447 29.404 44.355 31.629l-2.2696 0.14831c-11.853-12.974-27.53-24-42.086-31.777zm48.637 43.82c-0.0796 0.01-0.14899 0.0605-0.20619 0.15968-0.31306 0.5859-0.19886 2.1314 0.44339 3.0148 0.64166 0.8834 2.7347 2.1286 2.7347 2.1286s0.12595 0.11043 0.19897 0.49143c0.86712 0.17844 0.76205-0.0475 0.69866-0.41807-1.3556-1.6821-3.1003-5.4686-3.8695-5.3764zm8.0171 8.168c3e-3 4e-3 -0.0293-0.0639 8e-3 0.0217-7e-3 -0.0165-6e-3 -0.0115-9e-3 -0.0212 8e-5 0 2e-3 -6.4e-4 2e-3 -5.3e-4z" color="#000000" color-rendering="auto" dominant-baseline="auto" fill="#2777ff" fill-opacity=".94118" image-rendering="auto" solid-color="#000000" style="font-feature-settings:normal;font-variant-alternates:normal;font-variant-caps:normal;font-variant-ligatures:normal;font-variant-numeric:normal;font-variant-position:normal;isolation:auto;mix-blend-mode:normal;shape-padding:0;text-decoration-color:#000000;text-decoration-line:none;text-decoration-style:solid;text-indent:0;text-orientation:mixed;text-transform:none;white-space:normal"/></g><circle cx="593.1" cy="261.72" r="10.383" fill="url(#d)" opacity=".5"/><path transform="matrix(.18356 .19983 -.36575 .1391 580.09 106.76)" d="m609.95 289.88-15.602-22.343-31.767 45.566 29.676-46.921-29.113-3.3253 27.151-2.3403-11.549-24.684 17.565 23.328 54.39-80.72-52.299 82.076 27.151 2.3403-27.151 2.3403z" fill="#fff" filter="url(#e)" opacity=".2"/><path transform="matrix(.039371 .16182 -.28045 .046958 643.39 153.57)" d="m609.95 289.88-15.602-22.343-15.602 22.343 11.549-24.684-27.151-2.3403 27.151-2.3403-11.549-24.684 15.602 22.343 15.602-22.343-11.549 24.684 27.151 2.3403-27.151 2.3403z" fill="#fff" filter="url(#f)" opacity=".3"/></svg>
