<svg width="3840" height="2160" version="1.1" viewBox="0 0 1016 571.5" xmlns="http://www.w3.org/2000/svg"><defs><linearGradient id="a" x1="662.87" x2="662.87" y1="6.4967" y2="6.4857" gradientTransform="matrix(.83977 0 0 .83977 81.4 276.3)" gradientUnits="userSpaceOnUse"><stop stop-color="#153873" offset="0"/><stop stop-color="#367bf0" offset="1"/></linearGradient><filter id="b" x="-.009375" y="-.016667" width="1.0188" height="1.0333" style="color-interpolation-filters:sRGB"><feGaussianBlur stdDeviation="3.9687501"/></filter></defs><path d="m1016 5e-7h-1016v571.5h1016z" fill="#111217" style="paint-order:fill markers stroke"/><path d="m1016 1e-6h-1016v571.5h1016z" opacity=".15" style="paint-order:fill markers stroke"/><path d="m258.59 0c-123.7 74.813-212.01 216.8-236.67 364.75 9.1139-138.37 73.974-278.51 173.8-364.75h-195.72v587.37h61.6c-23.683-66.406-31.684-139.48-20.208-214.04 9.0231-57.712 29.47-113.07 60.134-162.78 0.8099 4.197 2.791 9.2889 5.1315 15.307 1.5504 3.9879 3.3761 8.3254 5.5542 12.87 1.0237 2.2778 1.9518 4.6748 3.2778 7.027 4.6718 9.5794 10.192 19.959 16.138 30.379 10.413 18.24 22.079 36.627 32.805 51.19 1.495 2.0802 3.0136 4.0823 4.5625 5.9495 1.4986 1.914 2.846 3.7624 4.3351 5.4746 1.36 1.7343 2.8695 3.3454 4.1367 4.8421 0.87145 0.8273 1.4474 1.6028 2.1751 2.4174 0.49804 0.57483 1.0076 1.1847 1.6423 1.7606 1.2299 1.2919 2.4588 2.4758 3.6416 3.4014 17.925 14.791 8.5152-2.6e-4 8.5152-37.555 0-33.995 4.0094-66.536 11.636-97.011-6.786 6.2147-13.104 12.922-18.904 20.066 15.74-27.695 27.826-53.82 40.007-80.592-13.957 10.602-26.356 23.112-36.832 37.163 22.849-43.426 56.234-87.224 93.62-122.39-25.459 9.3566-51.574 34.388-70.833 53.688 28.908-52.909 101.65-117.11 146.61-124.53 0-1e-3 0.0114-0.0032 0.0114-0.0052zm433.07 5.17e-4c37.838 18.244 78.718 79.34 108.88 118.15 1.4096 1.8253 2.8032 3.6445 4.1956 5.4627-1.3e-4 0 65.608 17.552 75.244 26.215 2.5329 4.0325 2.0384 6.2201 2.343 8.771 0.30094 2.5512 12.465 112.23 16.676 123.29 4.2188 11.054 12.141 39.7 1.6294 42.707-10.953-2.4923-12.131 2.2866-12.187 5.642-0.0511 3.351 29.204 74.854 65.018 110.2 35.809 35.343 54.477 43.224 54.477 43.224s-99.679 15.661-116.66 28.808c-17.765-74.556-67.497-149.92-83.621-172.1-16.128-22.18-73.258-76.728-81.04-106.75-7.784-30.035 3.8913-59.285 16.759-85.85l-1.6542-4.254c-155.28-178.86-455.8-94.833-455.8 147.81 1.3e-4 189.82 163.14 197.38 252.63 173.4 10.654-2.6868 21.949-5.1973 33.702-7.3246-1.9673-0.95279-3.9176-1.9404-5.8503-2.9616-8.0401-4.6887-15.719-9.9708-22.973-15.802 39.831 16.187 73.001 10.881 111.38 12.504-0.49985-0.3955-0.99771-0.79312-1.4935-1.1937-6.9026-6.2436-13.33-12.994-19.228-20.194 27.46 18.481 52.662 22.791 80.889 31.019-4.8166-10.244-8.6936-20.903-11.584-31.847-2.2759-9.0248-3.8756-18.207-4.7852-27.47 14.541 34.444 39.067 63.744 70.415 84.119v0.0139c32.075 21.121 60.327 53.578 80.873 101.79h166.12v-587.37h-191.79c0.57676 0.67882 1.1481 1.3617 1.6976 2.0583 2.3187 2.8575 4.5132 21.695 6.7412 24.602 4.3702 5.8757 8.4129 11.795 12.189 17.872 17.028 27.344 28 56.72 32.768 86.374l-67.891-22.162c-2.3915-6.5004-4.9555-12.746-7.7086-18.769-6.8724-15.064-14.871-28.644-23.832-40.855-1.6311-2.2193-3.3345-4.3414-4.9956-6.4942-0.47696-0.0888-0.49744-0.21645-0.63614-0.57361-1.8749-2.3166-3.7244-4.5757-5.6834-6.7913-1.9113-2.2338-3.8114-4.4034-5.8663-6.5128-2.0123-2.1399-4.0794-4.176-6.1066-6.2136-2.0678-2.0359-4.1387-19.879-6.274-21.806-0.27205-0.24469-0.54465-0.48518-0.81648-0.72916zm164.6 228.83c-0.56239-0.0161-1.1652 0.19836-1.8144 0.66818v-1e-3c-4.9061 3.7991-9.8353 17.404-7.7344 27.386 2.0962 9.9801 15.182 28.587 15.182 28.587s0.65059 1.4227-0.18243 4.9485c6.7098 4.832 6.6764 2.5029 7.5515-0.89813-5.2619-20.016-5.5598-60.469-12.998-60.69zm-741.25 69.381v2e-3c-5.4298 18.244-9.6874 36.796-12.683 55.621-12.612 81.949-1.743 162.07 27.65 233.54h19.571c-32.057-75.608-48.107-172.82-23.837-250.3l0.35502-0.14264-0.15141 0.0873c2.2238 2.8256 4.4529 5.6669 6.7629 8.432 0.47094 0.50284 0.83329 1.1012 1.4697 1.6779 0.97955 1.1423 1.9622 2.2556 2.9766 3.4525 1.9096 2.1937 3.8026 4.379 5.748 6.5588 2.9388 3.2887 5.9707 6.4996 9.0175 9.6775 2.243 2.3106 4.5946 4.6169 6.9241 6.8668 0.85882 0.83222 1.6087 1.6954 2.4557 2.4634-9.369 66.904 1.1195 132.16 27.147 189.6 2.2595 4.9991 4.6956 9.8521 7.1417 14.731 1.1493 2.2892 2.1987 4.6316 3.4406 6.8973h24.091c-39.767-61.417-59.684-138.25-45.114-196.08 2.0624 1.7536 4.2253 3.5249 6.3371 5.2312 2.2263 1.8096 4.4473 3.6035 6.6869 5.3392 4.5076 3.5127 9.1162 6.8964 13.803 10.164 1.6598 1.0561 3.2709 2.2668 4.9671 3.1022 0 65.593 23.863 125.18 63.379 172.24h492.93c-71.663-88.234-194.84-42.704-209.62-38.744-184.96 49.56-296.03-53.678-339.73-143.58-41.985-32.153-74.722-64.915-101.71-106.84z" style="filter:url(#b);opacity:.3;paint-order:fill markers stroke;stroke-width:.99998"/><path transform="scale(.26458)" d="m977.35 0c-467.53 282.76-801.28 759.41-894.5 1318.6 34.446-522.97 279.59-992.62 656.87-1318.6h-739.71v2160h232.82c-89.509-250.98-119.75-527.17-76.375-808.99 34.103-218.12 111.38-427.34 227.28-615.22 3.061 15.863 10.549 35.108 19.395 57.854 5.8598 15.072 12.76 31.466 20.992 48.643 3.8691 8.609 7.3769 17.669 12.389 26.559 17.657 36.206 38.522 75.435 60.992 114.82 39.358 68.94 83.45 138.43 123.99 193.47 5.6504 7.862 11.39 15.429 17.244 22.486 5.6642 7.2342 10.756 14.22 16.385 20.691 5.1403 6.5548 10.845 12.644 15.635 18.301 3.2937 3.1268 5.4706 6.0578 8.2207 9.1367 1.8824 2.1726 3.8083 4.4777 6.207 6.6543 4.6483 4.8827 9.293 9.3572 13.764 12.856 67.746 55.902 32.184-1e-3 32.184-141.94 0-128.49 15.154-251.48 43.979-366.65-25.648 23.489-49.528 48.838-71.447 75.84 59.488-104.68 105.17-203.41 151.21-304.6-52.752 40.069-99.613 87.351-139.21 140.46 86.357-164.13 212.54-329.67 353.84-462.59-96.221 35.363-194.92 129.97-267.71 202.91 109.26-199.97 384.19-382.61 554.12-410.67 0-0.0037795 0.043-0.011972 0.043-0.019531h-378.59zm1636.8 0.0019531c143.01 68.952 297.52 239.87 411.52 386.56 5.3278 6.8989 10.595 13.774 15.858 20.646-5e-4 0 247.97 66.336 284.39 99.08 9.5733 15.241 7.7043 23.509 8.8555 33.15 1.1374 9.6422 47.113 424.18 63.027 465.97 15.945 41.78 45.886 150.05 6.1582 161.41-41.399-9.4197-45.848 8.6424-46.06 21.324-0.1931 12.665 110.38 282.91 245.74 416.5 135.34 133.58 205.9 163.37 205.9 163.37s-376.74 59.192-440.94 108.88c-67.144-281.79-255.11-566.63-316.05-650.47-60.957-83.83-276.88-290-306.29-403.48-29.42-113.52 14.707-224.07 63.34-324.47l-6.2519-16.078c-586.9-676-1722.7-358.42-1722.7 558.67 5e-4 717.42 616.59 745.99 954.81 655.36 40.268-10.155 82.956-19.643 127.38-27.684-7.4355-3.6011-14.807-7.3337-22.111-11.193-30.388-17.721-59.411-37.685-86.828-59.725 150.54 61.178 275.91 41.124 420.95 47.26-1.8892-1.4948-3.7709-2.9976-5.6446-4.5117-26.089-23.598-50.379-49.11-72.672-76.322 103.79 69.849 199.04 86.138 305.72 117.24-18.204-38.716-32.858-79.003-43.781-120.37-8.6017-34.11-14.648-68.813-18.086-103.82 54.959 130.18 147.66 240.92 266.13 317.93v0.0527c121.23 79.827 228.01 202.5 305.66 384.72h627.87v-2160h-724.87c2.1799 2.5656 4.3393 5.1465 6.416 7.7793 8.7635 10.8 17.058 21.997 25.478 32.982 16.517 22.207 31.797 44.58 46.07 67.549 64.356 103.35 105.83 214.37 123.85 326.45l-256.6-83.762c-9.0387-24.568-18.73-48.176-29.135-70.938-25.975-56.934-56.205-108.26-90.072-154.41-6.1647-8.388-12.603-16.408-18.881-24.545-1.8027-0.33562-1.8801-0.81807-2.4043-2.168-7.0862-8.7557-14.076-17.294-21.48-25.668-7.2239-8.4426-14.405-16.643-22.172-24.615-7.6054-8.0878-15.418-15.783-23.08-23.484-7.8152-7.6948-15.642-15.133-23.713-22.418-1.0282-0.92481-2.0585-1.8338-3.0859-2.7559h-212.2zm622.13 804.87c-2.1256-0.06085-4.404 0.7497-6.8574 2.5254v-0.0039c-18.543 14.359-37.173 65.781-29.232 103.51 7.9227 37.72 57.379 108.05 57.379 108.05s2.4589 5.3772-0.6895 18.703c25.36 18.263 25.234 9.4597 28.541-3.3945-19.887-75.651-21.014-228.54-49.127-229.38l-0.0137-0.00391zm-2801.6 262.23v0.0078c-20.522 68.953-36.614 139.07-47.938 210.22-47.668 309.73-6.5878 612.56 104.5 882.67h73.969c-121.16-285.76-181.82-653.16-90.094-946.01l1.3418-0.5391-0.57226 0.3301c8.4048 10.679 16.83 21.418 25.561 31.869 1.7799 1.9005 3.1494 4.1621 5.5547 6.3418 3.7022 4.3175 7.4162 8.5249 11.25 13.049 7.2174 8.2912 14.372 16.551 21.725 24.789 11.107 12.43 22.566 24.565 34.082 36.576 8.4774 8.7329 17.366 17.45 26.17 25.953 3.2459 3.1454 6.08 6.4078 9.2812 9.3106-35.41 252.87 4.2313 499.49 102.6 716.58 8.5398 18.894 17.747 37.236 26.992 55.678 4.3438 8.6523 8.3102 17.505 13.004 26.068h91.053c-150.3-232.13-225.58-522.5-170.51-741.08 7.795 6.6279 15.97 13.323 23.951 19.772 8.4142 6.8395 16.809 13.619 25.273 20.18 17.037 13.276 34.455 26.065 52.168 38.414 6.2731 3.9916 12.362 8.5675 18.773 11.725 0 247.91 90.189 473.13 239.54 650.99h1863c-270.85-333.48-736.41-161.4-792.27-146.43-699.07 187.31-1118.8-202.88-1284-542.67-158.68-121.52-282.42-245.35-384.42-403.79h-0.01172z" style="fill:#111217;paint-order:fill markers stroke;stroke-width:3.7795"/><g stroke="#000"><path d="m348.47 268.67v46.454h18.52v-9.5381l3.0772 9.5381h36.06l0.20012-2.5486s0.2385-3.0551 0.42249-5.4034c0.36303-0.0326 0.72236-0.0717 1.1014-0.0776 0.37924 6e-3 0.73807 0.0451 1.1013 0.0776 0.18416 2.3483 0.42358 5.4034 0.42358 5.4034l0.20004 2.5486h19.526v-4.4438l-8.9686-42.01h-24.564l-0.43281 2.2414-7.6866 39.813-8.8512-20.802 10.179-21.245v-8.8875l-3.2477-7e-3 -14.513 8.8875-4.0265 9.5157v-9.5157zm81.332 0v46.454h27.11v-11.083h-9.5065v-35.37zm29.947 0v46.454h18.104v-46.454zm36.641 0v46.454h27.11v-11.083h-9.5065v-35.37zm29.946 0v46.454h18.105v-46.454zm23.153 0v46.454h15.413v-13.329l5.7514 13.329h15.024v-46.454h-15.098v14.901l-6.6098-14.901zm40.573 0v38.028l0.3623 0.63588c3.5956 6.3167 11.216 8.9752 18.54 8.8288 7.3249 0.14654 14.946-2.512 18.541-8.8288l0.36235-0.63588v-38.028h-18.152v36.343c-0.35622 0.40088-0.63941 0.56207-0.75126 0.5634-0.11176-2e-3 -0.39436-0.16221-0.75026-0.56238v-36.344h-14.765zm38.524 0.44437 1.0452 3.1024 5.4392 18.471-6.3648 19.992v4.4438h17.478l2.3312-9.2319 1.3588 5.3813 0.97236 3.8506h17.478v-4.4438l-6.3648-19.992 6.6247-21.841v-8.8875l-15.026 8.7103h-2.5415l-2.5017 7.3845-2.5017-7.3845h-2.5415l-14.885-8.4432zm-220.73 21.463c0.50184 2.7894 0.83515 4.6425 1.0666 5.9291-0.26629 0.0569-0.89627 0.26949-1.0666 0.27864-0.1703-9e-3 -0.8003-0.22172-1.0667-0.27864 0.23152-1.2865 0.56483-3.1396 1.0667-5.9291z" color="#000000" color-rendering="auto" dominant-baseline="auto" fill="#0b0b0b" image-rendering="auto" shape-rendering="auto" solid-color="#000000" stroke-opacity=".38164" stroke-width=".96786" style="font-feature-settings:normal;font-variant-alternates:normal;font-variant-caps:normal;font-variant-ligatures:normal;font-variant-numeric:normal;font-variant-position:normal;isolation:auto;mix-blend-mode:normal;paint-order:stroke fill markers;shape-padding:0;text-decoration-color:#000000;text-decoration-line:none;text-decoration-style:solid;text-indent:0;text-orientation:mixed;text-transform:none;white-space:normal"/><path d="m348.46 259.78v46.454h18.52v-9.5381l3.0772 9.5381h36.06l0.20011-2.5486s0.2385-3.0551 0.42249-5.4034c0.36303-0.0326 0.72237-0.0717 1.1014-0.0776 0.37924 6e-3 0.73808 0.0451 1.1013 0.0776 0.18416 2.3483 0.42357 5.4034 0.42357 5.4034l0.20004 2.5486h19.526l-8.9686-46.454h-24.564l-0.43282 2.2414-7.6866 39.813-8.8512-20.802 9.9025-21.252h-17.485l-4.0265 9.5157v-9.5157zm81.332 0v46.454h27.11v-11.083h-9.5065v-35.37zm29.947 0v46.454h18.104v-46.454zm36.641 0v46.454h27.11v-11.083h-9.5065v-35.37zm29.946 0v46.454h18.105v-46.454zm23.153 0v46.454h15.413v-13.329l5.7514 13.329h15.024v-46.454h-15.098v14.901l-6.6098-14.901zm40.573 0v38.028l0.36228 0.63588c3.5956 6.3167 11.216 8.9752 18.54 8.8288 7.3249 0.14654 14.946-2.512 18.541-8.8288l0.36236-0.63588v-38.028h-18.479v36.343c-0.35623 0.40088-0.6394 0.56207-0.75126 0.56341-0.11177-2e-3 -0.39435-0.16222-0.75024-0.56238v-36.344h-14.438zm38.524 0 1.0452 3.5468 5.4392 18.471-6.3648 24.436h17.478l2.3312-9.2319 2.3312 9.2319h17.478l-6.3648-24.436 6.4843-22.018h-17.427l-2.5017 7.3845-2.5017-7.3845h-13.171zm-221.26 21.908c0.50185 2.7894 0.83515 4.6425 1.0666 5.9291-0.26629 0.0569-0.89628 0.26949-1.0666 0.27864-0.1703-9e-3 -0.80029-0.22172-1.0667-0.27864 0.23153-1.2865 0.56483-3.1396 1.0667-5.9291z" color="#000000" color-rendering="auto" dominant-baseline="auto" fill="#fff" image-rendering="auto" shape-rendering="auto" solid-color="#000000" stroke-width=".96786" style="font-feature-settings:normal;font-variant-alternates:normal;font-variant-caps:normal;font-variant-ligatures:normal;font-variant-numeric:normal;font-variant-position:normal;isolation:auto;mix-blend-mode:normal;paint-order:stroke fill markers;shape-padding:0;text-decoration-color:#000000;text-decoration-line:none;text-decoration-style:solid;text-indent:0;text-orientation:mixed;text-transform:none;white-space:normal"/><path d="m350.94 262.51v40.981h13.008v-18.253c0-1.0678 1.6071-1.1528 1.8751-0.32152l5.9926 18.574h13.078l-9.5809-22.519 8.6016-18.462h-11.329l-7.1327 16.856c-0.29207 0.6902-1.5041 0.67207-1.5041-0.0881v-16.768zm46.683 0-7.912 40.981h13.638s0.36933-4.7099 0.55391-7.0648c0.0336-0.42783 0.81004-0.71626 1.6567-0.83078 0.68516-0.0927 1.3773-0.13931 2.0769-0.14848 0.69969 9e-3 1.3918 0.0558 2.0769 0.14848 0.84666 0.11452 1.6232 0.40295 1.6566 0.83078 0.18467 2.3548 0.55391 7.0648 0.55391 7.0648h13.638l-7.912-40.981zm34.764 0v40.981h21.61v-5.5609h-7.7143c-1.1627 0-1.8049-0.67881-1.8049-1.8051v-33.615zm29.989 0v40.981h12.591v-40.981zm36.693 0v40.981h21.61v-5.5609h-7.7145c-1.1626 0-1.8047-0.67881-1.8047-1.8051v-33.615zm29.989 0v40.981h12.591v-40.981zm23.186 0v40.981h9.8956v-19.407c0-0.62882 1.364-1.4184 1.896-0.18551l8.4543 19.592h10.455v-40.981h-9.5808v19.235c0 1.0792-1.9934 1.4976-2.6576 0l-8.5319-19.235zm40.185 0v34.579c2.9054 5.104 9.5406 7.5915 16.16 7.445 6.6198 0.14659 13.255-2.3409 16.16-7.445v-34.579h-12.64v34.579c-0.95229 1.5863-2.2386 2.3789-3.521 2.3836-1.2824-5e-3 -2.5684-0.79736-3.5207-2.3836v-34.579h-12.016zm39.956 0 5.6647 19.235-5.6647 21.747h11.763l3.5623-14.109c0.17577-0.69596 0.53292-1.1182 0.92879-1.2697 0.39603 0.15144 0.75344 0.57359 0.9292 1.2697l3.562 14.109h11.763l-5.6644-21.747 5.6644-19.235h-11.763l-3.5915 10.601c-0.1787 0.52731-0.52645 0.83452-0.89972 0.91111-0.3732-0.0767-0.72086-0.38393-0.89948-0.91111l-3.5916-10.601h-11.203zm-225.11 7.5624c0.42526 0.0946 0.82205 0.53727 0.9612 1.3103 0.3113 1.7305 3.2854 18.262 3.2854 18.262-2.049 0.66021-3.1763 1.0081-4.2466 1.0441-1.0703-0.036-2.1977-0.38395-4.2466-1.0441 0 0 2.9742-16.531 3.2854-18.262 0.13923-0.77295 0.53594-1.2156 0.9612-1.3103z" fill="url(#a)" stroke-width=".96923" style="paint-order:stroke fill markers"/></g><g shape-rendering="auto"><path d="m331.63 226.92c-5.5142 0-10.148 4.6332-10.148 10.147v88.48c0 5.5143 4.634 10.147 10.148 10.147h19.312v-12.444h-17.016v-83.887h348.15v83.887h-318.13v12.444h320.42c5.5143 0 10.148-4.6332 10.148-10.147v-88.48c0-5.5143-4.634-10.147-10.148-10.147z" color="#000000" color-rendering="auto" dominant-baseline="auto" image-rendering="auto" opacity=".15" solid-color="#000000" style="font-feature-settings:normal;font-variant-alternates:normal;font-variant-caps:normal;font-variant-ligatures:normal;font-variant-numeric:normal;font-variant-position:normal;isolation:auto;mix-blend-mode:normal;paint-order:stroke fill markers;shape-padding:0;text-decoration-color:#000000;text-decoration-line:none;text-decoration-style:solid;text-indent:0;text-orientation:mixed;text-transform:none;white-space:normal"/><path transform="scale(.26458)" d="m1253.4 857.65c-20.841 0-38.355 17.51-38.355 38.352v20c0-20.841 17.514-38.352 38.355-38.352h1333.2c20.842 0 38.355 17.51 38.355 38.352v-20c0-20.841-17.514-38.352-38.355-38.352h-1333.2zm8.6778 364.08v20h64.314v-20h-64.314zm113.48 0v20h1202.4v-20h-1202.4z" color="#000000" color-rendering="auto" dominant-baseline="auto" image-rendering="auto" opacity=".15" solid-color="#000000" style="font-feature-settings:normal;font-variant-alternates:normal;font-variant-caps:normal;font-variant-ligatures:normal;font-variant-numeric:normal;font-variant-position:normal;isolation:auto;mix-blend-mode:normal;paint-order:stroke fill markers;shape-padding:0;text-decoration-color:#000000;text-decoration-line:none;text-decoration-style:solid;text-indent:0;text-orientation:mixed;text-transform:none;white-space:normal"/><path d="m333.93 239.36v2.6458h348.15v-2.6458zm-12.444 86.183v2.6458c0 5.5143 4.634 10.148 10.148 10.148h19.313v-2.6458h-19.313c-5.5142 0-10.148-4.6334-10.148-10.148zm373.04 0c0 5.5143-4.6339 10.148-10.148 10.148h-320.42v2.6458h320.42c5.5143 0 10.148-4.6334 10.148-10.148z" color="#000000" color-rendering="auto" dominant-baseline="auto" fill="#fff" image-rendering="auto" opacity=".005" solid-color="#000000" style="font-feature-settings:normal;font-variant-alternates:normal;font-variant-caps:normal;font-variant-ligatures:normal;font-variant-numeric:normal;font-variant-position:normal;isolation:auto;mix-blend-mode:normal;paint-order:stroke fill markers;shape-padding:0;text-decoration-color:#000000;text-decoration-line:none;text-decoration-style:solid;text-indent:0;text-orientation:mixed;text-transform:none;white-space:normal"/></g><path transform="scale(.26458)" d="m977.35 0c-463.16 280.11-795.02 750.52-891.82 1302.9-1.0025 11.857-1.8989 23.742-2.6836 35.656 93.223-559.18 426.97-1035.8 894.5-1318.6h303.25c26.611-9.3358 51.95-16.125 75.299-19.98 0-0.0037795 0.043-0.011972 0.043-0.019531h-378.59zm-977.35 0.0019531v20h716.95c7.5366-6.723 15.122-13.394 22.768-20h-739.71zm2614.1 0c12.306 5.9332 24.698 12.637 37.141 20h175.06c1.0274 0.92209 2.0577 1.831 3.0859 2.7559 8.0706 7.2849 15.898 14.723 23.713 22.418 7.6617 7.7012 15.475 15.397 23.08 23.484 7.7666 7.9726 14.948 16.173 22.172 24.615 7.4039 8.3738 14.394 16.912 21.48 25.668 0.5242 1.3499 0.6016 1.8324 2.4043 2.168 6.2782 8.1364 12.716 16.157 18.881 24.545 33.867 46.152 64.098 97.481 90.072 154.41 10.405 22.762 20.096 46.369 29.135 70.938l256.6 83.762c-1.1373-7.0733-2.3695-14.142-3.6934-21.205l-252.9-82.557c-9.0387-24.568-18.73-48.176-29.135-70.938-25.975-56.934-56.205-108.26-90.072-154.41-6.1647-8.388-12.603-16.408-18.881-24.545-1.8027-0.33562-1.8801-0.81807-2.4043-2.168-7.0862-8.7557-14.076-17.294-21.48-25.668-7.2239-8.4426-14.405-16.643-22.172-24.615-7.6054-8.0878-15.418-15.783-23.08-23.484-7.8152-7.6948-15.642-15.133-23.713-22.418-1.0282-0.92481-2.0585-1.8338-3.0859-2.7559h-212.2zm501.01 0.0058594c2.1799 2.5656 4.3393 5.1465 6.416 7.7793 3.2671 4.0264 6.4574 8.1154 9.625 12.221h708.82v-20h-724.87zm-1096.9 120.1c-482.75 0.33357-937.6 340.6-937.6 920.95 0 3.4614 0.0183 6.9008 0.0469 10.33 7.9549-909.65 1137.8-1222.6 1722.7-549l1.9492 5.0156c1.429-2.9877 2.864-5.9674 4.3027-8.9375l-6.2519-16.078c-215.5-248.22-505.01-362.48-785.13-362.29zm-948.71 87.668c-82.643 30.373-167.1 104.44-235.41 170.96-11.904 17.126-22.748 34.472-32.301 51.955 63.26-63.394 146.09-143.14 229.86-186.15 12.486-12.501 25.108-24.771 37.859-36.766zm-214.63 322.13c-37.677 28.619-72.348 60.919-103.51 96.391-12.531 21.33-24.458 42.711-35.695 64.068 36.012-48.301 78.034-91.781 125.03-129.4 4.7305-10.337 9.455-20.679 14.178-31.059zm1882.1 227.36c-0.8736 28.291 1.8493 56.89 9.3106 85.68 29.411 113.48 245.33 319.65 306.29 403.48 60.942 83.843 248.91 368.68 316.05 650.47 64.197-49.687 440.94-108.88 440.94-108.88s-9.3916-3.983-27.805-15.441c-87.485 14.626-359.4 62.735-413.13 104.32-67.144-281.79-255.11-566.63-316.05-650.47-60.957-83.83-276.88-290-306.29-403.48-5.7075-22.022-8.6351-43.933-9.3106-65.68zm-1961.8 1.4023c-14.296 13.092-28.041 26.766-41.205 40.979-9.7095 18.136-19.752 36.402-30.242 54.861 20.15-24.823 41.962-48.245 65.277-70.113 1.9844-8.6159 4.0349-17.195 6.1699-25.727zm2461.2 46.213c-2.1256-0.06085-4.404 0.7497-6.8574 2.5254v-0.0039c-17.009 13.171-34.075 57.521-30.656 93.887 2.6635-31.196 16.682-63.066 30.656-73.887v0.0039c2.4534-1.7757 4.7318-2.5862 6.8574-2.5254l0.0137 0.00391c26.844 0.79986 29.095 140.18 46.555 218.63 1.0023-2.449 1.6569-5.6927 2.5722-9.25-19.887-75.651-21.014-228.54-49.127-229.38l-0.0137-0.00391zm-2801.6 262.23v0.0078c-20.522 68.953-36.614 139.07-47.938 210.22-13.665 88.789-20.023 177.01-19.543 264.05 0.52732-80.549 6.9238-162.06 19.543-244.05 11.324-71.151 27.415-141.27 47.938-210.22v-0.0078h0.01172c102.01 158.44 225.74 282.27 384.42 403.79 165.19 339.79 584.96 729.99 1284 542.67 54.702-14.657 502.35-179.99 775.23 126.43h17.033c-270.85-333.48-736.41-161.4-792.27-146.43-699.07 187.31-1118.8-202.88-1284-542.67-158.68-121.52-282.42-245.35-384.42-403.79h-0.01172zm2988.6 66.043c-1.4135 17.296-7.0285 30.149-19.352 33.674-41.399-9.4197-45.848 8.6424-46.06 21.324-0.0157 1.0297 0.7733 3.9213 2.1758 8.1446 3.9457-9.1262 14.777-16.092 43.885-9.4688 16.718-4.7824 21.074-26.746 19.352-53.674zm-2692.1 0.3847c-0.02837 3.924-0.04492 7.8528-0.04492 11.787 0 62.324 6.852 108.05 8.8086 135.01 3.006-18.838-8.0156-69.28-8.7637-146.8zm-124.01 245.9c-7.409 58.653-10.792 116.94-10.352 174.57 0.43872-56.929 4.6004-114.46 12.703-172.32-0.80302-0.7282-1.5824-1.4783-2.3516-2.2442zm2033.2 97.863c3.4381 35.009 9.4842 69.713 18.086 103.82 8.7804 33.248 19.976 65.799 33.482 97.398 3.4219 0.9756 6.8539 1.9646 10.299 2.9688-18.204-38.716-32.858-79.003-43.781-120.37-6.3362-25.126-11.28-50.575-14.822-76.23-1.1006-2.5242-2.1918-5.0527-3.2637-7.5918zm-2209.5 60.412c-1.5654 211.75 48.944 433.59 126.07 622.3h8.3086c-79.31-187.06-132.69-409.09-134.38-622.3zm223.89 46.209c-2.3604 185.28 64.41 396.55 175.77 576.09h12.664c-114.84-177.36-185.87-388.72-188.44-576.09zm1741.8 0.332c17.269 21.08 35.741 41.134 55.314 60.074 7.6198 0.1944 15.277 0.433 23.002 0.7597-1.8892-1.4948-3.7709-2.9976-5.6446-4.5117-11.367-10.282-22.391-20.927-33.058-31.918-13.092-7.3496-26.282-15.432-39.613-24.404zm-2259.5 31.537c-1.1152 188.75 30.035 372.22 88.908 544.22h6.9785c-61.234-171.7-94.722-355.2-95.887-544.22zm1916.9 2.0372c25.634 20.607 52.673 39.397 80.918 56.238 9.2641-1.8292 18.595-3.614 28.022-5.3203-7.4355-3.6011-14.807-7.3337-22.111-11.193-11.535-6.7268-22.872-13.779-34-21.143-17.303-5.1656-34.886-11.29-52.828-18.582z" style="fill:#fff;opacity:.01;paint-order:fill markers stroke;stroke-width:3.7795"/></svg>
