<svg width="3840" height="2160" version="1.1" viewBox="0 0 1016 571.5" xmlns="http://www.w3.org/2000/svg" xmlns:xlink="http://www.w3.org/1999/xlink"><defs><linearGradient id="a"><stop stop-color="#367bf0" offset="0"/><stop stop-color="#23bac2" offset="1"/></linearGradient><linearGradient id="c" x1="811.47" x2="-151.12" y1="793.59" y2="15.439" gradientUnits="userSpaceOnUse" xlink:href="#a"/><linearGradient id="b" x1="1153.3" x2="1397.2" y1="875.6" y2="875.6" gradientUnits="userSpaceOnUse" xlink:href="#a"/><filter id="h" x="-.013388" y="-.010873" width="1.0268" height="1.0217" color-interpolation-filters="sRGB"><feGaussianBlur stdDeviation="3.6818734"/></filter><filter id="g" x="-.013273" y="-.01095" width="1.0265" height="1.0219" color-interpolation-filters="sRGB"><feGaussianBlur stdDeviation="3.6501712"/></filter><filter id="f" x="-.024727" y="-.023314" width="1.0495" height="1.0466" color-interpolation-filters="sRGB"><feGaussianBlur stdDeviation="3.7107373"/></filter><filter id="e" x="-.027602" y="-.021229" width="1.0552" height="1.0425" color-interpolation-filters="sRGB"><feGaussianBlur stdDeviation="2.5455061"/></filter><filter id="d" x="-.057299" y="-.096849" width="1.1146" height="1.1937" color-interpolation-filters="sRGB"><feGaussianBlur stdDeviation="8.9351949"/></filter><filter id="i" x="-.025172" y="-.063175" width="1.0503" height="1.1263" color-interpolation-filters="sRGB"><feGaussianBlur stdDeviation="18.677604"/></filter><filter id="j" x="-.031384" y="-.042207" width="1.0628" height="1.0844" style="color-interpolation-filters:sRGB"><feGaussianBlur stdDeviation="3.2901604"/></filter></defs><path d="m0 0h1016v571.5h-1016z" fill="#1f222a" style="paint-order:fill markers stroke"/><path transform="scale(.26458)" d="m2856.9 905.19-0.4668 3.043 0.4531-3.041c-10.922 0.0871-20.524 7.1667-24.131 17.6-1.1918 3.4313-1.5177 6.8543-1.5176 10.244v317.66c0.3988 14.472 11.65 25.983 25.814 26.02 26.9 0.038 82.254-0.1 82.262-0.1h2.5274l-0.1192-29.58h-80.809c-0.01-0.4859-0.014-0.8415-0.019-1.4785-0.023-2.4135-0.044-5.8871-0.062-10.262-0.037-8.7493-0.066-21.109-0.088-35.873-0.044-29.528-0.058-68.67-0.045-107.77 0.013-39.103 0.051-78.17 0.1133-107.55 0.031-14.69 0.067-26.958 0.1093-35.596 0.021-4.3188 0.045-7.7299 0.068-10.078 0.01-0.56666 0.012-0.86271 0.018-1.3027 0.6347-5e-3 1.1734-0.011 2.0761-0.0156 2.8331-0.0144 6.9602-0.0266 12.244-0.0391 10.568-0.0249 25.767-0.0454 44.523-0.0625 37.513-0.0341 89.261-0.053 146.69-0.0586 114.86-0.0113 252.46 0.0295 344.36 0.11132h0.014c30.63 0.0273 56.184 0.0583 74.123 0.0937h0.02c8.9625 0.0177 16.028 0.0371 20.869 0.0566h0.01c0.01 5e-5 0.01 0 0.01 0 2.224 9e-3 3.8576 0.0197 5.1094 0.0293 0.01 0.48247 0.01 0.83523 0.016 1.4688 0.021 2.401 0.04 5.8608 0.057 10.225 0.034 8.7276 0.059 21.07 0.078 35.82 0.038 29.5 0.048 68.629 0.031 107.73-0.017 39.105-0.06 78.188-0.125 107.6-0.033 14.704-0.072 26.99-0.1152 35.648-0.022 4.329-0.044 7.7516-0.068 10.111-0.01 0.5692-0.012 0.8679-0.018 1.3106h-544.53v29.58h2.5117c0.044 6e-4 0.8249 0.013 1.416 0.016h0.02c0.6797 0 1.0971-7e-4 1.5567 0.018h0.051 543.81c0.6587-0.011 1.3285-0.04 2.0078-0.1015 9.9758-0.8903 18.603-7.6088 22.035-17.314 1.2004-3.3609 1.5195-6.7514 1.5195-10.066v-318.23c-0.2205-11.311-7.5896-21.249-18.156-24.607l-0.1055-0.11914-0.7187-0.19727c-0.042-0.0114-0.082-0.0104-0.1231-0.0215l-0.1523-0.043h-0.09c-2.8239-0.72069-5.5678-0.87109-8.2402-0.87109zm0.025 5h656.78c1.9506 0 3.7364 0.14767 5.4746 0.4414v0.42969h2.082c8.669 2.5724 14.839 10.737 15.029 20.066v318.16c0 2.9938-0.2924 5.7673-1.2304 8.3906-2.7982 7.9138-9.7489 13.287-17.766 14.002-0.5272 0.048-1.0728 0.073-1.6407 0.082h-543.68c-0.1948-0.01-0.4083-0-0.5977-0.01v-19.609h543.91l0.4843-1.8731c0.1522-0.586 0.08-0.4672 0.086-0.5586 0.01-0.091 0.01-0.1765 0.014-0.2773 0.01-0.2015 0.013-0.4569 0.02-0.7832 0.013-0.6526 0.027-1.5772 0.039-2.7656 0.024-2.3769 0.047-5.8051 0.068-10.139 0.044-8.6671 0.083-20.956 0.1152-35.662 0.065-29.413 0.1083-68.498 0.125-107.61 0.017-39.108 0.01-78.237-0.031-107.74-0.019-14.752-0.044-27.098-0.078-35.834-0.017-4.3679-0.036-7.8318-0.057-10.248-0.01-1.2081-0.02-2.1542-0.031-2.8262-0.01-0.33599-0.013-0.60296-0.02-0.81055-0.01-0.20758 0.045-0.0886-0.049-0.66015l-0.2695-1.6426-1.6192-0.38477c-0.6545-0.15594-0.4349-0.0652-0.4941-0.0684-0.059-3e-3 -0.1064-4e-3 -0.1621-6e-3 -0.1114-3e-3 -0.2484-7e-3 -0.4219-0.01-0.3469-6e-3 -0.8387-0.0103-1.4785-0.0156-1.2791-0.0106-3.1452-0.0214-5.5625-0.0313-0.026-1.3e-4 -0.011-1e-5 -0.014 0h-0.018c-4.8464-0.0196-11.906-0.0389-20.861-0.0566-0.012-3e-5 -0.012-1e-5 -0.016 0h-0.014c-17.942-0.0355-43.491-0.0665-74.117-0.0937h-0.012c-91.902-0.0818-229.49-0.12457-344.36-0.11328-57.433 6e-3 -109.18 0.0264-146.7 0.0606-18.758 0.0171-33.957 0.0376-44.529 0.0625-5.2864 0.0124-9.4158 0.0246-12.258 0.0391-1.4211 7e-3 -2.5202 0.0156-3.2852 0.0234-0.3825 4e-3 -0.6797 7e-3 -0.9004 0.0117-0.1104 2e-3 -0.2002 5e-3 -0.2812 8e-3s-0.027-0.0178-0.3614 0.0273l-1.6172 0.21679-0.4511 1.5684c-0.2085 0.7237-0.096 0.52607-0.1016 0.61719-0.01 0.0911-0.01 0.17418-0.014 0.27344-0.01 0.1985-0.013 0.45228-0.02 0.77539-0.013 0.64622-0.025 1.5636-0.037 2.7461-0.024 2.365-0.047 5.7822-0.068 10.105-0.042 8.6465-0.078 20.917-0.1093 35.609-0.062 29.384-0.1006 68.453-0.1133 107.56-0.013 39.106 0 78.246 0.045 107.78 0.022 14.766 0.051 27.131 0.088 35.889 0.019 4.3791 0.04 7.8573 0.062 10.287 0.011 1.2149 0.023 2.1657 0.035 2.8457 0.01 0.3399 0.012 0.6119 0.02 0.8242 0.01 0.2122-0.034 0.1411 0.051 0.6621l0.3418 2.0996h80.4l0.08 19.584c-3.1722 0.01-53.697 0.1325-79.76 0.096-11.489-0.03-20.496-9.1606-20.826-21.156v-317.51c-1e-4 -3.0708 0.2941-5.8793 1.2422-8.6074v-2e-3 -2e-3c2.9437-8.5159 10.649-14.162 19.443-14.232zm300.79 88.234-0.09 1.875c-0.019 0.039-0.04 0.077-0.059 0.1172-0.1099 0.237-0.1472 0.3606-0.1211 0.2969-0 0-0.069 0.1723-0.1289 0.3398-0.01 0.026-0.02 0.052-0.029 0.078-0.01 0.016-0.012 0.033-0.018 0.049-22.05 60.441-44.074 120.91-66.115 181.33l-0.1523 0.414v0.1289c-0.019 0.077-0.035 0.047-0.049 0.1348-0.046 0.2996-0.047 0.5127-0.047 0.5938v0.1914c0 0.307 0.1072 0.4923 0.1816 0.7226-0.01-0.032-0.017-0.015-0.023-0.049l0.3867 2.0332h32.088l2.8242 0.6152v-2.6718c0.1749-0.4682 0.3725-0.9345 0.584-1.5997h-0.01c4.684-13.603 9.3747-27.184 14.072-40.801 0.3892-1.0897 0.7809-2.188 1.1641-3.2949l-0.7774 0.5547c-0.4287-0.371-1.5859-1.3731-1.5859-1.3731s1.0584 1.0348 1.4805 1.4473l-1.4805 1.0527v-2.5s2.3105 0.4619 2.4043 0.4805l-0.041 0.3281c0.3328-0.9614 0.6566-1.9295 0.9726-2.9004 0.11-0.01 0.3874 0.01 0.4278 0.01h64.439c5.7848 16.384 11.534 32.665 17.26 48.938l0.5879 1.6699h32.762v-2.5003s1.6836-1.8496 1.6836-1.8496l0.1094 0.1055-1.793 1.7441s2.4395-0.5487 2.4395-0.5488c-1e-4 -3e-4 0.055 0.3612 0.059 0.4355 0.01 0.1487 0 0.1846 0 0.2207-0 0.072-0.01 0.1075-0.01 0.1075l-2.4902 2.2754h3.5859l-1.2265-3.3575c-22.358-61.235-44.622-122.23-66.842-183.21l-0.5996-1.6446zm-121.75 0.54688 2.7832 2.0781c-0.3305 0.2813-0.7427 0.4539-1.0215 0.7891-22.061 26.706-44.175 53.413-66.287 80.092v-62.91c0-5.7241 0.098-11.507 0-17.318l-0.041-2.457h-33.98v0.01h-0.01v186.82l2.0586 0.3691c0.6855 0.123 1.2416 0.1303 2.1875 0.168 0.9459 0.038 2.1416 0.068 3.5098 0.09 2.7363 0.044 6.163 0.057 9.5683 0.045 3.4054-0.012 6.7853-0.049 9.4297-0.1114 1.3222-0.031 2.4585-0.069 3.3399-0.1133 0.4406-0.022 0.8159-0.045 1.1386-0.074 0.1921-0.017 0.4069-0.065 0.5938-0.094-0.077 0.01-0.1661 0.016-0.166 0.016l-0.092-2.498 2.5-4.5254-0.08-0.01v-61.356c0-0.4083 0.049-0.6367 0.1055-0.7929 0.052-0.1431 0.061-0.1531 0.01-0.037l0.02-0.024c0.01-0.018 0.023-0.049 0.047-0.088 0.062-0.1015 0.1678-0.2366 0.416-0.4336l0.02-0.02c4.6235-3.7373 9.1695-7.5636 13.703-11.357 7.9882 11.78 15.984 23.552 23.967 35.31 9.8801 14.613 19.773 29.158 29.629 43.695l-0.027-0.043c0.3071 0.4735 0.7032 1.1036 1.457 1.6816 0.7539 0.578 1.8592 0.9395 2.9043 0.9395 10.374-0.036 20.74-0.033 31.109-0.033 0.9138 0 1.3616-0.2069 1.8086-0.3105l1.9355-0.4473v-2.7597l-0.4257-0.6309c-22.605-33.654-45.118-67.078-67.695-100.69 4.1689-4.9435 8.2535-9.7659 12.318-14.689l0.02-0.024c4.4668-5.2829 8.9164-10.582 13.373-15.898 4.4601-5.3147 8.8836-10.629 13.346-15.938 4.4523-5.3201 8.9161-10.634 13.326-15.949l0.012-0.014c4.4286-5.2608 8.8278-10.527 13.522-16.201l4.1386-4.1387h-8.6504c-9.4036 0-18.784 0.0567-28.152-0.0391zm242.82 0.28125 1.1347 2.5468c-0.5625-0.025-1.1347-0.049-1.1347-0.049s0.577 0.039 1.1464 0.078l0.029 0.062c-0.586-0.071-1.1757-0.1406-1.1757-0.1406s-0.6597-0.01-1.3164-0.018l-0.1563-0.084c0.7122 0.049 1.4727 0.1016 1.4727 0.1016s-0.9248-0.1123-1.6602-0.2012l-0.7148-0.3808v-0.012c0.098 0.024 2.3731 0.5938 2.3731 0.5938l-1.8575-1.6719-0.3984 0.4414 0.2324-1.2597-0.2793 1.3144-3.3125 3.6777h3.0313c-0.025 1.4431-0.048 3.417-0.068 5.92-0.042 5.115-0.077 12.288-0.1015 20.838-0.05 17.099-0.066 39.695-0.053 62.268 0.013 22.572 0.057 45.121 0.125 62.123 0.034 8.5008 0.075 15.614 0.1211 20.656 0.023 2.521 0.048 4.5228 0.074 5.9297 0.013 0.7035 0.028 1.255 0.043 1.6641 0.01 0.2045 0.014 0.3719 0.023 0.5234 0.01 0.076 0.01 0.1455 0.02 0.2363 0.01 0.091-0.023 0.1085 0.1093 0.5372l0.543 1.7617h108.74v-30.395h-52.859c-4.2488 0-8.5083 0.038-12.693 0-3.4468-0.032-6.7744 0.01-10.125-0.078v-141.37l-0.031-0.033c0.019-4.3464 0.1613-8.74-0.1309-13.246l-0.1523-2.3378zm117.68 0.0527 4.1797 3.6406v183.71h33.744l0.1446-2.039c0.015-0.048 0.022-0.067 0.041-0.1309l-0.035 0.025 0.014-0.1797v-0.074c0 5e-4 0.04 0.01 0.041 0.01l-0.02 0.1934c0.012-0.041 0.017-0.1397 0.029-0.1914h0.019c1e-4 -3e-4 0.044-0.3256 0.047-0.3926 0-0.044-2e-4 -0.04 0-0.066 0.016-0.127 0.051-0.2001 0.051-0.3418v-183.1h-0.7149c-0.082-0.082-0.1783-0.2029-0.2304-0.2559-0.2008-0.2037-0.3167-0.27712-0.4082-0.33982-0.1831-0.12539-0.3165-0.18945-0.3165-0.18945l-0.5429-0.28125zm-236.8 0.0996v2.5s-1.1705-0.9263-1.6289-1.2891zm274.1 0.73051c-0.052-0.048 0.015-0.013 0.2109 0.2285 1e-3 0 1e-3 0.01 0 0.01h-0.031c-0.059-0.068-0.1614-0.2176-0.1816-0.2363zm-271.17 0.9238-0.1153 2.3652h27.562c21.616 59.32 43.276 118.66 65.022 178.22h-25.664c-5.7283-16.275-11.472-32.549-17.26-48.939l-0.5879-1.668h-67.978c-0.5043 0-0.7904 0.01-0.6836 0.018h0.014c-0.9358-0.1149-2.1514 0.1176-2.9863 0.8047s-1.1791 1.5238-1.3945 2.2305c-0.3418 1.0624-0.7026 2.1314-1.0742 3.2051l-0.1719 0.4941c-0.1316 0.3771-0.2665 0.7565-0.4004 1.1347l-0.01-0.01-0.4668 1.3535c-0.035 0.099-0.07 0.1974-0.1055 0.2969l-0.1855 0.5175v0.021c-4.4553 12.914-8.9033 25.801-13.348 38.705l-0.029-0.039-0.5137 1.6153c-0.01 0.02-0.015 0.04-0.021 0.061l-0.078 0.2266v0.012h-25.34c21.561-59.112 43.106-118.26 64.674-177.38l0.07 0.096 0.4902-1.6328v-0.01l0.059-0.1582c0.033-0.082 0.01-0.026 0.014-0.039 0.01-0.015 0.038-0.094 0.016-0.045 2e-4 -5e-4 0-0 0-0 0.048-0.1027 0.121-0.2516 0.2188-0.4434l0.2441-0.4785zm-5.2872 0.096c-0.01 0.015-0 0.016-0.01 0.031v-0.025zm277.18 0.1133 0.1289 0.791c0-0.045-0.03-0.069-0.033-0.1133-0.032-0.2496-6e-4 -0.3927-0.096-0.6777zm-153.2 0.4843c0 0.01 3e-4 0.011 0 0.033-2e-4 0.014-0 0.074-0 0.074h-0.1016c0.01-0.01 0.1034-0.1027 0.1036-0.1036zm148.23 0.1504c0 0.1239 0.079 0.1572 0.098 0.2735v0.1621c-0.026-0.1632-0.098-0.2193-0.098-0.4356zm-148.39 0.01c0.017 0 0.1523 0.01 0.1523 0.01v0.016l-0.012 0.1113s-0.2035-0.024-0.2481-0.029c0.021-0.021 0.095-0.094 0.1075-0.1074zm148.68 0.791c0.055 0.1315 0.075 0.2763 0.1348 0.3789l-0.035-0.035c-0.049-0.099-0.061-0.2294-0.1-0.3438zm-149.48 0.01 0.098 0.2207-0.2773 0.2246-0.1719-0.092c0.1755-0.1755 0.1852-0.1867 0.3516-0.3535zm149.38 0.02 0.039 0.1172c-0.01-0.03-0.01 0.036-0.01 0.01-0.013-0.032-0.017-0.09-0.029-0.125zm-386.1 1.3223h4.1992c6.8625 0.04 13.715 0.037 20.557 0.029l-0.014 0.014h0.7031c-3.4167 4.1113-6.8043 8.1873-10.119 12.125l-0.02 0.02c-4.401 5.3043-8.8643 10.616-13.324 15.945-4.4716 5.32-8.8938 10.635-13.344 15.938-4.462 5.3222-8.9133 10.625-13.379 15.906l-0.01 0.01-0.01 0.012c-4.4442 5.3836-8.8995 10.643-13.516 16.121l-1.2148 1.4395 1.0507 1.5644c22.116 32.93 44.169 65.673 66.299 98.613-9.2497 2e-4 -18.501-7e-4 -27.766 0.031-0.011-0.019-0.051-0.05-0.2402-0.3418l-0.016-0.022-0.014-0.022c-9.8595-14.543-19.753-29.086-29.629-43.693-8.0433-11.849-16.099-23.709-24.146-35.576-0.4706-0.7199-0.9403-1.3171-1.4395-1.9765l-1.498-1.9785-1.9903 1.4843c-0.557 0.4156-1.0119 0.7319-1.5351 1.129l-0.047 0.035-0.047 0.039c-4.738 3.9625-9.4584 7.9406-14.228 11.797-0.6107 0.4847-1.1539 1.06-1.5664 1.7305-0.1249 0.2044-0.2436 0.429-0.3515 0.6719-0.1111 0.2476-0.1539 0.3918-0.1563 0.3984v-0.01c-0.2971 0.8184-0.4062 1.6673-0.4062 2.5v63.576c-0.7022 0.028-1.4026 0.056-2.3535 0.078-2.5916 0.061-5.9487 0.1-9.3282 0.1114-3.3794 0.012-6.7855-0-9.4726-0.045-1.1237-0.018-2.0224-0.045-2.834-0.072v-177.38h0.01v-0.01h24.022c0.04 4.8987 0 9.8199 0 14.775v75.287l4.2148-3.9726c0.6114-0.5762 1.0288-0.8821 1.5547-1.4941l0.014-0.018 0.016-0.016c23.129-27.902 46.261-55.843 69.338-83.779l0.01-0.01c0.8268-0.9941 0.7989-0.9746 2.0274-0.9746zm237.6 0.1972h23.772c0.1304 3.7821 0.1093 7.5933 0.1093 11.568v0.9746l0.021 0.025v144.25l2.3535 0.1406c4.4781 0.2652 8.6646 0.066 12.727 0.1035 4.2455 0.038 8.5194 0 12.738 0h47.859v20.395h-99.484c-0.025-1.3706-0.05-3.2642-0.072-5.6992-0.047-5.0253-0.087-12.135-0.1211-20.631-0.068-16.992-0.1117-39.536-0.125-62.104-0.013-22.568 0-45.161 0.053-62.25 0.025-8.5447 0.059-15.714 0.1015-20.812 0.021-2.5325 0.043-4.5433 0.068-5.961zm124.45 0.053h24.066v1.0664h0.014v176.29h-24.08zm-229.69 18.908-2.1895 2.4609-0.3984 0.4453-0.1543 0.5664c-0.2519 0.9229-0.3683 1.5007-0.4902 1.9004l-0.012 0.035-0.01 0.033c-2.0456 7.4763-3.8378 14.949-6.1817 22.1-5.9394 18.093-12.13 36.073-18.236 54.148v0.01 0.01c-0.2444 0.736-0.4472 1.4413-0.6758 2.2168l-0.9453 3.205h58.639l-0.8926-3.1758c-0.235-0.8361-0.4279-1.5168-0.6211-2.1914l-0.018-0.055-0.017-0.055c-1.2752-3.7862-2.5596-7.5574-3.8379-11.324-1.2767-3.7617-2.547-7.5188-3.793-11.283l0.019 0.127c-0.039 0.011-2.3925 0.6484-2.3925 0.6484-1e-4 0 0-2.5 0-2.5l2.373 1.7149c-1.508-4.5487-3.0511-9.0807-4.5938-13.604l0.014 0.1035c-0.016-0.045-0.019-0.053-0.037-0.1055l0.022-0.01c-4.5546-13.353-9.0873-26.647-12.666-40.176-0.071-0.2685-0.1349-0.4904-0.1817-0.668-0.043-0.1611-0.096-0.2007-0.1465-0.3281v-0.2481l-0.3867-0.6113c-0.1644-0.2605-0.2876-0.4326-0.4024-0.6113zm2.2598 3.5488c0.06 0.1206 0.1534 0.2997 0.1406 0.2676-0.01-0.015-0.075-0.1238-0.098-0.1719-0.014-0.023-0.03-0.074-0.043-0.096zm-2.3165 9.3125c3.2509 11.362 6.936 22.556 10.727 33.67v0.02l0.1679 0.4902c1.4997 4.3969 2.9933 8.7886 4.4532 13.186l0.1269 0.3828c0.083 0.2496 0.1692 0.4967 0.252 0.7461l0.3164 0.957c1.0693 3.2113 2.1468 6.4164 3.2324 9.6153 1.1529 3.3975 2.3074 6.7929 3.4551 10.193h-45.217c5.9731-17.667 12.029-35.275 17.855-53.023 1.7649-5.3843 3.2012-10.825 4.6289-16.236zm15.352 46.781v0.1211c1e-4 -0.017 0-0.045 0-0.045v-0.076zm-52.606 58.562c1e-4 -1e-4 2.3027 0.5189 2.3926 0.539l-0.035 0.2813-0.8731 0.623c-0.4229-0.4116-1.4844-1.4433-1.4844-1.4433zm0 0s0.9734 1.0676 1.3809 1.5156l-1.3809 0.9844v-2.5zm-14.086 40.855s2.3139 0.4606 2.4043 0.4785l-0.037 0.2911-0.8008 0.5859c-0.4447-0.3848-1.5664-1.3555-1.5664-1.3555zm0 0s1.0304 1.0052 1.4648 1.4297l-1.4648 1.0703v-2.5zm-33.305 0.072c-0.017 0.024-0.052 0.1713-0.084 0.2305-0.01 0.027-0.088 0.146-0.092 0.1582-0.014 0.051 0.1119-0.2244 0.1758-0.3887zm340.92 1.4355s0.2205 0.044 0.2754 0.055c-0.036 0.028-0.084 0.066-0.1113 0.088-0.026-0.023-0.1641-0.1426-0.1641-0.1426zm0 0s0.1301 0.1267 0.1543 0.1504c-0.037 0.029-0.1369 0.1093-0.1543 0.1231v-0.2735zm-460.7 0.1-1.6739 1.9296-0.4668 0.5372c0.1055-0.02 0.1485-0 0.3028-0.047l1.8379-0.5059zm460.7 0.3027 0.6055 0.1894c0.3775 0.3689 0.5824 0.5708 0.8418 0.8243l-1.4473 1.0839v-2.0976zm0.7286 0.2285 1.246 0.3926-0.4257 0.3183c-0.2428-0.2101-0.4316-0.3745-0.8203-0.7109zm-260.68 105.14-2.6192 5.6719-1.6406 3.5566h2.125l12.037 35.258v2.0468h10.584l14.5-42.307h-11.525l-7.9336 24.106-7.916-24.104h-6.168zm-222.96 3.6328c-6.0105 5e-4 -11.103 1.9082-14.584 5.7832-3.4885 3.8771-5.1074 9.2977-5.1074 15.858 0 3.9695 0.7555 7.3769 1.9883 10.436h-0.8926l2.7598 3.9356 0.582 0.83v0.01l0.02 0.022 0.1445 0.207h0.037l0.4258 0.4805c0.4333 0.49 0.8927 0.9492 1.3711 1.3769 3.3829 3.0266 7.9277 4.4786 13.193 4.4786 5.972 0 11.034-1.9671 14.504-5.8907 3.4654-3.9286 5.0879-9.328 5.0879-15.818 0-6.4892-1.6025-11.902-5.0781-15.816v-0.01c-0.4324-0.4886-0.8916-0.9516-1.375-1.3848-0.4831-0.4329-0.9879-0.8329-1.5118-1.2011-0.5305-0.3728-1.0802-0.7092-1.6445-1.0137l-0.5566-0.2988h-0.2657c-1.4297-0.6795-2.9599-1.1838-4.6015-1.4922l0.3457-0.4864zm183.55 0.065c-4.0555 0-7.6124 1.0317-10.307 3.2441-2.7169 2.2419-4.1543 5.5877-4.1543 9.2735 0 2.9462 0.8629 5.6925 2.5742 7.9101 5e-4 8e-4 0 0 0 0 9e-4 0 0 0 0 0 0.2029 0.2639 0.4643 0.4935 0.6934 0.7422v0.1426l0.8144 0.7304 0.012 0.01 0.7012 0.6309h0.047l0.014 0.014 0.1289 0.1c0.235 0.1809 0.4813 0.3511 0.7285 0.5215l0.041 0.041 0.2051 0.1368c0.3347 0.2233 0.6819 0.4408 1.0429 0.6523 1.0935 0.641 2.3101 1.2342 3.6543 1.7891 1.5533 0.6418 2.8246 1.2317 3.7793 1.7461 0.9491 0.5125 1.5879 0.9698 1.834 1.2011 0.6023 0.5715 0.7676 0.9667 0.7676 1.7266 0 0.9482-0.1751 1.2869-0.7695 1.7734-0.4482 0.3643-1.6204 0.8086-3.6582 0.8086-1.3672 0-2.9235-0.1973-4.6309-0.6152-1.7213-0.4227-3.3093-0.9896-4.8106-1.7129l-3.5859-1.7266v9.7461 0.1426l2.4961-0.1426c1e-4 0-0.096 2.423-0.098 2.4726l-0.9981-0.2324c0.3896 0.1924 0.784 0.3663 1.1816 0.5274 2.8524 1.1572 6.2051 1.6972 10.053 1.6972 4.5183 0 8.3824-1.0571 11.287-3.3828 2.9066-2.3315 4.4571-5.8465 4.4571-9.752 0-1.9837-0.3513-3.8178-1.1055-5.4375-0.7646-1.6609-1.9721-3.0787-3.459-4.2598l-0.3047 0.877 0.1797 0.3281h-0.2949-1.125v-1.7441h-0.3928l0.6563-0.3594c-0.4581-0.2915-0.9542-0.5812-1.4864-0.8691-1.0699-0.579-2.2974-1.1619-3.6875-1.752h-0.01c-2.3255-0.9753-3.9231-1.7965-4.5136-2.1973l-0.024-0.02c-0.696-0.461-1.0458-0.8662-1.1855-1.1074v-0.01l-0.01-0.01c-0.1508-0.2561-0.2656-0.6032-0.2656-1.2266 0-0.8165 0.1507-1.0976 0.6172-1.4941l0.028-0.024c0.381-0.3331 1.182-0.6758 2.7539-0.6758 2.087 0 4.6754 0.5821 7.7051 1.8868l2.3984 1.0332 2.9746-7.836v-0.459-0.1425l-2.4961 0.1425s0.098-2.4344 0.1-2.4765l0.9257 0.2012c-3.2055-1.4577-6.5036-2.1788-9.8203-2.3926l-0.1-0.2051zm7.6641 19.629 0.3066 0.5605 0.9649 0.3321c-0.3881-0.3046-0.8117-0.5997-1.2715-0.8926zm135.29-19.629c-4.0571 0-7.6047 1.0333-10.295 3.2441-2.7135 2.2403-4.1601 5.584-4.1601 9.2735 0 2.9483 0.8644 5.6938 2.5742 7.9121 0.2042 0.2659 0.4669 0.4961 0.6972 0.7461v0.1446l0.8184 0.7324 0.012 0.012c0.01 0 0.012 0.01 0.018 0.014l0.6836 0.6172h0.057c0.044 0.035 0.082 0.071 0.127 0.1054 0.3076 0.2368 0.6274 0.4665 0.9609 0.6895 0.2344 0.1569 0.4182 0.2627 0.5352 0.3359 0.1119 0.07 0.2785 0.1813 0.5157 0.3203l0.5859 0.3437h0.1035c0.9166 0.5018 1.8775 0.9905 2.9707 1.4414 1.5589 0.6422 2.8304 1.232 3.7832 1.7461 0.9458 0.5111 1.5825 0.9668 1.832 1.2012 0.6001 0.5693 0.7637 0.9619 0.7637 1.7265 0 0.9439-0.1801 1.2881-0.7656 1.7715-0.455 0.3686-1.6161 0.8106-3.6563 0.8106-1.3649 0-2.9261-0.1984-4.6191-0.6153-1.731-0.4225-3.3179-0.9905-4.8359-1.7168l-3.5781-1.7109v9.7344 0.1425l2.4961-0.1425s-0.098 2.4286-0.1 2.4746l-0.9942-0.2305c0.3913 0.1923 0.7874 0.3665 1.1856 0.5273 2.8567 1.1558 6.2099 1.6954 10.062 1.6954 4.5136 0 8.3849-1.0566 11.289-3.3868 2.9025-2.3317 4.4532-5.8446 4.4532-9.75 0-1.9949-0.3639-3.8319-1.1114-5.4433v-0.01-0.01c-0.7712-1.633-1.9597-3.049-3.4453-4.2344l-0.6836-0.5469h-0.1c-0.1723-0.119-0.3233-0.2417-0.5078-0.3594l0.1973 0.3594h-0.4747l0.586 0.2051 0.8476 1.543s-5-1e-4 -5 0l3.8418-2.1075c-0.4607-0.2935-0.9566-0.583-1.4902-0.8711-1.0721-0.5787-2.3036-1.1603-3.7012-1.75h-0.01c-1.1541-0.4897-2.126-0.9276-2.8887-1.3028-0.3778-0.1859-0.7042-0.3577-0.9805-0.5117-0.2721-0.1516-0.4897-0.2842-0.6347-0.3828l-0.01-0.01h-0.01c-0.6926-0.4643-1.0566-0.8833-1.1895-1.1093-0.1553-0.2775-0.2715-0.638-0.2715-1.2481 0-0.8226 0.1441-1.0959 0.6113-1.4902l0.018-0.014 0.016-0.014c0.3796-0.3319 1.1882-0.6757 2.7461-0.6757 2.1005 0 4.682 0.5819 7.711 1.8867l2.4004 1.0332 4.0976-10.795h-3.1269c-0.2918-0.1257-0.5848-0.2567-0.8731-0.3711l-0.4453-0.1758h-0.1601c-2.6216-0.9769-5.2897-1.4979-7.9727-1.6543l-0.096-0.1582zm72.416 0c-3.9104 0-7.4886 0.8671-10.543 2.668-3.0469 1.7957-5.428 4.4511-7.0097 7.7578-1.5755 3.305-2.332 7.0868-2.332 11.258 0 6.5473 1.5423 11.946 4.9121 15.826 6e-4 7e-4 0 0 0 0 0.8428 0.9768 1.7871 1.8399 2.8222 2.5781 0.5178 0.3691 1.0572 0.7062 1.6133 1.0098l0.5606 0.3046h0.098c0.3595 0.1761 0.7128 0.3624 1.0879 0.5137 2.4028 0.971 5.0945 1.4278 8.0273 1.4278 3.8819 0 7.4427-0.6075 10.625-1.8145l1.6133-0.6133v-10.404l-3.2695 1.0586c-1.4734 0.4771-2.9089 0.8569-4.2891 1.166-1.2542 0.2696-2.5842 0.4063-3.9609 0.4063-1.8877 0-3.3204-0.3778-4.4551-1.0371l-0.051-0.029c-0.4325-0.2566-0.8305-0.5567-1.2011-0.918-0.1874-0.1835-0.3686-0.3817-0.543-0.5977-1.3844-1.7198-2.2793-4.5949-2.2793-8.8066 0-4.0061 0.8845-6.7959 2.4141-8.7383 1.525-1.9319 3.2918-2.7715 6.1152-2.7715 0.6356 0 1.2439 0.046 1.832 0.1368 0.3017 0.047 0.5893 0.1014 0.8653 0.1679l-1.9141-2.4297h2.5s-0.037 0.2353-0.047 0.2989h1.0996s-0.082 0.4239-0.1406 0.7265h2.1484c1e-4 1e-4 -0.5661 2.256-0.5938 2.3672l-0.33-0.047c0.5992 0.2411 1.181 0.4963 1.7461 0.7676l0.5117 0.2461h2.2363l1.7461-4.1308 1.2422 0.6308v-4.0742h-2.5s-2.5-2e-4 -2.5 0l3.6308-2.2285c-3.5183-1.787-7.3937-2.6739-11.469-2.6739l0.2344 0.012-0.1387-0.014zm6.2988 9.1445s-1.1604 0.9508-1.6093 1.3184l-0.6172-0.9141c-0.1248 0.6423-0.2457 1.2605-0.252 1.293l-0.2949-0.047c0.6325 0.2067 1.2449 0.4299 1.8418 0.6699l-0.6055-0.8964c0.4165-0.3851 1.5354-1.4222 1.5371-1.4239zm-201-8.6308v42.316h10.99v-42.307h-0.018v-0.01zm-78.137 0-0.2461 2.377v39.936h10.43v-21.885c0-0.29-0.036-0.6519-0.039-0.9473l13.805 22.834h11.221v-42.305h-0.012v-0.01h-10.461v19.549h-0.021v2.5c0 0.1661 0.021 0.5326 0.021 0.7168l-13.789-22.766h-1.4179zm348.17 0-12.814 0.01v42.307h10.986v-14.906h1.9433l8.7266 14.896h12.764l-11.336-18.152c3.7975-2.4665 6.1048-6.2372 6.1074-10.775v-0.01c0-4.1525-1.4356-7.7849-4.3144-10.106l-0.02-0.02c-1.8348-1.4501-4.1453-2.3486-6.8184-2.8242-0.3289-0.059-0.5651-0.082-0.6992-0.1016-0.2397-0.036-0.542-0.089-0.9219-0.1308-1.1328-0.1262-2.3326-0.1895-3.6015-0.1895zm-444.76 0-2.0098 0.8359v41.469h10.947v-15.316h13.758v-10.174h-13.758v-6.6582h14.678v-10.156h-2.5137zm30.879 0-0.5489 2.1953v37.609l2.4883-2.4883v4.9883h8.4438v-15.316h13.758v-10.174h-13.758v-6.6582h14.684v-10.156h-2.5098zm-137.72 0 1.0352 3.4512 0.1113 0.2129 11.82 22.502v16.143h11.01v-16.34l13.828-25.963h-12.211l-7.0977 13.992-6.1465-12.108v-1.8906zm585.05 0h-8.4687v42.305h10.99v-42.307zm4.6387 0 3.539 3.5371v6.7051h10.725v32.064h10.98v-32.068h10.748v-10.238h-2.5215zm-71.32 0.01v26.051c0 2.6318-0.5996 4.1911-1.4395 5.0937s-2.1329 1.4707-4.5019 1.4707c-0.9183 0-1.7082-0.09-2.3575-0.2422-0.2184-0.052-0.4181-0.1099-0.5996-0.1718-0.7488-0.2564-1.2635-0.5924-1.6602-1.0079-0.7873-0.8179-1.3985-2.3679-1.3985-5.0742v-26.109h-6.5019l0.4336 1.9512-4.9395 0.543v24.043c0 4.765 1.4862 8.9302 4.5254 11.889 1.9125 1.864 4.3253 3.1379 7.0586 3.8008l-1.9102-2.4297h2.5 2.5l-3.0898 2.4297c0.5373 0.1302 1.0894 0.24 1.6562 0.3262 1.1459 0.1757 2.3464 0.2637 3.6015 0.2637 3.3547 0 6.3873-0.6233 8.9903-1.9375 2.5888-1.3152 4.6687-3.2948 6.0606-5.7676 1.398-2.4839 2.0586-5.3598 2.0586-8.4609v-26.646h-2.5195zm132.91 0-7.0918 13.984-7.0957-13.98h-5.9258l0.2715 1.6875-0.1875-0.3594-4.6797 1.5645 0.3418 2.1074h0.6192l11.123 21.158v16.141h11.016v-16.34l13.828-25.963h-4.1856zm-479.28 0 2.4941 2.4942h-4.9941v39.809h25.662v-10.18h-14.676v-6.7051h13.758v-10.107h-13.758v-5.1563h14.676v-10.154h-2.5098zm-200.23 0 0.029 2.4629-5 0.029v39.806h0.012v0.01h15.68c4.457 0 8.2957-1.0369 11.158-3.4219 2.8418-2.3636 4.3262-5.8807 4.3262-9.7949 0-2.8982-0.7442-5.5123-2.3809-7.4981-0.5707-0.6895-1.2567-1.2693-2.0059-1.7773 0.3801-0.3503 0.8494-0.5996 1.166-1.0137l0.02-0.02c1.4498-1.9243 2.1407-4.3442 2.1407-6.9453 0-3.803-1.5263-7.2132-4.4649-9.1718-0.7428-0.4958-1.5598-0.8991-2.4375-1.2344-0.4382-0.1679-0.8946-0.3194-1.3691-0.455l-0.336-0.098h-0.1836c-2.275-0.5877-4.8921-0.8789-7.9726-0.8789zm369.96 0.01 2.3047 2.4786-4.7969-0.1758-0.1973 2.6972h0.1914v37.301h25.65v-10.182h-14.686v-6.7051h13.773v-10.104h-13.775v-5.1543h14.688v-10.156h-2.5117zm85.287 0 2.4863 2.4864h-4.9863v39.814h25.664v-10.182h-14.68v-6.7051h13.754v-10.104h-13.754v-5.1543h14.68v-10.156h-2.5117zm-155.67 1.8379h0.014c-0.045 2e-4 -0.066 0-0.092 0h0.078zm-194.18 2.5762h0.1719c3.0671 3e-4 5.5393 0.5851 7.541 1.6641l0.08 0.043c0.3758 0.2061 0.7359 0.4244 1.0742 0.6622 0.368 0.2586 0.7184 0.5361 1.0508 0.8339 0.3358 0.3009 0.6588 0.6261 0.9688 0.9766 2.4733 2.7832 3.8203 6.8155 3.8203 12.5 0 5.6727-1.3532 9.6913-3.836 12.508-2.4698 2.7924-5.8176 4.2031-10.758 4.2031-4.3823 0-7.5178-1.1046-9.8613-3.2012-0.3042-0.272-0.5905-0.5652-0.8672-0.8711l-0.09-0.1016c-0.3039-0.3436-0.5907-0.7059-0.8614-1.0918l-2.0468 3.9336v-2.5c-1e-4 0 0-2.5 0-2.5l1.5351 0.8008 0.064 0.25v-0.2168l0.4472 0.2324c-0.252-0.3598-0.4868-0.7463-0.7089-1.1445l-0.047-0.084c-1.4093-2.568-2.1934-5.957-2.1934-10.273 0-5.7537 1.3629-9.7791 3.8242-12.514 2.4158-2.6894 5.7805-4.0752 10.686-4.1113zm399.09 0.053h0.039c2.5233 0 4.8195 0.5344 7.0176 1.336l-0.1465 0.3476-0.125-0.051 0.023-0.018-1.1562-0.3867 0.1035-0.08-1.8398-0.4434c-0.021-0.01-0.042-0.013-0.063-0.018l-0.289-0.07h-0.08c-0.3049-0.065-0.6105-0.133-0.9101-0.1797-0.8573-0.1328-1.7251-0.1953-2.5996-0.1953-4.0264 0-7.6403 1.6302-10.043 4.6758-2.3987 3.0444-3.4883 7.0762-3.4883 11.834 0 4.9057 0.9986 8.9806 3.3868 11.945 0.2946 0.3651 0.6082 0.7112 0.9414 1.0371 0.6666 0.6498 1.4084 1.2169 2.2168 1.6875l0.584 0.3399h0.2813c1.8356 0.8789 3.8777 1.375 6.1152 1.375 1.708 0 3.3926-0.1687 5.0215-0.5196h0.01 0.01c0.4719-0.1055 0.9928-0.28 1.4785-0.4023v0.07c-2.1735 0.6349-4.5358 1.0566-7.2383 1.0567-2.4139 0-4.4492-0.3755-6.1543-1.0645-0.4231-0.1706-0.8265-0.3617-1.2129-0.5723l-0.062-0.035c-0.3664-0.2028-0.7192-0.418-1.0508-0.6543-0.7081-0.5051-1.3501-1.0921-1.9395-1.7754-2.364-2.719-3.6914-6.7778-3.6914-12.553 0-3.5711 0.6389-6.5738 1.8457-9.1054 1.2014-2.5104 2.837-4.3069 5.0371-5.6035 2.1948-1.2942 4.8114-1.9719 7.9863-1.9747zm-72.473 0.01h0.08c2.3984 0 4.7978 0.4876 7.2128 1.3281l-0.1328 0.3496c-2.5245-0.864-4.9545-1.4531-7.2168-1.4531-2.2808 0-4.4063 0.5028-6.0175 1.9023-1.5307 1.302-2.3731 3.3045-2.3731 5.291 0 1.3238 0.2941 2.615 0.9238 3.7266l0.01 0.012 0.01 0.01c0.6591 1.1372 1.6165 2.0082 2.7402 2.7617 0.3051 0.2067 0.6336 0.4044 0.998 0.6074 0.3627 0.2021 0.7617 0.4126 1.2051 0.6309 0.889 0.4373 1.9354 0.9053 3.1484 1.4199 1.2834 0.5413 2.3799 1.0634 3.2754 1.5468 0.4444 0.2399 0.8398 0.4729 1.1797 0.6894l0.027 0.018c0.3243 0.208 0.6046 0.4083 0.8321 0.5879l0.019 0.016c0.9784 0.7862 1.6142 1.5792 2.0195 2.4356 0.3993 0.8646 0.6446 1.9344 0.6446 3.3261 0 2.7239-0.8009 4.4191-2.584 5.8516-1.7895 1.4352-4.4147 2.2852-8.1582 2.2852-3.1299 0-5.6334-0.4546-7.6543-1.1875v-0.5196c0.7504 0.2464 1.4397 0.5974 2.2246 0.7891 2.0248 0.4985 3.9718 0.7598 5.8144 0.7598 2.6928 0 5.0293-0.4776 6.8204-1.9375h0.01c1.6522-1.36 2.5918-3.4875 2.5918-5.6367 0-2.0032-0.8647-3.9725-2.3223-5.3554-0.7837-0.7388-1.7225-1.3367-2.8926-1.9687-1.1752-0.634-2.583-1.282-4.25-1.9688-1.0796-0.4453-2.0209-0.9076-2.8457-1.3789h-0.01c-0.1479-0.084-0.2102-0.1162-0.1718-0.094l-0.1563-0.09c-0.072-0.046-0.1285-0.082-0.248-0.1563-0.1952-0.122-0.3401-0.2083-0.4023-0.25-0.2477-0.1656-0.4784-0.3301-0.6914-0.4941-0.2081-0.1602-0.4045-0.3257-0.5918-0.4941l0.1406 0.3164c-0.1415-0.1786-0.2826-0.3132-0.4316-0.4336l0.2832 0.1093c-0.3636-0.3274-0.6609-0.6483-0.8965-0.955-1.0258-1.3309-1.5332-2.83-1.5332-4.8613 0-2.5205 0.729-4.0812 2.3418-5.4141 1.6201-1.3309 3.8563-2.0842 7.0449-2.0976zm-143.03 0.01h0.1582c2.3959 0 4.7902 0.5439 7.1953 1.3789l-0.1152 0.3028c-2.525-0.8642-4.9555-1.4532-7.211-1.4532-2.2925 0-4.4207 0.5029-6.0312 1.9043-1.5193 1.2997-2.3672 3.295-2.3672 5.2891 0 1.312 0.2886 2.6188 0.9512 3.75 0.647 1.1165 1.5972 2.0033 2.7402 2.7617 1.2266 0.8305 2.9221 1.6342 5.373 2.6621 1.2711 0.5399 2.3606 1.0586 3.252 1.541 0.443 0.2398 0.8387 0.4713 1.1816 0.6895 0.3346 0.2131 0.6183 0.4138 0.8535 0.5977 1.0042 0.7976 1.6427 1.5989 2.0274 2.4355v0.01 0.01c0.3992 0.8552 0.6406 1.9279 0.6406 3.332 0 2.7237-0.7998 4.4188-2.586 5.8516-1.7988 1.4394-4.4114 2.2851-8.1601 2.2851-3.1232 0-5.6257-0.4524-7.6387-1.1836v-0.5195c0.7445 0.2446 1.4293 0.5947 2.2051 0.7852 2.0323 0.4975 3.9761 0.7578 5.8204 0.7578 2.69 0 5.0307-0.4731 6.8242-1.9375 1.6616-1.3599 2.6016-3.4942 2.6016-5.6426 0-2.0079-0.8709-3.9728-2.3262-5.3535-0.7864-0.7422-1.7272-1.3373-2.8965-1.9687-1.1756-0.6336-2.582-1.2821-4.2442-1.9688-1.1651-0.4809-2.1784-0.9782-3.0351-1.4804-0.2554-0.1496-0.4914-0.2995-0.7188-0.4493l-0.086-0.057c-0.2311-0.1543-0.4395-0.3053-0.6367-0.4551l-0.064-0.049c-0.2081-0.1603-0.4048-0.3241-0.5898-0.4902l0.1406 0.3124c-0.141-0.1774-0.2833-0.3099-0.4316-0.4296l0.2832 0.1074c-0.3631-0.3266-0.6587-0.6459-0.8946-0.9531-1.028-1.3306-1.5351-2.8266-1.5351-4.8574 0-2.5242 0.7224-4.0828 2.334-5.4141 1.6049-1.3174 3.841-2.0611 6.9824-2.0879zm-185.88 0.1504v0.2383c-3.0736 0.5004-5.753 1.9062-7.5742 4.2754-2.3093 2.9833-3.2656 7.0332-3.2656 11.939 0 4.9179 0.9491 8.9718 3.2246 11.961 1.7179 2.2375 4.2029 3.7177 7.045 4.2656 0.953 0.1814 1.9443 0.2656 2.9727 0.2656 4.1059 0 7.7196-1.533 10.016-4.4981 2.2858-2.9751 3.2187-7.0357 3.2187-12 0-4.9017-0.9366-8.9344-3.1797-11.914-1.9855-2.6169-5.0177-4.1519-8.4551-4.4629-0.4961-0.044-1.0011-0.064-1.5117-0.064zm211.7 0.3438h0.9727v0.01h0.018v32.307h-0.9903zm-78.383 0h3.3379l17.912 29.574h4.1582l-0.1289-2.623c-0.02-0.3994-0.093-1.7978-0.1894-4.25v-0.037-0.037c-0.1424-2.064-0.1401-3.5498-0.1426-4.8477v-17.779h0.4609v0.01h0.012v32.305h-3.4004l-17.965-29.715h-4.0508zm343.41 0c1.1027 0 2.1199 0.055 3.0488 0.1582 0.1964 0.022 0.428 0.061 0.7402 0.1074 0.2827 0.042 0.4826 0.065 0.5567 0.078 2.081 0.3702 3.5712 1.0213 4.5821 1.8164 1.6172 1.3072 2.4472 3.0985 2.4472 6.2051v0.01c-0 3.1828-1.1247 5.148-3.8457 6.711 1.807-1.5875 2.6719-3.9854 2.6719-6.5039 0-2.6311-1.0181-5.1868-3.1133-6.6114-1.4859-1.0104-3.2798-1.5045-5.3223-1.7051-0.6828-0.065-1.3979-0.098-2.1484-0.098h-3.9414l2.4981 2.4981h-4.9981v14.699h6.625c1.3518 0 2.5655-0.1592 3.7168-0.4082l-0.4043 0.168 9.4805 15.182h-0.8809l-8.7265-14.896h-9.8086v14.906h-0.9864v-32.311zm-441.77 0h15.623v0.1562h-14.678v16.658h13.758v0.1739h-13.758v15.316h-0.9453zm32.338 0h15.615v0.1562h-14.684v16.658h13.758v0.1739h-13.758v15.316h-0.9317zm440.4 0v32.307h-0.9902v-32.305zm15.656 0h22.453v0.2383h-10.748v32.068h-0.9785v-32.064h-10.727zm-569.57 0.01h0.8125l-10.5 19.713v12.59h-1.0098v-12.377l-10.467-19.922h0.8262l10.174 20.037zm494.71 0h0.9824v21.646c0 2.4053-0.4907 4.3637-1.416 6.0078-0.9255 1.6442-2.1886 2.8592-3.9688 3.7637-1.7769 0.8959-3.9957 1.3984-6.7305 1.3984-1.0224 0-1.9688-0.071-2.8437-0.2051-0.4263-0.065-0.8362-0.1466-1.2305-0.2422-1.9888-0.4823-3.5063-1.3109-4.748-2.5215-1.989-1.9363-3.0137-4.5204-3.0137-8.3067v-21.537h1.0078v21.109c0 3.4566 0.7792 6.4428 2.7891 8.5352 6e-4 6e-4 0 0 0 0 0.9943 1.0392 2.2547 1.8032 3.6524 2.2813 0.3531 0.1206 0.7107 0.2211 1.0723 0.3066 1.0951 0.2565 2.2608 0.373 3.4961 0.373 3.2642 0 6.1895-0.9465 8.1621-3.0664 1.9725-2.1199 2.7793-5.0911 2.7793-8.498zm130.98 0h0.8204l-10.5 19.713v12.59h-1.0157v-12.375l-10.475-19.924h0.8438l10.166 20.031zm-479.85 0h15.662v0.1543h-14.676v15.156h13.758v0.1074h-13.758v16.705h14.676v0.1797h-15.662zm-202.71 0h8.3379c0.9471 0 1.4318 0.1923 2.2578 0.248-0.6474-0.053-1.2273-0.164-1.9434-0.164h-7.6621v32.08h8.8106c2.8338 0 5.2815-0.5422 7.1719-1.9824 1.9737-1.5129 2.8828-4.0169 2.8828-6.6172 0-2.0027-0.8303-3.8389-2.1289-5.2715 0.031 0.013 0.079 0.019 0.1094 0.031 0.9808 0.4079 1.6338 0.8961 2.0997 1.4589 0.7616 0.9257 1.2363 2.2362 1.2363 4.3145 0 2.7792-0.7929 4.5118-2.5235 5.9512-1.727 1.4393-4.2628 2.2637-7.959 2.2637h-10.68v-0.01h-0.012zm355.59 0h0.9082l-9.8301 28.676c0.1979-1.067 0.4462-2.2437 0.8125-3.6504v-0.016c6e-4 -0 0-0 0-0.01 0.4496-1.6617 0.8119-2.9038 1.0508-3.5801l0.01-0.027zm-23.93 0h0.8398l7.0703 21.525 0.018 0.049c0.3578 0.9537 0.7536 2.3183 1.2051 4.0351v-0.016c0.4021 1.5671 0.6311 2.6555 0.7754 3.4277zm40.771 0h15.65v0.1563h-14.688v15.154h13.775v0.1035h-13.773v16.705h14.686v0.1816h-15.65zm85.285 0h15.664v0.1563h-14.68v15.154h13.754v0.1035h-13.754v16.705h14.68v0.1816h-15.664zm49.938 0.084h0.018c-0.026 6e-4 -0.06 0-0.061 0h0.043zm0.418 0.025h0.022c-0.01-0-0.014-0-0.022-0.01zm-495.27 0.377c0.8215 0.1226 1.9958 0.1078 2.6387 0.291l0.086 0.025c0.314 0.092 0.6096 0.187 0.8808 0.291 0.5897 0.2252 1.0707 0.4743 1.4453 0.7246 1.5453 1.0289 2.2403 2.3547 2.2403 5.0117 0 1.7552-0.408 2.9677-1.1309 3.9297-0.3903 0.5083-0.8807 0.889-1.4726 1.1934 0.8319-1.2894 1.3886-2.7692 1.3886-4.3965 0-2.334-1.0542-4.6793-3.0078-5.918-0.9133-0.5759-1.9543-0.912-3.0723-1.1523zm286.97 1.3418c3e-4 -1e-4 -0.098 0.01-0.098 0.01 1e-4 0-0.046-2e-4 -0.088 0 0.08-0 0.1845-0.01 0.1855-0.01zm207.64 2.6543c-0.031 0.1974-0.085 0.5469-0.086 0.5547l-0.1972-0.024c0.2867 0.069 0.5681 0.1495 0.8398 0.2403zm-401.85 0.1543h0.047c0.3564 0 0.6988 0.015 1.0176 0.043 2.3507 0.2128 3.7643 0.9864 4.916 2.502 1.3124 1.7453 2.1738 4.6584 2.1738 8.9023 0 4.3159-0.8703 7.2411-2.1836 8.9512-3e-4 4e-4 3e-4 0 0 0-1.3438 1.7316-3.0604 2.5527-6.0566 2.5527-0.7491 0-1.4253-0.062-2.0332-0.1777-1.8129-0.3495-3.0148-1.0904-4.0176-2.3926-1.3338-1.7529-2.2031-4.6725-2.2031-8.9297 0-4.2417 0.8674-7.1331 2.2187-8.8789 1.3306-1.7346 3.0821-2.5644 6.1133-2.5644zm402.09 0.4394c0.036 0 0.081 0.01 0.094 0.01-0.016 4e-4 -0.024 0-0.035 0zm-501.67 0h2.6621c1.2201 0 2.2244 0.091 2.9922 0.2422 5e-4 1e-4 0-1e-4 0 0 0.7638 0.1535 1.2807 0.3699 1.5644 0.5488 0.5097 0.3238 0.6797 0.5259 0.6797 1.6914 0 1.4402-0.2674 1.793-0.6582 2.0723-0.4507 0.3124-1.8183 0.7597-4.0273 0.7597h-3.2149zm571.98 0.068h1.4414c0.606 0 1.1625 0.026 1.666 0.074 1.4994 0.1472 2.4835 0.5118 3 0.8632 0.6212 0.422 0.9238 0.8878 0.9238 2.4766 0 1.5856-0.3496 2.2632-0.9746 2.791-0.5367 0.4531-1.9697 0.9902-4.4336 0.9902h-1.625zm-69.256 0.2266c0.038 0 0.1075 0.01 0.1114 0.01-0.022 6e-4 -0.033 0-0.049 0zm-272.33 0.3926 0.078 1.1386c0.219 3.1292 0.3516 5.9673 0.3516 8.504v16.885h-0.4297zm-222.67 8.9746v1.0078l-1.1152-0.1836c-0.3229-0.053-0.6404-0.092-0.9532-0.125-0.6188-0.063-1.2687-0.087-1.9375-0.092 1.4861-0.029 2.8085-0.24 4.0117-0.6055zm3.1309 2.457 0.016 0.012c-4e-4 -3e-4 -0 4e-4 -0 0-0.01-0-0.01-0.012-0.012-0.016zm-10.861 3.1406h3.541c0.5873 0 1.1227 0.026 1.6016 0.074 0.2437 0.025 0.466 0.054 0.6602 0.086 1.0647 0.1753 1.7556 0.4799 2.1406 0.7617l0.018 0.012 0.019 0.014c0.6159 0.4342 0.8906 0.883 0.8906 2.2676 0 1.6187-0.3306 2.191-0.9238 2.6465-7e-4 5e-4 -0 0-0 0-0.6728 0.5104-1.9639 0.9551-4.1347 0.9551h-3.8106zm340.5 8.8868-1.0547 3.0761h-2.0117v-0.01h-0.7285l-1.0371-3.0391zm73.064 1.6289s0.034 1e-4 0.053 0c-0.067 0-0.1496 0.01-0.1504 0.01-3e-4 1e-4 0.098-0.01 0.098-0.01zm-142.95 0.014s0.035 1e-4 0.057 0c-0.068 0-0.1535 0.01-0.1543 0.01-4e-4 1e-4 0.098-0.01 0.098-0.01zm143.07 4.9805c0.025-1e-4 0.029 1e-4 0.051 0-0.018 6e-4 -0.029 0-0.043 0z" style="color-rendering:auto;color:#000000;dominant-baseline:auto;filter:url(#i);font-feature-settings:normal;font-variant-alternates:normal;font-variant-caps:normal;font-variant-ligatures:normal;font-variant-numeric:normal;font-variant-position:normal;image-rendering:auto;isolation:auto;mix-blend-mode:normal;shape-padding:0;shape-rendering:auto;solid-color:#000000;text-decoration-color:#000000;text-decoration-line:none;text-decoration-style:solid;text-indent:0;text-orientation:mixed;text-transform:none;white-space:normal"/><rect transform="rotate(-37.564)" x="-147.3" y="-125.54" width="107.95" height="942.27" filter="url(#h)" opacity=".3" style="paint-order:normal"/><path d="m141.09 93.075 221.33 287.77v-137.34l-115.7-150.43z" filter="url(#e)" opacity=".3" style="paint-order:normal"/><rect transform="rotate(-37.564)" x="-36.142" y="-135.83" width="83.728" height="948.49" opacity=".25" style="paint-order:normal"/><rect transform="rotate(-37.564)" x="-144.31" y="-89.661" width="21.032" height="921.87" fill="#1d1f27" style="paint-order:normal"/><path transform="scale(.26458)" d="m533.24 331.78 836.52 1087.6v-519.07l-437.29-568.57h-399.22z" fill="url(#b)" style="paint-order:normal"/><path d="m-107.73-75.517-85.568 65.811 24.429 31.763 16.487-12.68 550.03 715.15 69.081-53.131z" filter="url(#g)" opacity=".3" style="paint-order:normal"/><path transform="scale(.26458)" d="m-407.17-305.42-323.41 248.73 92.33 120.05 62.314-47.926 2078.8 2702.9 261.09-200.81-2171.2-2823z" fill="#272a34" style="paint-order:normal"/><path d="m-45.087-131.39-66.369 51.045 254.53 330.94h105.63z" filter="url(#f)" opacity=".3" style="paint-order:normal"/><path transform="scale(.26458)" d="m-170.41-516.58-250.84 192.93 962.01 1250.8h399.22l-1110.4-1443.7z" fill="url(#c)" style="paint-order:normal"/><g transform="matrix(.49844 0 0 .50952 715.43 166.13)" clip-rule="evenodd" fill-rule="evenodd"><path d="m81.17 145.29c-5.2331 0.0408-9.8259 3.3438-11.564 8.2637-0.56825 1.5996-0.73438 3.2187-0.73438 4.8965v164.92c0.19351 6.8719 5.5697 12.231 12.379 12.248 14.273 0.0189 43.666-0.0508 43.666-0.0508l-0.0527-12.764h-42.871c-0.22753-1.371-0.17072-162.77 0.05078-163.51 1.3133-0.18331 346.9-0.11711 347.66 0.0606 0.209 1.2448 0.14852 162.66-0.0801 163.51h-289.02v12.766s1.1283-1e-3 1.6445 0.0176h288.62c5.1761-0.0514 9.763-3.2979 11.527-8.1777 0.5682-1.5544 0.73047-3.1562 0.73047-4.7949v-165.23c-0.1088-5.4584-3.823-10.252-9.0781-11.703h-0.0176c-1.3916-0.37228-2.779-0.43945-4.2168-0.43945zm160.93 48.426c-0.10811 0.2075-0.1858 0.35815-0.22852 0.5-11.713 31.409-23.414 62.832-35.123 94.236-0.0514 0.0514-0.0508 0.14852-0.0508 0.20899v0.0996c0 0.0408 0.0514 0.0602 0.0605 0.10742h16.078l0.0293 6e-3c0.12396-0.35829 0.26691-0.66657 0.375-1 2.4896-7.073 4.9821-14.134 7.4785-21.213 0.41529-1.1378 0.82782-2.2814 1.2031-3.4238 0.14854-0.4769 0.39164-0.72641 0.89453-0.66601 0.1629 0.0189 0.35207 0 0.51757 0h35.145c3.1769 8.8018 6.3315 17.54 9.4746 26.279h16.451c-11.868-31.798-23.685-63.47-35.48-95.135zm-61.836 0.32031c-0.91684 0-1.4947 0.26694-2.0996 0.97851-12.25 14.507-24.53 29.016-36.809 43.506-0.16289 0.18556-0.37472 0.35157-0.72852 0.67774v-36.088c0-2.987 0.0514-5.9842 0-8.9727h-15.406v94.629c1.223 0.21468 14.605 0.1695 15.43-0.0527v-1.2031l-0.043-6e-3v-33.008c0-0.74445 0.21031-1.2683 0.81836-1.7402 2.5493-2.0159 5.0644-4.0885 7.5801-6.1465 0.25096-0.18633 0.49365-0.35168 0.80664-0.58008 0.27137 0.35074 0.50023 0.63776 0.71094 0.95313 4.2762 6.1693 8.5566 12.333 12.83 18.492 5.2437 7.5874 10.496 15.14 15.729 22.691 0.29065 0.43835 0.55681 0.76953 1.2012 0.76953 5.5098-0.0189 11.014-0.0176 16.518-0.0176 0.18218 0 0.36992-0.0612 0.66016-0.12695-12.185-17.746-24.32-35.37-36.492-53.1 2.4488-2.8427 4.8172-5.5772 7.1836-8.3809 2.3725-2.7449 4.7368-5.4997 7.1055-8.2637 2.3651-2.757 4.7127-5.5175 7.084-8.2774 2.3664-2.7662 4.7366-5.5268 7.0762-8.2852 2.3558-2.7376 4.6943-5.4764 7.1914-8.4297h-1.3887c-4.9863 0-9.97 0.0296-14.957-0.0195zm124.84 0.0996c-0.25701 1.1832-0.19489 93.964 0.0508 94.742h55.42v-13.184h-26.734c-2.2474 0-4.5106 0.0189-6.748 0-2.2054-0.0189-4.4021 0.0815-6.6895-0.0508v-74.188l-0.0137-0.0137c0-2.4505 0.0907-4.8794-0.0703-7.3066zm66.014 0.0293v94.686h15.348c0.051-0.15912 0.0899-0.24422 0.0899-0.35156v-93.781l-8e-3 2e-3c0-0.14702 2.1e-4 -0.26933-0.0508-0.42187 0-0.0408-0.0527-0.051-0.0527-0.0801 0-0.0189-0.0605-0.0527-0.0605-0.0527zm-120.77 13.252c0.16291 0.24869 0.28976 0.40065 0.33399 0.56445 2.5735 9.6091 6.0907 18.932 9.2852 28.357 1.327 3.922 2.7018 7.8218 4.0527 11.746 0.1028 0.35112 0.20536 0.70253 0.33007 1.1367h-27.605c0.12319-0.40895 0.22823-0.76152 0.34765-1.1133 3.24-9.3819 6.5265-18.722 9.6836-28.129 1.2668-3.7807 2.2224-7.6812 3.3008-11.537 0.0911-0.29216 0.14864-0.58553 0.27148-1.0254zm-120.16 139.35c-2.9257 0-5.1805 0.85852-6.7539 2.5723-1.5795 1.7167-2.3711 4.1681-2.3711 7.3652 0 3.1975 0.78678 5.6649 2.3574 7.4024 1.5675 1.7358 3.8113 2.6016 6.7363 2.6016 2.8962 0 5.1286-0.87734 6.7051-2.6211 1.5792-1.7513 2.3691-4.1969 2.3691-7.3555 0-3.1615-0.78352-5.6142-2.3633-7.3535-1.5736-1.741-3.8004-2.6113-6.6797-2.6113zm97.432 0.0332c-1.9346 0-3.48 0.46586-4.6289 1.3887-1.1495 0.92791-1.7227 2.2036-1.7227 3.8164 0 1.2929 0.36394 2.3949 1.0918 3.3164 0.7214 0.91892 1.968 1.7317 3.7402 2.4473 1.7079 0.69018 2.8419 1.2844 3.3906 1.791 0.54609 0.50684 0.82031 1.1193 0.82031 1.8379 0 0.80402-0.29574 1.4464-0.89453 1.9258-0.59449 0.47489-1.5256 0.71485-2.7812 0.71485-0.85233 0-1.7828-0.1197-2.7754-0.35743-0.9975-0.23962-1.9316-0.56437-2.8144-0.98046v2.9941c1.3961 0.67514 3.1884 1.0215 5.377 1.0215 2.1945 0 3.9137-0.49489 5.1621-1.4727 1.2455-0.9773 1.8691-2.3296 1.8691-4.0508 0-0.88059-0.15791-1.6361-0.46484-2.2793-0.30501-0.64887-0.79554-1.2262-1.457-1.7402h6e-3c-0.66795-0.51306-1.7115-1.0665-3.127-1.6543-1.2696-0.52089-2.1464-0.94335-2.6289-1.2637-0.48949-0.31711-0.83557-0.65416-1.0449-1.0078-0.21732-0.36095-0.32422-0.79108-0.32422-1.2949 0-0.73146 0.26538-1.3253 0.79493-1.7656 0.52898-0.45241 1.3087-0.67187 2.3359-0.67187 1.348 0 2.8889 0.35864 4.6152 1.0859l1-2.5781c-1.83-0.81408-3.68-1.2226-5.5391-1.2226zm75.889 0c-1.9356 0-3.4752 0.46586-4.623 1.3887-1.1489 0.92791-1.7266 2.2036-1.7266 3.8164 0 1.2929 0.36383 2.3949 1.0898 3.3164 0.7214 0.91892 1.9667 1.7317 3.7402 2.4473 1.7128 0.69018 2.8414 1.2844 3.3906 1.791 0.54607 0.50684 0.82031 1.1193 0.82031 1.8379 0 0.80402-0.29726 1.4464-0.89257 1.9258-0.59554 0.47489-1.5258 0.71485-2.7832 0.71485-0.85137 0-1.7809-0.1197-2.7676-0.35743-1.0035-0.23962-1.9371-0.56437-2.8262-0.98046v2.9941c1.4019 0.67514 3.1931 1.0215 5.3848 1.0215 2.1918 0 3.9164-0.49489 5.1621-1.4727 1.2436-0.9773 1.8672-2.3296 1.8672-4.0508 0-0.88059-0.16179-1.636-0.46679-2.2793-0.31332-0.64887-0.79826-1.226-1.457-1.7402-0.66399-0.51306-1.7102-1.0665-3.1348-1.6543-1.2549-0.52089-2.1395-0.94335-2.6211-1.2637-0.48344-0.31711-0.83539-0.65416-1.0449-1.0078-0.20902-0.36095-0.31836-0.79108-0.31836-1.2949 0-0.73146 0.26348-1.3253 0.79687-1.7656 0.52891-0.45241 1.3091-0.67187 2.3301-0.67187 1.354 0 2.8933 0.35864 4.6191 1.0859l1-2.5781c-1.8319-0.81408-3.6828-1.2226-5.5391-1.2226zm38.439 0c-1.8828 0-3.5294 0.40072-4.9238 1.2051-1.3928 0.80297-2.4586 1.96-3.1973 3.4707-0.73848 1.5154-1.1074 3.2771-1.1074 5.2871 0 3.2004 0.76021 5.6551 2.2832 7.3691 1.5194 1.7232 3.7 2.582 6.5352 2.582 1.9224 0 3.6492-0.29314 5.1699-0.85742v-2.7227c-0.82808 0.2623-1.6309 0.47022-2.4004 0.63867-0.76574 0.16139-1.5673 0.24219-2.3867 0.24219-1.8965 0-3.3492-0.61219-4.3555-1.832-1.0015-1.2162-1.5039-3.0211-1.5039-5.3887 0-2.2758 0.52356-4.0469 1.5664-5.3418 1.0426-1.2928 2.4708-1.9336 4.2891-1.9336l2e-3 -2e-3c0.80198 0 1.5696 0.11194 2.3027 0.35156 0.72847 0.23282 1.4182 0.5062 2.0742 0.81446l1.1387-2.6348c-1.677-0.83324-3.5131-1.248-5.4863-1.248zm-251.03 0.27148 6.4258 11.967v7.4043h3.1836v-7.5117l6.457-11.859h-3.4492l-4.584 8.8418-4.5898-8.8418zm55.191 0v19.371l-2e-3 2e-3h3.1484v-7.9531h7.3027v-2.6875h-7.3027v-6.0547h7.791v-2.6777zm17.166 0v19.371l-2e-3 2e-3h3.1445v-7.9531h7.3027v-2.6875h-7.3027v-6.0547h7.7949v-2.6777zm17.164 0v19.373h10.963v-2.6895h-7.791v-6.0801h7.3027v-2.6524h-7.3027v-5.2754h7.791v-2.6758zm17.879 0v19.373h2.877v-10.066c0-1.3621-0.0719-2.863-0.18945-4.5059l-0.0606-0.85742h0.10156l9.5371 15.432h3.875v-19.371h-2.8984v10.15h-0.0117c0 0.71233 6.9e-4 1.705 0.0918 2.9844 0.0514 1.2794 0.0894 2.0193 0.0996 2.2207h-0.0703l-9.5098-15.359zm72.221 0v19.377h10.955v-2.6934h-7.7949v-6.0801h7.3105v-2.6504h-7.3105v-5.2754h7.7949v-2.6777zm45.271 0v19.377h10.963v-2.6934h-7.793v-6.0801h7.3008v-2.6504h-7.3008v-5.2754h7.793v-2.6777zm-242.97 2e-3v19.373h6.9961c2.1641 0 3.8561-0.48349 5.0742-1.4766 1.2136-0.98744 1.8184-2.35 1.8184-4.0879 0-1.2927-0.324-2.3124-0.96093-3.0684-0.64275-0.75969-1.6401-1.2629-2.998-1.5215v-0.13086c1.0947-0.19124 1.9364-0.66541 2.5215-1.4141 0.57732-0.74963 0.86914-1.6923 0.86914-2.8242 0-1.6777-0.59051-2.908-1.7812-3.6836-1.1872-0.77586-3.1204-1.166-5.7852-1.166zm167.09 2e-3v19.373h3.1699v-19.373zm8.4356 0 6.7617 19.373h3.3438l6.7871-19.373h-3.291l-4.0332 11.99c-0.15382 0.42618-0.34637 1.0839-0.58985 1.9648-0.23469 0.88055-0.41528 1.6622-0.52929 2.3281-0.0805-0.44017-0.22709-1.1111-0.46485-2.0176-0.24378-0.90674-0.46081-1.6449-0.68164-2.2207l-4.043-12.045zm105.07 0v12.484c0 2.2202 0.66552 3.9734 2 5.2441 1.3371 1.2752 3.2 1.9102 5.6035 1.9102 1.6169 0 3.0111-0.29289 4.1738-0.86719 1.1596-0.57628 2.047-1.4057 2.6621-2.4746 0.61663-1.0718 0.92188-2.3262 0.92188-3.7559v-12.539h-3.166v12.227l-2e-3 2e-3c0 3.1358-1.4903 4.707-4.4805 4.707-1.5352 0-2.6825-0.38505-3.4219-1.1426-0.74354-0.75567-1.1133-1.9342-1.1133-3.5352v-12.26zm43.096 0v19.373h3.168v-19.373zm8.8359 0v2.7207h5.6934v16.652h3.1641v-16.652h5.7051v-2.7207zm-28.9 2e-3v19.373h3.168v-7.7402h3.127l4.6348 7.7363h3.6113l-5.4726-8.5723c2.5119-1.0246 3.7623-2.7358 3.7637-5.1523v-4e-3c-8.6e-4 -1.886-0.60223-3.2942-1.7969-4.2363-1.2053-0.93192-3.0575-1.4043-5.5586-1.4043zm46.584 0 6.4316 11.967v7.4043h3.1816v-7.5117l6.457-11.859h-3.4473l-4.5859 8.8418-4.5879-8.8418zm-292.85 2.4121c1.8832 0 3.2929 0.60843 4.248 1.8398 0.94401 1.2267 1.4219 3.031 1.4219 5.4062 0 2.4098-0.47824 4.2232-1.4336 5.4395-0.96623 1.2207-2.3816 1.834-4.2676 1.834-1.8893 0-3.316-0.61722-4.2832-1.8496-0.95807-1.2312-1.4394-3.0412-1.4394-5.4238 0-2.3752 0.48355-4.1783 1.4551-5.4062 0.96419-1.2297 2.3993-1.8398 4.2988-1.8398zm-54.186 0.23047h2.7402c1.435 0 2.4763 0.20233 3.1426 0.61328 0.65495 0.40626 0.98047 1.0669 0.98047 1.9766 0 1.0055-0.30191 1.7128-0.91211 2.1367-0.60654 0.4153-1.5789 0.63086-2.9023 0.63086h-3.0488zm303.62 0.0352h2.0918c1.4423 0 2.5227 0.23916 3.2344 0.71289 0.7214 0.47935 1.0723 1.2655 1.0723 2.3613 0 1.0778-0.32408 1.8927-0.98828 2.4414-0.65849 0.54384-1.7349 0.82005-3.2109 0.82031h-2.1992zm-303.62 7.8885h3.2051c1.4064 0 2.4556 0.24468 3.1367 0.73243 0.69516 0.47939 1.0371 1.2326 1.0371 2.2383 0 1.0959-0.33016 1.8931-1.0117 2.4043v2e-3c-0.68002 0.50684-1.6745 0.76367-3.0039 0.76367h-3.3633z" filter="url(#d)" opacity=".3" stroke-width=".78947"/><path d="m434.03 145.73c-1.3916-0.37228-2.7798-0.44066-4.2176-0.44066h-348.65c-5.2331 0.0408-9.8268 3.3448-11.565 8.2647-0.56825 1.5996-0.73349 3.2186-0.73349 4.8964v164.92c0.19351 6.8719 5.5699 12.231 12.379 12.248 14.273 0.0189 43.665-0.0514 43.665-0.0514l-0.0518-12.763h-42.871c-0.22752-1.371-0.1697-162.77 0.0518-163.51 1.3133-0.18331 346.9-0.11716 347.66 0.0605 0.209 1.2448 0.1486 162.66-0.08 163.51h-289.02v12.764s1.128 0 1.6443 0.0189h288.62c5.1761-0.0514 9.7622-3.2983 11.526-8.1781 0.5682-1.5544 0.73151-3.1568 0.73151-4.7955v-165.23c-0.1088-5.4584-3.8237-10.253-9.0788-11.704zm-293.42 141.77v-33.007c0-0.74445 0.209-1.2672 0.81705-1.7392 2.5493-2.0159 5.0642-4.0891 7.5798-6.147 0.25096-0.18633 0.49496-0.35187 0.80795-0.58027 0.27137 0.35074 0.49961 0.6378 0.71032 0.95316 4.2762 6.1693 8.5557 12.332 12.829 18.491 5.2437 7.5874 10.496 15.14 15.729 22.692 0.29065 0.43835 0.55733 0.77072 1.2017 0.77072 5.5098-0.0189 11.014-0.0189 16.517-0.0189 0.18218 0 0.36964-0.0605 0.65987-0.12623-12.185-17.746-24.32-35.369-36.492-53.099 2.4488-2.8427 4.8178-5.5786 7.1841-8.3822 2.3725-2.7449 4.7365-5.4992 7.1051-8.2632 2.3651-2.757 4.7131-5.5185 7.0844-8.2783 2.3664-2.7662 4.7365-5.526 7.076-8.2844 2.3558-2.7376 4.6946-5.4765 7.1917-8.4298h-1.3883c-4.9863 0-9.97 0.0302-14.957-0.0189-0.91684 0-1.495 0.26569-2.1 0.97726-12.25 14.507-24.53 29.016-36.808 43.506-0.16289 0.18556-0.37455 0.35187-0.72835 0.67804v-36.088c0-2.987 0.0514-5.983 0-8.9715h-15.406v94.628c1.223 0.21468 14.605 0.17084 15.43-0.0514v-1.204zm82.258 1.3696c0.12396-0.35829 0.2657-0.66602 0.37378-0.99945 2.4896-7.073 4.9818-14.134 7.4782-21.213 0.41529-1.1378 0.82821-2.2819 1.2035-3.4244 0.14854-0.4769 0.39175-0.72642 0.89464-0.66602 0.1629 0.0189 0.35226 0 0.51776 0h35.144c3.1769 8.8018 6.3318 17.54 9.4749 26.279h16.452c-11.868-31.798-23.686-63.47-35.481-95.134h-16.823c-0.10811 0.2075-0.18747 0.35868-0.23019 0.50053-11.713 31.409-23.413 62.831-35.122 94.235-0.0514 0.0514-0.0514 0.14854-0.0514 0.20901v0.10054c0 0.0408 0.0514 0.0605 0.0605 0.10771h16.078zm14.223-40.766c3.24-9.3819 6.5261-18.722 9.6832-28.129 1.2668-3.7807 2.2217-7.6804 3.3002-11.536 0.0911-0.29216 0.14854-0.58538 0.27138-1.0252 0.1629 0.24869 0.29027 0.40037 0.33449 0.56417 2.5735 9.6091 6.0914 18.932 9.2859 28.358 1.327 3.922 2.7014 7.8202 4.0524 11.744 0.1028 0.35112 0.20447 0.70232 0.32919 1.1365h-27.605c0.12321-0.40895 0.22753-0.76067 0.34696-1.1124zm83.301-46.666c0-2.4505 0.0903-4.8786-0.0707-7.3058h-15.215c-0.25701 1.1832-0.19427 93.963 0.0514 94.741h55.419v-13.182h-26.733c-2.2474 0-4.5124 0.0189-6.7499 0-2.2054-0.0189-4.4016 0.0809-6.689-0.0514v-74.188zm66.157-6.7226c0-0.14702 0-0.2691-0.051-0.42164 0-0.0408-0.051-0.0514-0.051-0.0805 0-0.0189-0.061-0.0514-0.061-0.0514h-15.267v94.685h15.348c0.051-0.15912 0.09-0.24378 0.09-0.35112v-93.781z" fill="#fff" stroke-width=".52502"/><path d="m82.764 356.29v-0.1304c1.0947-0.19124 1.9355-0.66595 2.5206-1.4146 0.57732-0.74963 0.86854-1.6912 0.86854-2.8231 0-1.6777-0.5904-2.9089-1.7811-3.6845-1.1872-0.77586-3.1202-1.1666-5.785-1.1666h-5.7532v19.373h6.9959c2.1641 0 3.8551-0.48344 5.0733-1.4765 1.2136-0.98744 1.8199-2.3496 1.8199-4.0876 0-1.2927-0.32428-2.312-0.96121-3.068-0.64275-0.75969-1.6397-1.2628-2.9977-1.5214zm-6.7631-6.5726h2.7406c1.435 0 2.4761 0.20258 3.1423 0.61353 0.65495 0.40626 0.98041 1.0673 0.98041 1.977 0 1.0055-0.30161 1.7136-0.91181 2.1376-0.60654 0.4153-1.5795 0.63073-2.9029 0.63073h-3.049zm6.3678 13.301c-0.68002 0.50684-1.6737 0.76369-3.0032 0.76369h-3.365v-6.1398h3.2052c1.4064 0 2.4564 0.24378 3.1376 0.73153 0.69516 0.47939 1.0361 1.2328 1.0361 2.2385 0 1.0959-0.3292 1.8941-1.0108 2.4052zm16.575-7.1074-4.5883-8.8418h-3.4449l6.4263 11.968v7.4048h3.183v-7.5126l6.4577-11.859h-3.449zm31.242-9.1457c-2.9257 0-5.1821 0.85837-6.7555 2.5721-1.5795 1.7167-2.3706 4.1688-2.3706 7.3659 0 3.1975 0.78788 5.6632 2.3585 7.4007 1.5675 1.7358 3.8113 2.6023 6.7363 2.6023 2.8962 0 5.1281-0.87658 6.7045-2.6203 1.5792-1.7513 2.3687-4.1972 2.3687-7.3557 0-3.1615-0.78286-5.6145-2.3626-7.3538-1.5736-1.741-3.8007-2.6114-6.6799-2.6114zm4.2376 15.409c-0.96623 1.2207-2.3814 1.8326-4.2675 1.8326-1.8893 0-3.3165-0.61671-4.2837-1.8491-0.95807-1.2312-1.4395-3.041-1.4395-5.4236 0-2.3752 0.48344-4.1779 1.455-5.4059 0.96419-1.2297 2.3989-1.84 4.2985-1.84 1.8832 0 3.2942 0.60854 4.2493 1.84 0.94401 1.2267 1.4213 3.0306 1.4213 5.4059 0 2.4098-0.47792 4.224-1.4333 5.4402zm11.678 4.2682h3.1482v-7.9529h7.3024v-2.6863h-7.3024v-6.0552h7.79v-2.6773h-10.936v19.37zm17.165 0h3.1457v-7.9529h7.3013v-2.6863h-7.3013v-6.0552h7.7945v-2.6773h-10.938v19.37zm17.167 0h10.963v-2.6898h-7.7915v-6.0794h7.3024v-2.6517h-7.3024v-5.2751h7.7915v-2.6773h-10.963zm31.109-9.2186c0 0.71233 0 1.7062 0.0911 2.9855 0.0514 1.2794 0.0903 2.019 0.10053 2.2204h-0.0707l-9.5093-15.359h-3.8419v19.373h2.876v-10.067c0-1.3621-0.0707-2.8623-0.18822-4.5052l-0.0605-0.85852h0.10054l9.5376 15.433h3.8752v-19.373h-2.8982v10.152zm19.992-0.0522c-0.66795-0.51306-1.7118-1.0658-3.1272-1.6536-1.2696-0.52089-2.1451-0.94404-2.6276-1.2644-0.48949-0.31711-0.83626-0.65386-1.0456-1.0075-0.21732-0.36095-0.32466-0.79193-0.32466-1.2958 0-0.73146 0.26646-1.3245 0.79601-1.7648 0.52898-0.45241 1.3069-0.67204 2.3342-0.67204 1.348 0 2.8896 0.3583 4.6159 1.0856l1.0004-2.5782c-1.83-0.81408-3.6806-1.2222-5.5397-1.2222-1.9346 0-3.4792 0.46628-4.628 1.3891-1.1495 0.92791-1.7237 2.2022-1.7237 3.815 0 1.2929 0.36359 2.3949 1.0914 3.3164 0.7214 0.91892 1.9692 1.7318 3.7415 2.4473 1.7079 0.69018 2.841 1.2854 3.3897 1.792 0.5461 0.50684 0.82121 1.1198 0.82121 1.8384 0 0.80402-0.29593 1.4462-0.89472 1.9256-0.59449 0.47489-1.5266 0.71338-2.7823 0.71338-0.85233 0-1.7827-0.11868-2.7752-0.35641-0.99749-0.23962-1.9302-0.56526-2.8131-0.98135v2.9947c1.3961 0.67514 3.1886 1.0207 5.3771 1.0207 2.1945 0 3.9126-0.49403 5.161-1.4718 1.2455-0.9773 1.8698-2.3301 1.8698-4.0513 0-0.88059-0.15836-1.6358-0.46529-2.279-0.30501-0.64887-0.79593-1.2252-1.4574-1.7392zm8.386 9.275h3.1703v-19.373h-3.1703zm18.005-7.3826c-0.15382 0.42618-0.34696 1.0838-0.59043 1.9648-0.2347 0.88055-0.41485 1.6626-0.52887 2.3286-0.0805-0.44017-0.22753-1.111-0.46529-2.0175-0.24378-0.90674-0.46028-1.6461-0.68111-2.2219l-4.0433-12.044h-3.2582l6.7601 19.372h3.3437l6.7888-19.372h-3.291zm12.607 7.3826h10.956v-2.6933h-7.7953v-6.079h7.31v-2.6518h-7.31v-5.2751h7.7953v-2.6774h-10.956zm36.885-9.275c-0.66399-0.51306-1.7102-1.0658-3.1348-1.6536-1.2549-0.52089-2.1387-0.94404-2.6203-1.2644-0.48344-0.31711-0.83622-0.65386-1.0458-1.0075-0.20901-0.36095-0.31711-0.79193-0.31711-1.2958 0-0.73146 0.26156-1.3245 0.79495-1.7648 0.52891-0.45241 1.3107-0.67204 2.3317-0.67204 1.354 0 2.8924 0.3583 4.6182 1.0856l0.99951-2.5782c-1.8319-0.81408-3.6822-1.2222-5.5385-1.2222-1.9356 0-3.4756 0.46628-4.6235 1.3891-1.1489 0.92791-1.7265 2.2022-1.7265 3.815 0 1.2929 0.36434 2.3949 1.0904 3.3164 0.7214 0.91892 1.966 1.7318 3.7395 2.4473 1.7128 0.69018 2.8426 1.2854 3.3918 1.792 0.54607 0.50684 0.81914 1.1198 0.81914 1.8384 0 0.80402-0.29632 1.4462-0.89163 1.9256-0.59554 0.47489-1.5253 0.71338-2.7827 0.71338-0.85137 0-1.7823-0.11868-2.769-0.35641-1.0035-0.23962-1.9361-0.56526-2.8251-0.98135v2.9947c1.4019 0.67514 3.1934 1.0207 5.3851 1.0207 2.1918 0 3.9152-0.49403 5.1609-1.4718 1.2436-0.9773 1.8672-2.3301 1.8672-4.0513 0-0.88059-0.16026-1.6357-0.46526-2.2789-0.31332-0.64887-0.79899-1.2251-1.4578-1.7393zm8.3868 9.275h10.962v-2.6933h-7.793v-6.079h7.3024v-2.6518h-7.3024v-5.2751h7.793v-2.6774h-10.962zm26.111-16.931c0.80198 0 1.5697 0.11188 2.3029 0.3515 0.72847 0.23282 1.4182 0.50585 2.0743 0.81411l1.1399-2.6352c-1.677-0.83324-3.5139-1.2477-5.4871-1.2477-1.8828 0-3.5288 0.40128-4.9232 1.2056-1.3928 0.80297-2.4592 1.9588-3.1979 3.4695-0.73848 1.5154-1.1083 3.2772-1.1083 5.2872 0 3.2004 0.76172 5.6564 2.2847 7.3704 1.5194 1.7232 3.6985 2.5806 6.5337 2.5806 1.9224 0 3.6504-0.29216 5.1712-0.85644v-2.7219c-0.82808 0.2623-1.6322 0.47032-2.4018 0.63877-0.76574 0.16139-1.5665 0.24076-2.3859 0.24076-1.8965 0-3.3496-0.61259-4.3559-1.8324-1.0015-1.2162-1.5026-3.0202-1.5026-5.3877 0-2.2758 0.52293-4.0467 1.5658-5.3416 1.0426-1.2928 2.4715-1.9346 4.2898-1.9346zm23.704 9.7882c0 3.1358-1.4908 4.707-4.481 4.707-1.5352 0-2.6822-0.38498-3.4215-1.1425-0.74354-0.75567-1.1133-1.9332-1.1133-3.5341v-12.26h-3.1784v12.485c0 2.2202 0.66599 3.973 2.0005 5.2437 1.3371 1.2752 3.2008 1.909 5.6043 1.909 1.6169 0 3.0099-0.29214 4.1726-0.86644 1.1596-0.57628 2.0469-1.4054 2.6621-2.4743 0.61663-1.0718 0.92191-2.3271 0.92191-3.7567v-12.539h-3.1649v12.228zm23.67-6.5839c0-1.8881-0.6014-3.2967-1.7969-4.2395-1.2053-0.93192-3.057-1.4039-5.5581-1.4039h-5.4766v19.373h3.1676v-7.7397h3.1274l4.6337 7.7356h3.6118l-5.4735-8.5724c2.5133-1.0251 3.7646-2.7373 3.7646-5.156zm-7.4638 3.3703h-2.2008v-6.336h2.0911c1.4423 0 2.5235 0.23962 3.2352 0.71335 0.7214 0.47935 1.0724 1.2642 1.0724 2.3601 0 1.0778-0.3243 1.8928-0.9885 2.4414-0.6588 0.5441-1.7328 0.82016-3.2099 0.82016zm14.695 10.357h3.1688v-19.372h-3.1688zm8.8369-16.651h5.6935v16.651h3.1643v-16.651h5.7041v-2.7211h-14.563v2.7211zm30.305-2.7195-4.5842 8.8418-4.5884-8.8418h-3.4505l6.4328 11.968v7.4041h3.1813v-7.5126l6.4581-11.859z" fill="#fff" stroke-width=".52502"/></g><path d="m603.05 230.43s-20.662-1.3748-55.846 9.6346c-35.856 11.219-56.192 27.122-56.192 27.122s53.443-29.839 113.76-31.535zm77.066 32.443 2.6862-0.17522s-15.389-18.672-44.846-27.767c16.558 6.7308 30.97 15.649 42.159 27.941zm4.3961 7.758c0.41303-0.71604 1.7462 2.2748 2.7584 3.5312 0.0424 0.25089 0.11332 0.40399-0.47286 0.28321-0.0488-0.25791-0.13358-0.33272-0.13358-0.33272s-1.4167-0.84302-1.8511-1.441c-0.43485-0.59799-0.5119-1.644-0.30008-2.0406zm36.15 88.882s3.267-37.507-55.662-46.155c-7.4689-1.0959-16.914-1.9393-26.468-1.9635-47.231 0.62447-48.953-54.475-13.362-57.257 14.75-1.217 32.362 6.7397 49.58 14.758-0.0644 2.1384 0.0239 4.0386 1.4293 5.7947 1.4046 1.7554 6.7998 3.6706 8.5236 4.6598 1.7239 0.98955 7.2468 4.5008 10.631 8.9058 0.73402-1.3729 6.8631-5.3625 6.8631-5.3625s-1.4683 0.032-4.8841-1.2447c-3.4164-1.2766-7.4701-5.1393-7.566-5.3625-0.095-0.22361-0.1598-0.57462 0.63894-0.73433 0.60598-0.51039-0.76679-2.1704-1.3734-2.7766-0.60617-0.60658-4.6607-7.5009-4.7562-7.6607-0.0951-0.15965-0.12749-0.31906-0.41498-0.51074-0.8941-0.28751-4.8205 0.4149-4.8205 0.4149s-6.0388-2.9659-8.1204-9.3604c0.0304 1.12-1.0355 2.3429 0 4.9161-3.1487-1.332-5.8533-3.6037-7.9862-9.2174-1.2697 3.1929 0 5.2231 0 5.2231s-7.4145-2.0718-8.6008-8.9097c-1.302 3.0695 0 4.9157 0 4.9157s-12.088-6.307-32.172-6.3984c-13.447-1.2334-16.246-24.888-15.001-28.87 0 0-19.395-10.222-57.574-14.738-38.179-4.5163-69.491-0.68058-69.491-0.68058s67.62-3.2451 121.79 18.686c1.8416 8.2365 7.3813 21.955 10.365 28.548-8.5376 5.9029-18.165 11.454-19.664 31.14-1.4986 19.686 15.426 37.002 36.415 37.536 19.93 1.0616 33.7 1.2124 50.39 9.8653 15.931 8.8087 28.993 35.65 30.286 59.79 1.3963-17.911-5.3252-56.427-36.69-68.122 43.838 7.6716 47.695 40.17 47.695 40.17zm-118.64-132.02-1.5774-5.0879s-26.027-4.622-61.022-2.1346c-34.995 2.4874-70.327 14.737-70.327 14.737s72.295-18.191 132.92-7.515" style="filter:url(#j);paint-order:stroke fill markers;stroke-width:1.3229;stroke:#000"/><path d="m603.05 230.43s-20.662-1.3748-55.846 9.6346c-35.856 11.219-56.192 27.122-56.192 27.122s53.443-29.839 113.76-31.535zm77.066 32.443 2.6862-0.17522s-15.389-18.672-44.846-27.767c16.558 6.7308 30.97 15.649 42.159 27.941zm4.3961 7.758c0.41303-0.71604 1.7462 2.2748 2.7584 3.5312 0.0424 0.25089 0.11332 0.40399-0.47286 0.28321-0.0488-0.25791-0.13358-0.33272-0.13358-0.33272s-1.4167-0.84302-1.8511-1.441c-0.43485-0.59799-0.5119-1.644-0.30008-2.0406zm36.15 88.882s3.267-37.507-55.662-46.155c-7.4689-1.0959-16.914-1.9393-26.468-1.9635-47.231 0.62447-48.953-54.475-13.362-57.257 14.75-1.217 32.362 6.7397 49.58 14.758-0.0644 2.1384 0.0239 4.0386 1.4293 5.7947 1.4046 1.7554 6.7998 3.6706 8.5236 4.6598 1.7239 0.98955 7.2468 4.5008 10.631 8.9058 0.73402-1.3729 6.8631-5.3625 6.8631-5.3625s-1.4683 0.032-4.8841-1.2447c-3.4164-1.2766-7.4701-5.1393-7.566-5.3625-0.095-0.22361-0.1598-0.57462 0.63894-0.73433 0.60598-0.51039-0.76679-2.1704-1.3734-2.7766-0.60617-0.60658-4.6607-7.5009-4.7562-7.6607-0.0951-0.15965-0.12749-0.31906-0.41498-0.51074-0.8941-0.28751-4.8205 0.4149-4.8205 0.4149s-6.0388-2.9659-8.1204-9.3604c0.0304 1.12-1.0355 2.3429 0 4.9161-3.1487-1.332-5.8533-3.6037-7.9862-9.2174-1.2697 3.1929 0 5.2231 0 5.2231s-7.4145-2.0718-8.6008-8.9097c-1.302 3.0695 0 4.9157 0 4.9157s-12.088-6.307-32.172-6.3984c-13.447-1.2334-16.246-24.888-15.001-28.87 0 0-19.395-10.222-57.574-14.738-38.179-4.5163-69.491-0.68058-69.491-0.68058s67.62-3.2451 121.79 18.686c1.8416 8.2365 7.3813 21.955 10.365 28.548-8.5376 5.9029-18.165 11.454-19.664 31.14-1.4986 19.686 15.426 37.002 36.415 37.536 19.93 1.0616 33.7 1.2124 50.39 9.8653 15.931 8.8087 28.993 35.65 30.286 59.79 1.3963-17.911-5.3252-56.427-36.69-68.122 43.838 7.6716 47.695 40.17 47.695 40.17zm-118.64-132.02-1.5774-5.0879s-26.027-4.622-61.022-2.1346c-34.995 2.4874-70.327 14.737-70.327 14.737s72.295-18.191 132.92-7.515" style="fill:#fff;paint-order:stroke fill markers;stroke-width:.99998"/></svg>
