<svg width="3840" height="2160" version="1.1" viewBox="0 0 1016 571.5" xmlns="http://www.w3.org/2000/svg"><defs><radialGradient id="a" cx="645.85" cy="-364.88" r="508" gradientTransform="matrix(-.0093838 -.69483 .67154 -.0090692 1078.3 805.51)" gradientUnits="userSpaceOnUse"><stop stop-color="#23bac2" offset="0"/><stop stop-color="#3b6ab9" offset="1"/></radialGradient><filter id="c" x="-.015693" y="-.021102" width="1.0314" height="1.0422" color-interpolation-filters="sRGB"><feGaussianBlur stdDeviation="8.0153465"/></filter><filter id="b" x="-.01878" y="-.033239" width="1.0376" height="1.0665" color-interpolation-filters="sRGB"><feGaussianBlur stdDeviation="7.9907618"/></filter><radialGradient id="e" cx="825.9" cy="140.96" r="513.16" gradientTransform="matrix(-.61015 0 0 -.54815 1329.9 436.45)" gradientUnits="userSpaceOnUse"><stop stop-color="#1ea1a8" offset="0"/><stop stop-color="#365da0" offset="1"/></radialGradient><radialGradient id="f" cx="822.83" cy="124.61" r="512.23" gradientTransform="matrix(-1.6721 0 0 -1.6042 2196 549.8)" gradientUnits="userSpaceOnUse"><stop stop-color="#1e3a66" offset="0"/><stop stop-color="#2f5595" offset="1"/></radialGradient><filter id="d" x="-.018859" y="-.032995" width="1.0377" height="1.066" color-interpolation-filters="sRGB"><feGaussianBlur stdDeviation="8.1531054"/></filter></defs><path d="m-0.13227-0.44h1016.2v571.95h-1016.2z" fill="url(#a)" style="paint-order:normal"/><path d="m-8.2051-10.998c-1.4617-2.13e-4 -2.6467 1.1848-2.6465 2.6465v587.75c8.6e-4 1.4609 1.1855 2.6448 2.6465 2.6445h1032.3c1.4609 2.2e-4 2.6456-1.1836 2.6465-2.6445v-587.75c2e-4 -1.4617-1.1848-2.6467-2.6465-2.6465zm617.94 223.41c19.054 0.2984 37.083 0.76144 43.564 1.373 3.945 0.37238 8.6808 0.56932 11.223 0.39258 8.9536-0.62279 20.656-0.48859 30.348 0.12695 4.846 0.30778 9.2006 0.73732 12.422 1.2344 1.6106 0.24853 2.9427 0.51637 3.8516 0.76758 0.90883 0.2512 1.4472 0.73817 0.96289 0.2539 1.6108 1.6108 3.6328 2.114 5.7383 1.582 0.2551 0.31916 0.53696 0.59786 0.77539 0.79102 0.57497 0.46579 1.1619 0.77749 1.8203 1.0742 1.3169 0.59345 2.9158 1.0685 4.6875 1.3965 4.1466 0.76764 8.4003 1.8724 11.523 2.9062 1.5616 0.51695 2.8526 1.0258 3.6191 1.4043 0.28283 0.13963 0.38363 0.20961 0.48047 0.27148 0.16667 0.28426 0.34688 0.56061 0.53125 0.72657 0.4574 0.41172 0.84422 0.56724 1.1777 0.68554 0.66704 0.23661 1.2055 0.28865 1.8047 0.32422 1.1984 0.0711 2.5802-0.0267 4.1094-0.26953 5.635-0.89463 4.4108-0.87236 15.594 0.13477 3.1361 0.28243 5.1038 0.41909 6.8008 0.14258 0.54037-0.0881 1.1705-0.31209 1.791-0.71876 2.0487 1.2966 4.4563 2.2608 6.8516 2.5508 1.4033 0.16989 4.1557 1.6534 4.6934 2.2773 1.9273 2.2371 4.5462 3.1947 6.998 3.0293 1.2259-0.0827 2.5728-0.46214 3.5879-1.6562 0.91576-1.0772 1.0367-2.6999 0.67188-4.0469 0.0903-0.13216 0.45843-0.51794 1.0918-0.88476 1.2879-0.74592 3.5127-1.3945 5.7383-1.3945 1.3284 0 2.5329-0.15696 3.6309-0.52343 0.549-0.18324 1.079-0.40372 1.6465-0.84961 0.28999-0.22784 0.62047-0.57655 0.88281-1.0254 0.35906-0.12502 0.9283-0.29405 1.8086-0.45313 2.0173-0.36456 5.0559-0.66403 8.5508-0.83398 6.9897-0.33991 15.879-0.18773 23 0.60547 22.77 2.5365 40.796 8.5676 60.812 20.35 12.42 7.3108 32.267 25.613 40.982 37.826 3.9843 5.5833 8.4032 13.297 11.625 19.887 1.6109 3.2947 2.927 6.3209 3.7402 8.6055 0.40663 1.1423 0.68552 2.1057 0.81446 2.748 0.12894 0.64237-0.0787 1.038 0.17578 0.375-0.38946 1.015-0.57661 2.0923-0.1836 3.3027 0.267 0.82233 1.1001 1.5118 2.0312 1.9688 0.0771 0.19744 0.2095 0.70082 0.20508 1.3027v2e-3c-0.0104 1.5309 0.31517 3.688 0.80469 6.7363s1.1622 6.7418 1.9082 10.383c1.963 9.5801 2.416 16.688 1.8008 28.619-0.63479 12.313-2.89 24.793-5.5527 33.471-1.3313 4.3389-2.8129 7.7548-3.998 9.5117-0.49913 0.73996-0.81803 0.96121-0.9414 1.0625-0.53946-0.35233-1.0702-0.73333-1.791-0.82032-0.97705-0.11789-2.0461 0.21108-2.7578 0.74415-1.4234 1.0661-1.8004 2.4349-2.0234 3.7715-0.44601 2.6732-0.0134 5.8698 2.2324 8.3516 0.40097 0.44285 0.70857 1.0152 0.82227 1.3828 0.1132 0.36597-0.11765 0.39428 0.23633-0.18164-1.0638 1.7258-0.66617 3.0484-0.32032 4.375 0.3463 1.3283 0.95386 2.6822 1.7969 3.9688 0.12414 0.18947 0.0572 0.0912 0.1582 0.26563-0.40463 0.34911-0.88661 0.65769-1.0996 1.0703-0.68635 1.3296-0.64682 2.5717-0.46289 3.9062 0.0753 0.54603 0.0236 1.1925-0.0859 1.6016-0.10954 0.40904-0.39012 0.45682 0.15626 0.11914-1.265 0.78188-1.9349 2.1883-2.0586 3.4375-0.12374 1.2492 0.16557 2.4433 0.71289 3.5723 0.43937 0.90626 0.85089 3.1888 0.82227 3.5527v2e-3c-0.10111 1.2869 0.25891 1.9167 0.60937 2.6953 0.35047 0.77862 0.8107 1.5864 1.3652 2.4531 1.1091 1.7335 2.5984 3.6829 4.2773 5.5508 5.2099 5.7965 9.3504 13.111 12.424 21.145-3.3152-5.9108-7.1149-11.834-10.494-15.557l-6.877-7.5762c-1.0408-1.1461-2.8389-1.1579-3.8945-0.0254l-12.484 13.385c-0.75164 0.80587-0.92516 1.9932-0.43555 2.9805l4.3652 8.8008c4.4426 8.9545 8.5659 22.171 11.238 35.555-2.1426-7.0703-4.7354-14.293-7.4082-20.754-2.6095-6.3078-5.2652-11.849-7.6855-15.82-1.2102-1.9858-2.3351-3.5747-3.5488-4.7715-0.60687-0.59839-1.2317-1.1198-2.0762-1.4961s-2.0966-0.55704-3.2051-0.0703h-2e-3c0.14078-0.0618-1.5551 0.3932-3.4316 0.63281-1.8766 0.23961-4.2037 0.43747-6.4551 0.5293-2.3645 0.0964-4.5098 0.2283-6.1074 0.36719-0.79883 0.0694-1.453 0.13935-1.9844 0.21875-0.2657 0.0397-0.48611 0.0742-0.78125 0.15234-0.14757 0.0391-0.30167 0.0705-0.61914 0.22656-0.0522 0.0257-0.15962 0.11812-0.22461 0.1543-0.0674 0.019-0.0872 0.0285-0.23437 0.0605-0.4878 0.10615-1.2885 0.23263-2.1621 0.32421-0.53163 0.0557-0.87398-3e-3 -1.1309-0.0449-0.32515-0.49552-0.74473-0.92859-1.1699-1.1328-0.87707-0.42127-1.5324-0.3761-2.1074-0.31641-1.15 0.11939-2.1478 0.51874-3.2441 1.1055-1.0676 0.57138-1.4335 0.58271-1.5312 0.57032-0.0977-0.0124-0.47269-0.12595-1.3867-0.95313-2.2614-2.0464-5.335-3.028-8.207-1.9258-0.66843 0.2565-1.2074 0.45742-1.8086 0.80078-0.3006 0.17168-0.63372 0.37715-1.0059 0.7832s-0.78134 1.1304-0.82422 1.9277c-0.0858 1.5947 0.76656 2.3004 1.2559 2.7637 0.17498 0.16567 0.39352 0.31015 0.57617 0.45898-0.64475 0.39297-0.82724 0.55636-2.6797 1.4531-1.7743 0.85892-3.613 1.6464-5.0859 2.2012-0.73649 0.27738-1.3843 0.49832-1.8555 0.63477-0.47116 0.13644-0.88761 0.15039-0.53906 0.15039-1.0581 0-2.3399 0.28577-3.2285 1.4902-0.2767 0.37505-0.28656 0.83973-0.37109 1.2832-0.45956 0.22388-1.0148 0.48558-1.9297 0.82032-2.285 0.83602-5.6906 1.8533-9.5391 2.7949-19.218 4.7019-48.009 4.7596-66.605 0.1582-28.29-6.9995-51.996-20.729-71.338-41.289-18.9-20.091-29.928-41.737-34.998-68.686-1.355-7.2029-2.0058-17.273-1.9238-26.115 0.041-4.4211 0.26301-8.548 0.64844-11.842s1.0744-5.8688 1.4375-6.5469c1.21-2.2597 2.6161-6.4316 3.6211-10.199 0.43892-1.6454 1.014-3.1537 1.5-4.1133 0.22284-0.43995 0.41432-0.71809 0.50391-0.83594 0.85143-0.322 1.6769-0.8388 2.043-1.752 0.18007-0.44914 0.13186-0.84797 0.13281-1.2578 0.88175-0.25627 1.674-0.64256 2.3555-1.168 1.0258-0.79083 1.9169-1.7989 2.5723-3.0234 0.63911-1.1937 1.1404-2.0818 1.166-3.5274 0.0128-0.72275-0.23363-1.7943-1.0215-2.5391-0.78786-0.74473-1.7468-0.91016-2.4219-0.91016 0.47843 0-0.0803-0.0394-0.67969-0.45117-0.59935-0.41176-1.3346-1.0602-1.9512-1.7266-0.56717-0.61293-0.98978-1.2239-1.2109-1.6152 0.0145-0.0474 0.0394-0.0428 0.0527-0.0937 0.19124-0.733-0.0601-1.946-0.61328-2.5703-1.0872-1.227-1.7914-1.0119-2.3145-1.0293 0.098-0.17882 0.27408-0.35632 0.34961-0.53516 0.42262-1.0006 0.58985-2.0545 0.58985-3.207 0-1.2675-0.26733-2.4444-0.88477-3.5059-0.61743-1.0615-1.8192-2.2227-3.5527-2.2227 0.53824 0 0.0355-8e-3 -0.4375-0.31836-0.40731-0.26708-0.85825-0.69549-1.2324-1.1055 1.3744-0.98889 2.1445-2.5266 2.1445-4.3867 0-0.84403-0.50565-1.9644-1.2109-2.5312s-1.3745-0.72121-1.9648-0.81055c-1.1808-0.17868-2.3104-0.0637-3.8594 0.16406-3.0979 0.45556-7.7215 1.5312-14.693 3.3262-5.1102 1.3157-9.6766 2.6303-12.979 3.7129-1.651 0.54128-2.9732 1.0163-3.9707 1.4473-0.49875 0.21547-0.89831 0.39697-1.3555 0.69727-0.22858 0.15014-0.48062 0.2931-0.84765 0.76367-0.0235 0.0301-0.0435 0.11458-0.0684 0.14844-0.14432 0.0575-0.13874 0.0642-0.3711 0.13476-1.0161 0.30858-2.7206 0.6672-4.6699 0.92578h-2e-3c-6.65 0.8824-19.999 5.3843-35.221 11.219-6.694 2.5658-13.651 5.4315-20.418 8.3106 12.289-6.5475 25.402-13.137 34.244-16.723l9.0234-3.6582c1.0638-0.43147 1.728-1.4996 1.6445-2.6445l-0.64649-8.9434c-0.21324-2.9486-0.63232-5.5788-1.2539-7.791-0.62159-2.2122-1.3524-4.0262-2.7578-5.4316-0.6203-0.6203-1.1021-1.1018-1.6133-1.5254-0.25557-0.21178-0.51321-0.4142-0.90625-0.62304-0.39303-0.20885-1.0014-0.50615-1.9531-0.36329-0.49618 0.0745-0.95954 0.32801-1.3438 0.63282-7e-3 -0.0198-0.0242-0.043-0.0312-0.0625-0.26395-0.73324-0.19688-1.4401-0.29297-0.97266 0.27481-1.3375-0.23894-2.9974-1.334-3.8906-1.095-0.89321-2.4468-1.0752-3.6699-0.8789 0.38183-0.0613-0.35053-0.0495-1.123-0.41406-0.77252-0.36457-1.6834-0.96856-2.3691-1.6074h-2e-3c-1.1546-1.0757-2.5085-1.9563-3.8926-2.625-1.3841-0.66865-2.7238-1.168-4.293-1.168-2.5943 0-7.4672 0.57982-14.217 1.5137s-15.188 2.2351-24.164 3.7109c-2.0504 0.33715-4.1581 0.7348-6.25 1.0879 8.949-2.195 17.689-4.2478 24.691-5.6699 11.612-2.3579 17.145-3.2921 21.398-5.4199 3.7589-1.8804 6.0842-4.8381 9.5703-9.3223 0.41039 0.28406 0.77882 0.64021 1.2637 0.6875 1.5306 0.14925 2.0585-0.49719 2.5059-0.85547 0.44734-0.35828 0.81222-0.73344 1.2461-1.1934 0.86762-0.91964 1.8482-1.5424 1.8672-3.5586 0.01-1.0081-0.62618-2.0893-1.2226-2.5898-0.0665-0.0558-0.11695-0.0508-0.18164-0.0996 0.26591-0.6814 0.73399-1.666 1.5605-2.8789 1.8887-2.7716 4.9701-6.147 7.8496-8.2715l4.8223-3.5566c1.9572-1.4459 1.0895-4.5445-1.334-4.7637l-11.186-1.0059c-3.5262-0.31686-8.6585-0.59136-12.846-0.9082zm112.24 2.4355c0.0377 0.0156 0.49805 0.25877 0.49805 1.3496 0-0.46666-0.27933-0.9043-0.49805-1.3496zm86.816 8.0742c0 0.46182-0.1445 0.82012-0.3086 1.0977 0.13955-0.34149 0.3086-0.66499 0.3086-1.0977zm-68.488 1.6211c0 0.49221 0.16376 0.95146 0.37891 1.3516-0.17957-0.17186-0.37891-0.49929-0.37891-1.3516zm-93.076 70.584c1e-3 0.50569-1e-3 1.0598 0.25977 1.4824-0.24474-0.39597-0.29986-0.95684-0.25977-1.4824zm5.0684 0.44336c-6e-3 0.0387 0.031 0.0905 0.0234 0.12695-0.0369 0.17672-0.10181 0.20511-0.1543 0.33399 0.038-0.16891 0.11488-0.27666 0.13086-0.46094zm41.168 28.064c-0.0286 0.0955-0.21379 0.35938-1.2305 0.35938 0.37653 0 0.80864-0.2013 1.2305-0.35938zm214.82 154.67c-0.10782 0.1131-0.22238 0.26146-0.33594 0.44336 0.13163-0.20263 0.20134-0.33814 0.33594-0.44336zm4.5508 1.8125c0 0.59428-0.19421 1.0237-0.41406 1.3672 0.20637-0.33728 0.41406-0.70552 0.41406-1.3672zm-35.93 9.2656h2e-3c1e-3 2e-3 3e-3 0.0134 4e-3 0.0156-3e-3 -5e-3 -3e-3 -0.0111-6e-3 -0.0156z" color="#000000" color-rendering="auto" dominant-baseline="auto" fill="#000919" filter="url(#d)" image-rendering="auto" opacity=".1" shape-rendering="auto" solid-color="#000000" style="font-feature-settings:normal;font-variant-alternates:normal;font-variant-caps:normal;font-variant-ligatures:normal;font-variant-numeric:normal;font-variant-position:normal;isolation:auto;mix-blend-mode:normal;paint-order:normal;shape-padding:0;text-decoration-color:#000000;text-decoration-line:none;text-decoration-style:solid;text-indent:0;text-orientation:mixed;text-transform:none;white-space:normal"/><path d="m-8.2048-8.3517h1032.3v587.75h-1032.3zm965.42 540.37c-2.0734-17.835-7.508-37.748-13.718-50.265l-4.3657-8.7991 12.486-13.386 6.8765 7.575c6.8319 7.5256 17.202 26.646 17.202 31.717 0 1.4575 0.7695 3.1255 1.7098 3.7067 1.2095 0.74749 1.4036-0.91723 0.66308-5.6892-2.3325-15.03-8.5925-28.873-17.577-38.869-3.1698-3.5265-5.6815-7.4523-5.5816-8.7239 0.0995-1.2716-0.38654-3.4838-1.0808-4.9159-0.74526-1.5374-0.59905-3.0138 0.35699-3.6047 0.89059-0.55041 1.4128-2.5 1.1602-4.3323-0.28389-2.0598 0.2937-3.1787 1.513-2.931 1.4076 0.28583 1.2592-0.68765-0.51817-3.4004-1.3697-2.0904-2.0158-4.5687-1.4357-5.5071 0.57988-0.93846-0.0273-2.902-1.3502-4.3634-2.9375-3.246-1.7306-10.48 1.3254-7.9438 5.1032 4.2354 12.894-21.155 14.187-46.236 0.6217-12.056 0.1498-19.526-1.85-29.286-1.4764-7.206-2.6738-14.662-2.6608-16.57 0.0145-1.9074-0.67114-3.4681-1.5199-3.4681-0.84878 0-1.167-0.98024-0.70734-2.1783 1.139-2.9682-8.445-22.57-16.673-34.1-9.0749-12.717-28.801-30.922-41.794-38.57-20.278-11.936-38.781-18.127-61.861-20.698-14.644-1.6311-35.858-0.59948-35.858 1.7438 0 0.72606-1.7796 1.32-3.9547 1.32-5.3884 0-10.332 2.8631-9.352 5.4165 1.2176 3.1729-4.081 3.5303-6.7313 0.45408-1.2717-1.476-4.1428-2.9053-6.3804-3.1762-2.2377-0.27088-5.3186-1.5082-6.8468-2.7495-1.5398-1.2507-2.2756-1.4192-1.6504-0.37785 0.85065 1.4169-0.87734 1.6985-7.0257 1.1448-11.176-1.0065-10.638-1.0028-16.246-0.11246-2.7551 0.43751-5.0095 0.3037-5.0095-0.2974 0-1.2468-8.7958-4.1587-17.341-5.7406-3.1791-0.58858-5.7801-1.7607-5.7801-2.6048s-0.95591-1.1679-2.1243-0.71961c-1.1683 0.44834-2.8458 0.0936-3.7276-0.7882-2.5965-2.5965-31.364-4.4236-49.638-3.1525-2.1194 0.14736-6.9748-0.0264-10.79-0.38652-16.622-1.5686-97.451-2.3669-108.67-1.0733l-12.331 1.4223 16.185 0.23678c16.148 0.23624 52.424 2.3156 73.611 4.2194l11.185 1.0051-4.8206 3.5566c-6.4207 4.7371-12.756 14.034-10.202 14.971 1.5008 0.55097 1.4954 1.1277-0.026 2.7402-1.5946 1.6903-1.9352 1.6571-1.9757-0.19268-0.0403-1.8641-0.36074-1.8359-1.9268 0.16971-8.854 11.339-7.4295 10.627-30.683 15.349-23.642 4.8013-66.805 16.235-70.613 18.704-1.6369 1.0616-0.96122 1.2042 2.3106 0.48771 25.67-5.6216 80.249-14.596 88.768-14.596 1.6904 0 4.5625 1.3876 6.3829 3.0835 1.8203 1.6959 4.3924 2.9097 5.7157 2.6974 1.3233-0.21233 2.2199 0.51903 1.9926 1.6253-0.22738 1.1062 0.63957 3.5148 1.9268 5.3524 2.1922 3.13 2.3402 3.1525 2.3402 0.35585 0-2.7986 0.16235-2.823 2.5957-0.38964 1.6302 1.6302 2.8364 5.9229 3.2427 11.541l0.64708 8.945-9.0228 3.6592c-21.762 8.8256-68.388 34.526-66.344 36.57 0.41192 0.41192 5.1543-1.4764 10.538-4.1963 24.133-12.191 66.809-28.548 78.543-30.105 4.1176-0.54624 7.1867-1.4783 6.8202-2.0713-0.36635-0.59301 7.6235-3.2125 17.755-5.821 13.886-3.5751 18.422-4.2421 18.422-2.7091 0 1.1186-0.86694 2.3257-1.9267 2.6823-1.5022 0.50552-1.4605 1.2133 0.18873 3.2112 1.1635 1.4095 2.9222 2.5628 3.9084 2.5628 0.98633 0 1.7932 1.3872 1.7932 3.0828 0 1.6955-0.58595 3.0828-1.3021 3.0828-0.71613 0-0.91005 0.63439-0.4308 1.4097 0.47912 0.77535-1.5e-4 1.8094-1.065 2.2979-1.065 0.48843-0.20228 0.4615 1.9172-0.0598 2.1193-0.52139 3.3909-0.45716 2.8258 0.14274-1.1927 1.2658 4.1127 6.9993 6.4768 6.9993 1.0818 0 1.0643 0.99267-0.0548 3.0828-0.90746 1.6955-2.7068 3.0828-3.9988 3.0828-1.2918 0-1.92 0.69363-1.3961 1.5414 0.52396 0.84774 0.24583 1.5414-0.61795 1.5414-0.86362 0-2.3569 2.9479-3.318 6.5509-0.96109 3.603-2.4901 7.9377-3.3977 9.6326-3.0076 5.6167-3.2455 31.271-0.42893 46.243 5.1518 27.385 16.469 49.597 35.67 70.008 19.68 20.919 43.889 34.935 72.63 42.046 19.202 4.7514 48.079 4.6844 67.869-0.15729 7.8474-1.92 13.876-4.1256 13.396-4.9014-0.4794-0.77584-0.0145-1.4106 1.0446-1.4106 1.0541 0 4.9388-1.4631 8.6327-3.2513 5.9314-2.8714 6.4134-3.4729 4.124-5.147-2.4147-1.7656-2.4039-1.968 0.15874-2.9514 1.6544-0.63485 3.8402-0.0702 5.483 1.4164 2.1542 1.9496 3.4103 2.1088 5.9425 0.75362 1.7661-0.94518 3.211-1.0952 3.211-0.33329 0 0.76184 1.5607 1.2216 3.4682 1.0216 1.9073-0.19994 3.4681-0.53959 3.4681-0.75478 0-0.21521 3.815-0.54685 8.4776-0.73698 4.6628-0.19017 9.5423-0.81318 10.843-1.3845 4.9919-2.1918 21.442 37.57 24.757 59.844 0.88988 5.977 2.0488 12.601 2.5753 14.721 1.9869 7.9962 2.2185-4.6841 0.37516-20.54zm-9.2834-61.119c1.3086-2.445 1.1905-2.8789-0.59718-2.1929-2.5931 0.99498-4.5963 5.241-2.4728 5.241 0.79139 0 2.1729-1.3716 3.07-3.0481z" fill="url(#e)" style="paint-order:normal"/><path d="m564.23 206.84c-9.4394 0.0828-16.462 0.24688-19.656 0.61523l-12.33 1.4219c-3.2946 0.37087-3.0514 5.2349 0.26367 5.2754l16.186 0.23633c15.979 0.23376 52.322 2.3139 73.412 4.209l4.3691 0.39258c-3.2744 2.5616-6.3222 5.8768-8.4199 8.9551-1.1228 1.6477-1.9867 3.1642-2.4629 4.6953-0.14257 0.45837-0.11199 1.0208-0.15235 1.5391-1.0674 0.22948-1.4582 0.70197-1.7949 1.0449-0.39195 0.39918-0.73571 0.82581-1.1523 1.3594-4.4528 5.7026-5.9797 7.8865-9.041 9.418s-8.4421 2.6027-20.084 4.9668c-11.915 2.4197-28.632 6.4837-42.895 10.262-7.1315 1.889-13.643 3.7048-18.641 5.2129-2.4989 0.75404-4.6174 1.4299-6.2695 2.0098s-2.6786 0.91611-3.7207 1.5918c-0.50164 0.32533-0.86509 0.46862-1.4531 1.2383-0.29402 0.38483-0.94137 1.3203-0.44726 2.6894 0.4941 1.3692 1.6248 1.6892 2.1074 1.791 0.96516 0.20372 1.3348 0.0709 1.9434-0.0156 0.60852-0.0865 1.3116-0.22304 2.166-0.41015 12.74-2.7899 32.792-6.44 50.678-9.3809 8.9426-1.4704 17.349-2.7649 24.031-3.6895 6.6821-0.92452 11.827-1.4648 13.492-1.4648 0.12124 0 1.0625 0.19347 1.9922 0.64258s1.9221 1.1102 2.5879 1.7305c1.1346 1.057 2.4174 1.9082 3.7168 2.5215 0.99983 0.47184 2.0161 0.77 3.1777 0.81055 0.0652 0.82269 0.24527 1.5808 0.52344 2.3535 0.4345 1.207 1.0584 2.4372 1.8535 3.5723 0.55522 0.79274 0.98339 1.4006 1.3984 1.9141 0.20752 0.25675 0.40448 0.48986 0.69335 0.75196s0.6343 0.67456 1.6699 0.83203c0.85079 0.12936 1.8524-0.45477 2.4394-1.0234 0.16993 0.41594 0.28195 0.42515 0.43359 0.96484 0.49064 1.7462 0.87726 4.0707 1.0703 6.7402l0.50976 7.0254-7.2402 2.9356c-11.1 4.5016-28.193 13.142-42.381 20.963-7.0939 3.9102-13.442 7.6053-17.953 10.496-2.2556 1.4454-4.0389 2.6741-5.3164 3.7168-0.63877 0.52134-1.1452 0.96198-1.6211 1.5762-0.23796 0.30709-0.50309 0.64581-0.68554 1.332-0.18246 0.68622-0.0172 2.0551 0.73632 2.8086 0.65316 0.65321 1.2592 0.74872 1.6348 0.80078 0.37557 0.0521 0.62239 0.0333 0.84375 0.0117 0.44272-0.0432 0.78117-0.1266 1.1582-0.23046 0.75407-0.20773 1.6088-0.51645 2.6172-0.91797 2.0167-0.80305 4.5967-1.9793 7.3477-3.3691 11.931-6.0272 28.593-13.151 43.676-18.932s28.939-10.238 34.023-10.912c2.1683-0.28765 4.0555-0.66712 5.5117-1.1094 0.72813-0.22113 1.327-0.42226 1.9844-0.81445 0.32867-0.1961 0.7081-0.40479 1.1426-1.041 0.01-0.014 8e-3 -0.0495 0.0176-0.0644 0.0363-0.0165 0.0212-0.0123 0.0605-0.0293 0.71417-0.30853 1.9524-0.7616 3.5195-1.2754 3.1343-1.0276 7.6291-2.3263 12.65-3.6191 6.0538-1.5586 9.6407-2.33 12.383-2.8144-0.18701 0.47165-0.30182 0.9783-0.27539 1.4277 0.10944 1.8617 0.96167 2.5846 1.877 3.6934 0.77286 0.93626 1.6656 1.719 2.6094 2.3379 0.69998 0.459 1.4473 0.80817 2.3633 1 0.0517 0.14797 0.12304 0.30768 0.12304 0.62305 0 0.44871-0.0852 0.75402-0.14258 0.94922-0.76345 0.40139-1.4608 0.96986-1.707 1.7754-0.23314 0.76288-0.16646 1.4008 2e-3 1.9766-0.2132 0.12457-0.47113 0.10644-1.0039 0.9707-0.27008 0.43812-0.61033 1.5117-0.17578 2.4961s1.1698 1.3041 1.5449 1.4414c0.75031 0.27465 0.94667 0.18299 1.1777 0.17578 0.88555-0.0276 1.5424-0.20667 2.5879-0.46484 0.0535 0.11579 0.0715 0.27663 0.12891 0.38867 0.54222 1.0583 1.2844 2.0103 2.1406 2.9356 0.85621 0.92529 1.8168 1.7913 2.8398 2.4941 0.37595 0.25828 0.77159 0.48204 1.1738 0.70117-0.26241 0.4327-0.6439 0.90315-1.0254 1.1973-0.42374 0.32669-0.82835 0.35547-0.52735 0.35547-1.1194 0-2.3349 0.21269-3.3398 1.3223-0.58104 0.64152-0.74405 1.5611-0.71094 2.4648-0.29404 0.25616-0.55226 0.53434-0.74609 0.76757-0.48121 0.57904-0.84084 1.1968-1.1992 1.9043-0.71677 1.4151-1.3704 3.1811-1.8926 5.1387-0.91719 3.4384-2.5687 7.9363-3.1738 9.0664-1.1407 2.1303-1.6103 4.8677-2.0273 8.4316s-0.64125 7.8402-0.68359 12.406c-0.0847 9.1322 0.5521 19.373 2.0137 27.143 5.2339 27.821 16.842 50.601 36.344 71.332 20.018 21.278 44.73 35.578 73.922 42.801 19.808 4.9014 48.771 4.8273 69.133-0.1543 3.999-0.97841 7.5304-2.0241 10.102-2.9648 1.2856-0.47036 2.3139-0.89681 3.168-1.373 0.42704-0.23811 0.80806-0.44996 1.2812-0.9375 0.23659-0.24377 0.53158-0.56604 0.74218-1.1992 3e-3 -8e-3 -5.9e-4 -0.0213 2e-3 -0.0293 0.15855-0.0446 0.35183-0.0429 0.52734-0.0937 0.66912-0.19377 1.4218-0.45176 2.25-0.76367 1.6564-0.62384 3.6058-1.4613 5.5254-2.3906 3.0056-1.455 4.6324-1.9725 6.0566-3.75 0.35606-0.44438 0.71122-1.0764 0.80664-1.8477 0.076-0.61443-0.12941-1.1687-0.33008-1.668 0.10145 0.0745 0.20724 0.0759 0.30469 0.16406 1.2402 1.1224 2.5696 2.0635 4.2715 2.2793s3.2307-0.37243 4.6953-1.1563v2e-3c0.25219-0.13496 0.27991-0.1127 0.48633-0.19141 0.0183 0.0161 0.0345 0.0492 0.0527 0.0645 0.58406 0.48786 1.1432 0.70708 1.6934 0.86915 1.1003 0.32413 2.2354 0.37387 3.4727 0.24414 1.0337-0.1084 1.9669-0.25053 2.7363-0.41797 0.3847-0.0837 0.71525-0.16358 1.1016-0.30664 0.12393-0.0459 0.30489-0.14629 0.46875-0.23047 0.33519-0.0487 0.89119-0.11173 1.6055-0.17383 1.4755-0.12828 3.5691-0.25787 5.8672-0.35156 2.4114-0.0984 4.8542-0.30609 6.9082-0.56836 1.6692-0.21314 2.7974-0.45943 3.9746-0.8418 0.0764 0.0527 0.13084 0.0734 0.35547 0.29492 0.6543 0.64517 1.6583 1.9761 2.7441 3.7578 2.1716 3.5634 4.7731 8.945 7.3144 15.088 5.0827 12.286 9.9807 27.741 11.578 38.475v2e-3c0.89725 6.0263 2.0047 12.479 2.623 14.969 0.26955 1.0848 0.48036 1.838 0.86133 2.6035 0.19048 0.38274 0.31255 0.83471 1.1934 1.4082 0.4404 0.28675 1.2329 0.55707 2.0215 0.41797 0.7886-0.13911 1.3438-0.59319 1.6426-0.93555 0.59752-0.68473 0.64171-1.0927 0.74414-1.4766 0.10243-0.38385 0.16032-0.74183 0.20899-1.1348 0.0973-0.78588 0.14602-1.7041 0.16601-2.7988 0.0795-4.3502-0.33239-11.465-1.252-19.422-2e-3 -0.0489-5e-3 -0.0978-0.01-0.14649-2.1086-18.137-7.5432-38.169-13.977-51.137l-2.1758-4.3848c0.40488 0.13018 0.8093 0.40234 1.1699 0.40234 1.9242 0 2.5804-0.89065 3.3594-1.6641 0.77862-0.77306 1.4696-1.7101 2.043-2.7812 0.35033-0.65455 0.62515-1.2002 0.84376-1.7637 0.2186-0.56346 0.60924-1.096 0.24023-2.4512-0.18451-0.67756-0.83382-1.5146-1.5293-1.8555-0.23618-0.11578-0.35607-0.0538-0.55859-0.10156l2.332-2.5 4.9434 5.4453c3.1142 3.4304 7.4187 10.037 10.795 16.262 1.6881 3.1125 3.1638 6.148 4.1914 8.6465s1.5293 4.6633 1.5293 5.0293c0 1.1944 0.28183 2.2888 0.74415 3.291 0.46231 1.0022 1.0603 1.95 2.2187 2.666 0.35145 0.2172 0.78405 0.4467 1.4316 0.53711 0.64759 0.0904 1.566-0.0751 2.2109-0.5332 1.2899-0.91618 1.3504-1.9582 1.4395-2.7227 0.1782-1.5288-0.0293-3.1583-0.41211-5.625-2.4048-15.496-8.8367-29.788-18.225-40.232-1.4909-1.6586-2.8416-3.4363-3.7559-4.8652-0.45712-0.71447-0.80466-1.3481-0.9961-1.7734-0.19143-0.42531-0.109-0.76047-0.16015-0.10938 0.17139-2.1795-0.38692-4.3196-1.3359-6.2773-0.17451-0.35998-0.18045-0.57717-0.18359-0.6543 0.98342-0.82873 1.4579-1.8084 1.7226-2.7969 0.31107-1.1614 0.39413-2.407 0.2168-3.6934-5.1e-4 -4e-3 5e-4 -2.2e-4 0-4e-3 0.3198-0.0669 0.62032-0.089 1.0137-0.32422 0.59563-0.35622 1.1253-1.0486 1.3242-1.6758s0.1668-1.1386 0.10547-1.541c-0.24532-1.6096-0.90577-2.4255-1.8555-3.875-0.52667-0.80379-0.9274-1.7343-1.1016-2.4023s0.19187-1.0543-0.29688-0.26367c0.94063-1.5223 0.69198-2.944 0.31641-4.1582-0.37541-1.2136-1.0335-2.3529-1.9551-3.3711v-2e-3c-0.63091-0.69846-0.98885-2.408-0.91406-3.5625 1.1624 0.39107 2.4432 0.51917 3.4434 0.0391 1.4252-0.68416 2.3392-1.776 3.2148-3.0742 1.7514-2.5964 3.254-6.3036 4.6699-10.918 2.8318-9.2288 5.1211-21.984 5.7793-34.752 0.62814-12.181 0.13627-20.013-1.9004-29.953-0.73041-3.565-1.3941-7.202-1.8691-10.16-0.47503-2.9581-0.74085-5.4823-0.73828-5.8594 9e-3 -1.2758-0.18379-2.4449-0.66016-3.5312-0.23818-0.54319-0.54482-1.0795-1.0762-1.5898-0.13706-0.13164-0.35173-0.23742-0.53125-0.35937 0.18734-0.95051 0.10028-1.7301-0.0644-2.5508-0.20932-1.0428-0.55536-2.1875-1.0156-3.4805-0.92053-2.5859-2.3014-5.7362-3.9726-9.1543-3.3424-6.8361-7.8286-14.69-12.072-20.637-9.4344-13.221-29.04-31.327-42.605-39.312-20.54-12.09-39.52-18.441-62.91-21.047-7.5227-0.8379-16.563-0.98675-23.842-0.63281-3.6392 0.17698-6.8184 0.47517-9.2363 0.91211-1.209 0.21847-2.2142 0.45226-3.1367 0.83008-0.46126 0.18891-0.91155 0.39856-1.4141 0.82812-0.23359 0.19968-0.49589 0.51161-0.7168 0.88282-0.37746 0.10428-0.99764 0.22656-1.7598 0.22656-3.1628 0-6.1046 0.78344-8.3906 2.1074-1.143 0.66199-2.1489 1.4544-2.8867 2.584-0.55711 0.85295-0.75913 2.0286-0.65234 3.1953-0.65438-0.10665-1.5671-0.42062-2.1504-1.0977-2.0058-2.328-4.9945-3.7043-8.0664-4.0762-1.5711-0.19018-4.6508-1.4892-5.4961-2.1758-0.88484-0.71875-1.1867-1.2243-2.7148-1.5742-0.38204-0.0875-0.99082-0.24209-1.9043 0.19531-0.67523 0.32333-1.093 1.0528-1.3281 1.709-0.89414 0.0235-1.8711 0.0616-4.1602-0.14453-11.169-1.0059-11.317-0.9759-16.898-0.0899-1.1589 0.18403-2.1678 0.2243-2.8027 0.19922-0.19335-0.17656-0.39516-0.38167-0.55078-0.50391-0.5037-0.39566-1.0033-0.6693-1.5781-0.95312-1.1497-0.56763-2.5913-1.119-4.2969-1.6836-3.4111-1.1292-7.8261-2.2717-12.225-3.0859-1.4074-0.26057-2.6982-0.6668-3.4766-1.0176-0.37748-0.17011-0.61833-0.33055-0.64453-0.34961-0.44862-0.90453-1.1099-1.7133-1.916-1.9863-1.2064-0.40867-2.2885-0.22675-3.2969 0.16016 0.0588-0.0225-0.96196-0.24321-0.9082-0.18945-1.1334-1.1334-2.0622-1.2706-3.2949-1.6113-1.2328-0.34074-2.7181-0.63041-4.4551-0.89844-3.474-0.53606-7.9398-0.97048-12.895-1.2852-9.9094-0.62935-21.728-0.7733-31.049-0.125-1.6969 0.11799-6.672-0.033-10.357-0.38086-8.6686-0.81804-32.87-1.3888-56.584-1.623-11.857-0.11711-23.543-0.14333-32.982-0.0606zm45.504 5.5781c19.054 0.2984 37.083 0.76144 43.564 1.373 3.945 0.37238 8.6808 0.56932 11.223 0.39258 8.9536-0.62279 20.654-0.48859 30.346 0.12695 4.846 0.30778 9.2026 0.73732 12.424 1.2344 1.6106 0.24853 2.9427 0.51637 3.8516 0.76758 0.90883 0.2512 1.4472 0.73816 0.96289 0.2539 1.6109 1.6109 3.6328 2.1141 5.7383 1.582 0.2551 0.31916 0.53696 0.59786 0.77539 0.79102 0.57496 0.46579 1.1619 0.77749 1.8203 1.0742 1.3169 0.59345 2.9158 1.0685 4.6875 1.3965 4.1466 0.76764 8.4003 1.8724 11.523 2.9062 1.5616 0.51695 2.8526 1.0258 3.6191 1.4043 0.28283 0.13963 0.38363 0.20961 0.48047 0.27148 0.16667 0.28426 0.34688 0.56061 0.53125 0.72657 0.4574 0.41172 0.84422 0.56724 1.1777 0.68554 0.66704 0.23661 1.2055 0.28865 1.8047 0.32422 1.1984 0.0711 2.5802-0.0267 4.1094-0.26953 5.635-0.89463 4.4108-0.87236 15.594 0.13477 3.1362 0.28243 5.1038 0.41909 6.8008 0.14258 0.54037-0.0881 1.1705-0.31208 1.791-0.71876 2.0487 1.2966 4.4562 2.2608 6.8516 2.5508 1.4033 0.16989 4.1557 1.6533 4.6934 2.2773 1.9273 2.2371 4.5462 3.1947 6.998 3.0293 1.2259-0.0827 2.5728-0.46214 3.5879-1.6562 0.91576-1.0772 1.0367-2.6999 0.67188-4.0469 0.0903-0.13216 0.45843-0.51794 1.0918-0.88476 1.2879-0.74592 3.5127-1.3945 5.7383-1.3945 1.3284 0 2.5329-0.15695 3.6309-0.52343 0.54899-0.18324 1.079-0.40372 1.6465-0.84961 0.28999-0.22784 0.62047-0.57655 0.88281-1.0254 0.35906-0.12502 0.9283-0.29405 1.8086-0.45313 2.0173-0.36456 5.0559-0.66403 8.5508-0.83398 6.9897-0.33991 15.879-0.18773 23 0.60547 22.77 2.5365 40.794 8.5676 60.811 20.35 12.42 7.3108 32.269 25.613 40.984 37.826 3.9843 5.5833 8.4032 13.297 11.625 19.887 1.6109 3.2947 2.927 6.3209 3.7402 8.6055 0.40663 1.1423 0.68552 2.1057 0.81446 2.748 0.12894 0.64237-0.0787 1.038 0.17578 0.375-0.38937 1.015-0.57663 2.0923-0.1836 3.3027 0.26701 0.8223 1.1001 1.5118 2.0312 1.9688 0.0771 0.19746 0.2095 0.70087 0.20508 1.3027v2e-3c-0.0104 1.5309 0.31517 3.688 0.80469 6.7363s1.1622 6.7418 1.9082 10.383c1.963 9.5801 2.416 16.688 1.8008 28.619-0.63479 12.313-2.89 24.793-5.5527 33.471-1.3313 4.3389-2.8129 7.7548-3.998 9.5117-0.49913 0.73996-0.81802 0.96121-0.9414 1.0625-0.53946-0.35233-1.0702-0.73334-1.791-0.82032-0.97705-0.11789-2.0461 0.21108-2.7578 0.74415-1.4234 1.0661-1.8004 2.4349-2.0234 3.7715-0.44601 2.6732-0.0134 5.8698 2.2324 8.3516 0.40098 0.44286 0.70857 1.0152 0.82227 1.3828 0.1132 0.36596-0.1176 0.39422 0.23633-0.18164-1.0638 1.7258-0.66617 3.0484-0.32032 4.375 0.34629 1.3283 0.95385 2.6822 1.7969 3.9688 0.12414 0.18948 0.0572 0.0912 0.1582 0.26563-0.40464 0.34912-0.88661 0.65768-1.0996 1.0703-0.68633 1.3296-0.64682 2.5718-0.46289 3.9062 0.0753 0.54599 0.0236 1.1925-0.0859 1.6016-0.10955 0.40906-0.39015 0.45687 0.15626 0.11914-1.265 0.78184-1.9349 2.1882-2.0586 3.4375-0.12372 1.2493 0.16559 2.4433 0.71289 3.5723 0.43938 0.90642 0.85087 3.189 0.82227 3.5527v2e-3c-0.1011 1.2869 0.2589 1.9167 0.60937 2.6953s0.8107 1.5864 1.3652 2.4531c1.1091 1.7335 2.5984 3.6829 4.2773 5.5508 5.2099 5.7965 9.3504 13.111 12.424 21.145-3.3152-5.9108-7.1149-11.834-10.494-15.557l-6.877-7.5762c-1.0408-1.1461-2.8389-1.1579-3.8945-0.0254l-12.484 13.385c-0.75251 0.80624-0.92607 1.9946-0.43555 2.9824l4.3652 8.7988c4.4426 8.9546 8.5659 22.171 11.238 35.555-2.1426-7.0703-4.7354-14.293-7.4082-20.754-2.6095-6.3078-5.2652-11.849-7.6855-15.82-1.2102-1.9858-2.3351-3.5747-3.5488-4.7715-0.60687-0.59839-1.2337-1.1198-2.0781-1.4961-0.84445-0.37634-2.0966-0.55703-3.2051-0.0703 0.14078-0.0618-1.5551 0.3932-3.4316 0.63281-1.8766 0.23961-4.2037 0.43746-6.4551 0.5293-2.3645 0.0964-4.5098 0.22829-6.1074 0.36719-0.79883 0.0694-1.453 0.13934-1.9844 0.21875-0.2657 0.0397-0.48612 0.0742-0.78125 0.15234-0.14756 0.0391-0.30168 0.0705-0.61914 0.22656-0.0522 0.0257-0.15962 0.11812-0.22461 0.1543-0.0674 0.019-0.0872 0.0285-0.23437 0.0605-0.48782 0.10615-1.2885 0.23261-2.1621 0.32421-0.53156 0.0557-0.874-3e-3 -1.1309-0.0449-0.32515-0.49553-0.74472-0.92858-1.1699-1.1328-0.87709-0.42128-1.5324-0.3761-2.1074-0.31641-1.1501 0.11938-2.1478 0.51879-3.2441 1.1055-1.0676 0.57138-1.4335 0.58271-1.5312 0.57032-0.0977-0.0124-0.47275-0.12597-1.3867-0.95313-2.2613-2.0461-5.3348-3.0278-8.207-1.9258-0.66841 0.2565-1.2074 0.4574-1.8086 0.80078-0.3006 0.17169-0.63373 0.37713-1.0059 0.7832s-0.78137 1.1304-0.82422 1.9277c-0.0857 1.5947 0.76655 2.3004 1.2559 2.7637 0.17498 0.16567 0.39352 0.31015 0.57617 0.45898-0.64475 0.39297-0.82724 0.55636-2.6797 1.4531-1.7743 0.85891-3.613 1.6464-5.0859 2.2012-0.73649 0.27738-1.3863 0.49832-1.8574 0.63477-0.47116 0.13644-0.88566 0.15039-0.53711 0.15039-1.0582 0-2.3399 0.28578-3.2285 1.4902-0.27669 0.37505-0.28656 0.83973-0.37109 1.2832-0.45947 0.2239-1.0142 0.48535-1.9297 0.82032-2.285 0.83602-5.6926 1.8533-9.541 2.7949-19.218 4.7018-48.008 4.7596-66.604 0.1582-28.29-6.9995-51.996-20.729-71.338-41.289-18.9-20.091-29.928-41.737-34.998-68.686-1.355-7.2028-2.0058-17.273-1.9238-26.115 0.041-4.4211 0.263-8.548 0.64844-11.842 0.38543-3.2938 1.0744-5.8688 1.4375-6.5469 1.21-2.2597 2.6161-6.4316 3.6211-10.199 0.43891-1.6454 1.014-3.1537 1.5-4.1133 0.22284-0.43995 0.41431-0.71808 0.50391-0.83594 0.85143-0.322 1.6769-0.83882 2.043-1.752 0.18007-0.44913 0.13185-0.84799 0.13281-1.2578 0.88176-0.25627 1.674-0.64256 2.3555-1.168 1.0258-0.79084 1.9169-1.7989 2.5723-3.0234 0.63924-1.1937 1.1403-2.0818 1.166-3.5274 0.0129-0.72277-0.23361-1.7943-1.0215-2.5391-0.78788-0.74476-1.7468-0.91016-2.4219-0.91016 0.47844 0-0.0803-0.0394-0.67969-0.45117-0.59935-0.41176-1.3346-1.0602-1.9512-1.7266-0.56717-0.61294-0.98978-1.2239-1.2109-1.6152 0.0145-0.0473 0.0394-0.0428 0.0527-0.0937 0.19125-0.733-0.0601-1.946-0.61328-2.5703-1.0872-1.227-1.7914-1.0119-2.3145-1.0293 0.098-0.17882 0.27408-0.35632 0.34961-0.53516 0.42262-1.0006 0.58985-2.0545 0.58985-3.207 0-1.2674-0.26733-2.4443-0.88477-3.5059s-1.8212-2.2227-3.5547-2.2227c0.53827 0 0.0375-8e-3 -0.43554-0.31836-0.40731-0.26708-0.85825-0.69549-1.2324-1.1055 1.3744-0.9889 2.1445-2.5267 2.1445-4.3867 0-0.84403-0.50565-1.9644-1.2109-2.5312s-1.3745-0.72121-1.9648-0.81055c-1.1808-0.17868-2.3104-0.0637-3.8594 0.16406-3.0979 0.45556-7.7215 1.5312-14.693 3.3262-5.1102 1.3157-9.6766 2.6303-12.979 3.7129-1.651 0.54128-2.9732 1.0163-3.9707 1.4473-0.49875 0.21547-0.89831 0.39698-1.3555 0.69727-0.22857 0.15014-0.48063 0.29314-0.84765 0.76367-0.0232 0.0297-0.0438 0.11304-0.0684 0.14648-0.14443 0.0576-0.13784 0.0659-0.3711 0.13672-1.0161 0.30858-2.7226 0.6672-4.6719 0.92578-6.65 0.8824-19.999 5.3843-35.221 11.219-6.694 2.5658-13.651 5.4315-20.418 8.3106 12.289-6.5475 25.402-13.137 34.244-16.723l9.0234-3.6582c1.0638-0.43147 1.728-1.4996 1.6445-2.6445l-0.64649-8.9434c-0.21324-2.9486-0.63231-5.5788-1.2539-7.791-0.62142-2.2116-1.3531-4.0244-2.7578-5.4297-0.62029-0.62031-1.1041-1.1038-1.6152-1.5274-0.25558-0.21179-0.51126-0.41419-0.9043-0.62304-0.39303-0.20886-1.0014-0.50615-1.9531-0.36329-0.49618 0.0745-0.95954 0.32801-1.3438 0.63282-7e-3 -0.0198-0.0242-0.043-0.0312-0.0625-0.26395-0.73325-0.19686-1.4402-0.29297-0.97266 0.27481-1.3375-0.23894-2.9974-1.334-3.8906-1.095-0.8932-2.4468-1.0752-3.6699-0.8789 0.38179-0.0613-0.35053-0.0495-1.123-0.41406-0.77252-0.36457-1.6854-0.96855-2.3711-1.6074-1.1546-1.0757-2.5085-1.9563-3.8926-2.625-1.3841-0.66865-2.7238-1.168-4.293-1.168-2.5943 0-7.4672 0.57982-14.217 1.5137s-15.188 2.2351-24.164 3.7109c-2.0504 0.33715-4.1581 0.7348-6.25 1.0879 8.949-2.195 17.689-4.2479 24.691-5.6699 11.612-2.3579 17.145-3.2921 21.398-5.4199 3.7589-1.8804 6.0842-4.8381 9.5703-9.3223 0.41039 0.28406 0.77883 0.64021 1.2637 0.6875 1.5306 0.14925 2.0585-0.49719 2.5059-0.85547 0.44734-0.35829 0.81222-0.73344 1.2461-1.1934 0.86768-0.91964 1.8481-1.5424 1.8672-3.5586 0.01-1.0081-0.62618-2.0893-1.2226-2.5898-0.0665-0.0558-0.11695-0.0508-0.18164-0.0996 0.26591-0.6814 0.734-1.666 1.5605-2.8789 1.8887-2.7716 4.9701-6.147 7.8496-8.2715l4.8203-3.5566c1.9572-1.4459 1.0895-4.5445-1.334-4.7637l-11.184-1.0059c-3.5262-0.31686-8.6585-0.59136-12.846-0.9082zm112.24 2.4355c0.0377 0.0156 0.49805 0.25878 0.49805 1.3496 0-0.46665-0.27933-0.90431-0.49805-1.3496zm86.816 8.0742c0 0.46182-0.1445 0.82012-0.3086 1.0977 0.13955-0.34149 0.3086-0.665 0.3086-1.0977zm-68.488 1.6211c0 0.49221 0.16376 0.95146 0.37891 1.3516-0.17957-0.17186-0.37891-0.49929-0.37891-1.3516zm-93.076 70.584c1e-3 0.50568-1e-3 1.0598 0.25977 1.4824-0.24474-0.39597-0.29986-0.95684-0.25977-1.4824zm5.0684 0.44726c-5e-3 0.0374 0.0288 0.0878 0.0215 0.12305-0.0361 0.17265-0.0993 0.1993-0.15039 0.32617 0.0367-0.1651 0.11313-0.26954 0.1289-0.44922zm41.168 28.061c-0.0286 0.0955-0.21374 0.35938-1.2305 0.35938 0.37653 0 0.80864-0.20129 1.2305-0.35938zm214.82 154.66c-0.10821 0.11332-0.22377 0.26252-0.33789 0.44532 0.13258-0.2041 0.20253-0.33989 0.33789-0.44532zm4.5488 1.8145c0 0.59206-0.19523 1.0201-0.41406 1.3633 0.20556-0.33708 0.41406-0.70337 0.41406-1.3633z" color="#000000" color-rendering="auto" dominant-baseline="auto" image-rendering="auto" opacity=".03" shape-rendering="auto" solid-color="#000000" style="font-feature-settings:normal;font-variant-alternates:normal;font-variant-caps:normal;font-variant-ligatures:normal;font-variant-numeric:normal;font-variant-position:normal;isolation:auto;mix-blend-mode:normal;paint-order:normal;shape-padding:0;text-decoration-color:#000000;text-decoration-line:none;text-decoration-style:solid;text-indent:0;text-orientation:mixed;text-transform:none;white-space:normal"/><path d="m-13.179 165.02v-178.34h1052.9v213.11l-31.733-17.504c-8.7632-4.8339-16.73-16.071-21.526-19.914-35.532-28.472-79.35-47.335-122.94-52.927-14.776-1.8952-45.023-2.1698-58.556-0.53179-44.393 5.3734-89.465 24.097-124.09 51.55-5.6446 4.4751-6.5859 5.6438-4.995 6.2018 1.6725 0.58671 1.3773 1.1323-2.0119 3.7173-2.1846 1.6663-4.6813 4.4513-5.5481 6.1889-1.4855 2.9779-1.446 3.1593 0.6892 3.1593 2.1962 0 2.2051 0.0664 0.2925 2.1799-1.9284 2.1309-1.9036 2.1799 1.1027 2.1799 1.6914 0 2.741 0.33428 2.3325 0.74288-0.4086 0.40856-3.4831 0.61593-6.8322 0.46078-5.117-0.23701-6.3424 0.0793-7.675 1.9819-0.8721 1.2452-2.1244 2.264-2.7828 2.264-0.6583 0-0.3093-0.98092 0.7757-2.1798 2.8775-3.1796-0.061-2.7805-4.0135 0.54497-2.5697 2.1623-4.5148 2.7472-9.4217 2.8334-4.7398 0.0833-5.5473 0.31239-3.4586 0.9813 2.1436 0.68646 1.5036 0.89581-2.9997 0.98126-5.0373 0.0956-6.1493 0.55733-9.2643 3.8466-2.3806 2.5138-5.3147 4.1824-8.9595 5.0951-2.9809 0.74647-6.6593 2.0041-8.1745 2.7949-1.5151 0.79076-3.4904 1.4752-4.3896 1.521-1.0946 0.0558-0.9145 0.39292 0.545 1.0201 1.9941 0.85694 2.0085 0.94323 0.1681 1.0133-2.2884 0.0872-8.3426 3.4191-8.3426 4.5914 0 0.42626 0.8583 0.96001 1.9074 1.1862 1.049 0.22614-10.845 0.76108-26.431 1.1888-38.521 1.057-42.022 2.2544-8.5357 2.9196 15.088 0.29972 27.747 0.86137 28.133 1.2481 0.7974 0.79984-9.9539 22.787-11.831 24.195-0.7578 0.56851-0.4976 0.68574 0.6807 0.3067 2.6021-0.83707 2.3954 0.49687-0.7561 4.8789-1.4648 2.0369-4.0398 6.0438-5.7221 8.9043-2.4932 4.2394-3.8646 5.4072-7.4183 6.3172-27.05 6.9261-51.161 13.979-50.397 14.743 0.2723 0.27226 4.6113-0.45635 9.6422-1.6192 7.4189-1.7148 31.604-6.2713 43.207-8.1404 1.5775-0.25416 2.4523 0.15716 2.4523 1.153 0 0.85439-0.5407 1.2139-1.2067 0.80232-0.812-0.50186-0.9662 0.0114-0.4715 1.5706 0.4934 1.5544 0.2628 2.3307-0.7007 2.36-0.7897 0.0241-0.087 0.77539 1.5615 1.6697 1.6484 0.89432 2.9972 2.1609 2.9972 2.8146 0 0.77502-0.578 0.70885-1.6612-0.1901-3.2444-2.6926-2.8643-0.0668 0.4609 3.1837 1.8591 1.8174 3.3802 3.7588 3.3802 4.3143 0 0.55554 0.697 1.2776 1.549 1.6044 1.3154 0.50482 1.3374 1.467 0.1458 6.3837-0.7717 3.1841-2.2362 10.694-3.2544 16.688-1.0183 5.9946-2.0794 12.125-2.3582 13.624-0.3573 1.9212-2.744 4.1714-8.0922 7.6295-4.1719 2.6975-7.5906 5.2786-7.597 5.7358-0.01 0.45715 3.4216-0.89778 7.6178-3.011 5.8432-2.9426 7.6295-3.4562 7.6295-2.1936 0 0.90672 0.7357 1.6486 1.6349 1.6486 1.5683 0 2.0849 1.2111 1.7258 4.0456-0.092 0.72638 1.8612 2.3557 4.3406 3.6206 4.1555 2.12 4.4739 2.592 4.0718 6.0362-0.2894 2.4793 0.018 3.7364 0.9141 3.7364 0.7576 0 1.5378-1.7938 1.7777-4.0872l0.4276-4.0872 0.1832 4.0872c0.1692 3.774 0.4338 4.0872 3.453 4.0872 2.1798 0 3.2697 0.54496 3.2697 1.6349 0 0.89918-0.7357 1.6349-1.6348 1.6349-0.9083 0-1.6349 0.96883-1.6349 2.1799 0 1.4048-0.7266 2.1798-2.0436 2.1798-2.349 0-3.406 3.7629-3.406 12.125 0 3.2601-0.4816 5.3134-1.2463 5.3134-1.6521 0-0.4835 15.578 2.4754 32.999 8.4357 49.668 29.738 93.734 63.938 132.26 7.8255 8.815 25.404 24.945 34.561 31.713l7.8475 21.343-570.52 0.0349-136.19 0.0343z" filter="url(#b)" opacity=".2" stroke="#000919" stroke-linecap="square" stroke-width="3.2696" style="paint-order:normal"/><path d="m-17.021-14.668v6.6152l0.01367 594.16 732.13-0.0703-33.355-22.738c-8.3721-6.1994-26.294-22.637-33.486-30.738v-2e-3c-33.442-37.674-54.129-80.483-62.365-128.98-1.4488-8.5301-2.4575-16.646-2.8906-22.42-0.20294-2.7053-0.24628-4.7987-0.20898-6.0762 0.0987-0.13595 0.11575-0.0752 0.22656-0.25195h-2e-3c0.71105-1.1335 1.0508-2.3086 1.2285-3.0664 0.40103-1.71 0.51172-3.4634 0.51172-5.3906 0-3.3243 0.28801-5.2423 0.49414-6.3535 0.91863-0.3971 1.8326-0.9508 2.6387-1.8106 0.91433-0.97521 1.4442-2.0548 1.7852-3.123 2.2422-1.4452 3.8008-3.933 3.8008-6.832 0-3.4727-1.643-5.7278-4.4726-7.1426-0.79169-0.3958-1.5738-0.58246-2.3398-0.74805l-0.26562-5.8926-5.8066-0.17383c-1.5439-1.5137-3.2588-2.5471-4.8203-3.3438-0.29716-0.15159-0.41447-0.26376-0.6875-0.43164-0.0781-0.93623-0.27563-1.9471-0.71485-2.9766-0.83711-1.9623-2.2181-2.9654-3.6758-3.6738-0.012-0.0221-1e-3 -0.0189-0.0137-0.041 0.57092-0.97779 1.0994-2.0096 1.3301-3.25 0.31852-1.7127 1.3545-7.7164 2.375-13.725 0.99507-5.8576 2.5035-13.521 3.1621-16.238 0.60346-2.4899 1.1019-4.3178 1.0508-6.5547v-2e-3c-0.0299-1.2822-0.30203-3.0231-1.4785-4.6856-0.66473-0.93936-1.4143-1.5553-2.1426-2.0215-0.0385-0.068-0.10661-0.26909-0.13476-0.31641v-2e-3c-0.3827-0.64325-0.79364-1.2035-1.2051-1.7285 1.6e-4 -7.9e-4 -1.6e-4 -1e-3 0-2e-3 0.13009-0.63315 0.22266-1.2606 0.22266-1.543 0-2.0174-1.103-3.8926-1.377-4.2969-0.48356-0.71376-1.0156-1.2662-1.4883-1.7188 0.49108-1.1121 0.68555-2.2498 0.68555-3.2012 0-1.632-0.50489-2.9111-1.2207-4.0703-0.11694-0.18937-0.29251-0.35336-0.42383-0.53711 1.208-1.3591 2.2639-2.8234 3.2441-4.4902 1.551-2.6372 4.1931-6.7283 5.3926-8.3965 1.5333-2.1319 3.212-4.0791 3.7031-7.2441v-2e-3c0.10788-0.69369 0.0262-1.8887-0.30859-3.1504 1.3071-2.3723 2.7713-5.2081 4.1719-8.0723 1.4514-2.9683 2.815-5.9057 3.8184-8.2871 0.5001-1.187 0.91481-2.2358 1.2383-3.2305 0.14488-0.44544 0.32922-1.0373 0.45117-1.7441l2e-3 -2e-3v-4e-3c3e-3 -0.017 4e-3 -0.0957 8e-3 -0.11719 0.29847-0.0259 0.61089-0.0478 0.90625-0.0879 0.13912-2e-3 0.1896 0.0205 0.32031 4e-3 0.99632-0.12671 1.4368-0.38906 2.0371-0.68555-0.40573 0.20035 0.39052-0.10983 1.082-0.625 0.69151-0.51516 1.3006-1.2482 1.7578-2.0547 0.43662-0.77006 0.42266-0.93816 0.50976-1.1992 0.0871-0.26107 0.22842-0.79443 0.22852-0.79492v-4e-3l2e-3 -4e-3s0.0134-0.14406 0.0234-0.24804c3e-3 -9.8e-4 5e-3 -3e-3 8e-3 -4e-3 0.29763-0.10848 0.54248-0.19189 0.74609-0.25977 0.32755-0.0163 0.61809-0.0182 1.0371-0.0762-0.0661 9e-3 1.1145-0.16623 1.9883-0.54687 0.27656-0.12063 1.593-0.79975 2.4648-1.8301 0.63664-0.75217 0.99703-1.4274 1.2578-2.1445 0.47494-0.19243 0.79625-0.33591 1.6621-0.63477 1.34-0.46251 2.9227-0.95329 4.1465-1.2598 4.7032-1.1776 8.8949-3.5209 12.156-6.9648 1.3841-1.4614 1.683-1.5765 1.6445-1.5605-0.14308 0.0594 0.65237-0.17679 2.9414-0.22071 1.172-0.0222 2.1294-0.0515 2.9688-0.10547 0.59125-0.038 1.7132-0.0802 2.9551-0.48632 0.21935-0.0717 1.0738-0.3899 1.7754-0.86328h2e-3c0.50433-0.34045 0.53592-0.52263 0.7461-0.77149 2.8269-0.22694 5.4599-0.66231 7.6777-1.6992 0.7742 0.42326 1.5885 0.76563 2.8691 0.76563 2.7429 0 5.1253-1.8563 5.4844-2.1484 0.73468-0.59768 1.3415-1.3651 1.957-2.1172 0.0713 0.0371 0.78832-0.0773 2.7109 0.0117 1.898 0.0879 3.699 0.0804 5.2676-0.0254 0.77243-0.0521 1.5308-0.12645 2.3164-0.27344 0.36451-0.0682 0.8776-0.18115 1.4258-0.36914-0.0931 0.0318 1.7329-0.65288 2.8027-1.7226h2e-3c0.69683-0.69719 1.681-2.0255 1.9512-3.8633 0.32408-2.2047-0.21599-3.6495-1.3164-5.0996-0.2327-0.30664-0.5733-0.44896-0.86719-0.70313-2e-3 -0.23433 0.0967-0.46949 0.0664-0.69531-0.11359-0.84645-0.3783-1.499-0.68554-2.082 0.54856-0.58598 0.94437-1.1416 1.3144-1.4238 1.519-1.1586 3.3811-2.2617 4.7109-4.7188 0.44354-0.81946 0.96231-2.1636 0.88867-3.8027-3e-3 -0.0581-0.0292-0.0859-0.0332-0.14257 0.47752-0.41789 0.60633-0.59257 1.5391-1.332 33.581-26.625 77.674-44.949 120.78-50.166 12.245-1.4821 43.22-1.2318 56.92 0.52539 42.281 5.4241 85.072 23.824 119.64 51.527 4.5115 3.6151 14.524 12.311 20.762 19.195l32.666 36.023v-232.11zm652.62 206.67c0.016-2e-3 -0.35497 0.0335-0.42187 0.0352h-0.0293c0.1382-7e-3 0.43678-0.0331 0.45117-0.0352zm-63.93 86.854-2e-3 0.0684c-0.55089 0.51417-0.85602 0.59393-0.73242 0.5293 0.0655-0.0342 0.4623-0.40366 0.73438-0.59766zm2.2226 50.904c0.0287 0.024 0.27274 0.25566 0.0176 6e-3l4e-3 8e-3c-3e-3 -2e-3 -0.0188-0.0114-0.0215-0.0137zm8.3535 6.4648 0.0351 0.0215c0.37719 0.6592 0.41487 1.1292 0.39258 1.0195-0.0147-0.0722-0.24571-0.60552-0.42773-1.041z" color="#000000" color-rendering="auto" dominant-baseline="auto" image-rendering="auto" opacity=".04" shape-rendering="auto" solid-color="#000000" style="font-feature-settings:normal;font-variant-alternates:normal;font-variant-caps:normal;font-variant-ligatures:normal;font-variant-numeric:normal;font-variant-position:normal;isolation:auto;mix-blend-mode:normal;paint-order:normal;shape-padding:0;text-decoration-color:#000000;text-decoration-line:none;text-decoration-style:solid;text-indent:0;text-orientation:mixed;text-transform:none;white-space:normal"/><path d="m-10.493-8.2097h1031.8v208.35l-21.15-23.325c-6.7194-7.4168-16.73-16.071-21.526-19.914-35.532-28.472-79.35-47.335-122.94-52.927-14.776-1.8952-45.023-2.1698-58.556-0.5318-44.393 5.3734-89.465 24.097-124.09 51.55-5.6447 4.4751-6.5859 5.6438-4.9951 6.2018 1.6726 0.5867 1.3773 1.1323-2.0118 3.7173-2.1846 1.6663-4.6813 4.4513-5.5482 6.1889-1.4855 2.9779-1.446 3.1592 0.68918 3.1592 2.1962 0 2.2051 0.066 0.29255 2.1799-1.9284 2.1309-1.9036 2.1799 1.1026 2.1799 1.6915 0 2.7411 0.3342 2.3326 0.7428-0.4086 0.4086-3.4831 0.616-6.8322 0.4608-5.1171-0.237-6.3424 0.079-7.675 1.9819-0.87217 1.2452-2.1244 2.264-2.7828 2.264-0.65831 0-0.30929-0.9809 0.77574-2.1799 2.8775-3.1796-0.0609-2.7805-4.0136 0.545-2.5697 2.1623-4.5148 2.7472-9.4217 2.8334-4.7399 0.083-5.5473 0.3124-3.4586 0.9813 2.1435 0.6865 1.5036 0.8958-2.9997 0.9812-5.0374 0.096-6.1494 0.5574-9.2644 3.8466-2.3806 2.5139-5.3147 4.1825-8.9595 5.0951-2.9808 0.7465-6.6593 2.0041-8.1744 2.7949s-3.4905 1.4752-4.3896 1.5211c-1.0946 0.056-0.91448 0.3929 0.54494 1.02 1.9942 0.857 2.0085 0.9433 0.16817 1.0134-2.2884 0.087-8.3426 3.419-8.3426 4.5913 0 0.4263 0.85831 0.9601 1.9074 1.1863 1.049 0.2261-10.845 0.761-26.431 1.1888-38.521 1.0569-42.021 2.2544-8.5356 2.9196 15.088 0.2997 27.747 0.8613 28.133 1.2481 0.79742 0.7998-9.954 22.787-11.831 24.195-0.75782 0.5685-0.4976 0.6857 0.68072 0.3067 2.6021-0.8371 2.3954 0.4968-0.7561 4.8788-1.4648 2.0369-4.0398 6.0438-5.7221 8.9044-2.4933 4.2394-3.8647 5.4071-7.4184 6.3172-27.05 6.9261-51.161 13.979-50.397 14.743 0.27229 0.2722 4.6112-0.45641 9.6422-1.6192 7.419-1.7148 31.604-6.2713 43.207-8.1406 1.5775-0.25408 2.4523 0.15722 2.4523 1.1531 0 0.85431-0.5407 1.2139-1.2067 0.80229-0.81206-0.50188-0.96626 0.0111-0.47154 1.5706 0.49334 1.5544 0.26287 2.3307-0.70064 2.3599-0.78976 0.0241-0.0871 0.77539 1.5614 1.6697 1.6485 0.89432 2.9973 2.1609 2.9973 2.8146 0 0.77499-0.578 0.7088-1.6612-0.1901-3.2444-2.6926-2.8643-0.067 0.46088 3.1836 1.8591 1.8174 3.3802 3.7589 3.3802 4.3144s0.69699 1.2776 1.549 1.6044c1.3155 0.5048 1.3374 1.467 0.14589 6.3837-0.77173 3.1841-2.2362 10.694-3.2544 16.688-1.0182 5.9946-2.0794 12.125-2.3582 13.624-0.35735 1.9212-2.744 4.1714-8.0922 7.6295-4.1719 2.6975-7.5906 5.2787-7.597 5.7358-7e-3 0.4571 3.4216-0.8978 7.6178-3.011 5.8431-2.9426 7.6294-3.4562 7.6294-2.1936 0 0.9067 0.7357 1.6486 1.6349 1.6486 1.5683 0 2.085 1.2111 1.7258 4.0456-0.092 0.7264 1.8612 2.3557 4.3407 3.6206 4.1555 2.12 4.4739 2.592 4.0718 6.0362-0.28948 2.4793 0.018 3.7364 0.91401 3.7364 0.75766 0 1.5379-1.7938 1.7778-4.0872l0.42754-4.0872 0.18323 4.0872c0.16917 3.774 0.43378 4.0872 3.453 4.0872 2.1798 0 3.2698 0.5449 3.2698 1.6349 0 0.8991-0.7357 1.6349-1.6349 1.6349-0.90832 0-1.6349 0.9688-1.6349 2.1799 0 1.4048-0.72666 2.1798-2.0436 2.1798-2.349 0-3.406 3.7629-3.406 12.125 0 3.2601-0.4816 5.3134-1.2463 5.3134-1.6521 0-0.48356 15.578 2.4754 32.999 8.4358 49.668 29.739 93.734 63.938 132.26 7.8254 8.8151 25.404 24.945 34.561 31.713l15.785 10.76-704.07 0.069z" fill="url(#f)" stroke="#224070" stroke-linecap="square" stroke-width="5.2917" style="paint-order:normal"/><path transform="matrix(.38147 0 0 .38147 -448.81 -252.48)" d="m2719 1208.5c-89.905 0.104-149.3 7.3646-149.5 7.3887-3e-4 0-0.1113 0.01-0.1113 0.01l0.25 2.9902s328.16-15.668 591.1 90.531c9.0967 40.059 35.27 104.92 49.814 137.19-20.448 14.099-42.279 28-59.994 50.19-17.997 22.543-31.643 53.583-35.307 101.69-7.3587 96.658 75.664 181.55 178.54 184.19 96.954 5.1644 163.58 5.8866 244.46 47.805 38.332 21.195 73.475 64.317 99.738 116.8 26.264 52.488 43.669 114.31 46.801 172.78l2.9961 0.039v-0.1992c3.3854-43.837-3.1194-112.49-29.586-177.5-24.86-61.066-67.747-118.56-136.28-149.12 96.821 20.36 150.98 66.106 180.63 107.91 31.141 43.897 35.766 83.01 35.766 83.01l2.9824-0.045s3.9971-46.147-28.104-97.404-100.28-107.64-243.91-128.71c-36.4-5.3408-82.402-9.4487-128.96-9.5664h-0.026c-114.29 1.5111-172.99-64.144-182.07-131.74-4.537-33.796 3.3933-68.084 23.111-94.725 19.718-26.64 51.196-45.694 94.09-49.045h0.01c70.883-5.8487 156.12 32.412 239.6 71.279-0.2456 10.066 0.3263 19.508 7.2266 28.133 3.8348 4.7931 12.166 9.1336 20.678 13.154 8.5116 4.0206 17.238 7.5995 21.207 9.8769 8.256 4.7391 35.052 21.825 51.268 42.932l1.4102 1.8379 1.0996-2.043c0.6257-1.1703 3.1136-3.7343 6.3633-6.4531s7.2883-5.7534 11.221-8.584c7.8648-5.6613 15.295-10.498 15.295-10.498l4.4082-2.8711-5.2559 0.1114s-1.5686 0.047-5.3378-0.6719c-3.7693-0.7195-9.6275-2.2063-17.865-5.2852-8.0259-2.9993-17.049-9.1773-24.049-14.734-3.4998-2.7786-6.5071-5.406-8.6523-7.3907-1.0727-0.9923-1.9265-1.8236-2.5176-2.4277-0.2956-0.302-0.5272-0.5437-0.6719-0.709-0.052-0.059-0.083-0.1177-0.1133-0.1699-0.089-0.2485-0.1081-0.3943-0.078-0.4512 0.038-0.07 0.4295-0.5549 2.1562-0.9004l0.375-0.072 0.2969-0.252c1.257-1.0582 1.4343-2.7785 1.1133-4.2148-0.3209-1.4364-1.0493-2.8683-1.9336-4.2969-1.7686-2.8573-4.2065-5.639-5.7656-7.1973-0.1618-0.1621-0.8404-1.0299-1.6465-2.207s-1.8075-2.7191-2.9375-4.4961c-2.2601-3.554-5.0159-8.0393-7.6914-12.459-5.351-8.8393-10.324-17.298-10.631-17.812-0.3152-0.5259-0.8-1.8439-2.4726-2.9609l-0.1778-0.1172-0.1992-0.061c-1.5613-0.5021-3.5641-0.4726-6.0293-0.3457-2.4651 0.1269-5.2911 0.425-7.9726 0.7675-5.0479 0.6448-9.0506 1.3614-9.5684 1.4532-0.5828-0.2903-28.606-14.316-38.406-44.424l-2.9239 0.502c0.1089 4.0222-3.745 10.322-0.7754 20.973-13.758-6.5114-25.576-17.213-35.174-42.469l-1.3672-3.6016-1.4238 3.5801c-3.1916 8.0265-3.2126 14.689-2.3984 19.34 0.456 2.6055 0.8486 2.8892 1.4082 4.1563-6.7931-2.3256-33.078-12.881-37.979-41.131l-0.8632-5.0136-1.9942 4.6875c-3.2788 7.7301-3.3075 14.049-2.4648 18.426 0.3958 2.0558 0.7047 2.0786 1.2324 3.2559-8.2693-4.0356-63.332-29.363-153.74-29.801-15.918-1.4623-28.65-9.5189-38.844-21.238-10.196-11.721-17.782-27.106-23.15-42.947s-8.5295-32.134-9.9649-45.635c-1.4353-13.501-1.0459-24.384 0.295-28.672l0.3691-1.1875-1.0996-0.5839s-94.664-49.857-280.58-71.848c-69.714-8.2481-134.72-10.775-188.75-10.713zm243.8 93.148c-32.231-0.066-67.418 0.9267-104.69 3.5762-170.32 12.106-341.97 71.605-342.34 71.73-3e-4 1e-4 -0.125 0.037-0.125 0.037l0.8555 2.8711s351.52-88.378 645.95-36.533l0.2578-1.4766 1.4336-0.4414-7.9433-25.623-0.9004-0.1621s-71.317-12.665-178.86-13.887c-4.4811-0.051-9.0265-0.082-13.631-0.092zm194.6 52.75c-2.2974-0.01-4.967 0-8 0.057-36.396 0.6335-125.25 6.924-253.75 47.133-174.64 54.645-273.8 132.17-273.8 132.17l1.6543 2.4942s259.73-144.96 552.67-153.2l2.0156-0.061-9.3535-28.272-1.0039-0.066s-3.5472-0.2352-10.44-0.2637zm180.57 22.225-1.004 2.8203c80.394 32.679 150.29 75.943 204.52 135.53l2.6055 2.8711v-2.4726l14.586-0.9532-1.8594-2.2578s-75.116-91.106-218.7-135.49c-0.01 0-0.016-0.01-0.023-0.01-0.044-0.014-0.081-0.029-0.125-0.043zm-103.39 166.07c-3.0567 0.023-5.7384 1.9545-6.7539 4.83-0.3322 0.9352-0.4297 1.8809-0.4297 2.8614v96.379c0.1134 4.0158 3.2532 7.1485 7.2305 7.1582 8.3364 0.011 25.504-0.033 25.504-0.033l-0.033-7.459h-25.041c-0.1334-0.8013-0.098-95.121 0.035-95.56 0.7671-0.1074 202.62-0.068 203.06 0.039 0.1224 0.7274 0.088 95.06-0.045 95.555h-168.81v7.4609s0.6594 0 0.9609 0.01h168.58c3.0234-0.034 5.7022-1.9275 6.7324-4.7793 0.3323-0.9084 0.4278-1.8451 0.4278-2.8027v-96.562c-0.063-3.19-2.2352-5.9931-5.3047-6.8418-0.8128-0.2177-1.6231-0.2558-2.4629-0.2558zm330.67 10.516c0.7743 0.7973 1.8804 2.3643 3.0781 4.2734 1.833 2.9217 3.901 6.2209 5.9141 9.2266-0.5861-0.3594-1.2272-0.7295-2.6426-1.7188-1.9375-1.354-4.1418-3.146-4.9395-4.2441h-0.01c-0.8375-1.1521-1.4256-2.9571-1.6308-4.6367-0.1607-1.3151 0.058-2.2104 0.2285-2.9004zm-236.67 17.787c-0.063 0.121-0.1095 0.2094-0.1348 0.293-6.8414 18.356-13.675 36.72-20.514 55.074-0.034 0.034-0.035 0.087-0.035 0.123v0.057c0 0.023 0.035 0.038 0.039 0.062h9.4097c0.072-0.209 0.1552-0.389 0.2188-0.584 1.454-4.1336 2.9089-8.2594 4.3671-12.396 0.2427-0.665 0.4837-1.3342 0.7032-2.0019 0.086-0.2786 0.2297-0.4239 0.5234-0.3887 0.096 0.011 0.2064 0 0.3027 0h20.525c1.8556 5.1439 3.6997 10.25 5.5352 15.357h9.6094c-6.932-18.583-13.835-37.094-20.725-55.596zm-36.119 0.1836c-0.5353 0-0.8732 0.1566-1.2265 0.5723-7.155 8.478-14.326 16.957-21.498 25.426-0.096 0.1078-0.2195 0.2059-0.4258 0.3965v-21.092c0-1.7457 0.034-3.4976 0-5.2441h-8.998v55.305c0.7143 0.1255 8.5302 0.1013 9.0117-0.033v-0.7051h-0.025v-19.291c0-0.4349 0.122-0.7397 0.4766-1.0156 1.4889-1.1781 2.9589-2.391 4.4277-3.5937 0.1463-0.1093 0.2876-0.2061 0.4707-0.3399 0.1588 0.2052 0.2934 0.3742 0.416 0.5586 2.4977 3.6056 4.9976 7.2064 7.4942 10.807 3.0628 4.434 6.129 8.8479 9.1855 13.262 0.1697 0.2558 0.3267 0.4511 0.7032 0.4511 3.2183-0.011 6.4318-0.012 9.6464-0.012 0.1066 0 0.217-0.039 0.3868-0.074-7.117-10.371-14.205-20.67-21.314-31.031 1.4303-1.6614 2.8134-3.262 4.1953-4.9004 1.3857-1.6043 2.7667-3.2125 4.1504-4.8282 1.3814-1.6112 2.7533-3.2248 4.1387-4.8378 1.3821-1.6167 2.7667-3.2298 4.1328-4.8418 1.3759-1.6 2.7408-3.2014 4.1992-4.9278h-0.8105c-2.9124 0-5.8233 0.015-8.7364-0.012zm72.918 0.059c-0.15 0.6914-0.1122 54.917 0.035 55.367h32.367v-7.7031h-15.613c-1.3126 0-2.6362 0.011-3.9434 0-1.2881-0.011-2.5701 0.049-3.9062-0.033v-43.359h-0.012c0-1.4321 0.05-2.8526-0.039-4.2715zm38.545 0.016v55.338h8.9649c0.034-0.093 0.051-0.1415 0.051-0.2031v-54.807h0.01c0-0.086 8e-4 -0.1573-0.033-0.2461 0-0.023-0.033-0.034-0.033-0.047 0-0.011-0.039-0.033-0.039-0.033zm-70.529 7.7481c0.096 0.1451 0.1693 0.2325 0.1953 0.3281 1.5032 5.6157 3.5596 11.066 5.4258 16.574 0.7751 2.2921 1.5762 4.5694 2.3653 6.8633 0.06 0.2048 0.12 0.4101 0.1933 0.6641h-16.123c0.072-0.2393 0.1339-0.4448 0.2031-0.6504 1.8924-5.4831 3.8121-10.942 5.6563-16.44 0.7399-2.2095 1.2978-4.4887 1.9277-6.7422 0.054-0.1704 0.086-0.3406 0.1582-0.5976zm-70.541 81.451c-1.7088 0-3.0265 0.5024-3.9453 1.5039-0.9226 1.0034-1.3848 2.436-1.3848 4.3047s0.4598 3.3085 1.377 4.3243c0.9155 1.0147 2.2269 1.5214 3.9355 1.5214 1.6916 0 2.9953-0.5095 3.916-1.5312 0.9225-1.0235 1.3829-2.453 1.3829-4.2988 0-1.8476-0.4584-3.2824-1.3809-4.2989-0.9191-1.0174-2.2185-1.5254-3.9004-1.5254zm56.908 0.016c-1.13 0-2.0321 0.2728-2.7031 0.8125-0.6714 0.542-1.0078 1.2877-1.0078 2.2304 0 0.7556 0.2117 1.399 0.6367 1.9375 0.4219 0.5368 1.1504 1.0116 2.1855 1.4297 0.9976 0.4033 1.66 0.7508 1.9805 1.0469 0.319 0.2963 0.4805 0.6562 0.4805 1.0762 0 0.47-0.173 0.8447-0.5215 1.125-0.347 0.2774-0.8935 0.416-1.627 0.416-0.4974 0-1.0394-0.07-1.6191-0.209-0.5825-0.1398-1.1289-0.3293-1.6445-0.5723v1.75c0.8154 0.3971 1.8622 0.5957 3.1406 0.5957 1.2817 0 2.2865-0.2858 3.0156-0.8593 0.7275-0.5711 1.0918-1.3632 1.0918-2.3692 0-0.5148-0.092-0.9541-0.2715-1.3301-0.1786-0.3791-0.4636-0.7173-0.8496-1.0175-0.3902-0.2991-0.9983-0.6237-1.8242-0.9668-0.7416-0.3043-1.2534-0.5512-1.5352-0.7383-0.2857-0.1856-0.4891-0.3814-0.6113-0.5879-0.1263-0.2109-0.1875-0.4635-0.1875-0.7578 0-0.4279 0.1552-0.7738 0.4648-1.0313 0.3088-0.2642 0.7634-0.3925 1.3633-0.3925 0.7874 0 1.6869 0.2102 2.6953 0.6347l0.584-1.5078c-1.0689-0.4761-2.1487-0.7148-3.2344-0.7148zm44.322 0c-1.1306 0-2.0288 0.2728-2.6992 0.8125-0.6711 0.542-1.0098 1.2877-1.0098 2.2304 0 0.7556 0.2122 1.399 0.6367 1.9375 0.4217 0.5368 1.1497 1.0116 2.1856 1.4297 1.0004 0.4033 1.6597 0.7508 1.9804 1.0469 0.319 0.2963 0.4785 0.6562 0.4785 1.0762 0 0.47-0.174 0.8447-0.5214 1.125-0.3478 0.2774-0.8907 0.416-1.625 0.416-0.4971 0-1.0409-0.07-1.6172-0.209-0.5862-0.1398-1.1311-0.3293-1.6504-0.5723v1.75c0.8188 0.3971 1.8665 0.5957 3.1465 0.5957 1.2801 0 2.2859-0.2858 3.0136-0.8593 0.7264-0.5711 1.0899-1.3632 1.0899-2.3692 0-0.5148-0.093-0.9541-0.2715-1.3301-0.1829-0.3795-0.4667-0.717-0.8516-1.0175-0.3883-0.2994-0.9979-0.6234-1.83-0.9668-0.7329-0.3043-1.25-0.5512-1.5313-0.7383-0.2823-0.1856-0.487-0.3814-0.6094-0.5879-0.1224-0.2109-0.1875-0.4635-0.1875-0.7578 0-0.4279 0.1539-0.7738 0.4649-1.0313 0.3088-0.2642 0.7669-0.3925 1.3633-0.3925 0.7908 0 1.6893 0.2102 2.6972 0.6347l0.584-1.5078c-1.0699-0.4761-2.1521-0.7148-3.2363-0.7148zm22.453 0c-1.0997 0-2.0605 0.2351-2.875 0.705-0.8135 0.4692-1.4377 1.1444-1.8691 2.0274-0.4314 0.8855-0.6465 1.9152-0.6465 3.0898 0 1.8704 0.445 3.307 1.334 4.3086 0.8875 1.0068 2.1602 1.5078 3.8164 1.5078 1.1228 0 2.1332-0.1692 3.0215-0.5019v-1.5899c-0.4833 0.1539-0.9549 0.2744-1.4043 0.3731-0.4473 0.094-0.9139 0.1406-1.3926 0.1406-1.1076 0-1.9571-0.3569-2.5449-1.0703-0.585-0.7108-0.877-1.7667-0.877-3.1504 0-1.3301 0.3049-2.3647 0.9141-3.1211 0.609-0.7556 1.4436-1.1308 2.5058-1.1308 0.468 0 0.9175 0.065 1.3457 0.205 0.4253 0.1361 0.8277 0.2956 1.211 0.4766l0.666-1.5391c-0.9796-0.4867-2.0525-0.7304-3.2051-0.7304zm-146.62 0.1621 3.7539 6.9941v4.3281h1.8594v-4.3906l3.7715-6.9316h-2.0137l-2.6777 5.1679-2.6797-5.1679zm32.238 0v11.322h1.8379v-4.6484h4.2656v-1.5703h-4.2656v-3.5371h4.5488v-1.5664zm10.025 0v11.322h1.8359v-4.6484h4.2656v-1.5703h-4.2656v-3.5371h4.5528v-1.5664zm10.025 0v11.322h6.4043v-1.5722h-4.5508v-3.5528h4.2637v-1.5488h-4.2637v-3.084h4.5508v-1.5644zm10.436 0v11.322h1.6797v-5.8828c0-0.796-0.039-1.6725-0.1094-2.6328l-0.037-0.5019h0.055l5.5703 9.0195h2.2637v-11.322h-1.6914v5.9336c0 0.4164 1e-4 0.9965 0.051 1.7442 0.034 0.7477 0.055 1.1791 0.057 1.2968h-0.043l-5.5546-8.9765zm24.311 0v11.32h1.8515v-11.32zm4.9277 0 3.9473 11.32h1.9531l3.9648-11.32h-1.9218l-2.3555 7.0058c-0.09 0.2495-0.2032 0.6336-0.3457 1.1485-0.1368 0.5148-0.2425 0.9721-0.3086 1.3613-0.047-0.257-0.1328-0.65-0.2715-1.1797-0.1425-0.5298-0.2695-0.9604-0.3984-1.2969l-2.3614-7.039zm12.951 0v11.32h6.3984v-1.5703h-4.5527v-3.5528h4.2695v-1.5507h-4.2695v-3.0821h4.5527v-1.5644zm26.443 0v11.32h6.4024v-1.5703h-4.5528v-3.5528h4.2657v-1.5507h-4.2657v-3.0821h4.5528v-1.5644zm21.973 0v7.2949c0 1.2976 0.3885 2.322 1.168 3.0644 0.7809 0.7451 1.8694 1.1172 3.2734 1.1172 0.9445 0 1.7584-0.1687 2.4375-0.5058 0.6773-0.3368 1.1953-0.8226 1.5547-1.4473 0.3602-0.6264 0.539-1.3598 0.539-2.1953v-7.3281h-1.8476v7.1465c0 1.8326-0.8706 2.75-2.6172 2.75-0.8967 0-1.5681-0.2252-2-0.668-0.434-0.4419-0.6484-1.1288-0.6484-2.0645v-7.164zm13.453 0v11.322h1.8496v-4.5214h1.8281l2.7051 4.5214h2.1094l-3.1953-5.0097c1.468-0.5992 2.1972-1.6001 2.1973-3.0137 0-1.1034-0.3504-1.9276-1.0489-2.4785-0.704-0.5447-1.7851-0.8203-3.2461-0.8203zm11.719 0v11.32h1.8515v-11.32zm5.1601 0v1.5898h3.3242v9.7305h1.8496v-9.7305h3.332v-1.5898zm10.33 0 3.7578 6.9941v4.3281h1.8574v-4.3906l3.7715-6.9316h-2.0137l-2.6777 5.1679-2.6797-5.1679zm-204.55 0v11.32h4.086c1.2641 0 2.2532-0.2832 2.9648-0.8613 0.7089-0.5772 1.0625-1.3731 1.0625-2.3887 0-0.7555-0.1907-1.353-0.5625-1.7949-0.3753-0.4436-0.9569-0.7376-1.75-0.8887v-0.076c0.6394-0.1119 1.1309-0.3886 1.4726-0.8262 0.3373-0.4383 0.5059-0.9888 0.5059-1.6504 0-0.9804-0.3438-1.699-1.0391-2.1523-0.6933-0.4534-1.8223-0.6817-3.3789-0.6817zm33.5 1.4121c1.1 0 1.9226 0.3545 2.4805 1.0743 0.5515 0.7168 0.832 1.772 0.832 3.1601 0 1.4083-0.2796 2.469-0.8379 3.1797-0.5642 0.7134-1.3905 1.0703-2.4922 1.0703-1.1035 0-1.937-0.3597-2.5019-1.0801-0.5595-0.7195-0.8418-1.7774-0.8418-3.1699 0-1.3881 0.2821-2.4424 0.8496-3.1601 0.5631-0.7187 1.4023-1.0743 2.5117-1.0743zm-31.65 0.1348h1.6016c0.8381 0 1.4467 0.1174 1.8359 0.3574 0.3822 0.237 0.5723 0.6247 0.5723 1.1563 0 0.5877-0.1775 1.0003-0.5332 1.248-0.3542 0.2427-0.9224 0.3692-1.6953 0.3692h-1.7813zm177.34 0.016h1.2227c0.8424 0 1.4729 0.1405 1.8886 0.418 0.4217 0.2801 0.627 0.7385 0.627 1.3789 0 0.6299-0.1905 1.107-0.5781 1.4277-0.3849 0.3183-1.0122 0.4786-1.875 0.4785h-1.2852zm-177.34 4.6153h1.8731c0.8214 0 1.4342 0.1423 1.832 0.4277 0.4061 0.2801 0.6055 0.7209 0.6055 1.3086 0 0.6405-0.1919 1.1075-0.5899 1.4062-0.3971 0.2967-0.9773 0.4453-1.7539 0.4453h-1.9668z" color="#000000" color-rendering="auto" dominant-baseline="auto" fill="#000919" filter="url(#c)" image-rendering="auto" opacity=".3" shape-rendering="auto" solid-color="#000000" style="font-feature-settings:normal;font-variant-alternates:normal;font-variant-caps:normal;font-variant-ligatures:normal;font-variant-numeric:normal;font-variant-position:normal;isolation:auto;mix-blend-mode:normal;shape-padding:0;text-decoration-color:#000000;text-decoration-line:none;text-decoration-style:solid;text-indent:0;text-orientation:mixed;text-transform:none;white-space:normal"/><g fill="#fff"><path d="m863.75 336.11c-0.31009-0.0831-0.61942-0.098-0.93975-0.098h-77.684c-1.166 9e-3 -2.1896 0.74571-2.577 1.8426-0.12667 0.35664-0.16354 0.71759-0.16354 1.0916v36.767c0.0433 1.532 1.241 2.7268 2.7583 2.7305 3.1802 4e-3 9.7292-0.0129 9.7292-0.0129l-0.0129-2.8454h-9.5523c-0.0509-0.30566-0.0379-36.287 0.0129-36.455 0.2926-0.0409 77.295-0.0261 77.463 0.0146 0.0468 0.2775 0.033 36.264-0.0178 36.452h-64.398v2.8457s0.25136 0 0.36638 4e-3h64.309c1.1533-0.0129 2.1751-0.73532 2.5682-1.8232 0.12667-0.34655 0.16293-0.70379 0.16293-1.0691v-36.837c-0.0241-1.2169-0.852-2.2858-2.0229-2.6094zm-65.379 31.607v-7.3588c0-0.16591 0.0468-0.28254 0.18198-0.38778 0.56798-0.44942 1.1284-0.91159 1.6888-1.3704 0.0558-0.0416 0.11017-0.0785 0.18-0.1294 0.0605 0.0783 0.11146 0.14217 0.15823 0.2125 0.95282 1.3754 1.9063 2.7493 2.8586 4.1226 1.1684 1.6915 2.3387 3.3753 3.5047 5.059 0.0647 0.0976 0.1241 0.17194 0.26776 0.17194 1.2277-4e-3 2.454-4e-3 3.6803-4e-3 0.0406 0 0.0824-0.0146 0.14709-0.0281-2.715-3.9563-5.4189-7.8854-8.131-11.838 0.54563-0.63376 1.0735-1.2437 1.6007-1.8687 0.52862-0.61198 1.0554-1.226 1.5832-1.8423 0.52697-0.61467 1.0501-1.2303 1.5785-1.8456 0.52724-0.61668 1.0554-1.232 1.5766-1.847 0.52489-0.61032 1.046-1.221 1.6023-1.8795h-0.30932c-1.111 0-2.2215 6e-3 -3.3327-4e-3 -0.20421 0-0.33313 0.0592-0.46791 0.21784-2.7295 3.2342-5.4655 6.469-8.2013 9.6995-0.0364 0.0412-0.0836 0.0785-0.16231 0.15115v-8.0458c0-0.66594 0.0129-1.3339 0-2.0001h-3.4327v21.097c0.2725 0.0479 3.2542 0.0383 3.438-0.0129v-0.26846zm18.328 0.30533c0.0275-0.0798 0.0592-0.14847 0.0835-0.22287 0.5547-1.5769 1.11-3.1511 1.6663-4.7293 0.0925-0.25369 0.18446-0.50875 0.26817-0.76346 0.033-0.10631 0.0874-0.16187 0.19939-0.14847 0.0364 4e-3 0.0786 0 0.11534 0h7.8306c0.70785 1.9622 1.4109 3.9104 2.1112 5.8588h3.6658c-2.6444-7.0891-5.2776-14.151-7.9058-21.209h-3.7483c-0.0241 0.0462-0.0419 0.0798-0.0515 0.11161-2.6098 7.0026-5.2169 14.008-7.8258 21.01-0.0129 0.0129-0.0129 0.0331-0.0129 0.0469v0.0221c0 9e-3 0.0129 0.0146 0.0144 0.024h3.5825zm3.169-9.0885c0.72189-2.0916 1.4541-4.174 2.1576-6.2712 0.28227-0.84288 0.49502-1.7123 0.73531-2.572 0.0207-0.065 0.033-0.13041 0.0605-0.22855 0.0364 0.0554 0.0647 0.0892 0.0747 0.12567 0.57342 2.1423 1.3573 4.2209 2.0691 6.3223 0.29569 0.8744 0.60192 1.7435 0.90291 2.6184 0.0228 0.0782 0.0455 0.15651 0.0734 0.25338h-6.1507c0.0275-0.0912 0.0509-0.16959 0.0773-0.24802zm18.561-10.404c0-0.5463 0.0192-1.0876-0.0151-1.6288h-3.3902c-0.0572 0.26377-0.0433 20.949 0.0129 21.122h12.348v-2.9389h-5.9566c-0.50073 0-1.0054 4e-3 -1.504 0-0.49138-4e-3 -0.9807 0.0185-1.4904-0.0129v-16.54zm14.741-1.4987c0-0.0328 0-0.06-0.0129-0.0938 0-9e-3 -0.0129-0.0129-0.0129-0.0178 0-4e-3 -0.0143-0.0129-0.0143-0.0129h-3.4017v21.11h3.4198c0.0129-0.0354 0.0192-0.0545 0.0192-0.078v-20.908z" clip-rule="evenodd" fill-rule="evenodd" stroke-width=".33515"/><path d="m785.34 383.06v-0.0291c0.24392-0.0426 0.43128-0.14847 0.56164-0.31538 0.12869-0.16722 0.19341-0.37703 0.19341-0.62939 0-0.37403-0.13169-0.64851-0.39686-0.82145-0.26451-0.17294-0.6952-0.26006-1.289-0.26006h-1.2819v4.319h1.5588c0.48223 0 0.85894-0.1086 1.1304-0.32911 0.27043-0.22018 0.40549-0.52383 0.40549-0.91126 0-0.28822-0.0722-0.51546-0.21407-0.68404-0.14318-0.16924-0.36535-0.28152-0.66793-0.33916zm-1.5069-1.4653h0.61065c0.31972 0 0.55168 0.0452 0.70015 0.13672 0.14578 0.0904 0.21853 0.23794 0.21853 0.44072 0 0.22422-0.0674 0.38207-0.20318 0.47658-0.13514 0.0925-0.35193 0.14073-0.64679 0.14073h-0.67936zm1.4189 2.9653c-0.1515 0.11319-0.37293 0.17026-0.66917 0.17026h-0.74977v-1.3688h0.71419c0.31337 0 0.54733 0.0544 0.69909 0.16321 0.15494 0.10688 0.23087 0.27483 0.23087 0.49904 0 0.24433-0.0734 0.42228-0.22521 0.53624zm3.6932-1.5845-1.0224-1.9713h-0.76754l1.4318 2.6681v1.6509h0.70922v-1.675l1.4388-2.644h-0.76849zm6.9611-2.039c-0.6519 0-1.1546 0.19136-1.5052 0.57344-0.35194 0.38273-0.52821 0.92936-0.52821 1.6422 0 0.71286 0.17565 1.2625 0.52553 1.6499 0.34925 0.3871 0.84924 0.58014 1.501 0.58014 0.64528 0 1.1426-0.19438 1.4938-0.58416 0.35186-0.39044 0.52779-0.93573 0.52779-1.6399 0-0.70482-0.17449-1.2518-0.52643-1.6395-0.35062-0.38812-0.84687-0.58216-1.4884-0.58216zm0.94415 3.4353c-0.21523 0.27215-0.53061 0.40853-0.95089 0.40853-0.42097 0-0.73895-0.13743-0.95447-0.41223-0.21344-0.27448-0.32075-0.67799-0.32075-1.2092 0-0.52953 0.10774-0.93139 0.32419-1.2052 0.21482-0.27415 0.53453-0.41022 0.95777-0.41022 0.41961 0 0.73401 0.13571 0.94684 0.41022 0.21041 0.27348 0.31668 0.67567 0.31668 1.2052 0 0.53724-0.10644 0.94175-0.31937 1.2129zm2.6021 0.95147h0.70146v-1.7729h1.6271v-0.59891h-1.6271v-1.35h1.7357v-0.5969h-2.4368v4.3187zm3.8246 0h0.70091v-1.7729h1.6268v-0.59891h-1.6268v-1.35h1.7367v-0.5969h-2.4371v4.3187zm3.8251 0h2.4426v-0.59956h-1.736v-1.3554h1.6271v-0.59119h-1.6271v-1.176h1.736v-0.59689h-2.4426zm6.9316-2.0551c0 0.15885 0 0.3804 0.0194 0.66559 0.0129 0.28523 0.0207 0.45012 0.0214 0.49503h-0.0165l-2.1188-3.4242h-0.85604v4.319h0.64081v-2.2444c0-0.30367-0.0151-0.63813-0.042-1.0044l-0.0143-0.19138h0.0214l2.1251 3.4406h0.86341v-4.319h-0.64577v2.2632zm4.4544-0.0129c-0.14881-0.1142-0.38139-0.23762-0.69677-0.36865-0.28289-0.11606-0.47797-0.21049-0.58548-0.28187-0.10903-0.0707-0.18632-0.14579-0.23298-0.22456-0.0482-0.0805-0.0722-0.17661-0.0722-0.28889 0-0.16321 0.0593-0.29527 0.17738-0.39346 0.11778-0.10086 0.29122-0.14981 0.52008-0.14981 0.30038 0 0.64384 0.0801 1.0285 0.24198l0.22287-0.57479c-0.40775-0.18163-0.82011-0.27247-1.2343-0.27247-0.43108 0-0.77523 0.10386-1.0312 0.30969-0.2561 0.20678-0.38407 0.49097-0.38407 0.85058 0 0.28823 0.0811 0.5339 0.24318 0.73934 0.16093 0.20477 0.4388 0.38609 0.83368 0.54562 0.38055 0.15385 0.63303 0.28656 0.75528 0.39951 0.12166 0.11304 0.18309 0.24968 0.18309 0.40988 0 0.17929-0.0661 0.32241-0.19914 0.42932-0.13241 0.10587-0.34016 0.15886-0.61995 0.15886-0.18977 0-0.39722-0.0265-0.61837-0.0795-0.22219-0.0534-0.43006-0.1261-0.62677-0.21885v0.66762c0.31105 0.15148 0.71047 0.22755 1.1981 0.22755 0.48897 0 0.87174-0.10931 1.1499-0.3281 0.27752-0.21785 0.41663-0.51949 0.41663-0.90323 0-0.19639-0.0352-0.36464-0.10386-0.50807-0.0681-0.1448-0.17731-0.27315-0.32475-0.38778zm1.8686 2.0678h0.70642v-4.319h-0.70642zm4.0117-1.6459c-0.0344 0.0951-0.0773 0.24163-0.1317 0.43803-0.0522 0.1964-0.0925 0.37067-0.11778 0.51915-0.0179-0.098-0.0509-0.24768-0.10386-0.44977-0.0544-0.2021-0.10258-0.36699-0.15171-0.49536l-0.90092-2.6851h-0.72595l1.5062 4.319h0.74503l1.5126-4.319h-0.73331zm2.809 1.6459h2.4411v-0.59958h-1.737v-1.3553h1.6288v-0.5912h-1.6288v-1.176h1.737v-0.59691h-2.4411zm8.2185-2.0678c-0.14813-0.1142-0.38105-0.23762-0.6985-0.36865-0.27959-0.11606-0.47651-0.21049-0.58381-0.28187-0.10774-0.0707-0.18633-0.14579-0.233-0.22456-0.0468-0.0805-0.0709-0.17661-0.0709-0.28889 0-0.16321 0.0585-0.29527 0.17718-0.39346 0.11778-0.10086 0.29204-0.14981 0.51952-0.14981 0.3017 0 0.64447 0.0801 1.029 0.24198l0.22279-0.57479c-0.40816-0.18163-0.82045-0.27247-1.2341-0.27247-0.43128 0-0.77441 0.10386-1.0302 0.30969-0.25598 0.20678-0.38469 0.49097-0.38469 0.85058 0 0.28823 0.0811 0.5339 0.24296 0.73934 0.16086 0.20477 0.43804 0.38609 0.8332 0.54562 0.38166 0.15385 0.63338 0.28656 0.75575 0.39951 0.12165 0.11304 0.18262 0.24968 0.18262 0.40988 0 0.17929-0.0661 0.32241-0.19872 0.42932-0.1327 0.10587-0.33988 0.15886-0.62002 0.15886-0.18962 0-0.39715-0.0265-0.617-0.0795-0.22363-0.0534-0.43136-0.1261-0.62945-0.21885v0.66762c0.31236 0.15148 0.71151 0.22755 1.1998 0.22755 0.48835 0 0.87235-0.10931 1.1499-0.3281 0.27711-0.21785 0.41602-0.51949 0.41602-0.90323 0-0.19639-0.0357-0.36464-0.10386-0.50807-0.0697-0.1448-0.17799-0.27315-0.32481-0.38778zm1.8687 2.0678h2.4426v-0.59958h-1.7364v-1.3553h1.6271v-0.5912h-1.6271v-1.176h1.7364v-0.59691h-2.4426zm5.8179-3.7747c0.17854 0 0.34978 0.0251 0.51313 0.0785 0.16224 0.0519 0.316 0.11262 0.4622 0.18164l0.25398-0.5875c-0.37369-0.18568-0.78295-0.27818-1.2226-0.27818-0.41952 0-0.78625 0.0895-1.097 0.2688-0.31035 0.17896-0.54796 0.43669-0.71252 0.77352-0.16458 0.33782-0.24697 0.73061-0.24697 1.1787 0 0.71351 0.16994 1.2611 0.50907 1.6432 0.33858 0.38407 0.8241 0.57545 1.4558 0.57545 0.42833 0 0.81337-0.0644 1.1522-0.19138v-0.60694c-0.18433 0.0587-0.3637 0.10487-0.53515 0.14246-0.17063 0.0359-0.34905 0.0537-0.53164 0.0537-0.42255 0-0.74634-0.13643-0.97058-0.40853-0.22316-0.27115-0.3348-0.67333-0.3348-1.2012 0-0.5074 0.11649-0.9022 0.3489-1.1908 0.2323-0.28823 0.55066-0.43133 0.95586-0.43133zm5.2816 2.1822c0 0.69912-0.33216 1.0494-0.99845 1.0494-0.34208 0-0.59764-0.0858-0.76236-0.25473-0.1656-0.16856-0.24806-0.43099-0.24806-0.78791v-2.7332h-0.7082v2.7834c0 0.49501 0.14841 0.88578 0.44574 1.169 0.29791 0.28421 0.71316 0.42563 1.2487 0.42563 0.36031 0 0.67067-0.0644 0.92975-0.19304 0.25838-0.1284 0.45607-0.31336 0.59317-0.55165 0.13744-0.23896 0.20547-0.51881 0.20547-0.83753v-2.7955h-0.70517v2.726zm5.2742-1.4679c0-0.42094-0.13399-0.73498-0.40039-0.94512-0.26857-0.20779-0.68114-0.31303-1.2385-0.31303h-1.2202v4.319h0.70578v-1.7247h0.69682l1.0325 1.7247h0.80477l-1.2196-1.9113c0.56001-0.22856 0.83884-0.61029 0.83884-1.1495zm-1.663 0.7514h-0.49035v-1.4126h0.46592c0.32136 0 0.56227 0.0534 0.72086 0.15919 0.16086 0.10688 0.2389 0.28186 0.2389 0.52617 0 0.24031-0.0722 0.42196-0.22011 0.5443-0.14682 0.12137-0.38608 0.18299-0.71522 0.18299zm3.2743 2.3091h0.70607v-4.319h-0.70607zm1.969-3.7125h1.2685v3.7125h0.70509v-3.7125h1.2709v-0.60662h-3.2449v0.60662zm6.7525-0.60628-1.0214 1.9713-1.0223-1.9713h-0.76884l1.4333 2.6681v1.6509h0.7089v-1.675l1.4389-2.644z" clip-rule="evenodd" fill-rule="evenodd" stroke-width=".33515"/><path d="m759.63 264.86s-38.338-2.551-103.62 17.878c-66.534 20.817-104.27 50.326-104.27 50.326s99.165-55.367 211.1-58.513zm143 60.2 4.9842-0.32513s-28.556-34.647-83.213-51.522c30.725 12.489 57.469 29.038 78.229 51.848zm8.1568 14.395c0.7663-1.3286 3.2399 4.2209 5.1188 6.5522 0.0796 0.46554 0.21173 0.74962-0.87749 0.52554-0.0915-0.47857-0.24966-0.61734-0.24966-0.61734s-2.629-1.5643-3.4352-2.674c-0.80667-1.1096-0.94983-3.0505-0.55659-3.7865zm67.076 164.92s6.0619-69.597-103.28-85.641c-13.859-2.0334-31.385-3.5986-49.114-3.6433-87.64 1.1587-90.833-101.08-24.794-106.24 27.369-2.2582 60.051 12.506 91.999 27.384-0.11864 3.9678 0.0455 7.4941 2.6523 10.752 2.606 3.2573 12.617 6.8109 15.816 8.6463 3.1987 1.8361 13.446 8.3514 19.726 16.525 1.3618-2.5474 12.735-9.9504 12.735-9.9504s-2.7246 0.0594-9.0628-2.3096c-6.3389-2.3688-13.861-9.5362-14.039-9.9504-0.17764-0.41493-0.29585-1.0662 1.1855-1.3627 1.1248-0.94693-1.4226-4.0272-2.5481-5.1519-1.1248-1.1256-8.6485-13.918-8.8257-14.215-0.17762-0.29621-0.23727-0.592-0.76988-0.94769-1.659-0.53349-8.9449 0.7699-8.9449 0.7699s-11.205-5.5034-15.068-17.369c0.0562 2.0783-1.9215 4.3474 0 9.122-5.8423-2.4715-10.861-6.6867-14.819-17.103-2.3559 5.9248 0 9.6916 0 9.6916s-13.758-3.8443-15.958-16.532c-2.4159 5.6955 0 9.1212 0 9.1212s-22.429-11.703-59.698-11.873c-24.951-2.2886-30.145-46.18-27.834-53.571 0 0-35.988-18.967-106.83-27.346-70.845-8.3804-128.94-1.2629-128.94-1.2629s125.47-6.0216 225.99 34.673c3.4171 15.283 13.696 40.737 19.232 52.974-15.842 10.953-33.706 21.252-36.488 57.78-2.781 36.528 28.625 68.66 67.57 69.65 36.98 1.9698 62.53 2.2496 93.5 18.305 29.561 16.344 53.798 66.149 56.196 110.94 2.5907-33.234-9.8811-104.7-68.082-126.4 81.343 14.235 88.5 74.538 88.5 74.538zm-220.15-244.97-2.9269-9.4408s-48.296-8.5762-113.23-3.9606c-64.934 4.6155-130.49 27.346-130.49 27.346s134.15-33.755 246.65-13.944" stroke-width="1.4346"/></g></svg>
