<?xml version="1.0" encoding="UTF-8" standalone="no"?>
<svg
   xmlns:dc="http://purl.org/dc/elements/1.1/"
   xmlns:cc="http://creativecommons.org/ns#"
   xmlns:rdf="http://www.w3.org/1999/02/22-rdf-syntax-ns#"
   xmlns:svg="http://www.w3.org/2000/svg"
   xmlns="http://www.w3.org/2000/svg"
   xmlns:xlink="http://www.w3.org/1999/xlink"
   xmlns:sodipodi="http://sodipodi.sourceforge.net/DTD/sodipodi-0.dtd"
   xmlns:inkscape="http://www.inkscape.org/namespaces/inkscape"
   width="2880"
   height="2160"
   viewBox="0 0 762 571.50002"
   version="1.1"
   id="svg8"
   sodipodi:docname="kali-abstract-sky-4x3.svg"
   inkscape:export-filename="/home/daniruiz/Repositorios/Kali/kali-wallpapers/2021.4/backgrounds/kali/kali-abstract-sky-4x3.png"
   inkscape:export-xdpi="53.330002"
   inkscape:export-ydpi="53.330002"
   inkscape:version="1.0.2 (e86c870879, 2021-01-15)">
  <sodipodi:namedview
     pagecolor="#ffffff"
     bordercolor="#666666"
     borderopacity="1"
     objecttolerance="10"
     gridtolerance="10"
     guidetolerance="10"
     inkscape:pageopacity="0"
     inkscape:pageshadow="2"
     inkscape:window-width="3440"
     inkscape:window-height="1371"
     id="namedview163"
     showgrid="false"
     inkscape:zoom="0.1537589"
     inkscape:cx="-428.84273"
     inkscape:cy="-544.671"
     inkscape:window-x="0"
     inkscape:window-y="0"
     inkscape:window-maximized="1"
     inkscape:current-layer="layer1" />
  <defs
     id="defs2">
    <linearGradient
       id="linearGradient9764">
      <stop
         style="stop-color:#4aaee6;stop-opacity:1"
         offset="0"
         id="stop9760" />
      <stop
         style="stop-color:#8c42ab;stop-opacity:1"
         offset="1"
         id="stop9762" />
    </linearGradient>
    <linearGradient
       id="linearGradient2152"
       x1="2665.5762"
       x2="2350.8162"
       y1="554.22522"
       y2="-98.463295"
       gradientTransform="translate(-1989.8,93.019005)"
       gradientUnits="userSpaceOnUse">
      <stop
         stop-color="#316fd8"
         style="stop-color:#2656a8"
         offset="0"
         id="stop2148" />
      <stop
         stop-color="#23bac2"
         style="stop-color:#198388;stop-opacity:1"
         offset="1"
         id="stop2150" />
    </linearGradient>
    <linearGradient
       id="k"
       x1="2665.5762"
       x2="2350.8162"
       y1="554.22522"
       y2="-98.463295"
       gradientTransform="translate(-1989.8,93.019005)"
       gradientUnits="userSpaceOnUse">
      <stop
         stop-color="#316fd8"
         style="stop-color:#2656a8"
         offset="0"
         id="stop7" />
      <stop
         stop-color="#23bac2"
         style="stop-color:#23bac2"
         offset="1"
         id="stop9" />
    </linearGradient>
    <linearGradient
       xlink:href="#k"
       id="linearGradient898"
       x1="315.02121"
       y1="253.48701"
       x2="-3.4572084"
       y2="253.48701"
       gradientUnits="userSpaceOnUse"
       gradientTransform="matrix(0.20817158,0.77690687,-0.77690687,0.20817158,585.48047,120.51437)" />
    <linearGradient
       xlink:href="#k"
       id="linearGradient1368"
       x1="783.09674"
       y1="610.10309"
       x2="476.56461"
       y2="-66.081886"
       gradientUnits="userSpaceOnUse"
       gradientTransform="translate(-126.99987)" />
    <linearGradient
       xlink:href="#k"
       id="linearGradient1378"
       gradientUnits="userSpaceOnUse"
       x1="345.28842"
       y1="191.64471"
       x2="-3.4572084"
       y2="253.48701"
       gradientTransform="matrix(0.5608556,0.56085559,-0.56085559,0.5608556,474.15866,43.810681)" />
    <linearGradient
       xlink:href="#k"
       id="linearGradient1470"
       gradientUnits="userSpaceOnUse"
       x1="315.02121"
       y1="253.48701"
       x2="-3.4572084"
       y2="253.48701" />
    <linearGradient
       xlink:href="#linearGradient2152"
       id="linearGradient1472"
       gradientUnits="userSpaceOnUse"
       x1="315.02121"
       y1="253.48701"
       x2="-3.4572084"
       y2="253.48701" />
    <filter
       style="color-interpolation-filters:sRGB"
       id="filter2140"
       x="-0.12558369"
       width="1.2511674"
       y="-0.10875867"
       height="1.2175173">
      <feGaussianBlur
         stdDeviation="14.811881"
         id="feGaussianBlur2142" />
    </filter>
    <filter
       style="color-interpolation-filters:sRGB"
       id="filter2144"
       x="-0.10725184"
       width="1.2145036"
       y="-0.12384376"
       height="1.2476875">
      <feGaussianBlur
         stdDeviation="14.606666"
         id="feGaussianBlur2146" />
    </filter>
    <filter
       style="color-interpolation-filters:sRGB"
       id="filter2396"
       x="-0.10076537"
       width="1.2015307"
       y="-0.11635383"
       height="1.2327077">
      <feGaussianBlur
         stdDeviation="13.723271"
         id="feGaussianBlur2398" />
    </filter>
    <filter
       style="color-interpolation-filters:sRGB"
       id="filter5103"
       x="-0.041845713"
       width="1.0836914"
       y="-0.05627666"
       height="1.1125534">
      <feGaussianBlur
         stdDeviation="6.4358503"
         id="feGaussianBlur5105" />
    </filter>
    <linearGradient
       id="h"
       x1="251.91"
       x2="396.54999"
       y1="575.27002"
       y2="529.08002"
       gradientUnits="userSpaceOnUse"
       xlink:href="#d"
       gradientTransform="rotate(105,267.58606,467.76805)" />
    <linearGradient
       id="d">
      <stop
         style="stop-color:#23bac2"
         offset="0"
         id="stop2" />
      <stop
         style="stop-color:#ffd86e"
         offset="1"
         id="stop4" />
    </linearGradient>
    <linearGradient
       id="j"
       x1="223.17999"
       x2="596.62"
       y1="1950.6"
       y2="1632.4"
       gradientTransform="matrix(-0.58408572,0,0,0.58408572,167.77817,-701.82151)"
       gradientUnits="userSpaceOnUse"
       xlink:href="#a" />
    <radialGradient
       id="a"
       cx="508"
       cy="285.75"
       r="508"
       gradientTransform="matrix(1.0025,0,0,1.01,764.21,361.89)"
       gradientUnits="userSpaceOnUse">
      <stop
         style="stop-color:#23bac2"
         offset="0"
         id="stop12" />
      <stop
         style="stop-color:#3b6ab9"
         offset="1"
         id="stop14" />
    </radialGradient>
    <filter
       style="color-interpolation-filters:sRGB"
       id="filter5486"
       x="-0.29352468"
       width="1.5870494"
       y="-0.50840026"
       height="2.0168006">
      <feGaussianBlur
         stdDeviation="3.0993246"
         id="feGaussianBlur5488" />
    </filter>
    <filter
       style="color-interpolation-filters:sRGB"
       id="filter5490"
       x="-0.07159777"
       width="1.1431955"
       y="-0.12401095"
       height="1.2480218">
      <feGaussianBlur
         stdDeviation="3.0993246"
         id="feGaussianBlur5492" />
    </filter>
    <filter
       style="color-interpolation-filters:sRGB"
       id="filter5494"
       x="-0.27024516"
       width="1.5404903"
       y="-0.468079"
       height="1.9361579">
      <feGaussianBlur
         stdDeviation="3.0993246"
         id="feGaussianBlur5496" />
    </filter>
    <filter
       style="color-interpolation-filters:sRGB"
       id="filter5498"
       x="-0.55775851"
       width="2.1155169"
       y="-0.96606338"
       height="2.9321268">
      <feGaussianBlur
         stdDeviation="3.0993246"
         id="feGaussianBlur5500" />
    </filter>
    <filter
       style="color-interpolation-filters:sRGB"
       id="filter5502"
       x="-0.16131516"
       width="1.3226303"
       y="-0.27940607"
       height="1.5588121">
      <feGaussianBlur
         stdDeviation="3.0993246"
         id="feGaussianBlur5504" />
    </filter>
    <filter
       style="color-interpolation-filters:sRGB"
       id="filter5506"
       x="-0.10774605"
       width="1.2154921"
       y="-0.18662171"
       height="1.3732435">
      <feGaussianBlur
         stdDeviation="3.0993246"
         id="feGaussianBlur5508" />
    </filter>
    <filter
       style="color-interpolation-filters:sRGB"
       id="filter5510"
       x="-0.084423319"
       width="1.1688466"
       y="-0.14622551"
       height="1.292451">
      <feGaussianBlur
         stdDeviation="3.0993246"
         id="feGaussianBlur5512" />
    </filter>
    <filter
       style="color-interpolation-filters:sRGB"
       id="filter5514"
       x="-0.27024516"
       width="1.5404903"
       y="-0.468079"
       height="1.9361579">
      <feGaussianBlur
         stdDeviation="3.0993246"
         id="feGaussianBlur5516" />
    </filter>
    <filter
       style="color-interpolation-filters:sRGB"
       id="filter5518"
       x="-0.069184192"
       width="1.1383684"
       y="-0.11983047"
       height="1.2396609">
      <feGaussianBlur
         stdDeviation="3.0993246"
         id="feGaussianBlur5520" />
    </filter>
    <filter
       style="color-interpolation-filters:sRGB"
       id="filter5522"
       x="-0.072846808"
       width="1.1456935"
       y="-0.12617438"
       height="1.2523488">
      <feGaussianBlur
         stdDeviation="3.0993246"
         id="feGaussianBlur5524" />
    </filter>
    <filter
       style="color-interpolation-filters:sRGB"
       id="filter5526"
       x="-0.13029128"
       width="1.2605826"
       y="-0.2256711"
       height="1.4513422">
      <feGaussianBlur
         stdDeviation="3.0993246"
         id="feGaussianBlur5528" />
    </filter>
    <filter
       style="color-interpolation-filters:sRGB"
       id="filter5530"
       x="-0.19111238"
       width="1.3822248"
       y="-0.33101642"
       height="1.6620328">
      <feGaussianBlur
         stdDeviation="3.0993246"
         id="feGaussianBlur5532" />
    </filter>
    <filter
       style="color-interpolation-filters:sRGB"
       id="filter5534"
       x="-0.29352468"
       width="1.5870494"
       y="-0.50840062"
       height="2.0168014">
      <feGaussianBlur
         stdDeviation="3.0993246"
         id="feGaussianBlur5536" />
    </filter>
    <filter
       style="color-interpolation-filters:sRGB"
       id="filter5538"
       x="-0.10724587"
       width="1.2144917"
       y="-0.18575519"
       height="1.3715104">
      <feGaussianBlur
         stdDeviation="3.0993246"
         id="feGaussianBlur5540" />
    </filter>
    <filter
       style="color-interpolation-filters:sRGB"
       id="filter5542"
       x="-0.075406469"
       width="1.1508129"
       y="-0.13060784"
       height="1.2612157">
      <feGaussianBlur
         stdDeviation="3.0993246"
         id="feGaussianBlur5544" />
    </filter>
    <filter
       style="color-interpolation-filters:sRGB"
       id="filter5546"
       x="-0.07159777"
       width="1.1431955"
       y="-0.12401095"
       height="1.2480218">
      <feGaussianBlur
         stdDeviation="3.0993246"
         id="feGaussianBlur5548" />
    </filter>
    <filter
       style="color-interpolation-filters:sRGB"
       id="filter5550"
       x="-0.22536725"
       width="1.4507345"
       y="-0.39034706"
       height="1.7806941">
      <feGaussianBlur
         stdDeviation="3.0993246"
         id="feGaussianBlur5552" />
    </filter>
    <filter
       style="color-interpolation-filters:sRGB"
       id="filter5554"
       x="-0.1568291"
       width="1.3136582"
       y="-0.27163589"
       height="1.5432718">
      <feGaussianBlur
         stdDeviation="3.0993246"
         id="feGaussianBlur5556" />
    </filter>
    <filter
       style="color-interpolation-filters:sRGB"
       id="filter5558"
       x="-0.11873239"
       width="1.2374648"
       y="-0.20565057"
       height="1.4113011">
      <feGaussianBlur
         stdDeviation="3.0993246"
         id="feGaussianBlur5560" />
    </filter>
    <filter
       style="color-interpolation-filters:sRGB"
       id="filter5562"
       x="-0.07586772"
       width="1.1517354"
       y="-0.13140675"
       height="1.2628134">
      <feGaussianBlur
         stdDeviation="3.0993246"
         id="feGaussianBlur5564" />
    </filter>
    <filter
       style="color-interpolation-filters:sRGB"
       id="filter5566"
       x="-0.13552189"
       width="1.2710438"
       y="-0.23473093"
       height="1.4694619">
      <feGaussianBlur
         stdDeviation="3.0993246"
         id="feGaussianBlur5568" />
    </filter>
    <filter
       style="color-interpolation-filters:sRGB"
       id="filter5570"
       x="-0.13552189"
       width="1.2710438"
       y="-0.23473093"
       height="1.4694619">
      <feGaussianBlur
         stdDeviation="3.0993246"
         id="feGaussianBlur5572" />
    </filter>
    <filter
       style="color-interpolation-filters:sRGB"
       id="filter5586"
       x="-0.010495796"
       width="1.0209916"
       y="-0.01400748"
       height="1.028015">
      <feGaussianBlur
         stdDeviation="5.071533"
         id="feGaussianBlur5588" />
    </filter>
    <linearGradient
       id="n"
       x1="151.46001"
       x2="268.04001"
       y1="164.3"
       y2="47.717999"
       gradientTransform="translate(-160.34909,55.123545)"
       gradientUnits="userSpaceOnUse"
       xlink:href="#a-3" />
    <radialGradient
       id="a-3"
       cx="508"
       cy="285.75"
       r="508"
       gradientTransform="matrix(1.0025,0,0,1.01,764.21,361.89)"
       gradientUnits="userSpaceOnUse">
      <stop
         style="stop-color:#23bac2"
         offset="0"
         id="stop12-5" />
      <stop
         style="stop-color:#3b6ab9"
         offset="1"
         id="stop14-6" />
    </radialGradient>
    <linearGradient
       id="m"
       x1="151.46001"
       x2="268.04001"
       y1="164.3"
       y2="47.717999"
       gradientTransform="matrix(1.5607,0,0,1.5607,393.9973,460.21222)"
       gradientUnits="userSpaceOnUse">
      <stop
         style="stop-color:#23bac2"
         offset="0"
         id="stop31" />
      <stop
         style="stop-color:#3b6ab9"
         offset="1"
         id="stop33" />
    </linearGradient>
    <linearGradient
       id="g"
       x1="284.03381"
       x2="572.698"
       y1="551.68097"
       y2="458.56778"
       gradientTransform="matrix(-0.2780722,-0.19464547,0.19464547,-0.2780722,466.6084,696.4583)"
       gradientUnits="userSpaceOnUse"
       xlink:href="#linearGradient9764" />
    <linearGradient
       id="f"
       x1="-2854.6001"
       x2="-2854.6001"
       y1="-233.83"
       y2="218.11"
       gradientTransform="rotate(-5.2232713,1001.901,-44424.781)"
       gradientUnits="userSpaceOnUse"
       xlink:href="#c" />
    <linearGradient
       id="c">
      <stop
         style="stop-color:#23bac2"
         offset="0"
         id="stop2-8" />
      <stop
         style="stop-color:#4aaee6;stop-opacity:0"
         offset="1"
         id="stop4-7" />
    </linearGradient>
    <linearGradient
       id="g-9"
       x1="-2854.6001"
       x2="-2854.6001"
       y1="-233.83"
       y2="218.11"
       gradientTransform="rotate(-5.2232713,-50.609489,-42394.063)"
       gradientUnits="userSpaceOnUse"
       xlink:href="#c" />
    <linearGradient
       id="h-2"
       x1="-2854.6001"
       x2="-2854.6001"
       y1="-233.83"
       y2="218.11"
       gradientTransform="rotate(-5.2232713,-1102.9603,-40362.255)"
       gradientUnits="userSpaceOnUse"
       xlink:href="#c" />
    <linearGradient
       id="i"
       x1="-2854.6001"
       x2="-2854.6001"
       y1="-233.83"
       y2="128.08"
       gradientTransform="rotate(-5.2232713,-889.01029,-35671.73)"
       gradientUnits="userSpaceOnUse"
       xlink:href="#c" />
    <linearGradient
       id="j-0"
       x1="-2854.6001"
       x2="-2854.6001"
       y1="-233.83"
       y2="22.863001"
       gradientTransform="rotate(-5.2232713,-675.06029,-30981.206)"
       gradientUnits="userSpaceOnUse">
      <stop
         style="stop-color:#23bac2"
         offset="0"
         id="stop12-2" />
      <stop
         style="stop-color:#367bf0;stop-opacity:0"
         offset="1"
         id="stop14-3" />
    </linearGradient>
  </defs>
  <metadata
     id="metadata5">
    <rdf:RDF>
      <cc:Work
         rdf:about="">
        <dc:format>image/svg+xml</dc:format>
        <dc:type
           rdf:resource="http://purl.org/dc/dcmitype/StillImage" />
        <dc:title></dc:title>
      </cc:Work>
    </rdf:RDF>
  </metadata>
  <g
     id="layer1">
    <path
       id="path1090"
       style="fill:url(#linearGradient1368);fill-opacity:1;stroke-width:1;paint-order:fill markers stroke"
       d="M 1.3320584e-4,0 V 571.50001 H 762.00015 V 0 Z" />
    <circle
       cx="32.269218"
       cy="156.72359"
       r="110.6"
       style="fill:url(#n);paint-order:normal"
       id="circle47" />
    <path
       d="m 184.388,-191.33688 -1303.2419,740.02627 3.7855,1.74724 1303.24189,-740.02627 z m 7.5715,3.49483 -1303.2419,740.02627 3.7856,1.74722 1303.24189,-740.02626 z m 7.57129,3.49464 -1303.24189,740.02627 3.7864,1.74765 1303.24191,-740.02626 z m 7.57244,3.49524 -1303.24193,740.02627 3.785,1.74709 1303.24189,-740.02627 z m 7.57118,3.49466 -1303.24191,740.02627 3.7866,1.74774 1303.24184,-740.02627 z m 7.5716,3.49481 -1303.24191,740.02627 3.7853,1.74716 1303.24188,-740.02627 z m 7.57265,3.49533 -1303.24186,740.02626 3.7861,1.74758 1303.24187,-740.02626 z m 7.57108,3.49466 -1303.24184,740.02627 3.7858,1.74741 1303.24184,-740.02627 z m 7.57297,3.49549 -1303.24191,740.02627 3.7851,1.74708 1303.24187,-740.02627 z m 7.57076,3.49449 -1303.24187,740.02627 3.7863,1.74756 1303.24189,-740.02626 z m 7.57287,3.49551 -1303.24184,740.02627 3.7849,1.74708 1303.2419,-740.02627 z m 7.57086,3.49448 -1303.2419,740.02627 3.7862,1.74757 1303.24192,-740.02627 z m 7.57098,3.49457 -1303.24188,740.02627 3.7859,1.7475 1303.24189,-740.02627 z m 7.57276,3.49541 -1303.24184,740.02627 3.7869,1.74791 1303.24188,-740.02627 z m 7.57149,3.49483 -1303.24183,740.02627 3.786,1.74749 1303.24184,-740.02627 z m 7.57275,3.49531 -1303.24188,740.02627 3.7845,1.74682 1303.24192,-740.02627 z m 7.57098,3.49458 -1303.24189,740.02626 3.78602,1.74759 1303.24188,-740.02627 z m 7.5717,3.4949 -1303.24188,740.02627 3.78643,1.74775 1303.24189,-740.02627 z m 7.57192,3.49499 -1303.24189,740.02627 3.78528,1.74715 L 324.46505,-126.681 Z m 7.57171,3.49491 -1303.24189,740.02626 3.78653,1.74775 1303.24189,-740.02627 z m 7.57097,3.49457 -1303.24189,740.02627 3.78539,1.74724 1303.24188,-740.02627 z m 7.57307,3.49548 -1303.24189,740.02627 3.78653,1.74774 1303.24189,-740.02626 z m 7.57118,3.49466 -1303.24189,740.02626 3.78538,1.74725 1303.24189,-740.02627 z m 7.57244,3.49524 -1303.24189,740.02627 3.78549,1.74723 1303.24188,-740.02627 z m 7.57087,3.49448 -1303.24189,740.02627 3.78674,1.74782 1303.24189,-740.02627 z m 7.57286,3.4955 -1303.24189,740.02627 3.78549,1.74724 1303.24189,-740.02627 z"
       style="fill:url(#j-0);stroke-width:0.26458"
       id="path25" />
    <path
       d="m 610.51115,-230.29163 -1303.24189,740.02626 3.78549,1.74724 1303.24188,-740.02627 z m 7.5715,3.49482 -1303.24189,740.02627 3.78558,1.74723 1303.24189,-740.02627 z m 7.57128,3.49464 -1303.24189,740.02627 3.78643,1.74765 1303.24189,-740.02626 z m 7.57244,3.49525 -1303.24188,740.02626 3.78496,1.74709 1303.24189,-740.02627 z m 7.57119,3.49465 -1303.24189,740.02627 3.78653,1.74774 1303.24189,-740.02627 z m 7.57159,3.49482 -1303.24188,740.02626 3.78527,1.74716 1303.24189,-740.02627 z m 7.57265,3.49532 -1303.24188,740.02627 3.78611,1.74758 1303.24189,-740.02627 z m 7.57109,3.49466 -1303.24189,740.02627 3.7858,1.74741 1303.24189,-740.02627 z m 7.57296,3.4955 -1303.24189,740.02626 3.78507,1.74708 1303.24189,-740.02627 z m 7.57077,3.49449 -1303.24189,740.02626 3.78632,1.74757 1303.24188,-740.02627 z m 7.57287,3.4955 -1303.24189,740.02627 3.78496,1.74708 1303.24189,-740.02627 z m 7.57086,3.49448 -1303.24189,740.02627 3.78622,1.74757 1303.24189,-740.02627 z m 7.57097,3.49457 -1303.24188,740.02627 3.7859,1.7475 1303.24189,-740.02627 z m 7.57276,3.49542 -1303.24189,740.02626 3.78695,1.74791 1303.24189,-740.02627 z m 7.5715,3.49482 -1303.24189,740.02627 3.78601,1.74749 1303.24189,-740.02627 z m 7.57275,3.49531 -1303.24189,740.02627 3.78454,1.74682 1303.24189,-740.02627 z m 7.57097,3.49458 -1303.24188,740.02626 3.78601,1.74759 1303.24189,-740.02626 z m 7.57171,3.4949 -1303.24189,740.02627 3.78644,1.74775 1303.24189,-740.02627 z m 7.57192,3.49499 -1303.24189,740.02627 3.78527,1.74715 1303.24189,-740.02626 z m 7.57171,3.49491 -1303.24189,740.02627 3.78653,1.74774 1303.24189,-740.02627 z m 7.57097,3.49457 -1303.24189,740.02627 3.78538,1.74724 1303.24189,-740.02627 z m 7.57307,3.49548 -1303.24189,740.02627 3.78653,1.74775 1303.24189,-740.02627 z m 7.57118,3.49466 -1303.24189,740.02627 3.78538,1.74724 1303.24189,-740.02627 z m 7.57244,3.49524 -1303.24189,740.02627 3.78548,1.74723 1303.24189,-740.02626 z m 7.57086,3.49448 -1303.24188,740.02627 3.78674,1.74782 1303.24188,-740.02627 z m 7.57287,3.4955 -1303.24189,740.02627 3.78548,1.74724 1303.24189,-740.02627 z"
       style="fill:url(#i);stroke-width:0.26458"
       id="path27" />
    <path
       d="m 1036.6343,-269.24639 -1303.24189,740.02626 3.78548,1.74724 1303.24191,-740.02627 z m 7.5715,3.49482 -1303.24189,740.02627 3.78558,1.74723 1303.24191,-740.02627 z m 7.5712,3.49465 -1303.24181,740.02626 3.78643,1.74766 1303.24188,-740.02627 z m 7.5725,3.49524 -1303.24187,740.02627 3.78497,1.74708 1303.2419,-740.02627 z m 7.5712,3.49465 -1303.24188,740.02627 3.78653,1.74774 1303.24185,-740.02627 z m 7.5716,3.49482 -1303.24189,740.02626 3.78528,1.74716 1303.24181,-740.02627 z m 7.5726,3.49532 -1303.24184,740.02627 3.78612,1.74758 1303.24182,-740.02627 z m 7.5711,3.49466 -1303.24185,740.02627 3.7858,1.74741 1303.24185,-740.02627 z m 7.573,3.4955 -1303.24189,740.02626 3.78507,1.74708 1303.24182,-740.02627 z m 7.5707,3.49449 -1303.24182,740.02626 3.78631,1.74757 1303.24191,-740.02627 z m 7.5729,3.4955 -1303.24186,740.02627 3.78497,1.74708 1303.24189,-740.02627 z m 7.5709,3.49448 -1303.24189,740.02627 3.78622,1.74757 1303.24187,-740.02627 z m 7.5709,3.49457 -1303.24182,740.02627 3.78591,1.7475 1303.24181,-740.02627 z m 7.5728,3.49542 -1303.24186,740.02626 3.78695,1.74791 1303.24181,-740.02627 z m 7.5715,3.49482 -1303.24186,740.02627 3.78601,1.74749 1303.24185,-740.02627 z m 7.5727,3.49532 -1303.24181,740.02626 3.78454,1.74682 1303.24187,-740.02626 z m 7.571,3.49457 -1303.24184,740.02627 3.78602,1.74758 1303.24182,-740.02626 z m 7.5717,3.4949 -1303.24183,740.02627 3.78643,1.74775 1303.2419,-740.02626 z m 7.5719,3.49499 -1303.24181,740.02627 3.78527,1.74715 1303.24184,-740.02626 z m 7.5718,3.49491 -1303.24191,740.02627 3.78654,1.74774 1303.24187,-740.02627 z m 7.5709,3.49457 -1303.24183,740.02627 3.78538,1.74724 1303.24185,-740.02626 z m 7.5731,3.49549 -1303.24187,740.02626 3.78654,1.74775 1303.24183,-740.02627 z m 7.5712,3.49465 -1303.24188,740.02627 3.78538,1.74724 1303.2419,-740.02627 z m 7.5724,3.49524 -1303.241842,740.02627 3.785482,1.74723 1303.24186,-740.02626 z m 7.5709,3.49448 -1303.241877,740.02627 3.786741,1.74782 L 1222.143,-183.6205 Z m 7.5728,3.49551 -1303.24181,740.02626 3.785482,1.74724 1303.241828,-740.02627 z"
       style="fill:url(#h-2);stroke-width:0.26458"
       id="path29" />
    <path
       d="M 1233.5238,-178.38333 -69.7181,561.64294 -65.932518,563.39017 1237.3093,-176.6361 Z m 7.5712,3.49465 -1303.241818,740.02627 3.786424,1.74765 1303.241894,-740.02627 z m 7.5725,3.49524 -1303.241877,740.02627 3.784966,1.74708 1303.241811,-740.02627 z m 7.5712,3.49465 -1303.241895,740.02627 3.786533,1.74774 1303.241862,-740.02626 z m 7.5716,3.49482 -1303.241896,740.02627 3.785274,1.74715 1303.241822,-740.02627 z m 7.5726,3.49532 -1303.241847,740.02627 3.786117,1.74758 1303.24183,-740.02627 z m 7.5711,3.49466 -1303.24186,740.02627 3.7858,1.74741 1303.24186,-740.02627 z m 7.573,3.4955 -1303.2419,740.02627 3.78507,1.74707 1303.24183,-740.02627 z m 7.5707,3.49449 -1303.24183,740.02627 3.78631,1.74756 1303.24182,-740.02627 z m 7.5729,3.4955 -1303.24187,740.02627 3.78497,1.74708 1303.2419,-740.02626 z m 7.5709,3.49448 L 5.9996,596.59225 9.78582,598.33982 1313.0277,-141.68644 Z m 7.5709,3.49458 -1303.24183,740.02626 3.78591,1.7475 1303.24182,-740.02627 z m 7.5728,3.49541 -1303.24187,740.02627 3.78695,1.7479 1303.24182,-740.02627 z m 7.5715,3.49482 -1303.24187,740.02627 3.78601,1.74749 1303.24186,-740.02627 z m 7.5727,3.49532 L 36.28758,610.57238 40.07212,612.3192 1343.314,-127.70707 Z m 7.571,3.49457 -1303.24185,740.02627 3.78602,1.74759 1303.24183,-740.02627 z m 7.5717,3.49491 -1303.24184,740.02626 3.78643,1.74776 1303.24191,-740.02627 z m 7.5719,3.49498 L 59.00218,621.05684 62.78745,622.804 1366.0293,-117.22227 Z m 7.5717,3.49491 -1303.24182,740.02627 3.78654,1.74774 1303.24188,-740.02627 z m 7.571,3.49457 -1303.24184,740.02627 3.78538,1.74725 1303.24186,-740.02627 z m 7.5731,3.49549 -1303.24188,740.02627 3.78654,1.74774 1303.24184,-740.02627 z m 7.5712,3.49465 -1303.24189,740.02627 3.78538,1.74724 1303.24181,-740.02626 z m 7.5724,3.49524 -1303.24185,740.02627 3.78548,1.74724 1303.24187,-740.026271 z m 7.5709,3.494484 -1303.24189,740.026266 3.78674,1.74783 L 1411.461,-96.252261 Z m 7.5728,3.495504 -1303.24182,740.026272 3.78548,1.74723 1303.24184,-740.026266 z"
       style="fill:url(#g-9);stroke-width:0.26458"
       id="path31" />
    <path
       d="M 1422.8635,-91.017475 119.62166,649.00879 l 3.78558,1.74723 1303.24186,-740.026268 z m 7.5713,3.494644 -1303.24186,740.026271 3.78643,1.74765 1303.24183,-740.026269 z m 7.5724,3.495241 -1303.24181,740.02627 3.78496,1.74708 1303.24185,-740.026267 z m 7.5712,3.494654 -1303.24183,740.026266 3.78653,1.74774 1303.2419,-740.026264 z m 7.5716,3.494816 -1303.24183,740.02627 3.78527,1.74715 1303.24186,-740.026265 z m 7.5727,3.495322 -1303.24188,740.026268 3.78611,1.74758 1303.24187,-740.026268 z m 7.5711,3.494663 -1303.2419,740.026265 3.7858,1.74741 1303.2419,-740.026267 z m 7.5729,3.495494 -1303.24184,740.026271 3.78507,1.74707 1303.24187,-740.026267 z m 7.5708,3.494491 -1303.24187,740.02627 3.78632,1.74756 1303.24185,-740.026268 z m 7.5729,3.495503 -1303.2419,740.026267 3.78496,1.74708 1303.24184,-740.026264 z m 7.5708,3.494482 -1303.24184,740.026265 3.78622,1.74757 1303.24182,-740.026264 z m 7.571,3.494572 -1303.24186,740.026263 3.7859,1.7475 1303.24186,-740.026265 z m 7.5728,3.495413 -1303.24191,740.02627 3.78695,1.7479 1303.24186,-740.026265 z m 7.5715,3.494825 -1303.24191,740.026265 3.78601,1.74749 1303.2419,-740.026265 z m 7.5727,3.495314 -1303.24186,740.026271 3.78454,1.74682 1303.24182,-740.026271 z m 7.571,3.494572 -1303.24188,740.026269 3.78601,1.74759 1303.24187,-740.02627 z m 7.5717,3.494906 -1303.24188,740.026263 3.78644,1.74776 1303.24184,-740.026271 z m 7.5719,3.494988 -1303.24186,740.026265 3.78527,1.74716 1303.24189,-740.02627 z m 7.5717,3.494907 L 255.91365,711.9176 259.70018,713.66534 1562.942,-26.360926 Z m 7.571,3.494572 L 263.48462,715.41217 267.27,717.15942 1570.5119,-22.866851 Z m 7.573,3.495485 -1303.24181,740.026271 3.78653,1.74774 1303.24188,-740.026268 z m 7.5712,3.494653 -1303.24183,740.026268 3.78538,1.74725 1303.24185,-740.026272 z m 7.5725,3.495242 -1303.24189,740.026266 3.78548,1.74724 1303.24191,-740.02627 z m 7.5708,3.494481 -1303.24182,740.026265 3.78674,1.74783 L 1600.8008,-8.8864109 Z m 7.5729,3.4955035 L 301.34504,732.88754 305.13052,734.63477 1608.3724,-5.3914953 Z"
       style="fill:url(#f);stroke-width:0.26458"
       id="path33" />
    <g
       id="g5394"
       transform="matrix(0.86937382,0,0,0.86937382,-58.547154,37.976895)">
      <path
         style="opacity:0.1;fill:none;stroke:#000000;stroke-width:6.94573;stroke-linecap:round;stroke-linejoin:miter;stroke-miterlimit:4;stroke-dasharray:none;stroke-opacity:1;filter:url(#filter5570)"
         d="m 156.90439,389.9936 54.88692,-31.68896"
         id="path5328"
         sodipodi:nodetypes="cc" />
      <path
         style="opacity:0.1;fill:none;stroke:#000000;stroke-width:6.94573;stroke-linecap:round;stroke-linejoin:miter;stroke-miterlimit:4;stroke-dasharray:none;stroke-opacity:1;filter:url(#filter5566)"
         d="m 156.90439,389.9936 54.88692,-31.68896"
         id="path5330"
         sodipodi:nodetypes="cc" />
      <path
         style="opacity:0.1;fill:none;stroke:#000000;stroke-width:6.94573;stroke-linecap:round;stroke-linejoin:miter;stroke-miterlimit:4;stroke-dasharray:none;stroke-opacity:1;filter:url(#filter5562)"
         d="M 144.8911,449.79506 242.93516,393.1893"
         id="path5332"
         sodipodi:nodetypes="cc" />
      <path
         style="opacity:0.1;fill:none;stroke:#000000;stroke-width:6.94573;stroke-linecap:round;stroke-linejoin:miter;stroke-miterlimit:4;stroke-dasharray:none;stroke-opacity:1;filter:url(#filter5558)"
         d="m 235.11128,428.90727 62.64827,-36.16999"
         id="path5334"
         sodipodi:nodetypes="cc" />
      <path
         style="opacity:0.1;fill:none;stroke:#000000;stroke-width:6.94573;stroke-linecap:round;stroke-linejoin:miter;stroke-miterlimit:4;stroke-dasharray:none;stroke-opacity:1;filter:url(#filter5554)"
         d="M 252.66815,361.79084 300.09799,334.4072"
         id="path5336"
         sodipodi:nodetypes="cc" />
      <path
         style="opacity:0.1;fill:none;stroke:#000000;stroke-width:6.94573;stroke-linecap:round;stroke-linejoin:miter;stroke-miterlimit:4;stroke-dasharray:none;stroke-opacity:1;filter:url(#filter5550)"
         d="m 260.97714,443.97952 33.00559,-19.05581"
         id="path5338"
         sodipodi:nodetypes="cc" />
      <path
         style="opacity:0.1;fill:none;stroke:#000000;stroke-width:6.94573;stroke-linecap:round;stroke-linejoin:miter;stroke-miterlimit:4;stroke-dasharray:none;stroke-opacity:1;filter:url(#filter5546)"
         d="M 224.1222,521.31403 328.01341,461.3324"
         id="path5340"
         sodipodi:nodetypes="cc" />
      <path
         style="opacity:0.1;fill:none;stroke:#000000;stroke-width:6.94573;stroke-linecap:round;stroke-linejoin:miter;stroke-miterlimit:4;stroke-dasharray:none;stroke-opacity:1;filter:url(#filter5542)"
         d="M 644.9258,133.02552 743.56958,76.073489"
         id="path5342"
         sodipodi:nodetypes="cc" />
      <path
         style="opacity:0.1;fill:none;stroke:#000000;stroke-width:6.94573;stroke-linecap:round;stroke-linejoin:miter;stroke-miterlimit:4;stroke-dasharray:none;stroke-opacity:1;filter:url(#filter5538)"
         d="M 744.09443,130.56954 813.45262,90.525547"
         id="path5344"
         sodipodi:nodetypes="cc" />
      <path
         style="opacity:0.1;fill:none;stroke:#000000;stroke-width:6.94573;stroke-linecap:round;stroke-linejoin:miter;stroke-miterlimit:4;stroke-dasharray:none;stroke-opacity:1;filter:url(#filter5534)"
         d="m 702.99507,129.50661 25.34158,-14.63094"
         id="path5346"
         sodipodi:nodetypes="cc" />
      <path
         style="opacity:0.1;fill:none;stroke:#000000;stroke-width:6.94573;stroke-linecap:round;stroke-linejoin:miter;stroke-miterlimit:4;stroke-dasharray:none;stroke-opacity:1;filter:url(#filter5530)"
         d="M 704.71511,232.44123 743.6366,209.9699"
         id="path5348"
         sodipodi:nodetypes="cc" />
      <path
         style="opacity:0.1;fill:none;stroke:#000000;stroke-width:6.94573;stroke-linecap:round;stroke-linejoin:miter;stroke-miterlimit:4;stroke-dasharray:none;stroke-opacity:1;filter:url(#filter5526)"
         d="m 712.76439,186.98753 57.09038,-32.96115"
         id="path5350"
         sodipodi:nodetypes="cc" />
      <path
         style="opacity:0.1;fill:none;stroke:#000000;stroke-width:6.94573;stroke-linecap:round;stroke-linejoin:miter;stroke-miterlimit:4;stroke-dasharray:none;stroke-opacity:1;filter:url(#filter5522)"
         d="M 806.55406,144.85926 908.66394,85.906076"
         id="path5352"
         sodipodi:nodetypes="cc" />
      <path
         style="opacity:0.1;fill:none;stroke:#000000;stroke-width:6.94573;stroke-linecap:round;stroke-linejoin:miter;stroke-miterlimit:4;stroke-dasharray:none;stroke-opacity:1;filter:url(#filter5518)"
         d="M 777.32618,251.97306 884.84177,189.89887"
         id="path5354"
         sodipodi:nodetypes="cc" />
      <path
         style="opacity:0.1;fill:none;stroke:#000000;stroke-width:6.94573;stroke-linecap:round;stroke-linejoin:miter;stroke-miterlimit:4;stroke-dasharray:none;stroke-opacity:1;filter:url(#filter5514)"
         d="m 862.13991,223.88145 27.52456,-15.89129"
         id="path5356"
         sodipodi:nodetypes="cc" />
      <path
         style="opacity:0.1;fill:none;stroke:#000000;stroke-width:6.94573;stroke-linecap:round;stroke-linejoin:miter;stroke-miterlimit:4;stroke-dasharray:none;stroke-opacity:1;filter:url(#filter5510)"
         d="m 843.60173,171.75606 88.10811,-50.86923"
         id="path5358"
         sodipodi:nodetypes="cc" />
      <path
         style="opacity:0.1;fill:none;stroke:#000000;stroke-width:6.94573;stroke-linecap:round;stroke-linejoin:miter;stroke-miterlimit:4;stroke-dasharray:none;stroke-opacity:1;filter:url(#filter5506)"
         d="m 753.78716,327.85028 69.03621,-39.85806"
         id="path5360"
         sodipodi:nodetypes="cc" />
      <path
         style="opacity:0.1;fill:none;stroke:#000000;stroke-width:6.94573;stroke-linecap:round;stroke-linejoin:miter;stroke-miterlimit:4;stroke-dasharray:none;stroke-opacity:1;filter:url(#filter5502)"
         d="m 366.25809,482.70407 46.11085,-26.62211"
         id="path5362"
         sodipodi:nodetypes="cc" />
      <path
         style="opacity:0.1;fill:none;stroke:#000000;stroke-width:6.94573;stroke-linecap:round;stroke-linejoin:miter;stroke-miterlimit:4;stroke-dasharray:none;stroke-opacity:1;filter:url(#filter5498)"
         d="m 334.16736,511.08927 13.3362,-7.69968"
         id="path5364"
         sodipodi:nodetypes="cc" />
      <path
         style="opacity:0.1;fill:none;stroke:#000000;stroke-width:6.94573;stroke-linecap:round;stroke-linejoin:miter;stroke-miterlimit:4;stroke-dasharray:none;stroke-opacity:1;filter:url(#filter5494)"
         d="m 209.40889,490.67861 27.52456,-15.89129"
         id="path5366"
         sodipodi:nodetypes="cc" />
      <path
         style="opacity:0.1;fill:none;stroke:#000000;stroke-width:6.94573;stroke-linecap:round;stroke-linejoin:miter;stroke-miterlimit:4;stroke-dasharray:none;stroke-opacity:1;filter:url(#filter5490)"
         d="M 110.27377,513.35128 214.16498,453.36965"
         id="path5368"
         sodipodi:nodetypes="cc" />
      <path
         style="opacity:0.1;fill:none;stroke:#000000;stroke-width:6.94573;stroke-linecap:round;stroke-linejoin:miter;stroke-miterlimit:4;stroke-dasharray:none;stroke-opacity:1;filter:url(#filter5486)"
         d="m 863.46531,75.043896 25.34158,-14.63095"
         id="path5370"
         sodipodi:nodetypes="cc" />
    </g>
    <path
       id="path5077"
       style="opacity:0.1;fill:#000000;fill-opacity:1;stroke:none;stroke-width:3.43237;stroke-linecap:square;stroke-linejoin:round;stroke-opacity:1;filter:url(#filter5586)"
       d="m 2077.3691,645.5293 a 12.802057,12.802057 0 0 0 -12.8027,12.80273 12.802057,12.802057 0 0 0 12.8027,12.80274 12.802057,12.802057 0 0 0 12.8008,-12.80274 12.802057,12.802057 0 0 0 -12.8008,-12.80273 z m 51.2071,0 a 12.802057,12.802057 0 0 0 -12.8028,12.80273 12.802057,12.802057 0 0 0 12.8028,12.80274 12.802057,12.802057 0 0 0 12.8027,-12.80274 12.802057,12.802057 0 0 0 -12.8027,-12.80273 z m 51.209,0 a 12.802057,12.802057 0 0 0 -12.8028,12.80273 12.802057,12.802057 0 0 0 12.8028,12.80274 12.802057,12.802057 0 0 0 12.8007,-12.80274 12.802057,12.802057 0 0 0 -12.8007,-12.80273 z m 51.207,0 a 12.802057,12.802057 0 0 0 -12.8008,12.80273 12.802057,12.802057 0 0 0 12.8008,12.80274 12.802057,12.802057 0 0 0 12.8027,-12.80274 12.802057,12.802057 0 0 0 -12.8027,-12.80273 z m 51.209,0 a 12.802057,12.802057 0 0 0 -12.8028,12.80273 12.802057,12.802057 0 0 0 12.8028,12.80274 12.802057,12.802057 0 0 0 12.8027,-12.80274 12.802057,12.802057 0 0 0 -12.8027,-12.80273 z m 51.209,0 a 12.802057,12.802057 0 0 0 -12.8028,12.80273 12.802057,12.802057 0 0 0 12.8028,12.80274 12.802057,12.802057 0 0 0 12.8007,-12.80274 12.802057,12.802057 0 0 0 -12.8007,-12.80273 z m 51.207,0 a 12.802057,12.802057 0 0 0 -12.8027,12.80273 12.802057,12.802057 0 0 0 12.8027,12.80274 12.802057,12.802057 0 0 0 12.8027,-12.80274 12.802057,12.802057 0 0 0 -12.8027,-12.80273 z m 51.209,0 a 12.802057,12.802057 0 0 0 -12.8028,12.80273 12.802057,12.802057 0 0 0 12.8028,12.80274 12.802057,12.802057 0 0 0 12.8008,-12.80274 12.802057,12.802057 0 0 0 -12.8008,-12.80273 z m 51.207,0 a 12.802057,12.802057 0 0 0 -12.8008,12.80273 12.802057,12.802057 0 0 0 12.8008,12.80274 12.802057,12.802057 0 0 0 12.8027,-12.80274 12.802057,12.802057 0 0 0 -12.8027,-12.80273 z m -409.6641,51.20898 a 12.802057,12.802057 0 0 0 -12.8027,12.80274 12.802057,12.802057 0 0 0 12.8027,12.80078 12.802057,12.802057 0 0 0 12.8008,-12.80078 12.802057,12.802057 0 0 0 -12.8008,-12.80274 z m 51.2071,0 a 12.802057,12.802057 0 0 0 -12.8028,12.80274 12.802057,12.802057 0 0 0 12.8028,12.80078 12.802057,12.802057 0 0 0 12.8027,-12.80078 12.802057,12.802057 0 0 0 -12.8027,-12.80274 z m 51.209,0 a 12.802057,12.802057 0 0 0 -12.8028,12.80274 12.802057,12.802057 0 0 0 12.8028,12.80078 12.802057,12.802057 0 0 0 12.8007,-12.80078 12.802057,12.802057 0 0 0 -12.8007,-12.80274 z m 51.207,0 a 12.802057,12.802057 0 0 0 -12.8008,12.80274 12.802057,12.802057 0 0 0 12.8008,12.80078 12.802057,12.802057 0 0 0 12.8027,-12.80078 12.802057,12.802057 0 0 0 -12.8027,-12.80274 z m 51.209,0 a 12.802057,12.802057 0 0 0 -12.8028,12.80274 12.802057,12.802057 0 0 0 12.8028,12.80078 12.802057,12.802057 0 0 0 12.8027,-12.80078 12.802057,12.802057 0 0 0 -12.8027,-12.80274 z m 51.209,0 a 12.802057,12.802057 0 0 0 -12.8028,12.80274 12.802057,12.802057 0 0 0 12.8028,12.80078 12.802057,12.802057 0 0 0 12.8007,-12.80078 12.802057,12.802057 0 0 0 -12.8007,-12.80274 z m 51.207,0 a 12.802057,12.802057 0 0 0 -12.8027,12.80274 12.802057,12.802057 0 0 0 12.8027,12.80078 12.802057,12.802057 0 0 0 12.8027,-12.80078 12.802057,12.802057 0 0 0 -12.8027,-12.80274 z m 51.209,0 a 12.802057,12.802057 0 0 0 -12.8028,12.80274 12.802057,12.802057 0 0 0 12.8028,12.80078 12.802057,12.802057 0 0 0 12.8008,-12.80078 12.802057,12.802057 0 0 0 -12.8008,-12.80274 z m 51.207,0 a 12.802057,12.802057 0 0 0 -12.8008,12.80274 12.802057,12.802057 0 0 0 12.8008,12.80078 12.802057,12.802057 0 0 0 12.8027,-12.80078 12.802057,12.802057 0 0 0 -12.8027,-12.80274 z m -409.6641,51.20899 a 12.802057,12.802057 0 0 0 -12.8027,12.80078 12.802057,12.802057 0 0 0 12.8027,12.80273 12.802057,12.802057 0 0 0 12.8008,-12.80273 12.802057,12.802057 0 0 0 -12.8008,-12.80078 z m 51.2071,0 a 12.802057,12.802057 0 0 0 -12.8028,12.80078 12.802057,12.802057 0 0 0 12.8028,12.80273 12.802057,12.802057 0 0 0 12.8027,-12.80273 12.802057,12.802057 0 0 0 -12.8027,-12.80078 z m 51.209,0 a 12.802057,12.802057 0 0 0 -12.8028,12.80078 12.802057,12.802057 0 0 0 12.8028,12.80273 12.802057,12.802057 0 0 0 12.8007,-12.80273 12.802057,12.802057 0 0 0 -12.8007,-12.80078 z m 51.207,0 a 12.802057,12.802057 0 0 0 -12.8008,12.80078 12.802057,12.802057 0 0 0 12.8008,12.80273 12.802057,12.802057 0 0 0 12.8027,-12.80273 12.802057,12.802057 0 0 0 -12.8027,-12.80078 z m 51.209,0 a 12.802057,12.802057 0 0 0 -12.8028,12.80078 12.802057,12.802057 0 0 0 12.8028,12.80273 12.802057,12.802057 0 0 0 12.8027,-12.80273 12.802057,12.802057 0 0 0 -12.8027,-12.80078 z m 51.209,0 a 12.802057,12.802057 0 0 0 -12.8028,12.80078 12.802057,12.802057 0 0 0 12.8028,12.80273 12.802057,12.802057 0 0 0 12.8007,-12.80273 12.802057,12.802057 0 0 0 -12.8007,-12.80078 z m 51.207,0 a 12.802057,12.802057 0 0 0 -12.8027,12.80078 12.802057,12.802057 0 0 0 12.8027,12.80273 12.802057,12.802057 0 0 0 12.8027,-12.80273 12.802057,12.802057 0 0 0 -12.8027,-12.80078 z m 51.209,0 a 12.802057,12.802057 0 0 0 -12.8028,12.80078 12.802057,12.802057 0 0 0 12.8028,12.80273 12.802057,12.802057 0 0 0 12.8008,-12.80273 12.802057,12.802057 0 0 0 -12.8008,-12.80078 z m 51.207,0 a 12.802057,12.802057 0 0 0 -12.8008,12.80078 12.802057,12.802057 0 0 0 12.8008,12.80273 12.802057,12.802057 0 0 0 12.8027,-12.80273 12.802057,12.802057 0 0 0 -12.8027,-12.80078 z m -409.6641,51.20703 a 12.802057,12.802057 0 0 0 -12.8027,12.80273 12.802057,12.802057 0 0 0 12.8027,12.80078 12.802057,12.802057 0 0 0 12.8008,-12.80078 12.802057,12.802057 0 0 0 -12.8008,-12.80273 z m 51.2071,0 a 12.802057,12.802057 0 0 0 -12.8028,12.80273 12.802057,12.802057 0 0 0 12.8028,12.80078 12.802057,12.802057 0 0 0 12.8027,-12.80078 12.802057,12.802057 0 0 0 -12.8027,-12.80273 z m 51.209,0 a 12.802057,12.802057 0 0 0 -12.8028,12.80273 12.802057,12.802057 0 0 0 12.8028,12.80078 12.802057,12.802057 0 0 0 12.8007,-12.80078 12.802057,12.802057 0 0 0 -12.8007,-12.80273 z m 51.207,0 a 12.802057,12.802057 0 0 0 -12.8008,12.80273 12.802057,12.802057 0 0 0 12.8008,12.80078 12.802057,12.802057 0 0 0 12.8027,-12.80078 12.802057,12.802057 0 0 0 -12.8027,-12.80273 z m 51.209,0 a 12.802057,12.802057 0 0 0 -12.8028,12.80273 12.802057,12.802057 0 0 0 12.8028,12.80078 12.802057,12.802057 0 0 0 12.8027,-12.80078 12.802057,12.802057 0 0 0 -12.8027,-12.80273 z m 51.209,0 a 12.802057,12.802057 0 0 0 -12.8028,12.80273 12.802057,12.802057 0 0 0 12.8028,12.80078 12.802057,12.802057 0 0 0 12.8007,-12.80078 12.802057,12.802057 0 0 0 -12.8007,-12.80273 z m 51.207,0 a 12.802057,12.802057 0 0 0 -12.8027,12.80273 12.802057,12.802057 0 0 0 12.8027,12.80078 12.802057,12.802057 0 0 0 12.8027,-12.80078 12.802057,12.802057 0 0 0 -12.8027,-12.80273 z m 51.209,0 a 12.802057,12.802057 0 0 0 -12.8028,12.80273 12.802057,12.802057 0 0 0 12.8028,12.80078 12.802057,12.802057 0 0 0 12.8008,-12.80078 12.802057,12.802057 0 0 0 -12.8008,-12.80273 z m 51.207,0 a 12.802057,12.802057 0 0 0 -12.8008,12.80273 12.802057,12.802057 0 0 0 12.8008,12.80078 12.802057,12.802057 0 0 0 12.8027,-12.80078 12.802057,12.802057 0 0 0 -12.8027,-12.80273 z m -409.6641,51.20898 a 12.802057,12.802057 0 0 0 -12.8027,12.80078 12.802057,12.802057 0 0 0 12.8027,12.80274 12.802057,12.802057 0 0 0 12.8008,-12.80274 12.802057,12.802057 0 0 0 -12.8008,-12.80078 z m 51.2071,0 a 12.802057,12.802057 0 0 0 -12.8028,12.80078 12.802057,12.802057 0 0 0 12.8028,12.80274 12.802057,12.802057 0 0 0 12.8027,-12.80274 12.802057,12.802057 0 0 0 -12.8027,-12.80078 z m 51.209,0 a 12.802057,12.802057 0 0 0 -12.8028,12.80078 12.802057,12.802057 0 0 0 12.8028,12.80274 12.802057,12.802057 0 0 0 12.8007,-12.80274 12.802057,12.802057 0 0 0 -12.8007,-12.80078 z m 51.207,0 a 12.802057,12.802057 0 0 0 -12.8008,12.80078 12.802057,12.802057 0 0 0 12.8008,12.80274 12.802057,12.802057 0 0 0 12.8027,-12.80274 12.802057,12.802057 0 0 0 -12.8027,-12.80078 z m 51.209,0 a 12.802057,12.802057 0 0 0 -12.8028,12.80078 12.802057,12.802057 0 0 0 12.8028,12.80274 12.802057,12.802057 0 0 0 12.8027,-12.80274 12.802057,12.802057 0 0 0 -12.8027,-12.80078 z m 51.209,0 a 12.802057,12.802057 0 0 0 -12.8028,12.80078 12.802057,12.802057 0 0 0 12.8028,12.80274 12.802057,12.802057 0 0 0 12.8007,-12.80274 12.802057,12.802057 0 0 0 -12.8007,-12.80078 z m 51.207,0 a 12.802057,12.802057 0 0 0 -12.8027,12.80078 12.802057,12.802057 0 0 0 12.8027,12.80274 12.802057,12.802057 0 0 0 12.8027,-12.80274 12.802057,12.802057 0 0 0 -12.8027,-12.80078 z m 51.209,0 a 12.802057,12.802057 0 0 0 -12.8028,12.80078 12.802057,12.802057 0 0 0 12.8028,12.80274 12.802057,12.802057 0 0 0 12.8008,-12.80274 12.802057,12.802057 0 0 0 -12.8008,-12.80078 z m 51.207,0 a 12.802057,12.802057 0 0 0 -12.8008,12.80078 12.802057,12.802057 0 0 0 12.8008,12.80274 12.802057,12.802057 0 0 0 12.8027,-12.80274 12.802057,12.802057 0 0 0 -12.8027,-12.80078 z M 1352.9668,1284.0332 a 12.802057,12.802057 0 0 0 -12.8027,12.8027 12.802057,12.802057 0 0 0 12.8027,12.8008 12.802057,12.802057 0 0 0 12.8008,-12.8008 12.802057,12.802057 0 0 0 -12.8008,-12.8027 z m 51.207,0 a 12.802057,12.802057 0 0 0 -12.8008,12.8027 12.802057,12.802057 0 0 0 12.8008,12.8008 12.802057,12.802057 0 0 0 12.8028,-12.8008 12.802057,12.802057 0 0 0 -12.8028,-12.8027 z m 51.209,0 a 12.802057,12.802057 0 0 0 -12.8027,12.8027 12.802057,12.802057 0 0 0 12.8027,12.8008 12.802057,12.802057 0 0 0 12.8008,-12.8008 12.802057,12.802057 0 0 0 -12.8008,-12.8027 z m 51.207,0 a 12.802057,12.802057 0 0 0 -12.8007,12.8027 12.802057,12.802057 0 0 0 12.8007,12.8008 12.802057,12.802057 0 0 0 12.8028,-12.8008 12.802057,12.802057 0 0 0 -12.8028,-12.8027 z m 51.209,0 a 12.802057,12.802057 0 0 0 -12.8027,12.8027 12.802057,12.802057 0 0 0 12.8027,12.8008 12.802057,12.802057 0 0 0 12.8028,-12.8008 12.802057,12.802057 0 0 0 -12.8028,-12.8027 z m 51.209,0 a 12.802057,12.802057 0 0 0 -12.8027,12.8027 12.802057,12.802057 0 0 0 12.8027,12.8008 12.802057,12.802057 0 0 0 12.8008,-12.8008 12.802057,12.802057 0 0 0 -12.8008,-12.8027 z m 51.207,0 a 12.802057,12.802057 0 0 0 -12.8007,12.8027 12.802057,12.802057 0 0 0 12.8007,12.8008 12.802057,12.802057 0 0 0 12.8028,-12.8008 12.802057,12.802057 0 0 0 -12.8028,-12.8027 z m 51.209,0 a 12.802057,12.802057 0 0 0 -12.8027,12.8027 12.802057,12.802057 0 0 0 12.8027,12.8008 12.802057,12.802057 0 0 0 12.8008,-12.8008 12.802057,12.802057 0 0 0 -12.8008,-12.8027 z m 51.2071,0 a 12.802057,12.802057 0 0 0 -12.8008,12.8027 12.802057,12.802057 0 0 0 12.8008,12.8008 12.802057,12.802057 0 0 0 12.8027,-12.8008 12.802057,12.802057 0 0 0 -12.8027,-12.8027 z m -409.6641,51.209 a 12.802057,12.802057 0 0 0 -12.8027,12.8008 12.802057,12.802057 0 0 0 12.8027,12.8027 12.802057,12.802057 0 0 0 12.8008,-12.8027 12.802057,12.802057 0 0 0 -12.8008,-12.8008 z m 51.207,0 a 12.802057,12.802057 0 0 0 -12.8008,12.8008 12.802057,12.802057 0 0 0 12.8008,12.8027 12.802057,12.802057 0 0 0 12.8028,-12.8027 12.802057,12.802057 0 0 0 -12.8028,-12.8008 z m 51.209,0 a 12.802057,12.802057 0 0 0 -12.8027,12.8008 12.802057,12.802057 0 0 0 12.8027,12.8027 12.802057,12.802057 0 0 0 12.8008,-12.8027 12.802057,12.802057 0 0 0 -12.8008,-12.8008 z m 51.207,0 a 12.802057,12.802057 0 0 0 -12.8007,12.8008 12.802057,12.802057 0 0 0 12.8007,12.8027 12.802057,12.802057 0 0 0 12.8028,-12.8027 12.802057,12.802057 0 0 0 -12.8028,-12.8008 z m 51.209,0 a 12.802057,12.802057 0 0 0 -12.8027,12.8008 12.802057,12.802057 0 0 0 12.8027,12.8027 12.802057,12.802057 0 0 0 12.8028,-12.8027 12.802057,12.802057 0 0 0 -12.8028,-12.8008 z m 51.209,0 a 12.802057,12.802057 0 0 0 -12.8027,12.8008 12.802057,12.802057 0 0 0 12.8027,12.8027 12.802057,12.802057 0 0 0 12.8008,-12.8027 12.802057,12.802057 0 0 0 -12.8008,-12.8008 z m 51.207,0 a 12.802057,12.802057 0 0 0 -12.8007,12.8008 12.802057,12.802057 0 0 0 12.8007,12.8027 12.802057,12.802057 0 0 0 12.8028,-12.8027 12.802057,12.802057 0 0 0 -12.8028,-12.8008 z m 51.209,0 a 12.802057,12.802057 0 0 0 -12.8027,12.8008 12.802057,12.802057 0 0 0 12.8027,12.8027 12.802057,12.802057 0 0 0 12.8008,-12.8027 12.802057,12.802057 0 0 0 -12.8008,-12.8008 z m 51.2071,0 a 12.802057,12.802057 0 0 0 -12.8008,12.8008 12.802057,12.802057 0 0 0 12.8008,12.8027 12.802057,12.802057 0 0 0 12.8027,-12.8027 12.802057,12.802057 0 0 0 -12.8027,-12.8008 z m -409.6641,51.207 a 12.802057,12.802057 0 0 0 -12.8027,12.8028 12.802057,12.802057 0 0 0 12.8027,12.8027 12.802057,12.802057 0 0 0 12.8008,-12.8027 12.802057,12.802057 0 0 0 -12.8008,-12.8028 z m 51.207,0 a 12.802057,12.802057 0 0 0 -12.8008,12.8028 12.802057,12.802057 0 0 0 12.8008,12.8027 12.802057,12.802057 0 0 0 12.8028,-12.8027 12.802057,12.802057 0 0 0 -12.8028,-12.8028 z m 51.209,0 a 12.802057,12.802057 0 0 0 -12.8027,12.8028 12.802057,12.802057 0 0 0 12.8027,12.8027 12.802057,12.802057 0 0 0 12.8008,-12.8027 12.802057,12.802057 0 0 0 -12.8008,-12.8028 z m 51.207,0 a 12.802057,12.802057 0 0 0 -12.8007,12.8028 12.802057,12.802057 0 0 0 12.8007,12.8027 12.802057,12.802057 0 0 0 12.8028,-12.8027 12.802057,12.802057 0 0 0 -12.8028,-12.8028 z m 51.209,0 a 12.802057,12.802057 0 0 0 -12.8027,12.8028 12.802057,12.802057 0 0 0 12.8027,12.8027 12.802057,12.802057 0 0 0 12.8028,-12.8027 12.802057,12.802057 0 0 0 -12.8028,-12.8028 z m 51.209,0 a 12.802057,12.802057 0 0 0 -12.8027,12.8028 12.802057,12.802057 0 0 0 12.8027,12.8027 12.802057,12.802057 0 0 0 12.8008,-12.8027 12.802057,12.802057 0 0 0 -12.8008,-12.8028 z m 51.207,0 a 12.802057,12.802057 0 0 0 -12.8007,12.8028 12.802057,12.802057 0 0 0 12.8007,12.8027 12.802057,12.802057 0 0 0 12.8028,-12.8027 12.802057,12.802057 0 0 0 -12.8028,-12.8028 z m 51.209,0 a 12.802057,12.802057 0 0 0 -12.8027,12.8028 12.802057,12.802057 0 0 0 12.8027,12.8027 12.802057,12.802057 0 0 0 12.8008,-12.8027 12.802057,12.802057 0 0 0 -12.8008,-12.8028 z m 51.2071,0 a 12.802057,12.802057 0 0 0 -12.8008,12.8028 12.802057,12.802057 0 0 0 12.8008,12.8027 12.802057,12.802057 0 0 0 12.8027,-12.8027 12.802057,12.802057 0 0 0 -12.8027,-12.8028 z m -409.6641,51.209 a 12.802057,12.802057 0 0 0 -12.8027,12.8027 12.802057,12.802057 0 0 0 12.8027,12.8008 12.802057,12.802057 0 0 0 12.8008,-12.8008 12.802057,12.802057 0 0 0 -12.8008,-12.8027 z m 51.207,0 a 12.802057,12.802057 0 0 0 -12.8008,12.8027 12.802057,12.802057 0 0 0 12.8008,12.8008 12.802057,12.802057 0 0 0 12.8028,-12.8008 12.802057,12.802057 0 0 0 -12.8028,-12.8027 z m 51.209,0 a 12.802057,12.802057 0 0 0 -12.8027,12.8027 12.802057,12.802057 0 0 0 12.8027,12.8008 12.802057,12.802057 0 0 0 12.8008,-12.8008 12.802057,12.802057 0 0 0 -12.8008,-12.8027 z m 51.207,0 a 12.802057,12.802057 0 0 0 -12.8007,12.8027 12.802057,12.802057 0 0 0 12.8007,12.8008 12.802057,12.802057 0 0 0 12.8028,-12.8008 12.802057,12.802057 0 0 0 -12.8028,-12.8027 z m 51.209,0 a 12.802057,12.802057 0 0 0 -12.8027,12.8027 12.802057,12.802057 0 0 0 12.8027,12.8008 12.802057,12.802057 0 0 0 12.8028,-12.8008 12.802057,12.802057 0 0 0 -12.8028,-12.8027 z m 51.209,0 a 12.802057,12.802057 0 0 0 -12.8027,12.8027 12.802057,12.802057 0 0 0 12.8027,12.8008 12.802057,12.802057 0 0 0 12.8008,-12.8008 12.802057,12.802057 0 0 0 -12.8008,-12.8027 z m 51.207,0 a 12.802057,12.802057 0 0 0 -12.8007,12.8027 12.802057,12.802057 0 0 0 12.8007,12.8008 12.802057,12.802057 0 0 0 12.8028,-12.8008 12.802057,12.802057 0 0 0 -12.8028,-12.8027 z m 51.209,0 a 12.802057,12.802057 0 0 0 -12.8027,12.8027 12.802057,12.802057 0 0 0 12.8027,12.8008 12.802057,12.802057 0 0 0 12.8008,-12.8008 12.802057,12.802057 0 0 0 -12.8008,-12.8027 z m 51.2071,0 a 12.802057,12.802057 0 0 0 -12.8008,12.8027 12.802057,12.802057 0 0 0 12.8008,12.8008 12.802057,12.802057 0 0 0 12.8027,-12.8008 12.802057,12.802057 0 0 0 -12.8027,-12.8027 z m -409.6641,51.207 a 12.802057,12.802057 0 0 0 -12.8027,12.8028 12.802057,12.802057 0 0 0 12.8027,12.8027 12.802057,12.802057 0 0 0 12.8008,-12.8027 12.802057,12.802057 0 0 0 -12.8008,-12.8028 z m 51.207,0 a 12.802057,12.802057 0 0 0 -12.8008,12.8028 12.802057,12.802057 0 0 0 12.8008,12.8027 12.802057,12.802057 0 0 0 12.8028,-12.8027 12.802057,12.802057 0 0 0 -12.8028,-12.8028 z m 51.209,0 a 12.802057,12.802057 0 0 0 -12.8027,12.8028 12.802057,12.802057 0 0 0 12.8027,12.8027 12.802057,12.802057 0 0 0 12.8008,-12.8027 12.802057,12.802057 0 0 0 -12.8008,-12.8028 z m 51.207,0 a 12.802057,12.802057 0 0 0 -12.8007,12.8028 12.802057,12.802057 0 0 0 12.8007,12.8027 12.802057,12.802057 0 0 0 12.8028,-12.8027 12.802057,12.802057 0 0 0 -12.8028,-12.8028 z m 51.209,0 a 12.802057,12.802057 0 0 0 -12.8027,12.8028 12.802057,12.802057 0 0 0 12.8027,12.8027 12.802057,12.802057 0 0 0 12.8028,-12.8027 12.802057,12.802057 0 0 0 -12.8028,-12.8028 z m 51.209,0 a 12.802057,12.802057 0 0 0 -12.8027,12.8028 12.802057,12.802057 0 0 0 12.8027,12.8027 12.802057,12.802057 0 0 0 12.8008,-12.8027 12.802057,12.802057 0 0 0 -12.8008,-12.8028 z m 51.207,0 a 12.802057,12.802057 0 0 0 -12.8007,12.8028 12.802057,12.802057 0 0 0 12.8007,12.8027 12.802057,12.802057 0 0 0 12.8028,-12.8027 12.802057,12.802057 0 0 0 -12.8028,-12.8028 z m 51.209,0 a 12.802057,12.802057 0 0 0 -12.8027,12.8028 12.802057,12.802057 0 0 0 12.8027,12.8027 12.802057,12.802057 0 0 0 12.8008,-12.8027 12.802057,12.802057 0 0 0 -12.8008,-12.8028 z m 51.2071,0 a 12.802057,12.802057 0 0 0 -12.8008,12.8028 12.802057,12.802057 0 0 0 12.8008,12.8027 12.802057,12.802057 0 0 0 12.8027,-12.8027 12.802057,12.802057 0 0 0 -12.8027,-12.8028 z"
       transform="matrix(0.26458334,0,0,0.26458334,-126.99987,1.5875001)" />
    <path
       style="fill:url(#linearGradient1470);fill-opacity:1;stroke:none;stroke-width:3.43958;stroke-linecap:square;stroke-linejoin:round;filter:url(#filter2140)"
       id="path1448"
       transform="matrix(0.58185375,0.58185374,-0.58185374,0.58185375,477.64647,34.752598)"
       d="M 248.19869,414.29941 90.338957,456.5978 -25.222388,341.03646 17.075999,183.17672 174.93573,140.87833 290.49708,256.43968 Z" />
    <path
       style="fill:url(#linearGradient1472);fill-opacity:1;stroke:none;stroke-width:3.43958;stroke-linecap:square;stroke-linejoin:round;filter:url(#filter2144)"
       id="path1450"
       transform="matrix(0.21596541,0.80599386,-0.80599386,0.21596541,593.13611,114.32803)"
       d="M 248.19869,414.29941 90.338957,456.5978 -25.222388,341.03646 17.075999,183.17672 174.93573,140.87833 290.49708,256.43968 Z" />
    <path
       id="path4113"
       style="fill:#ffffff;fill-opacity:1;stroke:none;stroke-width:0.908148;stroke-linecap:square;stroke-linejoin:round;stroke-opacity:1"
       d="m 422.63738,170.7963 a 3.387211,3.387211 0 0 0 -3.38738,3.38739 3.387211,3.387211 0 0 0 3.38738,3.38739 3.387211,3.387211 0 0 0 3.38688,-3.38739 3.387211,3.387211 0 0 0 -3.38688,-3.38739 z m 13.54855,0 a 3.387211,3.387211 0 0 0 -3.38741,3.38739 3.387211,3.387211 0 0 0 3.38741,3.38739 3.387211,3.387211 0 0 0 3.38738,-3.38739 3.387211,3.387211 0 0 0 -3.38738,-3.38739 z m 13.54905,0 a 3.387211,3.387211 0 0 0 -3.38741,3.38739 3.387211,3.387211 0 0 0 3.38741,3.38739 3.387211,3.387211 0 0 0 3.38685,-3.38739 3.387211,3.387211 0 0 0 -3.38685,-3.38739 z m 13.54852,0 a 3.387211,3.387211 0 0 0 -3.38688,3.38739 3.387211,3.387211 0 0 0 3.38688,3.38739 3.387211,3.387211 0 0 0 3.38738,-3.38739 3.387211,3.387211 0 0 0 -3.38738,-3.38739 z m 13.54905,0 a 3.387211,3.387211 0 0 0 -3.38741,3.38739 3.387211,3.387211 0 0 0 3.38741,3.38739 3.387211,3.387211 0 0 0 3.38738,-3.38739 3.387211,3.387211 0 0 0 -3.38738,-3.38739 z m 13.54904,0 a 3.387211,3.387211 0 0 0 -3.3874,3.38739 3.387211,3.387211 0 0 0 3.3874,3.38739 3.387211,3.387211 0 0 0 3.38686,-3.38739 3.387211,3.387211 0 0 0 -3.38686,-3.38739 z m 13.54852,0 a 3.387211,3.387211 0 0 0 -3.38738,3.38739 3.387211,3.387211 0 0 0 3.38738,3.38739 3.387211,3.387211 0 0 0 3.38738,-3.38739 3.387211,3.387211 0 0 0 -3.38738,-3.38739 z m 13.54905,0 a 3.387211,3.387211 0 0 0 -3.38741,3.38739 3.387211,3.387211 0 0 0 3.38741,3.38739 3.387211,3.387211 0 0 0 3.38688,-3.38739 3.387211,3.387211 0 0 0 -3.38688,-3.38739 z m 13.54852,0 a 3.387211,3.387211 0 0 0 -3.38688,3.38739 3.387211,3.387211 0 0 0 3.38688,3.38739 3.387211,3.387211 0 0 0 3.38738,-3.38739 3.387211,3.387211 0 0 0 -3.38738,-3.38739 z m -108.3903,13.54904 a 3.387211,3.387211 0 0 0 -3.38738,3.38739 3.387211,3.387211 0 0 0 3.38738,3.38688 3.387211,3.387211 0 0 0 3.38688,-3.38688 3.387211,3.387211 0 0 0 -3.38688,-3.38739 z m 13.54855,0 a 3.387211,3.387211 0 0 0 -3.38741,3.38739 3.387211,3.387211 0 0 0 3.38741,3.38688 3.387211,3.387211 0 0 0 3.38738,-3.38688 3.387211,3.387211 0 0 0 -3.38738,-3.38739 z m 13.54905,0 a 3.387211,3.387211 0 0 0 -3.38741,3.38739 3.387211,3.387211 0 0 0 3.38741,3.38688 3.387211,3.387211 0 0 0 3.38685,-3.38688 3.387211,3.387211 0 0 0 -3.38685,-3.38739 z m 13.54852,0 a 3.387211,3.387211 0 0 0 -3.38688,3.38739 3.387211,3.387211 0 0 0 3.38688,3.38688 3.387211,3.387211 0 0 0 3.38738,-3.38688 3.387211,3.387211 0 0 0 -3.38738,-3.38739 z m 13.54905,0 a 3.387211,3.387211 0 0 0 -3.38741,3.38739 3.387211,3.387211 0 0 0 3.38741,3.38688 3.387211,3.387211 0 0 0 3.38738,-3.38688 3.387211,3.387211 0 0 0 -3.38738,-3.38739 z m 13.54904,0 a 3.387211,3.387211 0 0 0 -3.3874,3.38739 3.387211,3.387211 0 0 0 3.3874,3.38688 3.387211,3.387211 0 0 0 3.38686,-3.38688 3.387211,3.387211 0 0 0 -3.38686,-3.38739 z m 13.54852,0 a 3.387211,3.387211 0 0 0 -3.38738,3.38739 3.387211,3.387211 0 0 0 3.38738,3.38688 3.387211,3.387211 0 0 0 3.38738,-3.38688 3.387211,3.387211 0 0 0 -3.38738,-3.38739 z m 13.54905,0 a 3.387211,3.387211 0 0 0 -3.38741,3.38739 3.387211,3.387211 0 0 0 3.38741,3.38688 3.387211,3.387211 0 0 0 3.38688,-3.38688 3.387211,3.387211 0 0 0 -3.38688,-3.38739 z m 13.54852,0 a 3.387211,3.387211 0 0 0 -3.38688,3.38739 3.387211,3.387211 0 0 0 3.38688,3.38688 3.387211,3.387211 0 0 0 3.38738,-3.38688 3.387211,3.387211 0 0 0 -3.38738,-3.38739 z m -108.3903,13.54905 a 3.387211,3.387211 0 0 0 -3.38738,3.38687 3.387211,3.387211 0 0 0 3.38738,3.38739 3.387211,3.387211 0 0 0 3.38688,-3.38739 3.387211,3.387211 0 0 0 -3.38688,-3.38687 z m 13.54855,0 a 3.387211,3.387211 0 0 0 -3.38741,3.38687 3.387211,3.387211 0 0 0 3.38741,3.38739 3.387211,3.387211 0 0 0 3.38738,-3.38739 3.387211,3.387211 0 0 0 -3.38738,-3.38687 z m 13.54905,0 a 3.387211,3.387211 0 0 0 -3.38741,3.38687 3.387211,3.387211 0 0 0 3.38741,3.38739 3.387211,3.387211 0 0 0 3.38685,-3.38739 3.387211,3.387211 0 0 0 -3.38685,-3.38687 z m 13.54852,0 a 3.387211,3.387211 0 0 0 -3.38688,3.38687 3.387211,3.387211 0 0 0 3.38688,3.38739 3.387211,3.387211 0 0 0 3.38738,-3.38739 3.387211,3.387211 0 0 0 -3.38738,-3.38687 z m 13.54905,0 a 3.387211,3.387211 0 0 0 -3.38741,3.38687 3.387211,3.387211 0 0 0 3.38741,3.38739 3.387211,3.387211 0 0 0 3.38738,-3.38739 3.387211,3.387211 0 0 0 -3.38738,-3.38687 z m 13.54904,0 a 3.387211,3.387211 0 0 0 -3.3874,3.38687 3.387211,3.387211 0 0 0 3.3874,3.38739 3.387211,3.387211 0 0 0 3.38686,-3.38739 3.387211,3.387211 0 0 0 -3.38686,-3.38687 z m 13.54852,0 a 3.387211,3.387211 0 0 0 -3.38738,3.38687 3.387211,3.387211 0 0 0 3.38738,3.38739 3.387211,3.387211 0 0 0 3.38738,-3.38739 3.387211,3.387211 0 0 0 -3.38738,-3.38687 z m 13.54905,0 a 3.387211,3.387211 0 0 0 -3.38741,3.38687 3.387211,3.387211 0 0 0 3.38741,3.38739 3.387211,3.387211 0 0 0 3.38688,-3.38739 3.387211,3.387211 0 0 0 -3.38688,-3.38687 z m 13.54852,0 a 3.387211,3.387211 0 0 0 -3.38688,3.38687 3.387211,3.387211 0 0 0 3.38688,3.38739 3.387211,3.387211 0 0 0 3.38738,-3.38739 3.387211,3.387211 0 0 0 -3.38738,-3.38687 z m -108.3903,13.54852 a 3.387211,3.387211 0 0 0 -3.38738,3.38739 3.387211,3.387211 0 0 0 3.38738,3.38688 3.387211,3.387211 0 0 0 3.38688,-3.38688 3.387211,3.387211 0 0 0 -3.38688,-3.38739 z m 13.54855,0 a 3.387211,3.387211 0 0 0 -3.38741,3.38739 3.387211,3.387211 0 0 0 3.38741,3.38688 3.387211,3.387211 0 0 0 3.38738,-3.38688 3.387211,3.387211 0 0 0 -3.38738,-3.38739 z m 13.54905,0 a 3.387211,3.387211 0 0 0 -3.38741,3.38739 3.387211,3.387211 0 0 0 3.38741,3.38688 3.387211,3.387211 0 0 0 3.38685,-3.38688 3.387211,3.387211 0 0 0 -3.38685,-3.38739 z m 13.54852,0 a 3.387211,3.387211 0 0 0 -3.38688,3.38739 3.387211,3.387211 0 0 0 3.38688,3.38688 3.387211,3.387211 0 0 0 3.38738,-3.38688 3.387211,3.387211 0 0 0 -3.38738,-3.38739 z m 13.54905,0 a 3.387211,3.387211 0 0 0 -3.38741,3.38739 3.387211,3.387211 0 0 0 3.38741,3.38688 3.387211,3.387211 0 0 0 3.38738,-3.38688 3.387211,3.387211 0 0 0 -3.38738,-3.38739 z m 13.54904,0 a 3.387211,3.387211 0 0 0 -3.3874,3.38739 3.387211,3.387211 0 0 0 3.3874,3.38688 3.387211,3.387211 0 0 0 3.38686,-3.38688 3.387211,3.387211 0 0 0 -3.38686,-3.38739 z m 13.54852,0 a 3.387211,3.387211 0 0 0 -3.38738,3.38739 3.387211,3.387211 0 0 0 3.38738,3.38688 3.387211,3.387211 0 0 0 3.38738,-3.38688 3.387211,3.387211 0 0 0 -3.38738,-3.38739 z m 13.54905,0 a 3.387211,3.387211 0 0 0 -3.38741,3.38739 3.387211,3.387211 0 0 0 3.38741,3.38688 3.387211,3.387211 0 0 0 3.38688,-3.38688 3.387211,3.387211 0 0 0 -3.38688,-3.38739 z m 13.54852,0 a 3.387211,3.387211 0 0 0 -3.38688,3.38739 3.387211,3.387211 0 0 0 3.38688,3.38688 3.387211,3.387211 0 0 0 3.38738,-3.38688 3.387211,3.387211 0 0 0 -3.38738,-3.38739 z m -108.3903,13.54905 a 3.387211,3.387211 0 0 0 -3.38738,3.38687 3.387211,3.387211 0 0 0 3.38738,3.38739 3.387211,3.387211 0 0 0 3.38688,-3.38739 3.387211,3.387211 0 0 0 -3.38688,-3.38687 z m 13.54855,0 a 3.387211,3.387211 0 0 0 -3.38741,3.38687 3.387211,3.387211 0 0 0 3.38741,3.38739 3.387211,3.387211 0 0 0 3.38738,-3.38739 3.387211,3.387211 0 0 0 -3.38738,-3.38687 z m 13.54905,0 a 3.387211,3.387211 0 0 0 -3.38741,3.38687 3.387211,3.387211 0 0 0 3.38741,3.38739 3.387211,3.387211 0 0 0 3.38685,-3.38739 3.387211,3.387211 0 0 0 -3.38685,-3.38687 z m 13.54852,0 a 3.387211,3.387211 0 0 0 -3.38688,3.38687 3.387211,3.387211 0 0 0 3.38688,3.38739 3.387211,3.387211 0 0 0 3.38738,-3.38739 3.387211,3.387211 0 0 0 -3.38738,-3.38687 z m 13.54905,0 a 3.387211,3.387211 0 0 0 -3.38741,3.38687 3.387211,3.387211 0 0 0 3.38741,3.38739 3.387211,3.387211 0 0 0 3.38738,-3.38739 3.387211,3.387211 0 0 0 -3.38738,-3.38687 z m 13.54904,0 a 3.387211,3.387211 0 0 0 -3.3874,3.38687 3.387211,3.387211 0 0 0 3.3874,3.38739 3.387211,3.387211 0 0 0 3.38686,-3.38739 3.387211,3.387211 0 0 0 -3.38686,-3.38687 z m 13.54852,0 a 3.387211,3.387211 0 0 0 -3.38738,3.38687 3.387211,3.387211 0 0 0 3.38738,3.38739 3.387211,3.387211 0 0 0 3.38738,-3.38739 3.387211,3.387211 0 0 0 -3.38738,-3.38687 z m 13.54905,0 a 3.387211,3.387211 0 0 0 -3.38741,3.38687 3.387211,3.387211 0 0 0 3.38741,3.38739 3.387211,3.387211 0 0 0 3.38688,-3.38739 3.387211,3.387211 0 0 0 -3.38688,-3.38687 z m 13.54852,0 a 3.387211,3.387211 0 0 0 -3.38688,3.38687 3.387211,3.387211 0 0 0 3.38688,3.38739 3.387211,3.387211 0 0 0 3.38738,-3.38739 3.387211,3.387211 0 0 0 -3.38738,-3.38687 z M 230.9726,339.73379 a 3.387211,3.387211 0 0 0 -3.38738,3.38738 3.387211,3.387211 0 0 0 3.38738,3.38688 3.387211,3.387211 0 0 0 3.38688,-3.38688 3.387211,3.387211 0 0 0 -3.38688,-3.38738 z m 13.54852,0 a 3.387211,3.387211 0 0 0 -3.38687,3.38738 3.387211,3.387211 0 0 0 3.38687,3.38688 3.387211,3.387211 0 0 0 3.38741,-3.38688 3.387211,3.387211 0 0 0 -3.38741,-3.38738 z m 13.54905,0 a 3.387211,3.387211 0 0 0 -3.38738,3.38738 3.387211,3.387211 0 0 0 3.38738,3.38688 3.387211,3.387211 0 0 0 3.38688,-3.38688 3.387211,3.387211 0 0 0 -3.38688,-3.38738 z m 13.54852,0 a 3.387211,3.387211 0 0 0 -3.38685,3.38738 3.387211,3.387211 0 0 0 3.38685,3.38688 3.387211,3.387211 0 0 0 3.38741,-3.38688 3.387211,3.387211 0 0 0 -3.38741,-3.38738 z m 13.54905,0 a 3.387211,3.387211 0 0 0 -3.38738,3.38738 3.387211,3.387211 0 0 0 3.38738,3.38688 3.387211,3.387211 0 0 0 3.38741,-3.38688 3.387211,3.387211 0 0 0 -3.38741,-3.38738 z m 13.54905,0 a 3.387211,3.387211 0 0 0 -3.38738,3.38738 3.387211,3.387211 0 0 0 3.38738,3.38688 3.387211,3.387211 0 0 0 3.38688,-3.38688 3.387211,3.387211 0 0 0 -3.38688,-3.38738 z m 13.54852,0 a 3.387211,3.387211 0 0 0 -3.38686,3.38738 3.387211,3.387211 0 0 0 3.38686,3.38688 3.387211,3.387211 0 0 0 3.3874,-3.38688 3.387211,3.387211 0 0 0 -3.3874,-3.38738 z m 13.54905,0 a 3.387211,3.387211 0 0 0 -3.38739,3.38738 3.387211,3.387211 0 0 0 3.38739,3.38688 3.387211,3.387211 0 0 0 3.38687,-3.38688 3.387211,3.387211 0 0 0 -3.38687,-3.38738 z m 13.54854,0 a 3.387211,3.387211 0 0 0 -3.38688,3.38738 3.387211,3.387211 0 0 0 3.38688,3.38688 3.387211,3.387211 0 0 0 3.38738,-3.38688 3.387211,3.387211 0 0 0 -3.38738,-3.38738 z m -108.3903,13.54905 a 3.387211,3.387211 0 0 0 -3.38738,3.38688 3.387211,3.387211 0 0 0 3.38738,3.38738 3.387211,3.387211 0 0 0 3.38688,-3.38738 3.387211,3.387211 0 0 0 -3.38688,-3.38688 z m 13.54852,0 a 3.387211,3.387211 0 0 0 -3.38687,3.38688 3.387211,3.387211 0 0 0 3.38687,3.38738 3.387211,3.387211 0 0 0 3.38741,-3.38738 3.387211,3.387211 0 0 0 -3.38741,-3.38688 z m 13.54905,0 a 3.387211,3.387211 0 0 0 -3.38738,3.38688 3.387211,3.387211 0 0 0 3.38738,3.38738 3.387211,3.387211 0 0 0 3.38688,-3.38738 3.387211,3.387211 0 0 0 -3.38688,-3.38688 z m 13.54852,0 a 3.387211,3.387211 0 0 0 -3.38685,3.38688 3.387211,3.387211 0 0 0 3.38685,3.38738 3.387211,3.387211 0 0 0 3.38741,-3.38738 3.387211,3.387211 0 0 0 -3.38741,-3.38688 z m 13.54905,0 a 3.387211,3.387211 0 0 0 -3.38738,3.38688 3.387211,3.387211 0 0 0 3.38738,3.38738 3.387211,3.387211 0 0 0 3.38741,-3.38738 3.387211,3.387211 0 0 0 -3.38741,-3.38688 z m 13.54905,0 a 3.387211,3.387211 0 0 0 -3.38738,3.38688 3.387211,3.387211 0 0 0 3.38738,3.38738 3.387211,3.387211 0 0 0 3.38688,-3.38738 3.387211,3.387211 0 0 0 -3.38688,-3.38688 z m 13.54852,0 a 3.387211,3.387211 0 0 0 -3.38686,3.38688 3.387211,3.387211 0 0 0 3.38686,3.38738 3.387211,3.387211 0 0 0 3.3874,-3.38738 3.387211,3.387211 0 0 0 -3.3874,-3.38688 z m 13.54905,0 a 3.387211,3.387211 0 0 0 -3.38739,3.38688 3.387211,3.387211 0 0 0 3.38739,3.38738 3.387211,3.387211 0 0 0 3.38687,-3.38738 3.387211,3.387211 0 0 0 -3.38687,-3.38688 z m 13.54854,0 a 3.387211,3.387211 0 0 0 -3.38688,3.38688 3.387211,3.387211 0 0 0 3.38688,3.38738 3.387211,3.387211 0 0 0 3.38738,-3.38738 3.387211,3.387211 0 0 0 -3.38738,-3.38688 z m -108.3903,13.54852 a 3.387211,3.387211 0 0 0 -3.38738,3.38741 3.387211,3.387211 0 0 0 3.38738,3.38738 3.387211,3.387211 0 0 0 3.38688,-3.38738 3.387211,3.387211 0 0 0 -3.38688,-3.38741 z m 13.54852,0 a 3.387211,3.387211 0 0 0 -3.38687,3.38741 3.387211,3.387211 0 0 0 3.38687,3.38738 3.387211,3.387211 0 0 0 3.38741,-3.38738 3.387211,3.387211 0 0 0 -3.38741,-3.38741 z m 13.54905,0 a 3.387211,3.387211 0 0 0 -3.38738,3.38741 3.387211,3.387211 0 0 0 3.38738,3.38738 3.387211,3.387211 0 0 0 3.38688,-3.38738 3.387211,3.387211 0 0 0 -3.38688,-3.38741 z m 13.54852,0 a 3.387211,3.387211 0 0 0 -3.38685,3.38741 3.387211,3.387211 0 0 0 3.38685,3.38738 3.387211,3.387211 0 0 0 3.38741,-3.38738 3.387211,3.387211 0 0 0 -3.38741,-3.38741 z m 13.54905,0 a 3.387211,3.387211 0 0 0 -3.38738,3.38741 3.387211,3.387211 0 0 0 3.38738,3.38738 3.387211,3.387211 0 0 0 3.38741,-3.38738 3.387211,3.387211 0 0 0 -3.38741,-3.38741 z m 13.54905,0 a 3.387211,3.387211 0 0 0 -3.38738,3.38741 3.387211,3.387211 0 0 0 3.38738,3.38738 3.387211,3.387211 0 0 0 3.38688,-3.38738 3.387211,3.387211 0 0 0 -3.38688,-3.38741 z m 13.54852,0 a 3.387211,3.387211 0 0 0 -3.38686,3.38741 3.387211,3.387211 0 0 0 3.38686,3.38738 3.387211,3.387211 0 0 0 3.3874,-3.38738 3.387211,3.387211 0 0 0 -3.3874,-3.38741 z m 13.54905,0 a 3.387211,3.387211 0 0 0 -3.38739,3.38741 3.387211,3.387211 0 0 0 3.38739,3.38738 3.387211,3.387211 0 0 0 3.38687,-3.38738 3.387211,3.387211 0 0 0 -3.38687,-3.38741 z m 13.54854,0 a 3.387211,3.387211 0 0 0 -3.38688,3.38741 3.387211,3.387211 0 0 0 3.38688,3.38738 3.387211,3.387211 0 0 0 3.38738,-3.38738 3.387211,3.387211 0 0 0 -3.38738,-3.38741 z m -108.3903,13.54905 a 3.387211,3.387211 0 0 0 -3.38738,3.38738 3.387211,3.387211 0 0 0 3.38738,3.38688 3.387211,3.387211 0 0 0 3.38688,-3.38688 3.387211,3.387211 0 0 0 -3.38688,-3.38738 z m 13.54852,0 a 3.387211,3.387211 0 0 0 -3.38687,3.38738 3.387211,3.387211 0 0 0 3.38687,3.38688 3.387211,3.387211 0 0 0 3.38741,-3.38688 3.387211,3.387211 0 0 0 -3.38741,-3.38738 z m 13.54905,0 a 3.387211,3.387211 0 0 0 -3.38738,3.38738 3.387211,3.387211 0 0 0 3.38738,3.38688 3.387211,3.387211 0 0 0 3.38688,-3.38688 3.387211,3.387211 0 0 0 -3.38688,-3.38738 z m 13.54852,0 a 3.387211,3.387211 0 0 0 -3.38685,3.38738 3.387211,3.387211 0 0 0 3.38685,3.38688 3.387211,3.387211 0 0 0 3.38741,-3.38688 3.387211,3.387211 0 0 0 -3.38741,-3.38738 z m 13.54905,0 a 3.387211,3.387211 0 0 0 -3.38738,3.38738 3.387211,3.387211 0 0 0 3.38738,3.38688 3.387211,3.387211 0 0 0 3.38741,-3.38688 3.387211,3.387211 0 0 0 -3.38741,-3.38738 z m 13.54905,0 a 3.387211,3.387211 0 0 0 -3.38738,3.38738 3.387211,3.387211 0 0 0 3.38738,3.38688 3.387211,3.387211 0 0 0 3.38688,-3.38688 3.387211,3.387211 0 0 0 -3.38688,-3.38738 z m 13.54852,0 a 3.387211,3.387211 0 0 0 -3.38686,3.38738 3.387211,3.387211 0 0 0 3.38686,3.38688 3.387211,3.387211 0 0 0 3.3874,-3.38688 3.387211,3.387211 0 0 0 -3.3874,-3.38738 z m 13.54905,0 a 3.387211,3.387211 0 0 0 -3.38739,3.38738 3.387211,3.387211 0 0 0 3.38739,3.38688 3.387211,3.387211 0 0 0 3.38687,-3.38688 3.387211,3.387211 0 0 0 -3.38687,-3.38738 z m 13.54854,0 a 3.387211,3.387211 0 0 0 -3.38688,3.38738 3.387211,3.387211 0 0 0 3.38688,3.38688 3.387211,3.387211 0 0 0 3.38738,-3.38688 3.387211,3.387211 0 0 0 -3.38738,-3.38738 z m -108.3903,13.54852 a 3.387211,3.387211 0 0 0 -3.38738,3.38741 3.387211,3.387211 0 0 0 3.38738,3.38738 3.387211,3.387211 0 0 0 3.38688,-3.38738 3.387211,3.387211 0 0 0 -3.38688,-3.38741 z m 13.54852,0 a 3.387211,3.387211 0 0 0 -3.38687,3.38741 3.387211,3.387211 0 0 0 3.38687,3.38738 3.387211,3.387211 0 0 0 3.38741,-3.38738 3.387211,3.387211 0 0 0 -3.38741,-3.38741 z m 13.54905,0 a 3.387211,3.387211 0 0 0 -3.38738,3.38741 3.387211,3.387211 0 0 0 3.38738,3.38738 3.387211,3.387211 0 0 0 3.38688,-3.38738 3.387211,3.387211 0 0 0 -3.38688,-3.38741 z m 13.54852,0 a 3.387211,3.387211 0 0 0 -3.38685,3.38741 3.387211,3.387211 0 0 0 3.38685,3.38738 3.387211,3.387211 0 0 0 3.38741,-3.38738 3.387211,3.387211 0 0 0 -3.38741,-3.38741 z m 13.54905,0 a 3.387211,3.387211 0 0 0 -3.38738,3.38741 3.387211,3.387211 0 0 0 3.38738,3.38738 3.387211,3.387211 0 0 0 3.38741,-3.38738 3.387211,3.387211 0 0 0 -3.38741,-3.38741 z m 13.54905,0 a 3.387211,3.387211 0 0 0 -3.38738,3.38741 3.387211,3.387211 0 0 0 3.38738,3.38738 3.387211,3.387211 0 0 0 3.38688,-3.38738 3.387211,3.387211 0 0 0 -3.38688,-3.38741 z m 13.54852,0 a 3.387211,3.387211 0 0 0 -3.38686,3.38741 3.387211,3.387211 0 0 0 3.38686,3.38738 3.387211,3.387211 0 0 0 3.3874,-3.38738 3.387211,3.387211 0 0 0 -3.3874,-3.38741 z m 13.54905,0 a 3.387211,3.387211 0 0 0 -3.38739,3.38741 3.387211,3.387211 0 0 0 3.38739,3.38738 3.387211,3.387211 0 0 0 3.38687,-3.38738 3.387211,3.387211 0 0 0 -3.38687,-3.38741 z m 13.54854,0 a 3.387211,3.387211 0 0 0 -3.38688,3.38741 3.387211,3.387211 0 0 0 3.38688,3.38738 3.387211,3.387211 0 0 0 3.38738,-3.38738 3.387211,3.387211 0 0 0 -3.38738,-3.38741 z" />
    <path
       style="opacity:1;fill:url(#linearGradient1378);fill-opacity:1;stroke:#ffffff;stroke-width:5.29167;stroke-linecap:square;stroke-linejoin:round;stroke-miterlimit:4;stroke-dasharray:none;stroke-opacity:1"
       id="path1376"
       d="M 381.00015,415.37645 268.74034,350.56322 V 220.93677 l 112.2598,-64.81323 112.2598,64.81322 1e-5,129.62646 z" />
    <path
       style="opacity:0.1;fill:#000000;fill-opacity:1;stroke:none;stroke-width:3.43958;stroke-linecap:square;stroke-linejoin:round;filter:url(#filter2396)"
       id="path2390"
       d="M 248.19869,414.29941 90.338957,456.5978 -25.222388,341.03646 17.075999,183.17672 174.93573,140.87833 290.49708,256.43968 Z"
       transform="matrix(0.21596541,0.80599386,-0.80599386,0.21596541,593.13611,119.61973)" />
    <path
       style="opacity:1;fill:url(#linearGradient898);fill-opacity:1;stroke:#ffffff;stroke-width:5.29167;stroke-linecap:square;stroke-linejoin:round;stroke-miterlimit:4;stroke-dasharray:none;stroke-opacity:1"
       id="path855"
       d="M 315.27633,399.587 249.55251,285.75001 315.27632,171.91302 H 446.72396 L 512.44777,285.75 446.72396,399.587 Z" />
    <path
       d="m 344.44672,214.43753 c 0,0 -30.31201,-2.01697 -81.93029,14.13462 -52.60373,16.45966 -82.43787,39.78971 -82.43787,39.78971 0,0 78.404,-43.77611 166.90011,-46.26353 z m 113.06154,47.59626 3.94069,-0.25706 c 0,0 -22.5773,-27.39301 -65.79181,-40.73658 24.29206,9.87455 45.43536,22.95811 61.84993,40.99185 z m 6.44916,11.38155 c 0.60586,-1.05046 2.56167,3.33723 4.04694,5.18055 0.0628,0.36804 0.16742,0.59266 -0.69376,0.41548 -0.0724,-0.37839 -0.19739,-0.4881 -0.19739,-0.4881 0,0 -2.07865,-1.23679 -2.71596,-2.11414 -0.63777,-0.87728 -0.75096,-2.41186 -0.44003,-2.99379 z m 53.03416,130.39626 c 0,0 4.79287,-55.02587 -81.6602,-67.71225 -10.95734,-1.60772 -24.81444,-2.8451 -38.83092,-2.88054 -69.2914,0.91618 -71.8174,-79.91781 -19.60368,-83.99917 21.63901,-1.78548 47.47755,9.88763 72.73753,21.65088 -0.0938,3.13716 0.0359,5.92497 2.09698,8.50114 2.06039,2.57534 9.97545,5.38503 12.50473,6.83623 2.52905,1.45169 10.63119,6.60292 15.5962,13.06544 1.07672,-2.01408 10.06868,-7.8671 10.06868,-7.8671 0,0 -2.1541,0.0469 -7.16541,-1.82606 -5.01193,-1.87291 -10.95916,-7.5397 -11.09987,-7.86711 -0.14039,-0.32806 -0.2339,-0.84301 0.93732,-1.07733 0.88932,-0.74874 -1.12476,-3.18409 -2.01468,-4.07336 -0.88928,-0.8899 -6.83769,-11.0043 -6.97781,-11.23877 -0.14039,-0.23421 -0.18759,-0.4681 -0.6087,-0.74929 -1.3117,-0.4218 -7.07222,0.60869 -7.07222,0.60869 0,0 -8.85938,-4.35121 -11.91315,-13.73244 0.0445,1.64319 -1.51918,3.43726 0,7.21232 -4.61924,-1.95407 -8.58693,-5.28681 -11.71638,-13.52257 -1.86263,4.68423 0,7.6626 0,7.6626 0,0 -10.87752,-3.03953 -12.61781,-13.07108 -1.9101,4.50316 0,7.21171 0,7.21171 0,0 -17.73308,-9.25272 -47.19852,-9.38686 -19.72716,-1.8095 -23.83408,-36.51274 -22.00649,-42.3543 0,0 -28.45389,-14.99603 -84.46519,-21.62119 -56.01133,-6.6258 -101.94833,-0.9985 -101.94833,-0.9985 0,0 99.20267,-4.76081 178.67522,27.41381 2.70166,12.08355 10.82885,32.20873 15.20618,41.88233 -12.52523,8.65993 -26.64945,16.80311 -28.84894,45.6847 -2.19875,28.8804 22.63159,54.28379 53.42297,55.06739 29.2381,1.55744 49.43956,1.77864 73.92486,14.47301 23.37187,12.923 42.53537,52.30099 44.43208,87.71547 2.04834,-26.27633 -7.81251,-82.7822 -53.82666,-99.93878 64.31356,11.25477 69.97112,58.93208 69.97112,58.93208 z m -174.05957,-193.68877 -2.31416,-7.46431 c 0,0 -38.18386,-6.78072 -89.52313,-3.13152 -51.33925,3.6492 -103.17422,21.6206 -103.17422,21.6206 0,0 106.06235,-26.68776 195.00963,-11.02506"
       style="opacity:0.3;fill:#000000;fill-opacity:1;stroke-width:2.96828;paint-order:stroke fill markers;filter:url(#filter5103)"
       id="path2294" />
    <path
       d="m 344.44672,211.79168 c 0,0 -30.31201,-2.01697 -81.93029,14.13462 -52.60373,16.45966 -82.43787,39.78971 -82.43787,39.78971 0,0 78.404,-43.77611 166.90011,-46.26353 z m 113.06154,47.59626 3.94069,-0.25706 c 0,0 -22.5773,-27.39301 -65.79181,-40.73658 24.29206,9.87455 45.43536,22.95811 61.84993,40.99185 z m 6.44916,11.38155 c 0.60586,-1.05046 2.56167,3.33723 4.04694,5.18055 0.0628,0.36804 0.16742,0.59266 -0.69376,0.41548 -0.0724,-0.37839 -0.19739,-0.4881 -0.19739,-0.4881 0,0 -2.07865,-1.23679 -2.71596,-2.11414 -0.63777,-0.87728 -0.75096,-2.41186 -0.44003,-2.99379 z m 53.03416,130.39626 c 0,0 4.79287,-55.02587 -81.6602,-67.71225 -10.95734,-1.60772 -24.81444,-2.8451 -38.83092,-2.88054 -69.2914,0.91618 -71.8174,-79.91781 -19.60368,-83.99917 21.63901,-1.78548 47.47755,9.88763 72.73753,21.65088 -0.0938,3.13716 0.0359,5.92497 2.09698,8.50114 2.06039,2.57534 9.97545,5.38503 12.50473,6.83623 2.52905,1.45169 10.63119,6.60292 15.5962,13.06544 1.07672,-2.01408 10.06868,-7.8671 10.06868,-7.8671 0,0 -2.1541,0.0469 -7.16541,-1.82606 -5.01193,-1.87291 -10.95916,-7.5397 -11.09987,-7.86711 -0.14039,-0.32806 -0.2339,-0.84301 0.93732,-1.07733 0.88932,-0.74874 -1.12476,-3.18409 -2.01468,-4.07336 -0.88928,-0.8899 -6.83769,-11.0043 -6.97781,-11.23877 -0.14039,-0.23421 -0.18759,-0.4681 -0.6087,-0.74929 -1.3117,-0.4218 -7.07222,0.60869 -7.07222,0.60869 0,0 -8.85938,-4.35121 -11.91315,-13.73244 0.0445,1.64319 -1.51918,3.43726 0,7.21232 -4.61924,-1.95407 -8.58693,-5.28681 -11.71638,-13.52257 -1.86263,4.68423 0,7.6626 0,7.6626 0,0 -10.87752,-3.03953 -12.61781,-13.07108 -1.9101,4.50316 0,7.21171 0,7.21171 0,0 -17.73308,-9.25272 -47.19852,-9.38686 -19.72716,-1.8095 -23.83408,-36.51274 -22.00649,-42.3543 0,0 -28.45389,-14.99603 -84.46519,-21.62119 -56.01133,-6.6258 -101.94833,-0.9985 -101.94833,-0.9985 0,0 99.20267,-4.76081 178.67522,27.41381 2.70166,12.08355 10.82885,32.20873 15.20618,41.88233 -12.52523,8.65993 -26.64945,16.80311 -28.84894,45.6847 -2.19875,28.8804 22.63159,54.28379 53.42297,55.06739 29.2381,1.55744 49.43956,1.77864 73.92486,14.47301 23.37187,12.923 42.53537,52.30099 44.43208,87.71547 2.04834,-26.27633 -7.81251,-82.7822 -53.82666,-99.93878 64.31356,11.25477 69.97112,58.93208 69.97112,58.93208 z m -174.05957,-193.68877 -2.31416,-7.46431 c 0,0 -38.18386,-6.78072 -89.52313,-3.13152 -51.33925,3.6492 -103.17422,21.6206 -103.17422,21.6206 0,0 106.06235,-26.68776 195.00963,-11.02506"
       style="fill:#ffffff;fill-opacity:1;stroke-width:2.96828;paint-order:stroke fill markers"
       id="path6" />
    <path
       style="fill:none;stroke:#ffffff;stroke-width:6.03844;stroke-linecap:round;stroke-linejoin:miter;stroke-miterlimit:4;stroke-dasharray:none;stroke-opacity:1"
       d="m 77.86141,373.34675 47.71726,-27.54956"
       id="path5158"
       sodipodi:nodetypes="cc" />
    <path
       style="fill:none;stroke:#ffffff;stroke-width:6.03844;stroke-linecap:round;stroke-linejoin:miter;stroke-miterlimit:4;stroke-dasharray:none;stroke-opacity:1"
       d="m 77.86141,373.34675 47.71726,-27.54956"
       id="path5160"
       sodipodi:nodetypes="cc" />
    <path
       style="fill:none;stroke:#ffffff;stroke-width:6.03844;stroke-linecap:round;stroke-linejoin:miter;stroke-miterlimit:4;stroke-dasharray:none;stroke-opacity:1"
       d="M 67.41738,425.33657 152.65431,376.125"
       id="path5162"
       sodipodi:nodetypes="cc" />
    <path
       style="fill:none;stroke:#ffffff;stroke-width:6.03844;stroke-linecap:round;stroke-linejoin:miter;stroke-miterlimit:4;stroke-dasharray:none;stroke-opacity:1"
       d="M 145.85244,407.17727 200.3172,375.73203"
       id="path5164"
       sodipodi:nodetypes="cc" />
    <path
       style="fill:none;stroke:#ffffff;stroke-width:6.03844;stroke-linecap:round;stroke-linejoin:miter;stroke-miterlimit:4;stroke-dasharray:none;stroke-opacity:1"
       d="m 161.11592,348.82801 41.23426,-23.80662"
       id="path5166"
       sodipodi:nodetypes="cc" />
    <path
       style="fill:none;stroke:#ffffff;stroke-width:6.03844;stroke-linecap:round;stroke-linejoin:miter;stroke-miterlimit:4;stroke-dasharray:none;stroke-opacity:1"
       d="m 168.33954,420.28069 28.69419,-16.56662"
       id="path5170"
       sodipodi:nodetypes="cc" />
    <path
       style="fill:none;stroke:#ffffff;stroke-width:6.03844;stroke-linecap:round;stroke-linejoin:miter;stroke-miterlimit:4;stroke-dasharray:none;stroke-opacity:1"
       d="m 136.29882,487.51329 90.3203,-52.14646"
       id="path5172"
       sodipodi:nodetypes="cc" />
    <path
       style="fill:none;stroke:#ffffff;stroke-width:6.03844;stroke-linecap:round;stroke-linejoin:miter;stroke-miterlimit:4;stroke-dasharray:none;stroke-opacity:1"
       d="m 502.13445,149.94543 85.75832,-49.51258"
       id="path5174"
       sodipodi:nodetypes="cc" />
    <path
       style="fill:none;stroke:#ffffff;stroke-width:6.03844;stroke-linecap:round;stroke-linejoin:miter;stroke-miterlimit:4;stroke-dasharray:none;stroke-opacity:1"
       d="m 588.34906,147.81026 60.29819,-34.81318"
       id="path5176"
       sodipodi:nodetypes="cc" />
    <path
       style="fill:none;stroke:#ffffff;stroke-width:6.03844;stroke-linecap:round;stroke-linejoin:miter;stroke-miterlimit:4;stroke-dasharray:none;stroke-opacity:1"
       d="m 552.61835,146.88618 22.03131,-12.71976"
       id="path5178"
       sodipodi:nodetypes="cc" />
    <path
       style="fill:none;stroke:#ffffff;stroke-width:6.03844;stroke-linecap:round;stroke-linejoin:miter;stroke-miterlimit:4;stroke-dasharray:none;stroke-opacity:1"
       d="m 554.11371,236.37484 33.83732,-19.53598"
       id="path5182"
       sodipodi:nodetypes="cc" />
    <path
       style="fill:none;stroke:#ffffff;stroke-width:6.03844;stroke-linecap:round;stroke-linejoin:miter;stroke-miterlimit:4;stroke-dasharray:none;stroke-opacity:1"
       d="m 561.11154,196.85859 49.63288,-28.65556"
       id="path5184"
       sodipodi:nodetypes="cc" />
    <path
       style="fill:none;stroke:#ffffff;stroke-width:6.03844;stroke-linecap:round;stroke-linejoin:miter;stroke-miterlimit:4;stroke-dasharray:none;stroke-opacity:1"
       d="m 642.64983,160.23337 88.77165,-51.25233"
       id="path5186"
       sodipodi:nodetypes="cc" />
    <path
       style="fill:none;stroke:#ffffff;stroke-width:6.03844;stroke-linecap:round;stroke-linejoin:miter;stroke-miterlimit:4;stroke-dasharray:none;stroke-opacity:1"
       d="m 617.23987,253.3553 93.47124,-53.96567"
       id="path5188"
       sodipodi:nodetypes="cc" />
    <path
       style="fill:none;stroke:#ffffff;stroke-width:6.03844;stroke-linecap:round;stroke-linejoin:miter;stroke-miterlimit:4;stroke-dasharray:none;stroke-opacity:1"
       d="m 690.97471,228.93319 23.92913,-13.81547"
       id="path5190"
       sodipodi:nodetypes="cc" />
    <path
       style="fill:none;stroke:#ffffff;stroke-width:6.03844;stroke-linecap:round;stroke-linejoin:miter;stroke-miterlimit:4;stroke-dasharray:none;stroke-opacity:1"
       d="m 669.56644,188.90841 76.59888,-44.22437"
       id="path5192"
       sodipodi:nodetypes="cc" />
    <path
       style="fill:none;stroke:#ffffff;stroke-width:6.03844;stroke-linecap:round;stroke-linejoin:miter;stroke-miterlimit:4;stroke-dasharray:none;stroke-opacity:1"
       d="m 596.77567,319.32097 60.01827,-34.65155"
       id="path5194"
       sodipodi:nodetypes="cc" />
    <path
       style="fill:none;stroke:#ffffff;stroke-width:6.03844;stroke-linecap:round;stroke-linejoin:miter;stroke-miterlimit:4;stroke-dasharray:none;stroke-opacity:1"
       d="m 259.86804,453.9468 40.08757,-23.14456"
       id="path5196"
       sodipodi:nodetypes="cc" />
    <path
       style="fill:none;stroke:#ffffff;stroke-width:6.03844;stroke-linecap:round;stroke-linejoin:miter;stroke-miterlimit:4;stroke-dasharray:none;stroke-opacity:1"
       d="m 231.9692,478.62415 11.59414,-6.6939"
       id="path5198"
       sodipodi:nodetypes="cc" />
    <path
       style="fill:none;stroke:#ffffff;stroke-width:6.03844;stroke-linecap:round;stroke-linejoin:miter;stroke-miterlimit:4;stroke-dasharray:none;stroke-opacity:1"
       d="m 123.50745,460.87966 23.92913,-13.81547"
       id="path5190-6"
       sodipodi:nodetypes="cc" />
    <path
       style="fill:none;stroke:#ffffff;stroke-width:6.03844;stroke-linecap:round;stroke-linejoin:miter;stroke-miterlimit:4;stroke-dasharray:none;stroke-opacity:1"
       d="m 37.32197,480.59068 90.3203,-52.14646"
       id="path5172-7"
       sodipodi:nodetypes="cc" />
    <path
       style="fill:none;stroke:#ffffff;stroke-width:6.03844;stroke-linecap:round;stroke-linejoin:miter;stroke-miterlimit:4;stroke-dasharray:none;stroke-opacity:1"
       d="m 692.12698,99.537746 22.0313,-12.71977"
       id="path5178-5"
       sodipodi:nodetypes="cc" />
    <path
       d="m 689.5773,446.35222 a 172.61,172.61 0 0 0 -9.5387,0.54118 l -154.82,204.36 a 172.61,172.61 0 0 0 2.0865,9.2951 z m 9.1096,0.0258 -168.93,222.98 a 172.61,172.61 0 0 0 2.7825,8.3733 l 174.93,-230.91 a 172.61,172.61 0 0 0 -8.7918,-0.43955 z m 17.283,1.2816 -180.3,237.99 a 172.61,172.61 0 0 0 3.3898,7.5748 l 185.1,-244.33 a 172.61,172.61 0 0 0 -8.191,-1.238 z m -45.981,0.45407 a 172.61,172.61 0 0 0 -10.556,1.884 l -137,180.84 a 172.61,172.61 0 0 0 1.2493,10.401 z m 62.133,2.322 -189.4,250.01 a 172.61,172.61 0 0 0 3.9342,6.857 l 193.12,-254.92 a 172.61,172.61 0 0 0 -7.649,-1.9526 z m -83.689,2.0324 a 172.61,172.61 0 0 0 -12.195,4.052 l -113.61,149.97 a 172.61,172.61 0 0 0 -0.61458,12.29 172.61,172.61 0 0 0 0.0193,0.54118 z m 98.87,2.0276 -196.56,259.46 a 172.61,172.61 0 0 0 4.4318,6.1965 l 199.28,-263.05 a 172.61,172.61 0 0 0 -7.149,-2.6099 z m 14.29997,5.2198 -201.97997,266.61 a 172.61,172.61 0 0 0 4.9012,5.5803 l 203.76997,-268.98 a 172.61,172.61 0 0 0 -6.699,-3.2083 z m -138.61997,2.2582 a 172.61,172.61 0 0 0 -15.021,7.7764 l -80.264,105.95 a 172.61,172.61 0 0 0 -3.4196,16.564 z m 152.00997,4.1786 -205.54997,271.33 a 172.61,172.61 0 0 0 5.2238,5.1496 l 206.71997,-272.87 a 172.61,172.61 0 0 0 -6.3908,-3.6084 z m 12.624,7.4296 -207.59997,274.04 a 172.61,172.61 0 0 0 5.5118,4.7754 l 208.19997,-274.83 a 172.61,172.61 0 0 0 -6.1094,-3.9866 z m -198.02997,8.3773 a 172.61,172.61 0 0 0 -55.075,72.7 z m 209.92997,0.0122 -208.19997,274.82 a 172.61,172.61 0 0 0 5.7924,4.4044 l 208.19997,-274.83 a 172.61,172.61 0 0 0 -5.7924,-4.4036 z m 11.183,9.3379 -207.35997,273.72 a 172.61,172.61 0 0 0 6.2328,3.8221 l 206.47997,-272.55 a 172.61,172.61 0 0 0 -5.3512,-4.9859 z m 10.453,10.298 -205.06997,270.69 a 172.61,172.61 0 0 0 6.6828,3.2285 l 203.28997,-268.34 a 172.61,172.61 0 0 0 -4.9011,-5.5795 z m 9.6951,11.301 -201.24997,265.65 a 172.61,172.61 0 0 0 7.1482,2.6091 l 198.53997,-262.07 a 172.61,172.61 0 0 0 -4.431,-6.1965 z m 8.8635,12.395 -195.79997,258.45 a 172.61,172.61 0 0 0 7.6498,1.9534 l 192.09997,-253.57 a 172.61,172.61 0 0 0 -3.9521,-6.8344 z m 7.8854,13.691 -188.37997,248.67 a 172.61,172.61 0 0 0 8.1087,1.342 l 183.77997,-242.59 a 172.61,172.61 0 0 0 -3.5075,-7.4167 z m 6.8974,14.992 -178.97997,236.26 a 172.61,172.61 0 0 0 8.6572,0.62262 l 173.28997,-228.74 a 172.61,172.61 0 0 0 -2.9631,-8.1386 z m 5.7457,16.512 -167.27997,220.81 a 172.61,172.61 0 0 0 1.6622,0.083 172.61,172.61 0 0 0 7.6063,-0.26937 l 160.26997,-211.56 a 172.61,172.61 0 0 0 -2.2622,-9.0628 z m 4.3486,18.36 -152.63997,201.48 a 172.61,172.61 0 0 0 10.049,-1.2195 l 143.89997,-189.95 a 172.61,172.61 0 0 0 -1.3122,-10.312 z m 2.3276,21.022 -134.09997,177.01 a 172.61,172.61 0 0 0 11.328,-2.9035 l 122.93997,-162.28 a 172.61,172.61 0 0 0 0.1451,-2.9244 172.61,172.61 0 0 0 -0.3152,-8.9023 z m -0.4766,24.726 -110.1,145.33 a 172.61,172.61 0 0 0 13.7,-6.0352 l 94.299,-124.48 a 172.61,172.61 0 0 0 2.097,-14.817 z m -6.1642,32.236 -74.572,98.435 a 172.61,172.61 0 0 0 20.588,-15.129 l 45.058,-59.477 a 172.61,172.61 0 0 0 8.9266,-23.83 z"
       style="fill:url(#m);paint-order:normal"
       id="path2077" />
  </g>
</svg>
