<?xml version="1.0" encoding="UTF-8" standalone="no"?>
<svg
   width="3840"
   height="2160"
   version="1.1"
   viewBox="0 0 1016 571.5"
   id="svg34"
   xmlns:xlink="http://www.w3.org/1999/xlink"
   xmlns="http://www.w3.org/2000/svg"
   xmlns:svg="http://www.w3.org/2000/svg"
   xmlns:rdf="http://www.w3.org/1999/02/22-rdf-syntax-ns#"
   xmlns:cc="http://creativecommons.org/ns#"
   xmlns:dc="http://purl.org/dc/elements/1.1/">
  <metadata
     id="metadata38">
    <rdf:RDF>
      <cc:Work
         rdf:about="">
        <dc:format>image/svg+xml</dc:format>
        <dc:type
           rdf:resource="http://purl.org/dc/dcmitype/StillImage" />
      </cc:Work>
    </rdf:RDF>
  </metadata>
  <defs
     id="defs20">
    <linearGradient
       id="c">
      <stop
         stop-color="#23bac2"
         offset="0"
         id="stop2" />
      <stop
         stop-color="#23bac2"
         stop-opacity=".0058084"
         offset="1"
         id="stop4" />
    </linearGradient>
    <radialGradient
       id="a"
       cx="508"
       cy="285.75"
       r="508"
       gradientTransform="matrix(1.3512454,0,0,1.3613545,-178.43747,-103.24904)"
       gradientUnits="userSpaceOnUse"
       fx="508"
       fy="285.75">
      <stop
         stop-color="#2656a8"
         offset="0"
         id="stop7"
         style="stop-color:#39c1c8;stop-opacity:1" />
      <stop
         stop-color="#2f92bd"
         offset="0.16471326"
         id="stop9"
         style="stop-color:#23bac2;stop-opacity:1" />
      <stop
         stop-color="#2f92bd"
         offset="0.66365188"
         id="stop2931"
         style="stop-color:#316fd8;stop-opacity:1" />
      <stop
         stop-color="#622e78"
         offset="1"
         id="stop11"
         style="stop-color:#622e78;stop-opacity:1" />
    </radialGradient>
    <filter
       id="b"
       x="-.041846"
       y="-.056277"
       width="1.0837"
       height="1.1126"
       color-interpolation-filters="sRGB">
      <feGaussianBlur
         stdDeviation="2.6078096"
         id="feGaussianBlur14" />
    </filter>
    <radialGradient
       id="f"
       cx="508"
       cy="285.75"
       r="508"
       gradientTransform="matrix(.69839 0 0 .39285 153.22 173.49)"
       gradientUnits="userSpaceOnUse"
       xlink:href="#c" />
    <radialGradient
       id="e"
       cx="508"
       cy="285.75"
       r="508"
       gradientTransform="matrix(.63003 0 0 .39285 187.94 173.49)"
       gradientUnits="userSpaceOnUse"
       xlink:href="#c" />
    <radialGradient
       id="d"
       cx="508"
       cy="285.75"
       r="508"
       gradientTransform="matrix(.63003 0 0 .39285 -34.306 -620.26)"
       gradientUnits="userSpaceOnUse"
       xlink:href="#c" />
    <filter
       style="color-interpolation-filters:sRGB"
       id="filter1447"
       x="-0.0037661347"
       width="1.0075323"
       y="-0.0050648623"
       height="1.0101297">
      <feGaussianBlur
         stdDeviation="2.036763"
         id="feGaussianBlur1449" />
    </filter>
    <clipPath
       clipPathUnits="userSpaceOnUse"
       id="clipPath2092">
      <circle
         style="opacity:0.152883;fill:#000000;fill-opacity:1;stroke-width:10.4792;stroke-linejoin:round"
         id="circle2094"
         cx="508"
         cy="285.75"
         r="169.35667" />
    </clipPath>
    <filter
       style="color-interpolation-filters:sRGB"
       id="filter2876"
       x="-0.023538251"
       width="1.0470765"
       y="-0.031655557"
       height="1.0633111">
      <feGaussianBlur
         stdDeviation="3.3681022"
         id="feGaussianBlur2878" />
    </filter>
    <filter
       style="color-interpolation-filters:sRGB"
       id="filter880"
       x="-0.3"
       width="1.6"
       y="-0.3"
       height="1.6">
      <feGaussianBlur
         stdDeviation="39.228981"
         id="feGaussianBlur882" />
    </filter>
    <filter
       style="color-interpolation-filters:sRGB"
       id="filter1060"
       x="-0.0026153611"
       width="1.0052307"
       y="-0.0035172839"
       height="1.0070346">
      <feGaussianBlur
         stdDeviation="0.37423357"
         id="feGaussianBlur1062" />
    </filter>
  </defs>
  <rect
     y="-1.5158246e-14"
     width="1016"
     height="571.5"
     fill="url(#a)"
     style="fill:url(#a);paint-order:fill markers stroke"
     id="rect22"
     x="0" />
  <g
     id="g12963"
     transform="matrix(1,0,0,-1,0,571.50002)" />
  <g
     id="g9543" />
  <circle
     style="opacity:0.15;fill:#1e488e;fill-opacity:1;stroke-width:28.2068;stroke-linejoin:round;filter:url(#filter880)"
     id="path848"
     cx="508"
     cy="285.75"
     r="156.91592"
     transform="matrix(0.36912485,0,0,0.36552105,317.68501,181.30236)" />
  <g
     id="g2884"
     transform="matrix(0.53698348,0,0,0.53714871,234.12503,132.94736)"
     style="stroke-width:1.86197">
    <path
       d="m 470.65001,215.7 c 0,0 -28.2,-1.8765 -76.225,13.151 -48.941,15.314 -76.698,37.02 -76.698,37.02 0,0 72.944,-40.728 155.28,-43.042 z m 105.19,44.282 3.6664,-0.23914 c 0,0 -21.005,-25.486 -61.211,-37.899 22.601,9.1868 42.273,21.36 57.544,38.138 z m 6.0001,10.589 c 0.56369,-0.97735 2.3833,3.1048 3.7653,4.8197 0.0585,0.34241 0.15568,0.5514 -0.64548,0.38654 -0.0675,-0.35201 -0.18368,-0.45409 -0.18368,-0.45409 0,0 -1.9339,-1.1507 -2.5268,-1.9669 -0.5934,-0.81626 -0.6987,-2.244 -0.40944,-2.7854 z m 49.34,121.32 c 0,0 4.4592,-51.196 -75.973,-62.997 -10.195,-1.4958 -23.087,-2.6469 -36.126,-2.68 -64.467,0.85235 -66.816,-74.354 -18.239,-78.149 20.132,-1.6612 44.172,9.199 67.675,20.144 -0.0872,2.9188 0.0335,5.5126 1.951,7.9091 1.917,2.396 9.281,5.01 11.634,6.3601 2.353,1.3506 9.8908,6.1432 14.51,12.156 1.0018,-1.8738 9.3675,-7.3194 9.3675,-7.3194 0,0 -2.0041,0.0436 -6.6664,-1.6989 -4.6629,-1.7425 -10.196,-7.0148 -10.327,-7.3194 -0.13064,-0.30522 -0.21767,-0.78432 0.87207,-1.0023 0.82737,-0.69661 -1.0464,-2.9624 -1.8744,-3.7897 -0.82736,-0.82789 -6.3617,-10.238 -6.4919,-10.456 -0.13064,-0.21789 -0.17449,-0.43549 -0.56632,-0.69711 -1.2203,-0.39247 -6.5799,0.56631 -6.5799,0.56631 0,0 -8.2424,-4.0482 -11.084,-12.776 0.0416,1.5288 -1.4134,3.198 0,6.7101 -4.2976,-1.818 -7.989,-4.9187 -10.901,-12.581 -1.7329,4.3582 0,7.1291 0,7.1291 0,0 -10.12,-2.8278 -11.739,-12.161 -1.7771,4.1896 0,6.7096 0,6.7096 0,0 -16.498,-8.6084 -43.912,-8.7334 -18.353,-1.6835 -22.175,-33.968 -20.474,-39.405 0,0 -26.474,-13.952 -78.586,-20.116 -52.112,-6.1645 -94.849,-0.92895 -94.849,-0.92895 0,0 92.295,-4.4294 166.24,25.505 2.5135,11.242 10.075,29.966 14.148,38.967 -11.653,8.0569 -24.793,15.633 -26.841,42.503 -2.0456,26.869 21.056,50.505 49.703,51.235 27.202,1.449 45.997,1.6548 68.779,13.465 21.745,12.023 39.573,48.658 41.339,81.607 1.9057,-24.446 -7.2685,-77.017 -50.08,-92.982 59.836,10.471 65.098,54.828 65.098,54.828 z m -161.94,-180.2 -2.153,-6.9445 c 0,0 -35.525,-6.3085 -83.29,-2.9135 -47.765,3.3952 -95.99,20.115 -95.99,20.115 0,0 98.679,-24.83 181.43,-10.257"
       stroke-width="4.27527"
       id="path1477"
       style="opacity:0.5;mix-blend-mode:normal;filter:url(#filter2876)" />
    <path
       d="m 470.65,215.7 c 0,0 -28.2,-1.8765 -76.225,13.151 -48.941,15.314 -76.698,37.02 -76.698,37.02 0,0 72.944,-40.728 155.28,-43.042 z m 105.19,44.282 3.6664,-0.23914 c 0,0 -21.005,-25.486 -61.211,-37.899 22.601,9.1868 42.273,21.36 57.544,38.138 z m 6.0001,10.589 c 0.56369,-0.97735 2.3833,3.1048 3.7653,4.8197 0.0585,0.34241 0.15568,0.5514 -0.64548,0.38654 -0.0675,-0.35201 -0.18368,-0.45409 -0.18368,-0.45409 0,0 -1.9339,-1.1507 -2.5268,-1.9669 -0.5934,-0.81626 -0.6987,-2.244 -0.40944,-2.7854 z m 49.34,121.32 c 0,0 4.4592,-51.196 -75.973,-62.997 -10.195,-1.4958 -23.087,-2.6469 -36.126,-2.68 -64.467,0.85235 -66.816,-74.354 -18.239,-78.149 20.132,-1.6612 44.172,9.199 67.675,20.144 -0.0872,2.9188 0.0335,5.5126 1.951,7.9091 1.917,2.396 9.281,5.01 11.634,6.3601 2.353,1.3506 9.8908,6.1432 14.51,12.156 1.0018,-1.8738 9.3675,-7.3194 9.3675,-7.3194 0,0 -2.0041,0.0436 -6.6664,-1.6989 -4.6629,-1.7425 -10.196,-7.0148 -10.327,-7.3194 -0.13064,-0.30522 -0.21767,-0.78432 0.87207,-1.0023 0.82737,-0.69661 -1.0464,-2.9624 -1.8744,-3.7897 -0.82736,-0.82789 -6.3617,-10.238 -6.4919,-10.456 -0.13064,-0.21789 -0.17449,-0.43549 -0.56632,-0.69711 -1.2203,-0.39247 -6.5799,0.56631 -6.5799,0.56631 0,0 -8.2424,-4.0482 -11.084,-12.776 0.0416,1.5288 -1.4134,3.198 0,6.7101 -4.2976,-1.818 -7.989,-4.9187 -10.901,-12.581 -1.7329,4.3582 0,7.1291 0,7.1291 0,0 -10.12,-2.8278 -11.739,-12.161 -1.7771,4.1896 0,6.7096 0,6.7096 0,0 -16.498,-8.6084 -43.912,-8.7334 -18.353,-1.6835 -22.175,-33.968 -20.474,-39.405 0,0 -26.474,-13.952 -78.586,-20.116 -52.112,-6.1645 -94.849,-0.92895 -94.849,-0.92895 0,0 92.295,-4.4294 166.24,25.505 2.5135,11.242 10.075,29.966 14.148,38.967 -11.653,8.0569 -24.793,15.633 -26.841,42.503 -2.0456,26.869 21.056,50.505 49.703,51.235 27.202,1.449 45.997,1.6548 68.779,13.465 21.745,12.023 39.573,48.658 41.339,81.607 1.9057,-24.446 -7.2685,-77.017 -50.08,-92.982 59.836,10.471 65.098,54.828 65.098,54.828 z m -161.94,-180.2 -2.153,-6.9445 c 0,0 -35.525,-6.3085 -83.29,-2.9135 -47.765,3.3952 -95.99,20.115 -95.99,20.115 0,0 98.679,-24.83 181.43,-10.257"
       stroke-width="4.27527"
       id="path1451"
       style="opacity:1;filter:url(#filter1060)" />
    <path
       d="m 470.65,215.7 c 0,0 -28.2,-1.8765 -76.225,13.151 -48.941,15.314 -76.698,37.02 -76.698,37.02 0,0 72.944,-40.728 155.28,-43.042 z m 105.19,44.282 3.6664,-0.23914 c 0,0 -21.005,-25.486 -61.211,-37.899 22.601,9.1868 42.273,21.36 57.544,38.138 z m 6.0001,10.589 c 0.56369,-0.97735 2.3833,3.1048 3.7653,4.8197 0.0585,0.34241 0.15568,0.5514 -0.64548,0.38654 -0.0675,-0.35201 -0.18368,-0.45409 -0.18368,-0.45409 0,0 -1.9339,-1.1507 -2.5268,-1.9669 -0.5934,-0.81626 -0.6987,-2.244 -0.40944,-2.7854 z m 49.34,121.32 c 0,0 4.4592,-51.196 -75.973,-62.997 -10.195,-1.4958 -23.087,-2.6469 -36.126,-2.68 -64.467,0.85235 -66.816,-74.354 -18.239,-78.149 20.132,-1.6612 44.172,9.199 67.675,20.144 -0.0872,2.9188 0.0335,5.5126 1.951,7.9091 1.917,2.396 9.281,5.01 11.634,6.3601 2.353,1.3506 9.8908,6.1432 14.51,12.156 1.0018,-1.8738 9.3675,-7.3194 9.3675,-7.3194 0,0 -2.0041,0.0436 -6.6664,-1.6989 -4.6629,-1.7425 -10.196,-7.0148 -10.327,-7.3194 -0.13064,-0.30522 -0.21767,-0.78432 0.87207,-1.0023 0.82737,-0.69661 -1.0464,-2.9624 -1.8744,-3.7897 -0.82736,-0.82789 -6.3617,-10.238 -6.4919,-10.456 -0.13064,-0.21789 -0.17449,-0.43549 -0.56632,-0.69711 -1.2203,-0.39247 -6.5799,0.56631 -6.5799,0.56631 0,0 -8.2424,-4.0482 -11.084,-12.776 0.0416,1.5288 -1.4134,3.198 0,6.7101 -4.2976,-1.818 -7.989,-4.9187 -10.901,-12.581 -1.7329,4.3582 0,7.1291 0,7.1291 0,0 -10.12,-2.8278 -11.739,-12.161 -1.7771,4.1896 0,6.7096 0,6.7096 0,0 -16.498,-8.6084 -43.912,-8.7334 -18.353,-1.6835 -22.175,-33.968 -20.474,-39.405 0,0 -26.474,-13.952 -78.586,-20.116 -52.112,-6.1645 -94.849,-0.92895 -94.849,-0.92895 0,0 92.295,-4.4294 166.24,25.505 2.5135,11.242 10.075,29.966 14.148,38.967 -11.653,8.0569 -24.793,15.633 -26.841,42.503 -2.0456,26.869 21.056,50.505 49.703,51.235 27.202,1.449 45.997,1.6548 68.779,13.465 21.745,12.023 39.573,48.658 41.339,81.607 1.9057,-24.446 -7.2685,-77.017 -50.08,-92.982 59.836,10.471 65.098,54.828 65.098,54.828 z m -161.94,-180.2 -2.153,-6.9445 c 0,0 -35.525,-6.3085 -83.29,-2.9135 -47.765,3.3952 -95.99,20.115 -95.99,20.115 0,0 98.679,-24.83 181.43,-10.257"
       stroke-width="4.27527"
       id="path32"
       style="fill:#000000;fill-opacity:1" />
    <path
       id="path1414"
       d="m 1302.9473,660.25 c -95.4076,0.10903 -158.5039,7.83789 -158.5039,7.83789 0,0 22.3914,-1.06529 60.2773,-0.83398 64.1739,-3.86112 174.9915,-6.46646 300.207,8.3457 179.5741,21.24068 278.3164,66.82107 294.3985,74.72461 0.1787,-1.02438 0.3818,-1.93664 0.6191,-2.69531 0,0 -100.0588,-52.73229 -297.0176,-76.0293 -73.8595,-8.73709 -142.7359,-11.41503 -199.9804,-11.34961 z m 258.5351,98.79492 c -34.1422,-0.0695 -71.4194,0.98217 -110.9101,3.78906 -180.5292,12.83226 -362.7969,76.02539 -362.7969,76.0254 0,0 18.3546,-4.61141 50.2324,-11.17969 66.0768,-19.54362 190.7215,-52.04278 314.5645,-60.84571 177.5778,-12.62172 309.701,10.12994 313.9961,10.88086 l -1.1993,-3.86914 c 0,0 -81.9503,-14.5525 -203.8867,-14.80078 z m 212.0899,8.96875 c 10.2259,42.78283 37.6758,110.65114 52.6523,143.74805 -44.0428,30.45127 -93.7048,59.08667 -101.4453,160.64258 -2.4276,31.8872 4.5204,62.5664 18.541,89.7422 -12.6754,-26.1709 -18.8503,-55.4096 -16.541,-85.7422 7.7405,-101.55591 57.4025,-130.19131 101.4453,-160.64258 -15.394,-34.01953 -43.9728,-104.78594 -53.4726,-147.27539 -0.3926,-0.1589 -0.787,-0.31428 -1.1797,-0.47266 z m -5.7696,46.95117 c -31.5702,-0.13338 -129.5841,3.83694 -277.0625,49.98438 -184.9738,57.87968 -289.8828,139.91798 -289.8828,139.91798 0,0 10.6748,-5.94128 29.9707,-15.48048 42.5998,-27.8073 132.6839,-80.00103 261.9121,-120.4375 175.2053,-54.82347 280.2922,-50.13519 287.4043,-49.74219 l -1.3105,-3.96289 c 0,0 -3.7458,-0.24852 -11.0313,-0.2793 z m 191.1094,23.5 c 12.6097,5.12557 24.9707,10.50542 37.0801,16.14258 112.4375,43.18813 177.8378,110.52614 192.8476,127.18946 l 1.42,-0.0918 c 0,0 -79.388,-96.32496 -231.3477,-143.24024 z m -138.5976,12.90821 c 12.3515,25.62661 31.2933,46.64475 59.0136,49.1875 103.612,0.47244 165.9668,33.00781 165.9668,33.00781 0,0 -6.2331,-8.84687 -0.6758,-23.66016 -0.5325,-1.82529 -0.9812,-3.71989 -1.3242,-5.69726 -6.7166,15.83471 0,25.35742 0,25.35742 0,0 -62.3548,-32.53537 -165.9668,-33.00781 -26.264,-2.40918 -44.6485,-21.4026 -57.0136,-45.1875 z m 228.5957,68.82031 c 11.3834,25.76895 40.7519,33.98047 40.7519,33.98047 0,0 -6.4028,-10.2568 -0.1953,-26.42774 -0.6093,-1.46071 -1.2123,-2.9589 -1.8047,-4.51757 -6.5495,16.47193 0,26.94336 0,26.94336 0,0 -26.2781,-7.36197 -38.7519,-29.97852 z m 45.1972,17.48437 c 10.2312,21.47186 22.6263,31.12438 36.7559,37.10157 -4.9613,-12.32803 -0.5777,-18.6483 -0.053,-24.11524 -0.7013,-1.6992 -1.3596,-3.44141 -1.9472,-5.24609 0.1572,5.77814 -5.342,12.08725 0,25.36133 -13.2213,-5.59296 -24.9236,-14.40114 -34.7559,-33.10157 z m 39.9785,19.9043 c 12.6858,27.3489 38.67,40.12305 38.67,40.12305 0,0 20.2569,-3.62398 24.8691,-2.14063 1.4809,0.9888 1.6469,1.81125 2.1406,2.63477 0.4921,0.82394 21.4082,36.39048 24.5352,39.51958 1.4764,1.4751 3.8254,4.1596 5.5742,6.8613 -1.1119,-3.6378 -5.3408,-8.6298 -7.5742,-10.8613 -3.127,-3.1291 -24.0431,-38.69564 -24.5352,-39.51958 -0.4937,-0.82352 -0.6597,-1.64597 -2.1406,-2.63477 -4.6122,-1.48335 -24.8691,2.14063 -24.8691,2.14063 0,0 -23.4471,-11.52758 -36.67,-36.12305 z m 14.584,59.16597 c -0.1007,8.3306 0.5979,15.9681 4.8477,23.1133 -2.8434,-6.8673 -3.029,-14.1914 -2.791,-22.1582 -0.6848,-0.3189 -1.3717,-0.6362 -2.0567,-0.9551 z m 52.3887,16.9454 c 0.3515,1.2646 0.8561,2.4851 1.5684,3.4648 2.2408,3.0849 9.5507,7.4336 9.5507,7.4336 0,0 0.4402,0.3864 0.6953,1.7168 3.0281,0.6231 2.6606,-0.1668 2.4395,-1.4609 -0.6262,-0.7771 -1.2786,-1.6899 -1.9414,-2.6758 -0.1864,0.3799 -0.7983,0.4865 -2.4981,0.1367 -0.2551,-1.3304 -0.6953,-1.7168 -0.6953,-1.7168 0,0 -6.5015,-3.8701 -9.1191,-6.8984 z m 26.9336,20.1621 c -0.3404,0.6871 -0.1442,1.4096 0.098,1.9746 0.4952,1.1512 21.4077,21.0782 39.0313,27.664 8.3768,3.1308 14.416,4.7087 18.5176,5.5313 2.6984,-1.8156 4.6777,-3.1113 4.6777,-3.1113 0,0 -7.574,0.1659 -25.1953,-6.42 -14.7702,-5.5195 -31.6938,-20.284 -37.1289,-25.6386 z m -445.0195,87.7968 c 25.8757,53.5669 85.3225,96.547 180.9082,95.2832 49.2812,0.1251 98.0067,4.4755 136.539,10.129 165.9813,24.3527 236.3076,93.0913 265.9571,150.4882 -28.4273,-58.1645 -98.0971,-129.5664 -267.9571,-154.4882 -38.5323,-5.6535 -87.2578,-10.0039 -136.539,-10.129 -93.1951,1.2322 -152.0405,-39.593 -178.9082,-91.2832 z m 358.5761,136.295 c 69.7991,26.029 115.9236,77.8087 145.252,135.6894 -26.9336,-54.8416 -68.6741,-104.6515 -130.9766,-132.9609 -4.6674,-0.9649 -9.4196,-1.8788 -14.2754,-2.7285 z m 225.8614,148.1777 c 15.2097,31.1546 18.0942,54.391 18.1582,54.918 0.011,-0.1303 0.1593,-2.1252 0.1504,-5.6953 -2.3835,-10.4128 -7.5549,-28.2114 -18.3086,-49.2227 z m 18.1582,54.918 c -4e-4,0 -0.01,0.1191 -0.01,0.1191 l 0.025,0.01 c 0,0 -0.019,-0.1229 -0.019,-0.1289 z m -105.5098,-37.4434 c 27.3708,55.4071 45.4719,120.2863 48.7676,181.7754 0.3247,-4.1655 0.5623,-8.5538 0.709,-13.1289 -5.5761,-57.7741 -23.5596,-117.4557 -49.4766,-168.6465 z"
       transform="matrix(0.26458333,0,0,0.26458333,-0.01020621,-0.30705233)"
       style="opacity:0.15;fill:#ffffff;fill-opacity:1;stroke-width:1.86197;filter:url(#filter1447)" />
  </g>
</svg>
