<svg width="3840" height="2160" version="1.1" viewBox="0 0 1016 571.5" xmlns="http://www.w3.org/2000/svg" xmlns:xlink="http://www.w3.org/1999/xlink"><defs><radialGradient id="c" cx="-510.25" cy="277.04" r="508" gradientTransform="matrix(.78889 1.3664 -1.3729 .79263 272.62 758.39)" gradientUnits="userSpaceOnUse"><stop stop-color="#16171c" style="stop-color:#081329" offset="0"/><stop offset="1"/></radialGradient><filter id="f" x="-.09345" y="-.083918" width="1.1869" height="1.1678" color-interpolation-filters="sRGB"><feGaussianBlur stdDeviation="2.1777382"/></filter><filter id="e" x="-.06" y="-.06" width="1.12" height="1.12" color-interpolation-filters="sRGB"><feGaussianBlur stdDeviation="1.5070609"/></filter><radialGradient id="d" cx="593.1" cy="261.72" r="23.186" gradientTransform="matrix(.44782 0 0 .44782 327.5 144.51)" gradientUnits="userSpaceOnUse"><stop stop-color="#fff" stop-opacity=".4" offset="0"/><stop stop-color="#fff" stop-opacity="0" offset="1"/></radialGradient><linearGradient id="a" x1="662.87" x2="662.87" y1="6.4967" y2="6.4857" gradientTransform="matrix(.83977 0 0 .83977 81.4 276.3)" gradientUnits="userSpaceOnUse"><stop stop-color="#153873" style="stop-color:#0f2751" offset="0"/><stop stop-color="#367bf0" style="stop-color:#2c4c81" offset="1"/></linearGradient><filter id="o" x="-.09345" y="-.083918" width="1.1869" height="1.1678" color-interpolation-filters="sRGB"><feGaussianBlur stdDeviation="2.1777382"/></filter><radialGradient id="q" cx="593.1" cy="261.72" r="23.186" gradientTransform="matrix(1.2757 0 0 1.2757 25.799 -107)" gradientUnits="userSpaceOnUse"><stop stop-color="#fff" stop-opacity=".4" style="stop-color:#678bc8;stop-opacity:1" offset="0"/><stop stop-color="#fff" stop-opacity="0" style="stop-color:#678bc8;stop-opacity:0" offset="1"/></radialGradient><filter id="p" x="-.06" y="-.06" width="1.12" height="1.12" color-interpolation-filters="sRGB"><feGaussianBlur stdDeviation="1.5070609"/></filter><linearGradient id="g" x1="1535.6" x2="3198" y1="2.7073" y2="1836.3" gradientUnits="userSpaceOnUse"><stop style="stop-color:#fff" offset="0"/><stop style="stop-color:#fff;stop-opacity:0" offset="1"/></linearGradient><filter id="n" x="-.010461" y="-.014069" width="1.0209" height="1.0281" style="color-interpolation-filters:sRGB"><feGaussianBlur stdDeviation="3.3014626"/></filter><filter id="m" x="-.27149" y="-.19841" width="1.543" height="1.3968" style="color-interpolation-filters:sRGB"><feGaussianBlur stdDeviation="0.98694082"/></filter><filter id="l" x="-.73734" y="-.53887" width="2.4747" height="2.0777" style="color-interpolation-filters:sRGB"><feGaussianBlur stdDeviation="2.6804628"/></filter><filter id="k" x="-.0025904" y="-.0035636" width="1.0052" height="1.0071" style="color-interpolation-filters:sRGB"><feGaussianBlur stdDeviation="3.0896504"/></filter><linearGradient id="b" x1="1361.7" x2="2949.8" y1="449.96" y2="1109" gradientUnits="userSpaceOnUse"><stop style="stop-color:#fff" offset="0"/><stop style="stop-color:#fff;stop-opacity:0" offset="1"/></linearGradient><filter id="h" x="-.0061885" y="-.19694" width="1.0124" height="1.3939" style="color-interpolation-filters:sRGB"><feGaussianBlur stdDeviation="1.1915204"/></filter><filter id="t" x="-.00095741" y="-.0012386" width="1.0019" height="1.0025" style="color-interpolation-filters:sRGB"><feGaussianBlur stdDeviation="1.0926409"/></filter><filter id="s" x="-.00094153" y="-.0012662" width="1.0019" height="1.0025" style="color-interpolation-filters:sRGB"><feGaussianBlur stdDeviation="0.2971326"/></filter><filter id="r" x="-.0025904" y="-.0035635" width="1.0052" height="1.0071" style="color-interpolation-filters:sRGB"><feGaussianBlur stdDeviation="0.81745942"/></filter><filter id="j" x="-.028227" y="-.16025" width="1.0565" height="1.3205" style="color-interpolation-filters:sRGB"><feGaussianBlur stdDeviation="5.4449307"/></filter></defs><path transform="scale(.26458)" d="m971.33 42.996c-210.42 0.2404-349.58 17.289-349.58 17.289s54.977-2.6341 147.26-1.7363c143.8-7.8618 379.03-11.793 643.38 19.479 414.99 49.087 634.4 157.16 653.21 166.74 0.4815-3.5898 1.0942-6.6562 1.8457-9.0586 0 0-220.67-116.3-655.05-167.68-162.89-19.269-314.8-25.175-441.05-25.031zm570.21 217.89c-75.3-0.15325-157.51 2.1686-244.61 8.3594-398.15 28.301-800.15 167.67-800.15 167.67s39.941-10.047 109.54-24.406c146.5-43.195 419.38-113.99 690.61-133.27 398.15-28.301 694.28 24.285 694.28 24.285l14.672 47.324c1.0862 0.18953 2.1761 0.36939 3.2617 0.56055l0.014 4e-3 -17.947-57.889s-180.74-32.097-449.67-32.645zm522.91 10.502c-1.6174 81.438 39.306 290.46 173.66 302.79 228.51 1.0403 366.04 72.799 366.04 72.799s-3.0767-4.382-5.0234-12.447c-25.907-12.299-157.07-69.423-361.02-70.352-129.15-11.846-171.97-205.47-173.66-292.79zm-67.879 112.88c-69.631-0.29436-285.81 8.4605-611.06 110.23-407.96 127.65-639.33 308.58-639.33 308.58s19.631-10.923 55.264-28.758c91.153-60.153 292.46-178.58 584.06-269.82 400.32-125.26 635.4-109.62 635.4-109.62l16.363 49.516c1.0904-0.0323 2.1786-0.0729 3.2695-0.10351l-19.633-59.412s-8.2654-0.54926-24.334-0.61719zm421.48 51.822c41.835 17.006 82.463 35.241 121.76 54.85 218.73 94.075 347.54 225.58 380.18 261.62l8.295-0.54101s-175.09-212.44-510.23-315.92zm186.09 144.96c-5.9812 14.101-7.1304 25.929-6.3769 35.025 0.561-7.2451 2.3897-15.626 6.3769-25.025 13.496 77.798 97.856 101.37 97.856 101.37s-2.5156-4.0845-4.3984-11.436c-17.348-6.0314-81.797-32.722-93.457-99.936zm-482.21 18.996c-96.277 66.308-203.46 130.58-220.32 351.95-0.8351 10.97-1.1611 21.874-1.0098 32.695 0.1023-7.5303 0.4313-15.097 1.0098-22.695 17.058-223.99 126.6-287.14 223.73-354.3-1.084-2.3957-2.275-5.098-3.416-7.6543zm580.06 22.949c-5.7644 14.496-6.9232 26.877-6.2402 36.533 0.5232-7.7331 2.3051-16.637 6.2402-26.533 24.268 63.871 55.039 89.717 90.863 104.87-1.6776-4.1688-2.8568-8.0168-3.6699-11.604-34.258-15.374-63.759-41.589-87.193-103.27zm90.863 48.938c0.2576 9.5452-6.4785 19.748-4.9258 36.57 1.027-11.181 5.1279-19.08 4.9258-26.57 23.681 72.754 92.389 106.5 92.389 106.5s44.675-7.9918 54.848-4.7207c3.2707 2.1807 3.6387 3.9961 4.7207 5.8125 1.0868 1.8184 47.218 80.259 54.115 87.16 4.4235 4.4204 12.417 13.763 15.779 21.434 6.4668-5.9738-8.9357-24.595-15.779-31.434-6.8971-6.9012-53.028-85.342-54.115-87.16-1.082-1.8164-1.45-3.6318-4.7207-5.8125-10.173-3.2712-54.848 4.7207-54.848 4.7207s-68.707-33.744-92.389-106.5zm43.639 160.53c0 1.515 0.016 3.0195 0.049 4.5137 0.029-1.4697 0.068-2.9477 0.1133-4.4375-0.054-0.0252-0.1081-0.051-0.1622-0.0762zm110.43 22.158c-1.2533 5.4564-0.012 15.034 4.2325 20.871 4.9398 6.8042 21.06 16.396 21.06 16.396s0.969 0.85069 1.5195 3.7852c6.6691 1.3741 5.8625-0.36836 5.3789-3.2226-1.5434-1.9158-3.1542-4.2001-4.7949-6.6758-0.2081-0.0393-0.3591-0.0552-0.584-0.10156-0.09-0.47898-0.1927-0.8845-0.2988-1.2578-0.6215-0.95791-1.2441-1.929-1.8711-2.9297-1.7929-1.0809-15.78-9.6162-20.41-15.994-2.1756-2.9922-3.5646-6.9691-4.2325-10.871zm63.09 55.072c-4.202 2.0305-3.5859 4.9304-2.7344 6.9336 1.0911 2.5391 47.212 46.485 86.082 61.01 19.845 7.4169 33.881 10.942 42.896 12.625 7.4901-5.0712 12.674-8.4629 12.674-8.4629s-16.706 0.36318-55.57-14.162c-33.716-12.599-72.84-47.296-83.348-57.943zm-1017.7 46.729c-2.4767 175.3 136.41 363.56 432.27 359.65 108.7 0.2748 216.17 9.8715 301.15 22.34 589.22 86.464 631.91 426.47 633.6 507.62 1.2101-56.488-14.719-426.81-633.6-517.62-84.977-12.468-192.44-22.065-301.15-22.34-290.24 3.8374-429.42-177.27-432.27-349.65z" style="fill:url(#g);opacity:.7;paint-order:stroke fill markers;stroke-width:23.02"/><rect transform="scale(-1,1)" x="-1016" y="1e-5" width="1016" height="571.5" fill="url(#c)" style="paint-order:fill markers stroke"/><path d="m534.7 112.42s-62.198-4.1386-168.11 29.003c-107.94 33.774-169.16 81.645-169.16 81.645s160.88-89.825 342.47-94.929zm231.99 97.664 8.086-0.52747s-46.327-56.208-135-83.588c49.845 20.262 93.23 47.108 126.91 84.112zm13.233 23.354c1.2431-2.1555 5.2564 6.8477 8.3036 10.63 0.12794 0.7552 0.34109 1.2161-1.4234 0.85252-0.14567-0.77641-0.40189-1.0015-0.40189-1.0015s-4.2656-2.5378-5.5726-4.338c-1.3088-1.8001-1.541-4.949-0.90327-6.143zm108.82 267.56s9.8349-112.91-167.56-138.94c-22.484-3.2989-50.917-5.8379-79.678-5.9106-142.18 1.8799-147.36-163.99-40.225-172.36 44.401-3.6637 97.42 20.289 149.25 44.426-0.19496 6.4372 0.0737 12.158 4.3025 17.444 4.2283 5.2844 20.469 11.05 25.659 14.027 5.1893 2.9788 21.814 13.549 32.002 26.809 2.2092-4.1327 20.66-16.143 20.66-16.143s-4.42 0.0962-14.703-3.747c-10.284-3.8431-22.487-15.471-22.776-16.143-0.28616-0.67316-0.481-1.7298 1.923-2.2106 1.8248-1.5363-2.3078-6.5335-4.1338-8.3582-1.8249-1.826-14.03-22.58-14.318-23.061-0.28627-0.48058-0.38381-0.96053-1.2492-1.5375-2.6915-0.86549-14.511 1.249-14.511 1.249s-18.179-8.9283-24.445-28.178c0.091 3.3717-3.1172 7.053 0 14.799-9.4785-4.0096-17.62-10.848-24.041-27.747-3.822 9.6117 0 15.723 0 15.723s-22.32-6.2369-25.891-26.821c-3.9195 9.2401 0 14.798 0 14.798s-36.387-18.986-96.848-19.261c-40.479-3.713-48.906-74.921-45.156-86.908 0 0-58.385-30.771-173.32-44.365-114.93-13.596-209.19-2.0488-209.19-2.0488s203.56-9.7688 366.63 56.251c5.5439 24.794 22.22 66.09 31.202 85.939-25.701 17.77-54.683 34.479-59.196 93.741-4.5114 59.26 46.438 111.39 109.62 112.99 59.994 3.1957 101.45 3.6496 151.69 29.697 47.957 26.517 87.279 107.32 91.171 179.99 4.2033-53.917-16.03-169.86-110.45-205.07 131.97 23.094 143.58 120.92 143.58 120.92zm-357.16-397.43-4.7484-15.316s-78.35-13.914-183.69-6.4256c-105.34 7.4879-211.71 44.364-211.71 44.364s217.63-54.761 400.14-22.623" style="filter:url(#n);opacity:.5;paint-order:stroke fill markers;stroke-width:6.0907"/><path d="m534.7 101.83s-62.198-4.1386-168.11 29.003c-107.94 33.774-169.16 81.645-169.16 81.645s160.88-89.825 342.47-94.929zm231.99 97.664 8.086-0.52747s-46.327-56.208-135-83.588c49.845 20.262 93.23 47.108 126.91 84.112zm13.233 23.354c1.2431-2.1555 5.2564 6.8477 8.3036 10.63 0.12794 0.7552 0.34109 1.2161-1.4234 0.85252-0.14567-0.77641-0.40189-1.0015-0.40189-1.0015s-4.2656-2.5378-5.5726-4.338c-1.3088-1.8001-1.541-4.949-0.90327-6.143zm108.82 267.56s9.8349-112.91-167.56-138.94c-22.484-3.2989-50.917-5.8379-79.678-5.9106-142.18 1.8799-147.36-163.99-40.225-172.36 44.401-3.6637 97.42 20.289 149.25 44.426-0.19496 6.4372 0.0737 12.158 4.3025 17.444 4.2283 5.2844 20.469 11.05 25.659 14.027 5.1893 2.9788 21.814 13.549 32.002 26.809 2.2092-4.1327 20.66-16.143 20.66-16.143s-4.42 0.0962-14.703-3.747c-10.284-3.8431-22.487-15.471-22.776-16.143-0.28616-0.67316-0.481-1.7298 1.923-2.2106 1.8248-1.5363-2.3078-6.5335-4.1338-8.3582-1.8249-1.826-14.03-22.58-14.318-23.061-0.28627-0.48058-0.38381-0.96053-1.2492-1.5375-2.6915-0.86549-14.511 1.249-14.511 1.249s-18.179-8.9283-24.445-28.178c0.091 3.3717-3.1172 7.053 0 14.799-9.4785-4.0096-17.62-10.848-24.041-27.747-3.822 9.6117 0 15.723 0 15.723s-22.32-6.2369-25.891-26.821c-3.9195 9.2401 0 14.798 0 14.798s-36.387-18.986-96.848-19.261c-40.479-3.713-48.906-74.921-45.156-86.908 0 0-58.385-30.771-173.32-44.365-114.93-13.596-209.19-2.0488-209.19-2.0488s203.56-9.7688 366.63 56.251c5.5439 24.794 22.22 66.09 31.202 85.939-25.701 17.77-54.683 34.479-59.196 93.741-4.5114 59.26 46.438 111.39 109.62 112.99 59.994 3.1957 101.45 3.6496 151.69 29.697 47.957 26.517 87.279 107.32 91.171 179.99 4.2033-53.917-16.03-169.86-110.45-205.07 131.97 23.094 143.58 120.92 143.58 120.92zm-357.16-397.43-4.7484-15.316s-78.35-13.914-183.69-6.4256c-105.34 7.4879-211.71 44.364-211.71 44.364s217.63-54.761 400.14-22.623" style="filter:url(#s);paint-order:stroke fill markers;stroke-width:6.0907"/><path transform="scale(.26458)" d="m971.33 42.996c-210.42 0.2404-349.58 17.289-349.58 17.289s54.977-2.6341 147.26-1.7363c143.8-7.8618 379.03-11.793 643.38 19.479 414.99 49.087 634.4 157.16 653.21 166.74 0.4815-3.5898 1.0942-6.6562 1.8457-9.0586 0 0-220.67-116.3-655.05-167.68-162.89-19.269-314.8-25.175-441.05-25.031zm570.21 217.89c-75.3-0.15325-157.51 2.1686-244.61 8.3594-398.15 28.301-800.15 167.67-800.15 167.67s39.941-10.047 109.54-24.406c146.5-43.195 419.38-113.99 690.61-133.27 398.15-28.301 694.28 24.285 694.28 24.285l14.672 47.324c1.0862 0.18953 2.1761 0.36939 3.2617 0.56055l0.014 4e-3 -17.947-57.889s-180.74-32.097-449.67-32.645zm522.91 10.502c-1.6174 81.438 39.306 290.46 173.66 302.79 228.51 1.0403 366.04 72.799 366.04 72.799s-3.0767-4.382-5.0234-12.447c-25.907-12.299-157.07-69.423-361.02-70.352-129.15-11.846-171.97-205.47-173.66-292.79zm-67.879 112.88c-69.631-0.29436-285.81 8.4605-611.06 110.23-407.96 127.65-639.33 308.58-639.33 308.58s19.631-10.923 55.264-28.758c91.153-60.153 292.46-178.58 584.06-269.82 400.32-125.26 635.4-109.62 635.4-109.62l16.363 49.516c1.0904-0.0323 2.1786-0.0729 3.2695-0.10351l-19.633-59.412s-8.2654-0.54926-24.334-0.61719zm421.48 51.822c41.835 17.006 82.463 35.241 121.76 54.85 218.73 94.075 347.54 225.58 380.18 261.62l8.295-0.54101s-175.09-212.44-510.23-315.92zm186.09 144.96c-5.9812 14.101-7.1304 25.929-6.3769 35.025 0.561-7.2451 2.3897-15.626 6.3769-25.025 13.496 77.798 97.856 101.37 97.856 101.37s-2.5156-4.0845-4.3984-11.436c-17.348-6.0314-81.797-32.722-93.457-99.936zm-482.21 18.996c-96.277 66.308-203.46 130.58-220.32 351.95-0.8351 10.97-1.1611 21.874-1.0098 32.695 0.1023-7.5303 0.4313-15.097 1.0098-22.695 17.058-223.99 126.6-287.14 223.73-354.3-1.084-2.3957-2.275-5.098-3.416-7.6543zm580.06 22.949c-5.7644 14.496-6.9232 26.877-6.2402 36.533 0.5232-7.7331 2.3051-16.637 6.2402-26.533 24.268 63.871 55.039 89.717 90.863 104.87-1.6776-4.1688-2.8568-8.0168-3.6699-11.604-34.258-15.374-63.759-41.589-87.193-103.27zm90.863 48.938c0.2576 9.5452-6.4785 19.748-4.9258 36.57 1.027-11.181 5.1279-19.08 4.9258-26.57 23.681 72.754 92.389 106.5 92.389 106.5s44.675-7.9918 54.848-4.7207c3.2707 2.1807 3.6387 3.9961 4.7207 5.8125 1.0868 1.8184 47.218 80.259 54.115 87.16 4.4235 4.4204 12.417 13.763 15.779 21.434 6.4668-5.9738-8.9357-24.595-15.779-31.434-6.8971-6.9012-53.028-85.342-54.115-87.16-1.082-1.8164-1.45-3.6318-4.7207-5.8125-10.173-3.2712-54.848 4.7207-54.848 4.7207s-68.707-33.744-92.389-106.5zm43.639 160.53c0 1.515 0.016 3.0195 0.049 4.5137 0.029-1.4697 0.068-2.9477 0.1133-4.4375-0.054-0.0252-0.1081-0.051-0.1622-0.0762zm173.52 77.23c-4.202 2.0305-3.5859 4.9304-2.7344 6.9336 1.0911 2.5391 47.212 46.485 86.082 61.01 19.845 7.4169 33.881 10.942 42.896 12.625 7.4901-5.0712 12.674-8.4629 12.674-8.4629s-16.706 0.36318-55.57-14.162c-33.716-12.599-72.84-47.296-83.348-57.943zm-1017.7 46.729c-2.4767 175.3 136.41 363.56 432.27 359.65 108.7 0.2748 216.17 9.8715 301.15 22.34 589.22 86.464 631.91 426.47 633.6 507.62 1.2101-56.488-14.719-426.81-633.6-517.62-84.977-12.468-192.44-22.065-301.15-22.34-290.24 3.8374-429.42-177.27-432.27-349.65zm824.05 450.09c326.03 121.56 418.01 497.82 419.35 717.32 1.3625-207.82-80.228-568.58-375.03-708.57-14.362-3.1648-29.126-6.091-44.32-8.75z" style="fill:#fff;filter:url(#k);opacity:.05;paint-order:stroke fill markers;stroke-width:23.02"/><path d="m779.92 222.85c1.2431-2.1555 5.2564 6.8477 8.3036 10.63 0.12794 0.7552 0.34109 1.2161-1.4234 0.85252-0.14567-0.77641-0.40189-1.0015-0.40189-1.0015s-4.2656-2.5378-5.5726-4.338c-1.3088-1.8001-1.541-4.949-0.90327-6.143z" style="fill:#fff;filter:url(#m);paint-order:stroke fill markers;stroke-width:6.0907"/><path transform="scale(.26458)" d="m736.65 54.363c-22.586-0.03323-41.983 0.14794-58.338 0.40234-36.341 3.058-56.57 5.5195-56.57 5.5195s769.35-36.922 1385.7 212.6c20.686 92.514 82.325 245.66 116.56 321.75 0.4531-0.31277 0.9146-0.62457 1.3672-0.9375-33.948-75.022-96.974-231.1-117.93-324.81-471.88-191.04-1033.5-214.17-1270.8-214.52zm1329.9 180.88c-1.4678 6.7783-2.2219 16.724-2.123 28.992 0.096-12.662 1.1544-22.559 3.0234-28.533 0 0-0.6912-0.35058-0.9004-0.45898zm-535.58 73.959c-447.73-0.0813-860.88 84.273-991.32 113.68-27.458 8.7109-42.848 14.035-42.848 14.035s822.54-206.97 1512.4-85.504l0.014 4e-3 -1.3105-4.2266c-155.89-27.351-318.53-37.958-476.89-37.986zm887.1 126.88c188.39 76.58 352.37 178.05 479.66 317.9l0.01 0.0137 30.561-1.9941s-1.1713-1.4021-3.252-3.7871l-27.309 1.7812-0.01-0.0137c-117.42-129.01-266.07-225.33-436.29-299.61-14.15-4.9573-28.604-9.7354-43.377-14.297zm-378.83 4.248c-613.08 17.598-1163 290.26-1272.8 347.91-13.285 9.4288-20.227 14.834-20.227 14.834s608.05-339.5 1294.4-358.79zm558.37 168.68c-0.3313 10.255 1.8684 17.917 3.8105 22.611 1.625 0.79314 2.7324 1.3496 2.7324 1.3496s-6.0562-8.6148-6.5429-23.961zm-293.2 40.215c-10.734 0.0753-21.349 0.53299-31.838 1.3984-184.58 14.428-280.94 152.54-280.27 297.9 1.1003-143.89 97.377-279.61 280.27-293.9 167.79-13.845 368.13 76.65 564 167.86 0.028-1.3112 0.059-2.626 0.1-3.9531-183.66-85.526-371.26-170.44-532.26-169.31zm391.21 3.2305c-0.3312 11.669 2.1773 20.321 4.1504 25.254 1.3123 0.42468 2.2344 0.70313 2.2344 0.70313s-5.9429-9.5315-6.3848-25.957zm92.133 48.998c-0.2307 6.1228 0.5483 13.202 3.3692 21.645 0.582 0.25317 1.1614 0.51242 1.7461 0.75977-3.5029-8.7044-4.883-16.043-5.1153-22.404zm48.764 128.76c-0.1901 21.23 2.1356 40.394 16.414 58.242 15.981 19.972 77.363 41.763 96.976 53.018 19.613 11.258 82.449 51.208 120.96 101.33 8.3499-15.62 78.086-61.012 78.086-61.012s-1.7679 0.0301-5.4278-0.40625c-16.091 10.699-65.666 44.339-72.658 57.418-38.506-50.119-101.34-90.068-120.96-101.33-19.613-11.254-80.996-33.045-96.976-53.018-13.376-16.72-16.258-34.597-16.414-54.242zm113.13 6.8106c-0.7459-0.037-1.3846 0.34919-1.8985 1.2402h0.01c-1.0508 1.9674-1.4766 5.3388-1.2129 9.0801 0.1535-2.0691 0.5574-3.8527 1.2129-5.0801h-0.01c4.6441-8.0526 19.511 25.068 30.977 39.641 1.0733-0.50307 0.6902-1.7885 0.4062-3.4648-10.257-12.732-23.411-41.115-29.484-41.416zm66.379 54.951c-0.261 0.88806-0.7263 1.665-1.4629 2.2852-8.5652 1.7131-8.3904 5.3449-7.4375 7.8887 0.8222-1.5378 2.9099-2.9831 7.4375-3.8887 1.6958-1.4277 2.0252-3.6486 1.4629-6.2852zm-1115.4 85.303c-1.3725 213.32 185.59 395.93 415.35 401.77 226.75 12.078 383.42 13.794 573.31 112.24 181.26 100.22 329.87 405.61 344.58 680.26 1.2935-16.592 1.9603-34.76 1.9277-54.17-0.061 17.908-0.7234 34.721-1.9277 50.17-14.71-274.65-163.33-580.04-344.58-680.26-189.89-98.449-346.56-100.16-573.31-112.24-228.33-5.8107-414.38-186.18-415.35-397.77z" style="fill:#fff;filter:url(#t);opacity:.05;paint-order:stroke fill markers;stroke-width:23.02"/><circle cx="782.44" cy="226.91" r="29.579" fill="url(#d)" opacity=".5" style="fill:url(#q);stroke-width:2.8488"/><path transform="matrix(.52292 .56927 -1.0419 .39627 745.37 -214.54)" d="m609.95 289.88-15.602-22.343-31.767 45.566 29.676-46.921-29.113-3.3253 27.151-2.3403-11.549-24.684 17.565 23.328 54.39-80.72-52.299 82.076 27.151 2.3403-27.151 2.3403z" fill="#fff" filter="url(#e)" opacity=".2" style="fill:#678bc8;filter:url(#p)"/><path transform="matrix(.11216 .46099 -.79894 .13377 925.7 -81.19)" d="m609.95 289.88-15.602-22.343-15.602 22.343 11.549-24.684-27.151-2.3403 27.151-2.3403-11.549-24.684 15.602 22.343 15.602-22.343-11.549 24.684 27.151 2.3403-27.151 2.3403z" fill="#fff" filter="url(#f)" opacity=".3" style="fill:#678bc8;filter:url(#o)"/><path d="m779.92 222.85c1.2431-2.1555 5.2564 6.8477 8.3036 10.63 0.12794 0.7552 0.34109 1.2161-1.4234 0.85252-0.14567-0.77641-0.40189-1.0015-0.40189-1.0015s-4.2656-2.5378-5.5726-4.338c-1.3088-1.8001-1.541-4.949-0.90327-6.143z" style="fill:#fff;filter:url(#l);paint-order:stroke fill markers;stroke-width:6.0907"/><path id="i" transform="scale(.26458)" d="m971.33 42.996c-210.42 0.2404-349.58 17.289-349.58 17.289s54.977-2.6341 147.26-1.7363c143.8-7.8618 379.03-11.793 643.38 19.479 414.99 49.087 634.4 157.16 653.21 166.74 0.4815-3.5898 1.0942-6.6562 1.8457-9.0586 0 0-220.67-116.3-655.05-167.68-162.89-19.269-314.8-25.175-441.05-25.031zm570.21 217.89c-75.3-0.15325-157.51 2.1686-244.61 8.3594-398.15 28.301-800.15 167.67-800.15 167.67s39.941-10.047 109.54-24.406c146.5-43.195 419.38-113.99 690.61-133.27 398.15-28.301 694.28 24.285 694.28 24.285l14.672 47.324c1.0862 0.18953 2.1761 0.36939 3.2617 0.56055l0.014 4e-3 -17.947-57.889s-180.74-32.097-449.67-32.645zm522.91 10.502c-1.6174 81.438 39.306 290.46 173.66 302.79 228.51 1.0403 366.04 72.799 366.04 72.799s-3.0767-4.382-5.0234-12.447c-25.907-12.299-157.07-69.423-361.02-70.352-129.15-11.846-171.97-205.47-173.66-292.79zm-67.879 112.88c-69.631-0.29436-285.81 8.4605-611.06 110.23-407.96 127.65-639.33 308.58-639.33 308.58s19.631-10.923 55.264-28.758c91.153-60.153 292.46-178.58 584.06-269.82 400.32-125.26 635.4-109.62 635.4-109.62l16.363 49.516c1.0904-0.0323 2.1786-0.0729 3.2695-0.10351l-19.633-59.412s-8.2654-0.54926-24.334-0.61719zm421.48 51.822c41.835 17.006 82.463 35.241 121.76 54.85 218.73 94.075 347.54 225.58 380.18 261.62l8.295-0.54101s-175.09-212.44-510.23-315.92zm186.09 144.96c-5.9812 14.101-7.1304 25.929-6.3769 35.025 0.561-7.2451 2.3897-15.626 6.3769-25.025 13.496 77.798 97.856 101.37 97.856 101.37s-2.5156-4.0845-4.3984-11.436c-17.348-6.0314-81.797-32.722-93.457-99.936zm-482.21 18.996c-96.277 66.308-203.46 130.58-220.32 351.95-0.8351 10.97-1.1611 21.874-1.0098 32.695 0.1023-7.5303 0.4313-15.097 1.0098-22.695 17.058-223.99 126.6-287.14 223.73-354.3-1.084-2.3957-2.275-5.098-3.416-7.6543zm580.06 22.949c-5.7644 14.496-6.9232 26.877-6.2402 36.533 0.5232-7.7331 2.3051-16.637 6.2402-26.533 24.268 63.871 55.039 89.717 90.863 104.87-1.6776-4.1688-2.8568-8.0168-3.6699-11.604-34.258-15.374-63.759-41.589-87.193-103.27zm90.863 48.938c0.2576 9.5452-6.4785 19.748-4.9258 36.57 1.027-11.181 5.1279-19.08 4.9258-26.57 23.681 72.754 92.389 106.5 92.389 106.5s44.675-7.9918 54.848-4.7207c3.2707 2.1807 3.6387 3.9961 4.7207 5.8125 1.0868 1.8184 47.218 80.259 54.115 87.16 4.4235 4.4204 12.417 13.763 15.779 21.434 6.4668-5.9738-8.9357-24.595-15.779-31.434-6.8971-6.9012-53.028-85.342-54.115-87.16-1.082-1.8164-1.45-3.6318-4.7207-5.8125-10.173-3.2712-54.848 4.7207-54.848 4.7207s-68.707-33.744-92.389-106.5zm43.639 160.53c0 1.515 0.016 3.0195 0.049 4.5137 0.029-1.4697 0.068-2.9477 0.1133-4.4375-0.054-0.0252-0.1081-0.051-0.1622-0.0762zm173.52 77.23c-4.202 2.0305-3.5859 4.9304-2.7344 6.9336 1.0911 2.5391 47.212 46.485 86.082 61.01 19.845 7.4169 33.881 10.942 42.896 12.625 7.4901-5.0712 12.674-8.4629 12.674-8.4629s-16.706 0.36318-55.57-14.162c-33.716-12.599-72.84-47.296-83.348-57.943zm-1017.7 46.729c-2.4767 175.3 136.41 363.56 432.27 359.65 108.7 0.2748 216.17 9.8715 301.15 22.34 589.22 86.464 631.91 426.47 633.6 507.62 1.2101-56.488-14.719-426.81-633.6-517.62-84.977-12.468-192.44-22.065-301.15-22.34-290.24 3.8374-429.42-177.27-432.27-349.65zm824.05 450.09c326.03 121.56 418.01 497.82 419.35 717.32 1.3625-207.82-80.228-568.58-375.03-708.57-14.362-3.1648-29.126-6.091-44.32-8.75z" style="fill:url(#b);opacity:.01;paint-order:stroke fill markers;stroke-width:23.02"/><use transform="translate(0,1.5875)" width="100%" height="100%" style="filter:url(#r)" xlink:href="#i"/><path d="m276.5 255.38v67.182h26.784v-13.794l4.4502 13.794h52.15l0.28941-3.6858s0.34492-4.4183 0.61101-7.8144c0.52501-0.0471 1.0447-0.10369 1.5928-0.11223 0.54846 9e-3 1.0674 0.0652 1.5927 0.11223 0.26633 3.3961 0.61258 7.8144 0.61258 7.8144l0.2893 3.6858h28.238v-6.4266l-12.97-60.755h-35.524l-0.62593 3.2415-11.116 57.578-12.801-30.084 14.721-30.725v-12.853l-4.6968-0.0101-20.989 12.853-5.8231 13.762v-13.762zm117.62 0v67.182h39.206v-16.028h-13.748v-51.152zm43.309 0v67.182h26.182v-67.182zm52.99 0v67.182h39.206v-16.028h-13.748v-51.152zm43.308 0v67.182h26.183v-67.182zm33.484 0v67.182h22.29v-19.276l8.3177 19.276h21.728v-67.182h-21.835v21.55l-9.5591-21.55zm58.677 0v54.996l0.52396 0.91961c5.2 9.1352 16.221 12.98 26.813 12.768 10.593 0.21193 21.615-3.6328 26.814-12.768l0.52404-0.91961v-54.996h-26.251v52.559c-0.51516 0.57976-0.92471 0.81287-1.0865 0.81479-0.16163-3e-3 -0.57032-0.23459-1.085-0.81331v-52.561h-21.353zm55.713 0.64265 1.5116 4.4867 7.8662 26.713-9.2048 28.912v6.4266h25.277l3.3714-13.351 1.9651 7.7824 1.4062 5.5687h25.277v-6.4266l-9.2048-28.912 9.5806-31.586v-12.853l-21.731 12.597h-3.6755l-3.618 10.679-3.618-10.679h-3.6755l-21.527-12.211zm-319.22 31.04c0.72576 4.034 1.2078 6.714 1.5425 8.5747-0.3851 0.0823-1.2962 0.38974-1.5425 0.40297-0.24629-0.013-1.1574-0.32065-1.5427-0.40297 0.33482-1.8605 0.81685-4.5405 1.5427-8.5747z" color="#000000" color-rendering="auto" dominant-baseline="auto" fill="#0b0b0b" image-rendering="auto" shape-rendering="auto" solid-color="#000000" stroke-opacity=".38164" stroke-width="1.3997" style="fill:#000;filter:url(#j);font-feature-settings:normal;font-variant-alternates:normal;font-variant-caps:normal;font-variant-ligatures:normal;font-variant-numeric:normal;font-variant-position:normal;isolation:auto;mix-blend-mode:normal;opacity:.85;paint-order:stroke fill markers;shape-padding:0;text-decoration-color:#000000;text-decoration-line:none;text-decoration-style:solid;text-indent:0;text-orientation:mixed;text-transform:none;white-space:normal"/><path transform="matrix(1.4462,0,0,1.4462,-227.46,-127.88)" d="m348.46 259.78v46.454h18.52v-9.5381l3.0772 9.5381h36.06l0.20011-2.5486s0.2385-3.0551 0.42249-5.4034c0.36303-0.0326 0.72237-0.0717 1.1014-0.0776 0.37924 6e-3 0.73808 0.0451 1.1013 0.0776 0.18416 2.3483 0.42357 5.4034 0.42357 5.4034l0.20004 2.5486h19.526l-8.9686-46.454h-24.564l-0.43282 2.2414-7.6866 39.813-8.8512-20.802 9.9025-21.252h-17.485l-4.0265 9.5157v-9.5157zm81.332 0v46.454h27.11v-11.083h-9.5065v-35.37zm29.947 0v46.454h18.104v-46.454zm36.641 0v46.454h27.11v-11.083h-9.5065v-35.37zm29.946 0v46.454h18.105v-46.454zm23.153 0v46.454h15.413v-13.329l5.7514 13.329h15.024v-46.454h-15.098v14.901l-6.6098-14.901zm40.573 0v38.028l0.36228 0.63588c3.5956 6.3167 11.216 8.9752 18.54 8.8288 7.3249 0.14654 14.946-2.512 18.541-8.8288l0.36236-0.63588v-38.028h-18.479v36.343c-0.35623 0.40088-0.6394 0.56207-0.75126 0.56341-0.11177-2e-3 -0.39435-0.16222-0.75024-0.56238v-36.344h-14.438zm38.524 0 1.0452 3.5468 5.4392 18.471-6.3648 24.436h17.478l2.3312-9.2319 2.3312 9.2319h17.478l-6.3648-24.436 6.4843-22.018h-17.427l-2.5017 7.3845-2.5017-7.3845h-13.171zm-221.26 21.908c0.50185 2.7894 0.83515 4.6425 1.0666 5.9291-0.26629 0.0569-0.89628 0.26949-1.0666 0.27864-0.1703-9e-3 -0.80029-0.22172-1.0667-0.27864 0.23153-1.2865 0.56483-3.1396 1.0667-5.9291z" color="#000000" color-rendering="auto" dominant-baseline="auto" fill="#fff" image-rendering="auto" shape-rendering="auto" solid-color="#000000" stroke-width=".96786" style="font-feature-settings:normal;font-variant-alternates:normal;font-variant-caps:normal;font-variant-ligatures:normal;font-variant-numeric:normal;font-variant-position:normal;isolation:auto;mix-blend-mode:normal;paint-order:stroke fill markers;shape-padding:0;text-decoration-color:#000000;text-decoration-line:none;text-decoration-style:solid;text-indent:0;text-orientation:mixed;text-transform:none;white-space:normal"/><path transform="matrix(1.4462,0,0,1.4462,-227.46,-127.88)" d="m350.94 262.51v40.981h13.008v-18.253c0-1.0678 1.6071-1.1528 1.8751-0.32152l5.9926 18.574h13.078l-9.5809-22.519 8.6016-18.462h-11.329l-7.1327 16.856c-0.29207 0.6902-1.5041 0.67207-1.5041-0.0881v-16.768zm46.683 0-7.912 40.981h13.638s0.36933-4.7099 0.55391-7.0648c0.0336-0.42783 0.81004-0.71626 1.6567-0.83078 0.68516-0.0927 1.3773-0.13931 2.0769-0.14848 0.69969 9e-3 1.3918 0.0558 2.0769 0.14848 0.84666 0.11452 1.6232 0.40295 1.6566 0.83078 0.18467 2.3548 0.55391 7.0648 0.55391 7.0648h13.638l-7.912-40.981zm34.764 0v40.981h21.61v-5.5609h-7.7143c-1.1627 0-1.8049-0.67881-1.8049-1.8051v-33.615zm29.989 0v40.981h12.591v-40.981zm36.693 0v40.981h21.61v-5.5609h-7.7145c-1.1626 0-1.8047-0.67881-1.8047-1.8051v-33.615zm29.989 0v40.981h12.591v-40.981zm23.186 0v40.981h9.8956v-19.407c0-0.62882 1.364-1.4184 1.896-0.18551l8.4543 19.592h10.455v-40.981h-9.5808v19.235c0 1.0792-1.9934 1.4976-2.6576 0l-8.5319-19.235zm40.185 0v34.579c2.9054 5.104 9.5406 7.5915 16.16 7.445 6.6198 0.14659 13.255-2.3409 16.16-7.445v-34.579h-12.64v34.579c-0.95229 1.5863-2.2386 2.3789-3.521 2.3836-1.2824-5e-3 -2.5684-0.79736-3.5207-2.3836v-34.579h-12.016zm39.956 0 5.6647 19.235-5.6647 21.747h11.763l3.5623-14.109c0.17577-0.69596 0.53292-1.1182 0.92879-1.2697 0.39603 0.15144 0.75344 0.57359 0.9292 1.2697l3.562 14.109h11.763l-5.6644-21.747 5.6644-19.235h-11.763l-3.5915 10.601c-0.1787 0.52731-0.52645 0.83452-0.89972 0.91111-0.3732-0.0767-0.72086-0.38393-0.89948-0.91111l-3.5916-10.601h-11.203zm-225.11 7.5624c0.42526 0.0946 0.82205 0.53727 0.9612 1.3103 0.3113 1.7305 3.2854 18.262 3.2854 18.262-2.049 0.66021-3.1763 0.6422-4.2466 0.6782-1.0703-0.036-2.1977-0.0181-4.2466-0.6782 0 0 2.9742-16.531 3.2854-18.262 0.13923-0.77295 0.53594-1.2156 0.9612-1.3103z" fill="url(#a)" stroke-width=".96923" style="fill:url(#a);paint-order:stroke fill markers"/><path d="m339.06 332.91c-0.78129 0-1.3234 0.54173-1.3234 1.2526s0.54216 1.2599 1.3234 1.2599c0.76721 0 1.3089-0.54896 1.3089-1.2599s-0.54173-1.2526-1.3089-1.2526zm395.4 0.16899c-0.7461 0-1.3301 0.54864-1.3301 1.2666 0 0.48567 0.20423 0.82346 0.54208 1.0558l-0.60566 2.4991h1.2599l0.99941-2.0836c0.32377-0.68276 0.45061-1.056 0.45061-1.4712 0-0.71795-0.56305-1.2666-1.3162-1.2666zm3.2732 0c-0.7461 0-1.3307 0.54864-1.3307 1.2666 0 0.48567 0.21817 0.82346 0.55604 1.0558l-0.61909 2.4991h1.2599l1.0066-2.0836c0.33084-0.68276 0.44339-1.056 0.44339-1.4712 0-0.71795-0.56306-1.2666-1.3162-1.2666zm-459.34 0.11266-1.0067 2.0903c-0.31673 0.66869-0.42941 1.0628-0.42941 1.464 0 0.71794 0.54909 1.2738 1.3022 1.2738 0.76018 0 1.3302-0.55587 1.3302-1.2738 0-0.4716-0.21074-0.82368-0.54158-1.063l0.60513-2.4913zm3.2871 0-0.99941 2.0903c-0.33787 0.66869-0.45061 1.0628-0.45061 1.464 0 0.71794 0.56306 1.2738 1.3162 1.2738 0.74607 0 1.3301-0.55587 1.3301-1.2738 0-0.4716-0.21818-0.82368-0.55602-1.063l0.6196-2.4913zm140.84 0.42892-2.2241 0.23254v10.445h1.9709l0.0842-0.67593c0.43638 0.59126 1.0984 0.91519 1.8516 0.91519 1.9427 0 2.991-1.689 2.991-3.9977 0-2.4283-0.83743-3.9631-2.759-3.9631-0.76017 0-1.4501 0.39396-1.9146 1.0134zm219.61 0-2.2247 0.23254v10.445h1.9709l0.0847-0.67593c0.4364 0.59126 1.0979 0.91519 1.851 0.91519 1.9427 0 2.9915-1.689 2.9915-3.9977 0-2.4283-0.83797-3.9631-2.7595-3.9631-0.76015 0-1.4495 0.39396-1.9141 1.0134zm-346.3 0.0145-2.2241 0.21807v10.445h2.2241v-5.1733c0.42233-0.56308 0.83791-0.90797 1.3095-0.90797 0.54901 0 0.71776 0.30933 0.71776 1.2103v4.871h2.2242v-5.4901c0-1.4148-0.72485-2.2314-2.0552-2.2314-0.83055 0-1.5698 0.32385-2.1962 0.98546zm202.71 0-2.2242 0.21807v10.445h2.2242v-5.1733c0.42233-0.56308 0.83738-0.90797 1.309-0.90797 0.54901 0 0.71829 0.30933 0.71829 1.2103v4.871h2.2242v-5.4901c0-1.4148-0.72488-2.2314-2.0552-2.2314-0.83055 0-1.5698 0.32385-2.1962 0.98546zm202.71 0-2.2241 0.21807v10.445h2.2241v-5.1733c0.42233-0.56308 0.83738-0.90797 1.309-0.90797 0.54904 0 0.71779 0.30933 0.71779 1.2103v4.871h2.2247v-5.4901c0-1.4148-0.72538-2.2314-2.0557-2.2314-0.83055 0-1.5693 0.32385-2.1958 0.98546zm-53.43 0.21807v1.5203h2.203v6.2994c0 1.7456 0.81656 2.8649 2.6184 2.8649 0.95023 0 1.6538-0.225 2.1606-0.49247l-0.53485-1.4852c-0.3097 0.12671-0.67567 0.22532-1.0558 0.22532-0.5983 0-0.96427-0.23236-0.96427-0.8377v-8.0946zm-359.05 1.0842-2.2242 0.26718v1.619h-1.5694v1.5343h1.5694v3.3926c0 1.7174 0.9294 2.7874 2.8861 2.7874 1.0347 0 1.8653-0.29583 2.4495-0.67593l-0.73951-1.4144c-0.35192 0.19709-0.78809 0.33798-1.309 0.33798-0.73906 0-1.063-0.28898-1.063-1.0351v-3.3926h2.189l0.21807-1.5343h-2.4071zm67.571 0-2.2241 0.26718v1.619h-1.5694v1.5343h1.5694v3.3926c0 1.7174 0.92884 2.7874 2.8856 2.7874 1.0347 0 1.8653-0.29583 2.4495-0.67593l-0.73899-1.4144c-0.35192 0.19709-0.78808 0.33798-1.3089 0.33798-0.73906 0-1.063-0.28898-1.063-1.0351v-3.3926h2.189l0.2181-1.5343h-2.4071zm135.14 0-2.2242 0.26718v1.619h-1.5699v1.5343h1.5699v3.3926c0 1.7174 0.92888 2.7874 2.8856 2.7874 1.0347 0 1.8653-0.29583 2.4495-0.67593l-0.73898-1.4144c-0.35192 0.19709-0.78812 0.33798-1.309 0.33798-0.73907 0-1.063-0.28898-1.063-1.0351v-3.3926h2.189l0.21806-1.5343h-2.4071zm185.82 0-2.2242 0.26718v1.619h-1.5694v1.5343h1.5694v3.3926c0 1.7174 0.92938 2.7874 2.8861 2.7874 1.0347 0 1.8653-0.29583 2.4495-0.67593l-0.73898-1.4144c-0.35192 0.19709-0.78862 0.33798-1.3095 0.33798-0.73906 0-1.063-0.28898-1.063-1.0351v-3.3926h2.189l0.21859-1.5343h-2.4076zm-371.95 1.6397c-2.3509 0-3.6458 1.7808-3.6458 3.991 0 2.3228 1.3159 3.9698 3.885 3.9698 1.274 0 2.281-0.42251 2.9848-1.0278l-0.894-1.2103c-0.59124 0.3801-1.2318 0.6191-1.9146 0.6191-0.95022 0-1.6469-0.48524-1.7947-1.71h4.8426c0.0282-0.22524 0.0419-0.54243 0.0419-0.79582 0-2.4072-1.3725-3.836-3.5052-3.836zm16.182 0c-1.9145 0-2.9915 1.6614-2.9915 3.9631 0 2.4213 0.80955 3.9977 2.7311 3.9977 0.87985 0 1.4782-0.35173 1.9146-0.86558v3.512l2.2241 0.23254v-10.593h-1.9425l-0.0987 0.59841c-0.45048-0.54904-1.098-0.84492-1.8371-0.84492zm26.05 0c-2.3509 0-3.6458 1.7808-3.6458 3.991 0 2.3228 1.3159 3.9698 3.885 3.9698 1.274 0 2.2804-0.42251 2.9843-1.0278l-0.894-1.2103c-0.59124 0.3801-1.2314 0.6191-1.9141 0.6191-0.95022 0-1.6474-0.48524-1.7952-1.71h4.8426c0.0281-0.22524 0.0424-0.54243 0.0424-0.79582 0-2.4072-1.3725-3.836-3.5052-3.836zm16.893 0c-2.3509 0-3.6463 1.7808-3.6463 3.991 0 2.3228 1.3164 3.9698 3.8855 3.9698 1.274 0 2.2804-0.42251 2.9843-1.0278l-0.894-1.2103c-0.59123 0.3801-1.2318 0.6191-1.9146 0.6191-0.95022 0-1.6469-0.48524-1.7947-1.71h4.8426c0.0282-0.22524 0.0424-0.54243 0.0424-0.79582 0-2.4072-1.3725-3.836-3.5052-3.836zm33.715 0c-2.2876 0-3.6318 1.605-3.6318 3.977 0 2.5128 1.3443 3.9837 3.6318 3.9837s3.6323-1.499 3.6323-3.9977c0-2.3931-1.3307-3.9631-3.6323-3.9631zm33.856 0c-2.3509 0-3.6458 1.7808-3.6458 3.991 0 2.3228 1.3164 3.9698 3.8855 3.9698 1.274 0 2.2804-0.42251 2.9843-1.0278l-0.894-1.2103c-0.59124 0.3801-1.2318 0.6191-1.9146 0.6191-0.95022 0-1.6469-0.48524-1.7947-1.71h4.8426c0.0282-0.22524 0.0424-0.54243 0.0424-0.79582 0-2.4072-1.373-3.836-3.5057-3.836zm9.0237 0c-2.4072 0-3.9062 1.6965-3.9062 4.0334 0 2.3368 1.4496 3.9274 3.8638 3.9274 1.1614 0 2.1191-0.42238 2.7807-0.98546l-0.99272-1.4077c-0.53493 0.37304-1.0558 0.6408-1.6681 0.6408-0.95022 0-1.6609-0.52099-1.6609-2.1751 0-1.6822 0.66831-2.3229 1.6748-2.3229 0.60535 0 1.1758 0.21132 1.6826 0.56327l0.9643-1.3374c-0.7461-0.61941-1.6051-0.93638-2.7384-0.93638zm7.799 0c-2.2876 0-3.6318 1.605-3.6318 3.977 0 2.5128 1.3443 3.9837 3.6318 3.9837 2.2876 0 3.6318-1.499 3.6318-3.9977 0-2.3931-1.3302-3.9631-3.6318-3.9631zm7.9396 0c-0.66162 0-1.0981 0.33803-1.5627 0.97152l-0.1478-0.72501h-1.633v7.475h1.9358v-5.5113c0.29562-0.37303 0.54184-0.48574 0.77411-0.48574 0.30266 0 0.37309 0.19692 0.37309 0.71778v5.2793h1.5627v-5.5113c0.29562-0.37303 0.54184-0.48574 0.77412-0.48574 0.30266 0 0.37309 0.19692 0.37309 0.71778v5.2793h1.9074v-5.5325c0-1.5415-0.49985-2.189-1.5627-2.189-0.66165 0-1.1964 0.36592-1.6469 0.88677-0.16893-0.61237-0.58412-0.88677-1.1472-0.88677zm9.0232 0c-2.3509 0-3.6458 1.7808-3.6458 3.991 0 2.3228 1.3164 3.9698 3.8856 3.9698 1.274 0 2.2804-0.42251 2.9843-1.0278l-0.894-1.2103c-0.59126 0.3801-1.2318 0.6191-1.9146 0.6191-0.95023 0-1.6469-0.48524-1.7948-1.71h4.8426c0.0282-0.22524 0.0424-0.54243 0.0424-0.79582 0-2.4072-1.373-3.836-3.5057-3.836zm42.232 0c-2.3509 0-3.6458 1.7808-3.6458 3.991 0 2.3228 1.3159 3.9698 3.885 3.9698 1.274 0 2.2804-0.42251 2.9843-1.0278l-0.89347-1.2103c-0.59126 0.3801-1.2319 0.6191-1.9146 0.6191-0.9502 0-1.6474-0.48524-1.7952-1.71h4.8431c0.0281-0.22524 0.0419-0.54243 0.0419-0.79582 0-2.4072-1.3725-3.836-3.5052-3.836zm16.316 0c-0.66161 0-1.0981 0.33803-1.5627 0.97152l-0.1478-0.72501h-1.633v7.475h1.9358v-5.5113c0.29562-0.37303 0.54184-0.48574 0.77412-0.48574 0.30265 0 0.37311 0.19692 0.37311 0.71778v5.2793h1.5627v-5.5113c0.29564-0.37303 0.54184-0.48574 0.77411-0.48574 0.30266 0 0.37312 0.19692 0.37312 0.71778v5.2793h1.9074v-5.5325c0-1.5415-0.49985-2.189-1.5627-2.189-0.66164 0-1.1964 0.36592-1.6469 0.88677-0.16894-0.61237-0.58412-0.88677-1.1472-0.88677zm8.953 0c-2.2876 0-3.6318 1.605-3.6318 3.977 0 2.5128 1.3442 3.9837 3.6318 3.9837s3.6318-1.499 3.6318-3.9977c0-2.3931-1.3302-3.9631-3.6318-3.9631zm16.963 0c-2.3509 0-3.6463 1.7808-3.6463 3.991 0 2.3228 1.3164 3.9698 3.8855 3.9698 1.274 0 2.2804-0.42251 2.9843-1.0278l-0.894-1.2103c-0.59123 0.3801-1.2319 0.6191-1.9146 0.6191-0.95022 0-1.6469-0.48524-1.7947-1.71h4.8426c0.0281-0.22524 0.0424-0.54243 0.0424-0.79582 0-2.4072-1.3725-3.836-3.5052-3.836zm25.269 0c-2.2876 0-3.6318 1.605-3.6318 3.977 0 2.5128 1.3442 3.9837 3.6318 3.9837s3.6318-1.499 3.6318-3.9977c0-2.3931-1.3302-3.9631-3.6318-3.9631zm25.128 0c-0.83055 0-1.9497 0.19002-2.914 0.55605l0.51366 1.4779c0.7461-0.25339 1.5698-0.39378 2.0485-0.39378 0.9643 0 1.4779 0.36595 1.4779 1.1472v0.28162h-1.0067c-2.3087 0-3.639 0.92204-3.639 2.5409 0 1.3796 0.98552 2.3508 2.527 2.3508 0.92911 0 1.8862-0.32358 2.4634-1.0134 0.34489 0.61942 0.95055 0.90102 1.8304 0.98547l0.45736-1.4645c-0.35195-0.12668-0.49249-0.33763-0.49249-0.90072v-2.928c0-1.7104-1.0417-2.6396-3.2659-2.6396zm17.174 0c-2.3509 0-3.6463 1.7808-3.6463 3.991 0 2.3228 1.3164 3.9698 3.8855 3.9698 1.274 0 2.2804-0.42251 2.9843-1.0278l-0.894-1.2103c-0.59124 0.3801-1.2318 0.6191-1.9146 0.6191-0.95022 0-1.6469-0.48524-1.7947-1.71h4.8426c0.0282-0.22524 0.0424-0.54243 0.0424-0.79582 0-2.4072-1.3725-3.836-3.5052-3.836zm16.611 0c-0.83055 0-1.9497 0.19002-2.914 0.55605l0.51367 1.4779c0.74609-0.25339 1.5693-0.39378 2.0479-0.39378 0.9643 0 1.4785 0.36595 1.4785 1.1472v0.28162h-1.0067c-2.3087 0-3.639 0.92204-3.639 2.5409 0 1.3796 0.98552 2.3508 2.527 2.3508 0.92911 0 1.8862-0.32358 2.4634-1.0134 0.34491 0.61942 0.95054 0.90102 1.8304 0.98547l0.45733-1.4645c-0.35192-0.12668-0.49247-0.33763-0.49247-0.90072v-2.928c0-1.7104-1.0417-2.6396-3.266-2.6396zm25.621 0c-2.3509 0-3.6463 1.7808-3.6463 3.991 0 2.3228 1.3164 3.9698 3.8855 3.9698 1.274 0 2.2804-0.42251 2.9843-1.0278l-0.894-1.2103c-0.59124 0.3801-1.2318 0.6191-1.9146 0.6191-0.95022 0-1.6469-0.48524-1.7947-1.71h4.8426c0.0281-0.22524 0.0424-0.54243 0.0424-0.79582 0-2.4072-1.3725-3.836-3.5052-3.836zm25.269 0c-2.2876 0-3.6323 1.605-3.6323 3.977 0 2.5128 1.3448 3.9837 3.6323 3.9837s3.6318-1.499 3.6318-3.9977c0-2.3931-1.3302-3.9631-3.6318-3.9631zm25.409 0c-2.3509 0-3.6463 1.7808-3.6463 3.991 0 2.3228 1.3165 3.9698 3.8856 3.9698 1.274 0 2.2804-0.42251 2.9843-1.0278l-0.894-1.2103c-0.59124 0.3801-1.2313 0.6191-1.9141 0.6191-0.95023 0-1.6474-0.48524-1.7952-1.71h4.8426c0.0282-0.22524 0.0424-0.54243 0.0424-0.79582 0-2.4072-1.3725-3.836-3.5052-3.836zm8.1649 0c-0.83058 0-1.9497 0.19002-2.914 0.55605l0.51366 1.4779c0.7461-0.25339 1.5698-0.39378 2.0484-0.39378 0.96428 0 1.4779 0.36595 1.4779 1.1472v0.28162h-1.0067c-2.3087 0-3.6385 0.92204-3.6385 2.5409 0 1.3796 0.98499 2.3508 2.5264 2.3508 0.92911 0 1.8868-0.32358 2.4639-1.0134 0.34491 0.61942 0.95004 0.90102 1.8299 0.98547l0.45733-1.4645c-0.35192-0.12668-0.49247-0.33763-0.49247-0.90072v-2.928c0-1.7104-1.0417-2.6396-3.2659-2.6396zm-343.62 0.0212c-1.2036 0-2.0132 0.62635-2.5482 1.9074l-0.40825-1.6821h-2.6815v1.4779h0.98547v4.5046h-0.98547v1.4924h4.6876v-1.4924h-1.478v-2.1394c0.35192-1.1121 1.0064-1.9427 1.851-2.0975v1.3792h1.3937l0.41547-3.1249c-0.35195-0.14079-0.72519-0.22532-1.232-0.22532zm168.93 0c-1.2036 0-2.0132 0.62635-2.5481 1.9074l-0.40826-1.6821h-2.6815v1.4779h0.98547v4.5046h-0.98547v1.4924h4.6876v-1.4924h-1.478v-2.1394c0.35192-1.1121 1.0064-1.9427 1.851-2.0975v1.3792h1.3937l0.41495-3.1249c-0.35193-0.14079-0.72467-0.22532-1.2315-0.22532zm67.571 0c-1.2036 0-2.0132 0.62635-2.5482 1.9074l-0.40825-1.6821h-2.6815v1.4779h0.98547v4.5046h-0.98547v1.4924h4.6876v-1.4924h-1.478v-2.1394c0.35195-1.1121 1.0064-1.9427 1.851-2.0975v1.3792h1.3937l0.41497-3.1249c-0.35194-0.14079-0.72466-0.22532-1.2314-0.22532zm118.25 0c-1.2036 0-2.0132 0.62635-2.5482 1.9074l-0.40826-1.6821h-2.6815v1.4779h0.98547v4.5046h-0.98547v1.4924h4.6876v-1.4924h-1.478v-2.1394c0.35195-1.1121 1.0064-1.9427 1.851-2.0975v1.3792h1.3937l0.41547-3.1249c-0.35192-0.14079-0.72517-0.22532-1.232-0.22532zm-402.69 0.22532v5.3914c0 1.4218 0.68998 2.3228 2.1399 2.3228 0.90096 0 1.7877-0.38004 2.2944-1.1121l0.0987 0.87281h1.9425v-7.475h-2.2242v5.2575c-0.3097 0.49978-0.80957 0.80979-1.2671 0.80979-0.47863 0-0.76014-0.22535-0.76014-0.95033v-5.117zm8.7421 0v1.5203h2.0479v4.4344h-2.1182v1.5203h6.243v-1.5203h-1.9007v-5.9547zm49.791 0 2.3719 7.475h0.76017c-0.40825 0.9643-0.93602 1.3797-2.4071 1.5627l0.25321 1.5694c2.2735-0.12668 3.5267-1.1472 4.1884-3.1321l2.4913-7.475h-2.2805l-1.5766 6.0534-1.45-6.0534zm17.484 0v5.3914c0 1.4218 0.68943 2.3228 2.1394 2.3228 0.90096 0 1.7882-0.38004 2.295-1.1121l0.0982 0.87281h1.943v-7.475h-2.2247v5.2575c-0.3097 0.49978-0.80907 0.80979-1.2666 0.80979-0.47863 0-0.76018-0.22535-0.76018-0.95033v-5.117zm159.89 0 2.3719 7.475h0.76018c-0.40826 0.9643-0.93652 1.3797-2.4076 1.5627l0.25374 1.5694c2.2735-0.12668 3.5262-1.1472 4.1878-3.1321l2.4918-7.475h-2.2805l-1.5766 6.0534-1.45-6.0534zm17.484 0v5.3914c0 1.4218 0.68995 2.3228 2.1399 2.3228 0.90093 0 1.7876-0.38004 2.2944-1.1121l0.0987 0.87281h1.9425v-7.475h-2.2242v5.2575c-0.30969 0.49978-0.8096 0.80979-1.2671 0.80979-0.47863 0-0.76017-0.22535-0.76017-0.95033v-5.117zm-275.42 1.2459c0.95022 0 1.3233 0.71802 1.3374 1.802h-2.7451c0.0985-1.2529 0.61228-1.802 1.4077-1.802zm42.232 0c0.95019 0 1.3233 0.71802 1.3374 1.802h-2.745c0.0985-1.2529 0.6123-1.802 1.4077-1.802zm16.893 0c0.95022 0 1.3233 0.71802 1.3374 1.802h-2.7456c0.0985-1.2529 0.61282-1.802 1.4082-1.802zm67.571 0c0.95023 0 1.3228 0.71802 1.3369 1.802h-2.745c0.0985-1.2529 0.6128-1.802 1.4082-1.802zm33.785 0c0.95022 0 1.3233 0.71802 1.3374 1.802h-2.7451c0.0985-1.2529 0.6123-1.802 1.4077-1.802zm42.232 0c0.95022 0 1.3233 0.71802 1.3374 1.802h-2.7451c0.0985-1.2529 0.6123-1.802 1.4077-1.802zm42.232 0c0.95022 0 1.3233 0.71802 1.3374 1.802h-2.7451c0.0985-1.2529 0.6123-1.802 1.4077-1.802zm67.571 0c0.95023 0 1.3233 0.71802 1.3374 1.802h-2.745c0.0985-1.2529 0.6123-1.802 1.4077-1.802zm42.232 0c0.95023 0 1.3233 0.71802 1.3374 1.802h-2.7456c0.0985-1.2529 0.6128-1.802 1.4082-1.802zm50.678 0c0.95023 0 1.3233 0.71802 1.3374 1.802h-2.745c0.0985-1.2529 0.6123-1.802 1.4077-1.802zm-388.66 0.13332c0.45752 0 0.77407 0.22527 1.0697 0.61238v3.2241c-0.30972 0.53496-0.69696 0.85164-1.2108 0.85164-0.68977 0-1.14-0.49268-1.14-2.3368 0-1.6822 0.46459-2.3513 1.2811-2.3513zm76.073 0.0145c0.908 0 1.3374 0.71102 1.3374 2.3229 0 1.6682-0.42939 2.3647-1.3374 2.3647s-1.3374-0.69667-1.3374-2.3507c0-1.626 0.42939-2.3368 1.3374-2.3368zm25.536 0c0.70387 0 1.1684 0.49255 1.1684 2.3508 0 1.6822-0.49271 2.3508-1.2811 2.3508-0.48567 0-0.81658-0.23923-1.0981-0.68265v-3.1533c0.32377-0.53494 0.71104-0.86559 1.2108-0.86559zm25.142 0c0.90797 0 1.3374 0.71102 1.3374 2.3229 0 1.6682-0.42941 2.3647-1.3374 2.3647-0.908 0-1.3374-0.69667-1.3374-2.3507 0-1.626 0.42939-2.3368 1.3374-2.3368zm84.464 0c0.90799 0 1.3374 0.71102 1.3374 2.3229 0 1.6682-0.4294 2.3647-1.3374 2.3647-0.90797 0-1.3374-0.69667-1.3374-2.3507 0-1.626 0.42942-2.3368 1.3374-2.3368zm42.232 0c0.90799 0 1.3374 0.71102 1.3374 2.3229 0 1.6682-0.4294 2.3647-1.3374 2.3647s-1.3374-0.69667-1.3374-2.3507c0-1.626 0.42939-2.3368 1.3374-2.3368zm67.768 0c0.70385 0 1.1684 0.49255 1.1684 2.3508 0 1.6822-0.49273 2.3508-1.2811 2.3508-0.48567 0-0.81608-0.23923-1.0976-0.68265v-3.1533c0.32377-0.53494 0.71051-0.86559 1.2102-0.86559zm42.035 0c0.908 0 1.3369 0.71102 1.3369 2.3229 0 1.6682-0.42889 2.3647-1.3369 2.3647-0.90797 0-1.3374-0.69667-1.3374-2.3507 0-1.626 0.42942-2.3368 1.3374-2.3368zm-84.098 2.6954h0.5493v1.2108c-0.2745 0.5279-0.8727 0.82373-1.3513 0.82373-0.63346 0-0.99941-0.33803-0.99941-0.9152 0-0.73202 0.56264-1.1193 1.8014-1.1193zm33.786 0h0.54933v1.2108c-0.27451 0.5279-0.8727 0.82373-1.3513 0.82373-0.6335 0-0.99944-0.33803-0.99944-0.9152 0-0.73202 0.56264-1.1193 1.8014-1.1193zm84.464 0h0.5488v1.2108c-0.2745 0.5279-0.8727 0.82373-1.3513 0.82373-0.63349 0-0.99941-0.33803-0.99944-0.9152 0-0.73202 0.56317-1.1193 1.802-1.1193zm-245.31 0.48578c-0.86574 0-1.5203 0.66191-1.5203 1.5136 0 0.5279 0.2323 0.9924 0.6687 1.2599l-0.71778 2.9915h1.4779l1.0206-2.3017c0.40119-0.92207 0.60513-1.3797 0.60513-1.9358 0-0.86574-0.65445-1.5275-1.5343-1.5275z" style="filter:url(#h)"/><path transform="scale(.26458)" d="m1281.5 1252.2c-2.9529 0-5.002 2.0475-5.002 4.7344s2.0491 4.7617 5.002 4.7617c2.8997 0 4.9472-2.0748 4.9472-4.7617s-2.0475-4.7344-4.9472-4.7344zm1494.4 0.6387c-2.8199 0-5.0273 2.0736-5.0273 4.7871 0 1.8356 0.7719 3.1123 2.0488 3.9903l-2.2891 9.4453h4.7618l3.7773-7.875c1.2237-2.5805 1.7031-3.991 1.7031-5.5606 0-2.7135-2.1281-4.7871-4.9746-4.7871zm12.371 0c-2.8199 0-5.0293 2.0736-5.0293 4.7871 0 1.8356 0.8246 3.1123 2.1016 3.9903l-2.3399 9.4453h4.7618l3.8046-7.875c1.2504-2.5805 1.6758-3.991 1.6758-5.5606 0-2.7135-2.1281-4.7871-4.9746-4.7871zm-1736.1 0.4258-3.8047 7.9004c-1.1971 2.5273-1.623 4.0168-1.623 5.5332 0 2.7135 2.0753 4.8144 4.9218 4.8144 2.8731 0 5.0274-2.1009 5.0274-4.8144 0-1.7824-0.7965-3.1131-2.0469-4.0176l2.2871-9.416h-4.7617zm12.424 0-3.7773 7.9004c-1.277 2.5273-1.7031 4.0168-1.7031 5.5332 0 2.7135 2.1281 4.8144 4.9746 4.8144 2.8198 0 5.0273-2.1009 5.0273-4.8144 0-1.7824-0.8246-3.1131-2.1015-4.0176l2.3418-9.416h-4.7618zm532.32 1.6211-8.4062 0.8789v39.478h7.4492l0.3184-2.5547c1.6493 2.2347 4.1515 3.459 6.998 3.459 7.3424 0 11.305-6.3836 11.305-15.109 0-9.1779-3.1651-14.978-10.428-14.978-2.8731 0-5.4806 1.489-7.2364 3.8301v-15.004zm830.01 0-8.4082 0.8789v39.478h7.4492l0.3203-2.5547c1.6494 2.2347 4.1496 3.459 6.9961 3.459 7.3424 0 11.307-6.3836 11.307-15.109 0-9.1779-3.1671-14.978-10.43-14.978-2.873 0-5.4786 1.489-7.2343 3.8301v-15.004zm-1308.9 0.0547-8.4062 0.8242v39.478h8.4062v-19.553c1.5962-2.1282 3.1669-3.4317 4.9493-3.4317 2.075 0 2.7128 1.1691 2.7128 4.5743v18.41h8.4063v-20.75c0-5.3472-2.7396-8.4336-7.7676-8.4336-3.1391 0-5.9331 1.224-8.3008 3.7246v-14.844zm766.16 0-8.4063 0.8242v39.478h8.4063v-19.553c1.5962-2.1282 3.1649-3.4317 4.9473-3.4317 2.075 0 2.7148 1.1691 2.7148 4.5743v18.41h8.4063v-20.75c0-5.3472-2.7397-8.4336-7.7676-8.4336-3.1391 0-5.9332 1.224-8.3008 3.7246v-14.844zm766.16 0-8.4062 0.8242v39.478h8.4062v-19.553c1.5962-2.1282 3.1649-3.4317 4.9473-3.4317 2.0751 0 2.7129 1.1691 2.7129 4.5743v18.41h8.4082v-20.75c0-5.3472-2.7416-8.4336-7.7695-8.4336-3.1391 0-5.9312 1.224-8.2989 3.7246v-14.844zm-201.94 0.8242v5.7461h8.3262v23.809c0 6.5975 3.0862 10.828 9.8965 10.828 3.5914 0 6.2506-0.8504 8.166-1.8613l-2.0215-5.6133c-1.1705 0.4789-2.5537 0.8516-3.9902 0.8516-2.2613 0-3.6445-0.8782-3.6445-3.1661v-30.594h-16.732zm-1357 4.0976-8.4063 1.0098v6.1192h-5.9316v5.7988h5.9316v12.822c0 6.4911 3.5127 10.535 10.908 10.535 3.9106 0 7.0498-1.1181 9.2579-2.5547l-2.795-5.3457c-1.3301 0.7449-2.9786 1.2774-4.9472 1.2774-2.7933 0-4.0176-1.0922-4.0176-3.9122v-12.822h8.2734l0.8242-5.7988h-9.0976v-7.129zm255.39 0-8.4062 1.0098v6.1192h-5.9317v5.7988h5.9317v12.822c0 6.4911 3.5106 10.535 10.906 10.535 3.9106 0 7.0498-1.1181 9.2578-2.5547l-2.793-5.3457c-1.3301 0.7449-2.9786 1.2774-4.9472 1.2774-2.7933 0-4.0176-1.0922-4.0176-3.9122v-12.822h8.2734l0.8243-5.7988h-9.0977v-7.129zm510.77 0-8.4062 1.0098v6.1192h-5.9336v5.7988h5.9336v12.822c0 6.4911 3.5107 10.535 10.906 10.535 3.9106 0 7.0498-1.1181 9.2579-2.5547l-2.793-5.3457c-1.3301 0.7449-2.9787 1.2774-4.9473 1.2774-2.7933 0-4.0176-1.0922-4.0176-3.9122v-12.822h8.2735l0.8242-5.7988h-9.0977v-7.129zm702.31 0-8.4062 1.0098v6.1192h-5.9316v5.7988h5.9316v12.822c0 6.4911 3.5126 10.535 10.908 10.535 3.9106 0 7.0498-1.1181 9.2578-2.5547l-2.793-5.3457c-1.3301 0.7449-2.9806 1.2774-4.9492 1.2774-2.7933 0-4.0176-1.0922-4.0176-3.9122v-12.822h8.2735l0.8262-5.7988h-9.0997v-7.129zm-1405.8 6.1973c-8.8854 0-13.779 6.7307-13.779 15.084 0 8.7789 4.9735 15.004 14.684 15.004 4.8151 0 8.621-1.5969 11.281-3.8848l-3.3789-4.5742c-2.2346 1.4366-4.6558 2.3399-7.2363 2.3399-3.5914 0-6.2245-1.834-6.7832-6.4629h18.303c0.1066-0.8513 0.1582-2.0501 0.1582-3.0078 0-9.0982-5.1874-14.498-13.248-14.498zm61.16 0c-7.236 0-11.307 6.2794-11.307 14.978 0 9.1514 3.0597 15.109 10.322 15.109 3.3254 0 5.587-1.3294 7.2364-3.2715v13.274l8.4062 0.8789v-40.037h-7.3418l-0.373 2.2617c-1.7026-2.0751-4.1501-3.1934-6.9434-3.1934zm98.457 0c-8.8854 0-13.779 6.7307-13.779 15.084 0 8.7789 4.9735 15.004 14.684 15.004 4.8151 0 8.619-1.5969 11.279-3.8848l-3.3789-4.5742c-2.2346 1.4366-4.6539 2.3399-7.2343 2.3399-3.5914 0-6.2265-1.834-6.7852-6.4629h18.303c0.1063-0.8513 0.1602-2.0501 0.1602-3.0078 0-9.0982-5.1874-14.498-13.248-14.498zm63.848 0c-8.8853 0-13.781 6.7307-13.781 15.084 0 8.7789 4.9754 15.004 14.686 15.004 4.8151 0 8.619-1.5969 11.279-3.8848l-3.3789-4.5742c-2.2346 1.4366-4.6558 2.3399-7.2363 2.3399-3.5914 0-6.2245-1.834-6.7832-6.4629h18.303c0.1066-0.8513 0.1602-2.0501 0.1602-3.0078 0-9.0982-5.1874-14.498-13.248-14.498zm127.43 0c-8.6459 0-13.727 6.0661-13.727 15.031 0 9.4972 5.0807 15.057 13.727 15.057s13.728-5.6654 13.728-15.109c0-9.0449-5.0294-14.978-13.728-14.978zm127.96 0c-8.8854 0-13.779 6.7307-13.779 15.084 0 8.7789 4.9755 15.004 14.686 15.004 4.8151 0 8.619-1.5969 11.279-3.8848l-3.3789-4.5742c-2.2346 1.4366-4.6558 2.3399-7.2363 2.3399-3.5914 0-6.2246-1.834-6.7832-6.4629h18.303c0.1066-0.8513 0.1602-2.0501 0.1602-3.0078 0-9.0982-5.1893-14.498-13.25-14.498zm34.105 0c-9.0981 0-14.764 6.412-14.764 15.244 0 8.8321 5.4787 14.844 14.604 14.844 4.3895 0 8.0091-1.5964 10.51-3.7246l-3.752-5.3203c-2.0218 1.4099-3.9903 2.4219-6.3047 2.4219-3.5914 0-6.2773-1.9691-6.2773-8.2207 0-6.3581 2.5259-8.7793 6.33-8.7793 2.2879 0 4.444 0.7987 6.3594 2.1289l3.6446-5.0547c-2.8199-2.3411-6.0666-3.5391-10.35-3.5391zm29.477 0c-8.6459 0-13.727 6.0661-13.727 15.031 0 9.4972 5.0807 15.057 13.727 15.057s13.727-5.6654 13.727-15.109c0-9.0449-5.0275-14.978-13.727-14.978zm30.008 0c-2.5006 0-4.1504 1.2776-5.9062 3.6719l-0.5586-2.7402h-6.1719v28.252h7.3164v-20.83c1.1173-1.4099 2.0479-1.8359 2.9258-1.8359 1.1439 0 1.4101 0.7443 1.4101 2.7129v19.953h5.9063v-20.83c1.1173-1.4099 2.0479-1.8359 2.9258-1.8359 1.1439 0 1.4101 0.7443 1.4101 2.7129v19.953h7.209v-20.91c0-5.8261-1.8892-8.2735-5.9062-8.2735-2.5007 0-4.522 1.383-6.2246 3.3516-0.6385-2.3145-2.2077-3.3516-4.336-3.3516zm34.104 0c-8.8853 0-13.779 6.7307-13.779 15.084 0 8.7789 4.9755 15.004 14.686 15.004 4.8151 0 8.619-1.5969 11.279-3.8848l-3.3789-4.5742c-2.2347 1.4366-4.6558 2.3399-7.2363 2.3399-3.5914 0-6.2246-1.834-6.7833-6.4629h18.303c0.1066-0.8513 0.1601-2.0501 0.1601-3.0078 0-9.0982-5.1893-14.498-13.25-14.498zm159.62 0c-8.8853 0-13.779 6.7307-13.779 15.084 0 8.7789 4.9736 15.004 14.684 15.004 4.8151 0 8.619-1.5969 11.279-3.8848l-3.3769-4.5742c-2.2347 1.4366-4.6559 2.3399-7.2364 2.3399-3.5913 0-6.2265-1.834-6.7851-6.4629h18.305c0.1062-0.8513 0.1582-2.0501 0.1582-3.0078 0-9.0982-5.1874-14.498-13.248-14.498zm61.666 0c-2.5006 0-4.1504 1.2776-5.9062 3.6719l-0.5586-2.7402h-6.1719v28.252h7.3164v-20.83c1.1173-1.4099 2.0479-1.8359 2.9258-1.8359 1.1439 0 1.4102 0.7443 1.4102 2.7129v19.953h5.9062v-20.83c1.1174-1.4099 2.0479-1.8359 2.9258-1.8359 1.1439 0 1.4102 0.7443 1.4102 2.7129v19.953h7.2089v-20.91c0-5.8261-1.8892-8.2735-5.9062-8.2735-2.5007 0-4.522 1.383-6.2246 3.3516-0.6385-2.3145-2.2077-3.3516-4.336-3.3516zm33.838 0c-8.6459 0-13.726 6.0661-13.726 15.031 0 9.4972 5.0806 15.057 13.726 15.057s13.727-5.6654 13.727-15.109c0-9.0449-5.0275-14.978-13.727-14.978zm64.113 0c-8.8853 0-13.781 6.7307-13.781 15.084 0 8.7789 4.9755 15.004 14.686 15.004 4.8151 0 8.619-1.5969 11.279-3.8848l-3.3789-4.5742c-2.2346 1.4366-4.6559 2.3399-7.2363 2.3399-3.5914 0-6.2246-1.834-6.7832-6.4629h18.303c0.1062-0.8513 0.1602-2.0501 0.1602-3.0078 0-9.0982-5.1874-14.498-13.248-14.498zm95.504 0c-8.6459 0-13.726 6.0661-13.726 15.031 0 9.4972 5.0806 15.057 13.726 15.057 8.646 0 13.727-5.6654 13.727-15.109 0-9.0449-5.0275-14.978-13.727-14.978zm94.973 0c-3.1391 0-7.3691 0.7182-11.014 2.1016l1.9414 5.5859c2.8199-0.9577 5.9332-1.4883 7.7422-1.4883 3.6446 0 5.5859 1.3831 5.5859 4.336v1.0644h-3.8047c-8.7257 0-13.754 3.4849-13.754 9.6035 0 5.2142 3.7248 8.8848 9.5508 8.8848 3.5116 0 7.1291-1.223 9.3106-3.8301 1.3035 2.3411 3.5926 3.4054 6.9179 3.7246l1.7286-5.5351c-1.3302-0.4788-1.8614-1.2761-1.8614-3.4043v-11.066c0-6.4645-3.9372-9.9766-12.344-9.9766zm64.91 0c-8.8853 0-13.781 6.7307-13.781 15.084 0 8.7789 4.9755 15.004 14.686 15.004 4.8151 0 8.619-1.5969 11.279-3.8848l-3.3789-4.5742c-2.2346 1.4366-4.6558 2.3399-7.2363 2.3399-3.5914 0-6.2246-1.834-6.7832-6.4629h18.303c0.1066-0.8513 0.1602-2.0501 0.1602-3.0078 0-9.0982-5.1874-14.498-13.248-14.498zm62.783 0c-3.1391 0-7.3691 0.7182-11.014 2.1016l1.9414 5.5859c2.8199-0.9577 5.9312-1.4883 7.7402-1.4883 3.6446 0 5.5879 1.3831 5.5879 4.336v1.0644h-3.8047c-8.7257 0-13.754 3.4849-13.754 9.6035 0 5.2142 3.7248 8.8848 9.5508 8.8848 3.5116 0 7.1291-1.223 9.3105-3.8301 1.3036 2.3411 3.5926 3.4054 6.918 3.7246l1.7285-5.5351c-1.3301-0.4788-1.8613-1.2761-1.8613-3.4043v-11.066c0-6.4645-3.9373-9.9766-12.344-9.9766zm96.834 0c-8.8853 0-13.781 6.7307-13.781 15.084 0 8.7789 4.9755 15.004 14.686 15.004 4.8151 0 8.619-1.5969 11.279-3.8848l-3.3789-4.5742c-2.2346 1.4366-4.6558 2.3399-7.2363 2.3399-3.5914 0-6.2245-1.834-6.7832-6.4629h18.303c0.1062-0.8513 0.1602-2.0501 0.1602-3.0078 0-9.0982-5.1874-14.498-13.248-14.498zm95.504 0c-8.6459 0-13.728 6.0661-13.728 15.031 0 9.4972 5.0826 15.057 13.728 15.057s13.727-5.6654 13.727-15.109c0-9.0449-5.0275-14.978-13.727-14.978zm96.035 0c-8.8854 0-13.781 6.7307-13.781 15.084 0 8.7789 4.9756 15.004 14.686 15.004 4.8151 0 8.619-1.5969 11.279-3.8848l-3.3789-4.5742c-2.2346 1.4366-4.6539 2.3399-7.2344 2.3399-3.5914 0-6.2265-1.834-6.7852-6.4629h18.303c0.1066-0.8513 0.1601-2.0501 0.1601-3.0078 0-9.0982-5.1874-14.498-13.248-14.498zm30.859 0c-3.1392 0-7.3691 0.7182-11.014 2.1016l1.9414 5.5859c2.8199-0.9577 5.9332-1.4883 7.7422-1.4883 3.6445 0 5.5859 1.3831 5.5859 4.336v1.0644h-3.8047c-8.7257 0-13.752 3.4849-13.752 9.6035 0 5.2142 3.7228 8.8848 9.5488 8.8848 3.5116 0 7.1311-1.223 9.3125-3.8301 1.3036 2.3411 3.5907 3.4054 6.916 3.7246l1.7285-5.5351c-1.3301-0.4788-1.8613-1.2761-1.8613-3.4043v-11.066c0-6.4645-3.9372-9.9766-12.344-9.9766zm-1298.7 0.0801c-4.5491 0-7.6091 2.3673-9.6309 7.209l-1.543-6.3574h-10.135v5.5859h3.7246v17.025h-3.7246v5.6406h17.717v-5.6406h-5.586v-8.086c1.3301-4.2032 3.8038-7.3424 6.9961-7.9277v5.2129h5.2676l1.5703-11.81c-1.3302-0.5321-2.7409-0.8516-4.6562-0.8516zm638.47 0c-4.549 0-7.609 2.3673-9.6308 7.209l-1.543-6.3574h-10.135v5.5859h3.7246v17.025h-3.7246v5.6406h17.717v-5.6406h-5.586v-8.086c1.3301-4.2032 3.8038-7.3424 6.9961-7.9277v5.2129h5.2676l1.5683-11.81c-1.3301-0.5321-2.7389-0.8516-4.6543-0.8516zm255.39 0c-4.5491 0-7.6091 2.3673-9.6309 7.209l-1.543-6.3574h-10.135v5.5859h3.7246v17.025h-3.7246v5.6406h17.717v-5.6406h-5.586v-8.086c1.3302-4.2032 3.8038-7.3424 6.9961-7.9277v5.2129h5.2676l1.5684-11.81c-1.3302-0.5321-2.7389-0.8516-4.6543-0.8516zm446.93 0c-4.5491 0-7.6091 2.3673-9.6309 7.209l-1.543-6.3574h-10.135v5.5859h3.7246v17.025h-3.7246v5.6406h17.717v-5.6406h-5.586v-8.086c1.3302-4.2032 3.8038-7.3424 6.9961-7.9277v5.2129h5.2676l1.5703-11.81c-1.3301-0.5321-2.7408-0.8516-4.6562-0.8516zm-1522 0.8516v20.377c0 5.3738 2.6078 8.7793 8.0879 8.7793 3.4052 0 6.7565-1.4364 8.6719-4.2031l0.3731 3.2988h7.3418v-28.252h-8.4063v19.871c-1.1705 1.8889-3.0598 3.0606-4.7891 3.0606-1.809 0-2.873-0.8517-2.873-3.5918v-19.34h-8.4063zm33.041 0v5.746h7.7402v16.76h-8.0059v5.7461h23.596v-5.7461h-7.1836v-22.506h-16.146zm188.19 0 8.9648 28.252h2.8731c-1.543 3.6446-3.5377 5.2146-9.0977 5.9063l0.957 5.9316c8.5927-0.4788 13.329-4.3359 15.83-11.838l9.416-28.252h-8.6191l-5.959 22.879-5.4805-22.879h-8.8847zm66.082 0v20.377c0 5.3738 2.6057 8.7793 8.0859 8.7793 3.4052 0 6.7584-1.4364 8.6739-4.2031l0.3711 3.2988h7.3437v-28.252h-8.4082v19.871c-1.1705 1.8889-3.0579 3.0606-4.7871 3.0606-1.809 0-2.8731-0.8517-2.8731-3.5918v-19.34h-8.4062zm604.31 0 8.9648 28.252h2.8731c-1.543 3.6446-3.5396 5.2146-9.0996 5.9063l0.959 5.9316c8.5927-0.4788 13.327-4.3359 15.828-11.838l9.4179-28.252h-8.6191l-5.959 22.879-5.4804-22.879h-8.8848zm66.08 0v20.377c0 5.3738 2.6077 8.7793 8.0879 8.7793 3.4051 0 6.7564-1.4364 8.6718-4.2031l0.3731 3.2988h7.3418v-28.252h-8.4063v19.871c-1.1705 1.8889-3.0599 3.0606-4.789 3.0606-1.809 0-2.8731-0.8517-2.8731-3.5918v-19.34h-8.4062zm-1041 4.7089c3.5914 0 5.0014 2.7138 5.0547 6.8106h-10.375c0.3722-4.7353 2.3141-6.8106 5.3203-6.8106zm159.62 0c3.5913 0 5.0014 2.7138 5.0546 6.8106h-10.375c0.3723-4.7353 2.3142-6.8106 5.3204-6.8106zm63.848 0c3.5914 0 5.0015 2.7138 5.0547 6.8106h-10.377c0.3723-4.7353 2.3162-6.8106 5.3223-6.8106zm255.39 0c3.5914 0 4.9995 2.7138 5.0528 6.8106h-10.375c0.3722-4.7353 2.3161-6.8106 5.3222-6.8106zm127.69 0c3.5914 0 5.0015 2.7138 5.0547 6.8106h-10.375c0.3723-4.7353 2.3142-6.8106 5.3203-6.8106zm159.62 0c3.5914 0 5.0015 2.7138 5.0547 6.8106h-10.375c0.3723-4.7353 2.3142-6.8106 5.3203-6.8106zm159.62 0c3.5914 0 5.0015 2.7138 5.0547 6.8106h-10.375c0.3723-4.7353 2.3142-6.8106 5.3203-6.8106zm255.39 0c3.5914 0 5.0015 2.7138 5.0547 6.8106h-10.375c0.3723-4.7353 2.3142-6.8106 5.3203-6.8106zm159.62 0c3.5914 0 5.0015 2.7138 5.0547 6.8106h-10.377c0.3722-4.7353 2.3161-6.8106 5.3222-6.8106zm191.54 0c3.5914 0 5.0015 2.7138 5.0547 6.8106h-10.375c0.3723-4.7353 2.3142-6.8106 5.3203-6.8106zm-1469 0.5039c1.7292 0 2.9256 0.8514 4.043 2.3145v12.186c-1.1706 2.0219-2.6342 3.2188-4.5762 3.2188-2.607 0-4.3086-1.8621-4.3086-8.832 0-6.3581 1.7559-8.8868 4.8418-8.8868zm287.52 0.0547c3.4318 0 5.0547 2.6873 5.0547 8.7793 0 6.3049-1.6229 8.9375-5.0547 8.9375s-5.0547-2.6331-5.0547-8.8847c0-6.1453 1.6229-8.8321 5.0547-8.8321zm96.516 0c2.6603 0 4.416 1.8616 4.416 8.8848 0 6.3581-1.8622 8.8848-4.8418 8.8848-1.8356 0-3.0863-0.9042-4.1504-2.5801v-11.918c1.2237-2.0218 2.6874-3.2715 4.5762-3.2715zm95.025 0c3.4317 0 5.0547 2.6873 5.0547 8.7793 0 6.3049-1.623 8.9375-5.0547 8.9375-3.4318 0-5.0547-2.6331-5.0547-8.8847 0-6.1453 1.6229-8.8321 5.0547-8.8321zm319.23 0c3.4318 0 5.0547 2.6873 5.0547 8.7793 0 6.3049-1.6229 8.9375-5.0547 8.9375-3.4317 0-5.0547-2.6331-5.0547-8.8847 0-6.1453 1.623-8.8321 5.0547-8.8321zm159.62 0c3.4318 0 5.0547 2.6873 5.0547 8.7793 0 6.3049-1.6229 8.9375-5.0547 8.9375s-5.0547-2.6331-5.0547-8.8847c0-6.1453 1.6229-8.8321 5.0547-8.8321zm256.13 0c2.6602 0 4.416 1.8616 4.416 8.8848 0 6.3581-1.8623 8.8848-4.8418 8.8848-1.8356 0-3.0844-0.9042-4.1484-2.5801v-11.918c1.2237-2.0218 2.6854-3.2715 4.5742-3.2715zm158.87 0c3.4318 0 5.0528 2.6873 5.0528 8.7793 0 6.3049-1.621 8.9375-5.0528 8.9375-3.4317 0-5.0547-2.6331-5.0547-8.8847 0-6.1453 1.623-8.8321 5.0547-8.8321zm-317.85 10.188h2.0761v4.5762c-1.0375 1.9952-3.2984 3.1133-5.1074 3.1133-2.3942 0-3.7773-1.2776-3.7773-3.459 0-2.7667 2.1265-4.2305 6.8086-4.2305zm127.69 0h2.0762v4.5762c-1.0375 1.9952-3.2984 3.1133-5.1074 3.1133-2.3943 0-3.7774-1.2776-3.7774-3.459 0-2.7667 2.1265-4.2305 6.8086-4.2305zm319.23 0h2.0742v4.5762c-1.0375 1.9952-3.2984 3.1133-5.1074 3.1133-2.3943 0-3.7773-1.2776-3.7774-3.459 0-2.7667 2.1285-4.2305 6.8106-4.2305zm-927.16 1.836c-3.2721 0-5.7461 2.5017-5.7461 5.7207 0 1.9952 0.878 3.7508 2.5274 4.7617l-2.7129 11.307h5.5859l3.8575-8.6992c1.5163-3.485 2.2871-5.2147 2.2871-7.3164 0-3.2721-2.4735-5.7734-5.7989-5.7734z" style="fill:#fff"/><path transform="scale(.26458)" d="m2813.5 936.49v4.084h13.104v35.281h4.7071v-35.281h13.16v-4.084h-30.971zm36.756 0v39.365h4.4805v-30.912l12.764 24.787h3.6856l12.877-25.299v31.424h4.4805v-39.365h-4.6504l-14.408 28.191-14.406-28.191h-4.8222z" style="fill:#fff"/></svg>
